G04 #@! TF.GenerationSoftware,KiCad,Pcbnew,5.1.9+dfsg1-1+deb11u1*
G04 #@! TF.CreationDate,2023-07-29T01:51:38+09:00*
G04 #@! TF.ProjectId,logo-plate,6c6f676f-2d70-46c6-9174-652e6b696361,rev?*
G04 #@! TF.SameCoordinates,Original*
G04 #@! TF.FileFunction,Soldermask,Top*
G04 #@! TF.FilePolarity,Negative*
%FSLAX46Y46*%
G04 Gerber Fmt 4.6, Leading zero omitted, Abs format (unit mm)*
G04 Created by KiCad (PCBNEW 5.1.9+dfsg1-1+deb11u1) date 2023-07-29 01:51:38*
%MOMM*%
%LPD*%
G01*
G04 APERTURE LIST*
%ADD10C,0.300000*%
%ADD11C,1.000000*%
%ADD12C,0.010000*%
G04 APERTURE END LIST*
D10*
X207148988Y-87630952D02*
X205958511Y-87630952D01*
X206271011Y-85130952D01*
X207982321Y-87630952D02*
X208190654Y-85964285D01*
X208294821Y-85130952D02*
X208160892Y-85250000D01*
X208265059Y-85369047D01*
X208398988Y-85250000D01*
X208294821Y-85130952D01*
X208265059Y-85369047D01*
X209023988Y-85964285D02*
X209976369Y-85964285D01*
X209485297Y-85130952D02*
X209217440Y-87273809D01*
X209306726Y-87511904D01*
X209529940Y-87630952D01*
X209768035Y-87630952D01*
X211568630Y-87511904D02*
X211315654Y-87630952D01*
X210839464Y-87630952D01*
X210616250Y-87511904D01*
X210526964Y-87273809D01*
X210646011Y-86321428D01*
X210794821Y-86083333D01*
X211047797Y-85964285D01*
X211523988Y-85964285D01*
X211747202Y-86083333D01*
X211836488Y-86321428D01*
X211806726Y-86559523D01*
X210586488Y-86797619D01*
D11*
X217857142Y-87392857D02*
X214285714Y-87392857D01*
X214285714Y-79892857D01*
X222857142Y-83464285D02*
X220357142Y-83464285D01*
X220357142Y-87392857D02*
X220357142Y-79892857D01*
X223928571Y-79892857D01*
X231071428Y-87392857D02*
X228571428Y-83821428D01*
X226785714Y-87392857D02*
X226785714Y-79892857D01*
X229642857Y-79892857D01*
X230357142Y-80250000D01*
X230714285Y-80607142D01*
X231071428Y-81321428D01*
X231071428Y-82392857D01*
X230714285Y-83107142D01*
X230357142Y-83464285D01*
X229642857Y-83821428D01*
X226785714Y-83821428D01*
D12*
G36*
X126831984Y-73638541D02*
G01*
X127486886Y-73714986D01*
X128142034Y-73852022D01*
X128779537Y-74048488D01*
X129395343Y-74301784D01*
X129985395Y-74609313D01*
X130545641Y-74968475D01*
X131072025Y-75376670D01*
X131560493Y-75831301D01*
X132006991Y-76329768D01*
X132407126Y-76868969D01*
X132758501Y-77447668D01*
X133053066Y-78052274D01*
X133290089Y-78678903D01*
X133468838Y-79323670D01*
X133588581Y-79982692D01*
X133648586Y-80652084D01*
X133648122Y-81327963D01*
X133586455Y-82006444D01*
X133484522Y-82586245D01*
X133334858Y-83149404D01*
X133129977Y-83717202D01*
X132875848Y-84277290D01*
X132578438Y-84817318D01*
X132243716Y-85324934D01*
X132018723Y-85619625D01*
X131880320Y-85780451D01*
X131706538Y-85966834D01*
X131510258Y-86166243D01*
X131304365Y-86366145D01*
X131101742Y-86554011D01*
X130915272Y-86717308D01*
X130769339Y-86834860D01*
X130602604Y-86956271D01*
X130420619Y-87080575D01*
X130231248Y-87203241D01*
X130042359Y-87319734D01*
X129861815Y-87425521D01*
X129697482Y-87516069D01*
X129557227Y-87586845D01*
X129448913Y-87633314D01*
X129380407Y-87650945D01*
X129361901Y-87646047D01*
X129345893Y-87613626D01*
X129307977Y-87530180D01*
X129251335Y-87403018D01*
X129179147Y-87239449D01*
X129094596Y-87046781D01*
X129000863Y-86832323D01*
X128901129Y-86603383D01*
X128798576Y-86367271D01*
X128696384Y-86131295D01*
X128597737Y-85902764D01*
X128505814Y-85688986D01*
X128423797Y-85497270D01*
X128354869Y-85334925D01*
X128325595Y-85265351D01*
X128283582Y-85165077D01*
X128449478Y-85079318D01*
X128893398Y-84814640D01*
X129303504Y-84499218D01*
X129676046Y-84138237D01*
X130007272Y-83736886D01*
X130293432Y-83300352D01*
X130530774Y-82833823D01*
X130715549Y-82342486D01*
X130844006Y-81831528D01*
X130859423Y-81746307D01*
X130898973Y-81420264D01*
X130914626Y-81061403D01*
X130906982Y-80691704D01*
X130876642Y-80333150D01*
X130824206Y-80007720D01*
X130810214Y-79944667D01*
X130658727Y-79432990D01*
X130452571Y-78948002D01*
X130195583Y-78493302D01*
X129891601Y-78072486D01*
X129544462Y-77689154D01*
X129158003Y-77346903D01*
X128736062Y-77049332D01*
X128282475Y-76800039D01*
X127801081Y-76602621D01*
X127295717Y-76460678D01*
X127043750Y-76412985D01*
X126814869Y-76386207D01*
X126546566Y-76370528D01*
X126259696Y-76365924D01*
X125975110Y-76372373D01*
X125713662Y-76389853D01*
X125517407Y-76414655D01*
X125258216Y-76469729D01*
X124969287Y-76550472D01*
X124674768Y-76648962D01*
X124398806Y-76757274D01*
X124214435Y-76842241D01*
X124141727Y-76878543D01*
X124074306Y-76912432D01*
X124010164Y-76945792D01*
X123947297Y-76980506D01*
X123883698Y-77018458D01*
X123817360Y-77061532D01*
X123746278Y-77111612D01*
X123668446Y-77170580D01*
X123581858Y-77240322D01*
X123484507Y-77322720D01*
X123374387Y-77419658D01*
X123249492Y-77533020D01*
X123107817Y-77664690D01*
X122947354Y-77816550D01*
X122766099Y-77990486D01*
X122562045Y-78188379D01*
X122333185Y-78412115D01*
X122077514Y-78663577D01*
X121793026Y-78944648D01*
X121477714Y-79257212D01*
X121129573Y-79603154D01*
X120746596Y-79984355D01*
X120326777Y-80402701D01*
X119868110Y-80860074D01*
X119368589Y-81358359D01*
X118826209Y-81899439D01*
X118788750Y-81936807D01*
X118334382Y-82389810D01*
X117889885Y-82832478D01*
X117457515Y-83262581D01*
X117039532Y-83677890D01*
X116638194Y-84076176D01*
X116255760Y-84455211D01*
X115894490Y-84812765D01*
X115556640Y-85146610D01*
X115244472Y-85454516D01*
X114960242Y-85734255D01*
X114706210Y-85983597D01*
X114484635Y-86200314D01*
X114297774Y-86382177D01*
X114147888Y-86526957D01*
X114037235Y-86632424D01*
X113968073Y-86696351D01*
X113949539Y-86712212D01*
X113385083Y-87119508D01*
X112793917Y-87470561D01*
X112178914Y-87764183D01*
X111542943Y-87999185D01*
X110888878Y-88174375D01*
X110219589Y-88288567D01*
X110114313Y-88300769D01*
X109938283Y-88314495D01*
X109716165Y-88323705D01*
X109465210Y-88328414D01*
X109202669Y-88328636D01*
X108945792Y-88324385D01*
X108711831Y-88315678D01*
X108518036Y-88302527D01*
X108485875Y-88299391D01*
X107873918Y-88205517D01*
X107260012Y-88052817D01*
X106653140Y-87845018D01*
X106062288Y-87585847D01*
X105496440Y-87279029D01*
X104964579Y-86928292D01*
X104707625Y-86732353D01*
X104543995Y-86593198D01*
X104354385Y-86419036D01*
X104153004Y-86224024D01*
X103954061Y-86022319D01*
X103771764Y-85828078D01*
X103620324Y-85655458D01*
X103590801Y-85619625D01*
X103204603Y-85094758D01*
X102864123Y-84531163D01*
X102572642Y-83936689D01*
X102333439Y-83319184D01*
X102149796Y-82686497D01*
X102024991Y-82046475D01*
X101992958Y-81796434D01*
X101982296Y-81674404D01*
X101972897Y-81521663D01*
X101965026Y-81349901D01*
X101958949Y-81170807D01*
X101954931Y-80996074D01*
X101953237Y-80837390D01*
X101954134Y-80706447D01*
X101957886Y-80614935D01*
X101964759Y-80574545D01*
X101965199Y-80574068D01*
X101997583Y-80573572D01*
X102085415Y-80575438D01*
X102220733Y-80579361D01*
X102395578Y-80585035D01*
X102601989Y-80592155D01*
X102832007Y-80600414D01*
X103077671Y-80609508D01*
X103331020Y-80619129D01*
X103584095Y-80628974D01*
X103828936Y-80638734D01*
X104057582Y-80648106D01*
X104262073Y-80656783D01*
X104434449Y-80664460D01*
X104566749Y-80670830D01*
X104651014Y-80675589D01*
X104679309Y-80678315D01*
X104681605Y-80709739D01*
X104685719Y-80793802D01*
X104691172Y-80919683D01*
X104697486Y-81076563D01*
X104701547Y-81182562D01*
X104731211Y-81599796D01*
X104790274Y-81978743D01*
X104883813Y-82339176D01*
X105016908Y-82700871D01*
X105184657Y-83063750D01*
X105450298Y-83524012D01*
X105767489Y-83950284D01*
X106131356Y-84337706D01*
X106537025Y-84681417D01*
X106979621Y-84976559D01*
X107249721Y-85122773D01*
X107688114Y-85316427D01*
X108125203Y-85457671D01*
X108573357Y-85549075D01*
X109044944Y-85593209D01*
X109517750Y-85593997D01*
X110056332Y-85544736D01*
X110572187Y-85436794D01*
X111067576Y-85269362D01*
X111544761Y-85041633D01*
X112006003Y-84752797D01*
X112137125Y-84657474D01*
X112178247Y-84621102D01*
X112262042Y-84542023D01*
X112386285Y-84422433D01*
X112548751Y-84264532D01*
X112747216Y-84070515D01*
X112979456Y-83842582D01*
X113243246Y-83582930D01*
X113536361Y-83293756D01*
X113856577Y-82977259D01*
X114201670Y-82635636D01*
X114569414Y-82271085D01*
X114957586Y-81885803D01*
X115363960Y-81481989D01*
X115786313Y-81061839D01*
X116222419Y-80627553D01*
X116670055Y-80181327D01*
X116899625Y-79952305D01*
X117448428Y-79404981D01*
X117970479Y-78884967D01*
X118464494Y-78393525D01*
X118929194Y-77931918D01*
X119363297Y-77501408D01*
X119765523Y-77103255D01*
X120134589Y-76738723D01*
X120469215Y-76409073D01*
X120768121Y-76115567D01*
X121030024Y-75859467D01*
X121253643Y-75642035D01*
X121437699Y-75464533D01*
X121580908Y-75328222D01*
X121681992Y-75234366D01*
X121739667Y-75184225D01*
X121741500Y-75182803D01*
X122311946Y-74783523D01*
X122907210Y-74441637D01*
X123524293Y-74157914D01*
X124160194Y-73933118D01*
X124811914Y-73768016D01*
X125476453Y-73663375D01*
X126150809Y-73619961D01*
X126831984Y-73638541D01*
G37*
X126831984Y-73638541D02*
X127486886Y-73714986D01*
X128142034Y-73852022D01*
X128779537Y-74048488D01*
X129395343Y-74301784D01*
X129985395Y-74609313D01*
X130545641Y-74968475D01*
X131072025Y-75376670D01*
X131560493Y-75831301D01*
X132006991Y-76329768D01*
X132407126Y-76868969D01*
X132758501Y-77447668D01*
X133053066Y-78052274D01*
X133290089Y-78678903D01*
X133468838Y-79323670D01*
X133588581Y-79982692D01*
X133648586Y-80652084D01*
X133648122Y-81327963D01*
X133586455Y-82006444D01*
X133484522Y-82586245D01*
X133334858Y-83149404D01*
X133129977Y-83717202D01*
X132875848Y-84277290D01*
X132578438Y-84817318D01*
X132243716Y-85324934D01*
X132018723Y-85619625D01*
X131880320Y-85780451D01*
X131706538Y-85966834D01*
X131510258Y-86166243D01*
X131304365Y-86366145D01*
X131101742Y-86554011D01*
X130915272Y-86717308D01*
X130769339Y-86834860D01*
X130602604Y-86956271D01*
X130420619Y-87080575D01*
X130231248Y-87203241D01*
X130042359Y-87319734D01*
X129861815Y-87425521D01*
X129697482Y-87516069D01*
X129557227Y-87586845D01*
X129448913Y-87633314D01*
X129380407Y-87650945D01*
X129361901Y-87646047D01*
X129345893Y-87613626D01*
X129307977Y-87530180D01*
X129251335Y-87403018D01*
X129179147Y-87239449D01*
X129094596Y-87046781D01*
X129000863Y-86832323D01*
X128901129Y-86603383D01*
X128798576Y-86367271D01*
X128696384Y-86131295D01*
X128597737Y-85902764D01*
X128505814Y-85688986D01*
X128423797Y-85497270D01*
X128354869Y-85334925D01*
X128325595Y-85265351D01*
X128283582Y-85165077D01*
X128449478Y-85079318D01*
X128893398Y-84814640D01*
X129303504Y-84499218D01*
X129676046Y-84138237D01*
X130007272Y-83736886D01*
X130293432Y-83300352D01*
X130530774Y-82833823D01*
X130715549Y-82342486D01*
X130844006Y-81831528D01*
X130859423Y-81746307D01*
X130898973Y-81420264D01*
X130914626Y-81061403D01*
X130906982Y-80691704D01*
X130876642Y-80333150D01*
X130824206Y-80007720D01*
X130810214Y-79944667D01*
X130658727Y-79432990D01*
X130452571Y-78948002D01*
X130195583Y-78493302D01*
X129891601Y-78072486D01*
X129544462Y-77689154D01*
X129158003Y-77346903D01*
X128736062Y-77049332D01*
X128282475Y-76800039D01*
X127801081Y-76602621D01*
X127295717Y-76460678D01*
X127043750Y-76412985D01*
X126814869Y-76386207D01*
X126546566Y-76370528D01*
X126259696Y-76365924D01*
X125975110Y-76372373D01*
X125713662Y-76389853D01*
X125517407Y-76414655D01*
X125258216Y-76469729D01*
X124969287Y-76550472D01*
X124674768Y-76648962D01*
X124398806Y-76757274D01*
X124214435Y-76842241D01*
X124141727Y-76878543D01*
X124074306Y-76912432D01*
X124010164Y-76945792D01*
X123947297Y-76980506D01*
X123883698Y-77018458D01*
X123817360Y-77061532D01*
X123746278Y-77111612D01*
X123668446Y-77170580D01*
X123581858Y-77240322D01*
X123484507Y-77322720D01*
X123374387Y-77419658D01*
X123249492Y-77533020D01*
X123107817Y-77664690D01*
X122947354Y-77816550D01*
X122766099Y-77990486D01*
X122562045Y-78188379D01*
X122333185Y-78412115D01*
X122077514Y-78663577D01*
X121793026Y-78944648D01*
X121477714Y-79257212D01*
X121129573Y-79603154D01*
X120746596Y-79984355D01*
X120326777Y-80402701D01*
X119868110Y-80860074D01*
X119368589Y-81358359D01*
X118826209Y-81899439D01*
X118788750Y-81936807D01*
X118334382Y-82389810D01*
X117889885Y-82832478D01*
X117457515Y-83262581D01*
X117039532Y-83677890D01*
X116638194Y-84076176D01*
X116255760Y-84455211D01*
X115894490Y-84812765D01*
X115556640Y-85146610D01*
X115244472Y-85454516D01*
X114960242Y-85734255D01*
X114706210Y-85983597D01*
X114484635Y-86200314D01*
X114297774Y-86382177D01*
X114147888Y-86526957D01*
X114037235Y-86632424D01*
X113968073Y-86696351D01*
X113949539Y-86712212D01*
X113385083Y-87119508D01*
X112793917Y-87470561D01*
X112178914Y-87764183D01*
X111542943Y-87999185D01*
X110888878Y-88174375D01*
X110219589Y-88288567D01*
X110114313Y-88300769D01*
X109938283Y-88314495D01*
X109716165Y-88323705D01*
X109465210Y-88328414D01*
X109202669Y-88328636D01*
X108945792Y-88324385D01*
X108711831Y-88315678D01*
X108518036Y-88302527D01*
X108485875Y-88299391D01*
X107873918Y-88205517D01*
X107260012Y-88052817D01*
X106653140Y-87845018D01*
X106062288Y-87585847D01*
X105496440Y-87279029D01*
X104964579Y-86928292D01*
X104707625Y-86732353D01*
X104543995Y-86593198D01*
X104354385Y-86419036D01*
X104153004Y-86224024D01*
X103954061Y-86022319D01*
X103771764Y-85828078D01*
X103620324Y-85655458D01*
X103590801Y-85619625D01*
X103204603Y-85094758D01*
X102864123Y-84531163D01*
X102572642Y-83936689D01*
X102333439Y-83319184D01*
X102149796Y-82686497D01*
X102024991Y-82046475D01*
X101992958Y-81796434D01*
X101982296Y-81674404D01*
X101972897Y-81521663D01*
X101965026Y-81349901D01*
X101958949Y-81170807D01*
X101954931Y-80996074D01*
X101953237Y-80837390D01*
X101954134Y-80706447D01*
X101957886Y-80614935D01*
X101964759Y-80574545D01*
X101965199Y-80574068D01*
X101997583Y-80573572D01*
X102085415Y-80575438D01*
X102220733Y-80579361D01*
X102395578Y-80585035D01*
X102601989Y-80592155D01*
X102832007Y-80600414D01*
X103077671Y-80609508D01*
X103331020Y-80619129D01*
X103584095Y-80628974D01*
X103828936Y-80638734D01*
X104057582Y-80648106D01*
X104262073Y-80656783D01*
X104434449Y-80664460D01*
X104566749Y-80670830D01*
X104651014Y-80675589D01*
X104679309Y-80678315D01*
X104681605Y-80709739D01*
X104685719Y-80793802D01*
X104691172Y-80919683D01*
X104697486Y-81076563D01*
X104701547Y-81182562D01*
X104731211Y-81599796D01*
X104790274Y-81978743D01*
X104883813Y-82339176D01*
X105016908Y-82700871D01*
X105184657Y-83063750D01*
X105450298Y-83524012D01*
X105767489Y-83950284D01*
X106131356Y-84337706D01*
X106537025Y-84681417D01*
X106979621Y-84976559D01*
X107249721Y-85122773D01*
X107688114Y-85316427D01*
X108125203Y-85457671D01*
X108573357Y-85549075D01*
X109044944Y-85593209D01*
X109517750Y-85593997D01*
X110056332Y-85544736D01*
X110572187Y-85436794D01*
X111067576Y-85269362D01*
X111544761Y-85041633D01*
X112006003Y-84752797D01*
X112137125Y-84657474D01*
X112178247Y-84621102D01*
X112262042Y-84542023D01*
X112386285Y-84422433D01*
X112548751Y-84264532D01*
X112747216Y-84070515D01*
X112979456Y-83842582D01*
X113243246Y-83582930D01*
X113536361Y-83293756D01*
X113856577Y-82977259D01*
X114201670Y-82635636D01*
X114569414Y-82271085D01*
X114957586Y-81885803D01*
X115363960Y-81481989D01*
X115786313Y-81061839D01*
X116222419Y-80627553D01*
X116670055Y-80181327D01*
X116899625Y-79952305D01*
X117448428Y-79404981D01*
X117970479Y-78884967D01*
X118464494Y-78393525D01*
X118929194Y-77931918D01*
X119363297Y-77501408D01*
X119765523Y-77103255D01*
X120134589Y-76738723D01*
X120469215Y-76409073D01*
X120768121Y-76115567D01*
X121030024Y-75859467D01*
X121253643Y-75642035D01*
X121437699Y-75464533D01*
X121580908Y-75328222D01*
X121681992Y-75234366D01*
X121739667Y-75184225D01*
X121741500Y-75182803D01*
X122311946Y-74783523D01*
X122907210Y-74441637D01*
X123524293Y-74157914D01*
X124160194Y-73933118D01*
X124811914Y-73768016D01*
X125476453Y-73663375D01*
X126150809Y-73619961D01*
X126831984Y-73638541D01*
G36*
X121812643Y-83051226D02*
G01*
X122071535Y-83308350D01*
X122322026Y-83555721D01*
X122559709Y-83789075D01*
X122780174Y-84004150D01*
X122979016Y-84196681D01*
X123151825Y-84362407D01*
X123294194Y-84497064D01*
X123401716Y-84596388D01*
X123469982Y-84656116D01*
X123480862Y-84664713D01*
X123934138Y-84968560D01*
X124410453Y-85213494D01*
X124908110Y-85398905D01*
X125425411Y-85524183D01*
X125960659Y-85588717D01*
X126067437Y-85594190D01*
X126535750Y-85612974D01*
X126535750Y-88334250D01*
X126115062Y-88330097D01*
X125928565Y-88326125D01*
X125737331Y-88318447D01*
X125564606Y-88308194D01*
X125440375Y-88297272D01*
X124801150Y-88193967D01*
X124165410Y-88030053D01*
X123540499Y-87808304D01*
X122933764Y-87531495D01*
X122352550Y-87202400D01*
X122095932Y-87034324D01*
X121973626Y-86948149D01*
X121849494Y-86855283D01*
X121719567Y-86752066D01*
X121579878Y-86634836D01*
X121426458Y-86499932D01*
X121255338Y-86343693D01*
X121062551Y-86162458D01*
X120844128Y-85952565D01*
X120596100Y-85710354D01*
X120314500Y-85432163D01*
X119995358Y-85114332D01*
X119765033Y-84883876D01*
X118407691Y-83523792D01*
X119375801Y-82556073D01*
X120343911Y-81588353D01*
X121812643Y-83051226D01*
G37*
X121812643Y-83051226D02*
X122071535Y-83308350D01*
X122322026Y-83555721D01*
X122559709Y-83789075D01*
X122780174Y-84004150D01*
X122979016Y-84196681D01*
X123151825Y-84362407D01*
X123294194Y-84497064D01*
X123401716Y-84596388D01*
X123469982Y-84656116D01*
X123480862Y-84664713D01*
X123934138Y-84968560D01*
X124410453Y-85213494D01*
X124908110Y-85398905D01*
X125425411Y-85524183D01*
X125960659Y-85588717D01*
X126067437Y-85594190D01*
X126535750Y-85612974D01*
X126535750Y-88334250D01*
X126115062Y-88330097D01*
X125928565Y-88326125D01*
X125737331Y-88318447D01*
X125564606Y-88308194D01*
X125440375Y-88297272D01*
X124801150Y-88193967D01*
X124165410Y-88030053D01*
X123540499Y-87808304D01*
X122933764Y-87531495D01*
X122352550Y-87202400D01*
X122095932Y-87034324D01*
X121973626Y-86948149D01*
X121849494Y-86855283D01*
X121719567Y-86752066D01*
X121579878Y-86634836D01*
X121426458Y-86499932D01*
X121255338Y-86343693D01*
X121062551Y-86162458D01*
X120844128Y-85952565D01*
X120596100Y-85710354D01*
X120314500Y-85432163D01*
X119995358Y-85114332D01*
X119765033Y-84883876D01*
X118407691Y-83523792D01*
X119375801Y-82556073D01*
X120343911Y-81588353D01*
X121812643Y-83051226D01*
G36*
X153859906Y-81144327D02*
G01*
X154019445Y-81147433D01*
X154142233Y-81154390D01*
X154241638Y-81166429D01*
X154331027Y-81184781D01*
X154423766Y-81210676D01*
X154444000Y-81216902D01*
X154746572Y-81333640D01*
X155015230Y-81488718D01*
X155267731Y-81692955D01*
X155340937Y-81763389D01*
X155587000Y-82008303D01*
X155587000Y-81254000D01*
X156920500Y-81254000D01*
X156920500Y-87223000D01*
X155587000Y-87223000D01*
X155586034Y-86834062D01*
X155584064Y-86666015D01*
X155578824Y-86556685D01*
X155569833Y-86501351D01*
X155556612Y-86495292D01*
X155552270Y-86501467D01*
X155498518Y-86566885D01*
X155404215Y-86656151D01*
X155282353Y-86758978D01*
X155145928Y-86865081D01*
X155007932Y-86964173D01*
X154881359Y-87045968D01*
X154822257Y-87079364D01*
X154620024Y-87176458D01*
X154428275Y-87246121D01*
X154228488Y-87292730D01*
X154002142Y-87320665D01*
X153745500Y-87333897D01*
X153568541Y-87336660D01*
X153397410Y-87335338D01*
X153250850Y-87330321D01*
X153147606Y-87322003D01*
X153142250Y-87321274D01*
X152938385Y-87280184D01*
X152706641Y-87214093D01*
X152470415Y-87131132D01*
X152253106Y-87039438D01*
X152094500Y-86957035D01*
X151740672Y-86711947D01*
X151432558Y-86424295D01*
X151171927Y-86097351D01*
X150960546Y-85734386D01*
X150800184Y-85338673D01*
X150692609Y-84913484D01*
X150639590Y-84462092D01*
X150634912Y-84288254D01*
X152094500Y-84288254D01*
X152121420Y-84638757D01*
X152201103Y-84955841D01*
X152331928Y-85237285D01*
X152512277Y-85480873D01*
X152740528Y-85684385D01*
X153015064Y-85845603D01*
X153311959Y-85956052D01*
X153493205Y-85991753D01*
X153711575Y-86010144D01*
X153943019Y-86010950D01*
X154163488Y-85993891D01*
X154314045Y-85967611D01*
X154604505Y-85868326D01*
X154863774Y-85717163D01*
X155085305Y-85519276D01*
X155262550Y-85279819D01*
X155317650Y-85177523D01*
X155451295Y-84847631D01*
X155525065Y-84523773D01*
X155540532Y-84195970D01*
X155513606Y-83934013D01*
X155430295Y-83596056D01*
X155298637Y-83295629D01*
X155122317Y-83035931D01*
X154905019Y-82820158D01*
X154650429Y-82651509D01*
X154362232Y-82533181D01*
X154044112Y-82468372D01*
X153810972Y-82456514D01*
X153480273Y-82482050D01*
X153187425Y-82555248D01*
X152925406Y-82678841D01*
X152687196Y-82855562D01*
X152617779Y-82920875D01*
X152408154Y-83170907D01*
X152252187Y-83453481D01*
X152149505Y-83769576D01*
X152099734Y-84120168D01*
X152094500Y-84288254D01*
X150634912Y-84288254D01*
X150634000Y-84254375D01*
X150661715Y-83801580D01*
X150743342Y-83367556D01*
X150876603Y-82957958D01*
X151059222Y-82578440D01*
X151288920Y-82234657D01*
X151563419Y-81932262D01*
X151572953Y-81923299D01*
X151766241Y-81753102D01*
X151949039Y-81618297D01*
X152146598Y-81501788D01*
X152327122Y-81412640D01*
X152539413Y-81318782D01*
X152727052Y-81249066D01*
X152906601Y-81200125D01*
X153094625Y-81168595D01*
X153307688Y-81151111D01*
X153562355Y-81144307D01*
X153650250Y-81143844D01*
X153859906Y-81144327D01*
G37*
X153859906Y-81144327D02*
X154019445Y-81147433D01*
X154142233Y-81154390D01*
X154241638Y-81166429D01*
X154331027Y-81184781D01*
X154423766Y-81210676D01*
X154444000Y-81216902D01*
X154746572Y-81333640D01*
X155015230Y-81488718D01*
X155267731Y-81692955D01*
X155340937Y-81763389D01*
X155587000Y-82008303D01*
X155587000Y-81254000D01*
X156920500Y-81254000D01*
X156920500Y-87223000D01*
X155587000Y-87223000D01*
X155586034Y-86834062D01*
X155584064Y-86666015D01*
X155578824Y-86556685D01*
X155569833Y-86501351D01*
X155556612Y-86495292D01*
X155552270Y-86501467D01*
X155498518Y-86566885D01*
X155404215Y-86656151D01*
X155282353Y-86758978D01*
X155145928Y-86865081D01*
X155007932Y-86964173D01*
X154881359Y-87045968D01*
X154822257Y-87079364D01*
X154620024Y-87176458D01*
X154428275Y-87246121D01*
X154228488Y-87292730D01*
X154002142Y-87320665D01*
X153745500Y-87333897D01*
X153568541Y-87336660D01*
X153397410Y-87335338D01*
X153250850Y-87330321D01*
X153147606Y-87322003D01*
X153142250Y-87321274D01*
X152938385Y-87280184D01*
X152706641Y-87214093D01*
X152470415Y-87131132D01*
X152253106Y-87039438D01*
X152094500Y-86957035D01*
X151740672Y-86711947D01*
X151432558Y-86424295D01*
X151171927Y-86097351D01*
X150960546Y-85734386D01*
X150800184Y-85338673D01*
X150692609Y-84913484D01*
X150639590Y-84462092D01*
X150634912Y-84288254D01*
X152094500Y-84288254D01*
X152121420Y-84638757D01*
X152201103Y-84955841D01*
X152331928Y-85237285D01*
X152512277Y-85480873D01*
X152740528Y-85684385D01*
X153015064Y-85845603D01*
X153311959Y-85956052D01*
X153493205Y-85991753D01*
X153711575Y-86010144D01*
X153943019Y-86010950D01*
X154163488Y-85993891D01*
X154314045Y-85967611D01*
X154604505Y-85868326D01*
X154863774Y-85717163D01*
X155085305Y-85519276D01*
X155262550Y-85279819D01*
X155317650Y-85177523D01*
X155451295Y-84847631D01*
X155525065Y-84523773D01*
X155540532Y-84195970D01*
X155513606Y-83934013D01*
X155430295Y-83596056D01*
X155298637Y-83295629D01*
X155122317Y-83035931D01*
X154905019Y-82820158D01*
X154650429Y-82651509D01*
X154362232Y-82533181D01*
X154044112Y-82468372D01*
X153810972Y-82456514D01*
X153480273Y-82482050D01*
X153187425Y-82555248D01*
X152925406Y-82678841D01*
X152687196Y-82855562D01*
X152617779Y-82920875D01*
X152408154Y-83170907D01*
X152252187Y-83453481D01*
X152149505Y-83769576D01*
X152099734Y-84120168D01*
X152094500Y-84288254D01*
X150634912Y-84288254D01*
X150634000Y-84254375D01*
X150661715Y-83801580D01*
X150743342Y-83367556D01*
X150876603Y-82957958D01*
X151059222Y-82578440D01*
X151288920Y-82234657D01*
X151563419Y-81932262D01*
X151572953Y-81923299D01*
X151766241Y-81753102D01*
X151949039Y-81618297D01*
X152146598Y-81501788D01*
X152327122Y-81412640D01*
X152539413Y-81318782D01*
X152727052Y-81249066D01*
X152906601Y-81200125D01*
X153094625Y-81168595D01*
X153307688Y-81151111D01*
X153562355Y-81144307D01*
X153650250Y-81143844D01*
X153859906Y-81144327D01*
G36*
X167396654Y-81139855D02*
G01*
X167555500Y-81156651D01*
X167973038Y-81248868D01*
X168366767Y-81397967D01*
X168732209Y-81600344D01*
X169064886Y-81852395D01*
X169360321Y-82150516D01*
X169614034Y-82491103D01*
X169821548Y-82870551D01*
X169892700Y-83037706D01*
X169988173Y-83313012D01*
X170053859Y-83583725D01*
X170093254Y-83869852D01*
X170109854Y-84191400D01*
X170110879Y-84286125D01*
X170110024Y-84457484D01*
X170106498Y-84609217D01*
X170100806Y-84728577D01*
X170093453Y-84802818D01*
X170089808Y-84817937D01*
X170082545Y-84828542D01*
X170067195Y-84837709D01*
X170039423Y-84845544D01*
X169994895Y-84852149D01*
X169929278Y-84857629D01*
X169838236Y-84862088D01*
X169717438Y-84865630D01*
X169562547Y-84868359D01*
X169369230Y-84870380D01*
X169133153Y-84871796D01*
X168849983Y-84872712D01*
X168515384Y-84873231D01*
X168125023Y-84873458D01*
X167776554Y-84873500D01*
X165486116Y-84873500D01*
X165507545Y-84960812D01*
X165573534Y-85140079D01*
X165680275Y-85328355D01*
X165813884Y-85502295D01*
X165856537Y-85547595D01*
X166080907Y-85735495D01*
X166334294Y-85873949D01*
X166621762Y-85964813D01*
X166948369Y-86009946D01*
X167132718Y-86015955D01*
X167443847Y-85996835D01*
X167714539Y-85935686D01*
X167955196Y-85828526D01*
X168176221Y-85671374D01*
X168277823Y-85577582D01*
X168411521Y-85445000D01*
X169974029Y-85445000D01*
X169951902Y-85516437D01*
X169862696Y-85730735D01*
X169724676Y-85964062D01*
X169545218Y-86205873D01*
X169331703Y-86445621D01*
X169233366Y-86543431D01*
X168961067Y-86779731D01*
X168682699Y-86967486D01*
X168381275Y-87116205D01*
X168039807Y-87235395D01*
X167953625Y-87259684D01*
X167817596Y-87286656D01*
X167635501Y-87308897D01*
X167424649Y-87325607D01*
X167202352Y-87335985D01*
X166985920Y-87339233D01*
X166792664Y-87334549D01*
X166639896Y-87321134D01*
X166636000Y-87320571D01*
X166202070Y-87226943D01*
X165791748Y-87079091D01*
X165409821Y-86880974D01*
X165061076Y-86636552D01*
X164750301Y-86349786D01*
X164482285Y-86024636D01*
X164261813Y-85665061D01*
X164093676Y-85275024D01*
X164067463Y-85195972D01*
X163964792Y-84768226D01*
X163922977Y-84335120D01*
X163940626Y-83903107D01*
X163994076Y-83603500D01*
X165430014Y-83603500D01*
X168704029Y-83603500D01*
X168683967Y-83532062D01*
X168631342Y-83389602D01*
X168552902Y-83230269D01*
X168460810Y-83075145D01*
X168367229Y-82945316D01*
X168309294Y-82882556D01*
X168098464Y-82714978D01*
X167873799Y-82592391D01*
X167624264Y-82510971D01*
X167338825Y-82466889D01*
X167078980Y-82455944D01*
X166902736Y-82457536D01*
X166768346Y-82465701D01*
X166654271Y-82483307D01*
X166538974Y-82513224D01*
X166459855Y-82538407D01*
X166169535Y-82661987D01*
X165926049Y-82826227D01*
X165725222Y-83035104D01*
X165562879Y-83292595D01*
X165483603Y-83468562D01*
X165430014Y-83603500D01*
X163994076Y-83603500D01*
X164016352Y-83478638D01*
X164148764Y-83068168D01*
X164336474Y-82678148D01*
X164578090Y-82315032D01*
X164726149Y-82137230D01*
X164973520Y-81898918D01*
X165267924Y-81677187D01*
X165593253Y-81481874D01*
X165933399Y-81322812D01*
X166223250Y-81223145D01*
X166412351Y-81182728D01*
X166644210Y-81153194D01*
X166898859Y-81135539D01*
X167156329Y-81130761D01*
X167396654Y-81139855D01*
G37*
X167396654Y-81139855D02*
X167555500Y-81156651D01*
X167973038Y-81248868D01*
X168366767Y-81397967D01*
X168732209Y-81600344D01*
X169064886Y-81852395D01*
X169360321Y-82150516D01*
X169614034Y-82491103D01*
X169821548Y-82870551D01*
X169892700Y-83037706D01*
X169988173Y-83313012D01*
X170053859Y-83583725D01*
X170093254Y-83869852D01*
X170109854Y-84191400D01*
X170110879Y-84286125D01*
X170110024Y-84457484D01*
X170106498Y-84609217D01*
X170100806Y-84728577D01*
X170093453Y-84802818D01*
X170089808Y-84817937D01*
X170082545Y-84828542D01*
X170067195Y-84837709D01*
X170039423Y-84845544D01*
X169994895Y-84852149D01*
X169929278Y-84857629D01*
X169838236Y-84862088D01*
X169717438Y-84865630D01*
X169562547Y-84868359D01*
X169369230Y-84870380D01*
X169133153Y-84871796D01*
X168849983Y-84872712D01*
X168515384Y-84873231D01*
X168125023Y-84873458D01*
X167776554Y-84873500D01*
X165486116Y-84873500D01*
X165507545Y-84960812D01*
X165573534Y-85140079D01*
X165680275Y-85328355D01*
X165813884Y-85502295D01*
X165856537Y-85547595D01*
X166080907Y-85735495D01*
X166334294Y-85873949D01*
X166621762Y-85964813D01*
X166948369Y-86009946D01*
X167132718Y-86015955D01*
X167443847Y-85996835D01*
X167714539Y-85935686D01*
X167955196Y-85828526D01*
X168176221Y-85671374D01*
X168277823Y-85577582D01*
X168411521Y-85445000D01*
X169974029Y-85445000D01*
X169951902Y-85516437D01*
X169862696Y-85730735D01*
X169724676Y-85964062D01*
X169545218Y-86205873D01*
X169331703Y-86445621D01*
X169233366Y-86543431D01*
X168961067Y-86779731D01*
X168682699Y-86967486D01*
X168381275Y-87116205D01*
X168039807Y-87235395D01*
X167953625Y-87259684D01*
X167817596Y-87286656D01*
X167635501Y-87308897D01*
X167424649Y-87325607D01*
X167202352Y-87335985D01*
X166985920Y-87339233D01*
X166792664Y-87334549D01*
X166639896Y-87321134D01*
X166636000Y-87320571D01*
X166202070Y-87226943D01*
X165791748Y-87079091D01*
X165409821Y-86880974D01*
X165061076Y-86636552D01*
X164750301Y-86349786D01*
X164482285Y-86024636D01*
X164261813Y-85665061D01*
X164093676Y-85275024D01*
X164067463Y-85195972D01*
X163964792Y-84768226D01*
X163922977Y-84335120D01*
X163940626Y-83903107D01*
X163994076Y-83603500D01*
X165430014Y-83603500D01*
X168704029Y-83603500D01*
X168683967Y-83532062D01*
X168631342Y-83389602D01*
X168552902Y-83230269D01*
X168460810Y-83075145D01*
X168367229Y-82945316D01*
X168309294Y-82882556D01*
X168098464Y-82714978D01*
X167873799Y-82592391D01*
X167624264Y-82510971D01*
X167338825Y-82466889D01*
X167078980Y-82455944D01*
X166902736Y-82457536D01*
X166768346Y-82465701D01*
X166654271Y-82483307D01*
X166538974Y-82513224D01*
X166459855Y-82538407D01*
X166169535Y-82661987D01*
X165926049Y-82826227D01*
X165725222Y-83035104D01*
X165562879Y-83292595D01*
X165483603Y-83468562D01*
X165430014Y-83603500D01*
X163994076Y-83603500D01*
X164016352Y-83478638D01*
X164148764Y-83068168D01*
X164336474Y-82678148D01*
X164578090Y-82315032D01*
X164726149Y-82137230D01*
X164973520Y-81898918D01*
X165267924Y-81677187D01*
X165593253Y-81481874D01*
X165933399Y-81322812D01*
X166223250Y-81223145D01*
X166412351Y-81182728D01*
X166644210Y-81153194D01*
X166898859Y-81135539D01*
X167156329Y-81130761D01*
X167396654Y-81139855D01*
G36*
X175174086Y-79149398D02*
G01*
X175439680Y-79165469D01*
X175673246Y-79192914D01*
X175799408Y-79216836D01*
X176308116Y-79364650D01*
X176780462Y-79564428D01*
X177215978Y-79815842D01*
X177614197Y-80118566D01*
X177974650Y-80472273D01*
X178296870Y-80876638D01*
X178401349Y-81031344D01*
X178632816Y-81445732D01*
X178814943Y-81892181D01*
X178945492Y-82360448D01*
X179022222Y-82840286D01*
X179042896Y-83321452D01*
X179005272Y-83793700D01*
X179005229Y-83794000D01*
X178963996Y-84050754D01*
X178919022Y-84267217D01*
X178864172Y-84466550D01*
X178793309Y-84671918D01*
X178729301Y-84835599D01*
X178511064Y-85292820D01*
X178243421Y-85711826D01*
X177929581Y-86089953D01*
X177572754Y-86424536D01*
X177176148Y-86712911D01*
X176742973Y-86952415D01*
X176276437Y-87140382D01*
X175795875Y-87270779D01*
X175641344Y-87295108D01*
X175441262Y-87314598D01*
X175213436Y-87328646D01*
X174975673Y-87336648D01*
X174745781Y-87338001D01*
X174541565Y-87332103D01*
X174383000Y-87318639D01*
X173890119Y-87222336D01*
X173414946Y-87068230D01*
X172962814Y-86859970D01*
X172539054Y-86601205D01*
X172148999Y-86295583D01*
X171797980Y-85946753D01*
X171491330Y-85558364D01*
X171259381Y-85181148D01*
X171062527Y-84754320D01*
X170914893Y-84299607D01*
X170819016Y-83829515D01*
X170777429Y-83356549D01*
X170784698Y-83135551D01*
X172286875Y-83135551D01*
X172289767Y-83430007D01*
X172316192Y-83707730D01*
X172353698Y-83899819D01*
X172486060Y-84296138D01*
X172670150Y-84657862D01*
X172902412Y-84981554D01*
X173179291Y-85263774D01*
X173497229Y-85501086D01*
X173852673Y-85690052D01*
X174242065Y-85827234D01*
X174383000Y-85861784D01*
X174643060Y-85899759D01*
X174935720Y-85910948D01*
X175236308Y-85896000D01*
X175520153Y-85855561D01*
X175637125Y-85828887D01*
X176007362Y-85700675D01*
X176350016Y-85518877D01*
X176658915Y-85288458D01*
X176927886Y-85014385D01*
X177150755Y-84701622D01*
X177239092Y-84540125D01*
X177395957Y-84160477D01*
X177495547Y-83773876D01*
X177540018Y-83385746D01*
X177531526Y-83001509D01*
X177472227Y-82626590D01*
X177364277Y-82266414D01*
X177209833Y-81926404D01*
X177011049Y-81611984D01*
X176770083Y-81328578D01*
X176489090Y-81081610D01*
X176170225Y-80876505D01*
X175815646Y-80718686D01*
X175705623Y-80682285D01*
X175340318Y-80599289D01*
X174967085Y-80568550D01*
X174648908Y-80586124D01*
X174248989Y-80658334D01*
X173892660Y-80770610D01*
X173571395Y-80926741D01*
X173276667Y-81130516D01*
X173122882Y-81264187D01*
X172843787Y-81566723D01*
X172619406Y-81901477D01*
X172449628Y-82268635D01*
X172351830Y-82590881D01*
X172307552Y-82847972D01*
X172286875Y-83135551D01*
X170784698Y-83135551D01*
X170792669Y-82893217D01*
X170793635Y-82883496D01*
X170876023Y-82361517D01*
X171014104Y-81867931D01*
X171206215Y-81405182D01*
X171450690Y-80975714D01*
X171745867Y-80581974D01*
X172090079Y-80226405D01*
X172481663Y-79911452D01*
X172918955Y-79639559D01*
X173047808Y-79572259D01*
X173288115Y-79465303D01*
X173568696Y-79362928D01*
X173866400Y-79272831D01*
X174158077Y-79202711D01*
X174160750Y-79202164D01*
X174369798Y-79171085D01*
X174620680Y-79152040D01*
X174894931Y-79144867D01*
X175174086Y-79149398D01*
G37*
X175174086Y-79149398D02*
X175439680Y-79165469D01*
X175673246Y-79192914D01*
X175799408Y-79216836D01*
X176308116Y-79364650D01*
X176780462Y-79564428D01*
X177215978Y-79815842D01*
X177614197Y-80118566D01*
X177974650Y-80472273D01*
X178296870Y-80876638D01*
X178401349Y-81031344D01*
X178632816Y-81445732D01*
X178814943Y-81892181D01*
X178945492Y-82360448D01*
X179022222Y-82840286D01*
X179042896Y-83321452D01*
X179005272Y-83793700D01*
X179005229Y-83794000D01*
X178963996Y-84050754D01*
X178919022Y-84267217D01*
X178864172Y-84466550D01*
X178793309Y-84671918D01*
X178729301Y-84835599D01*
X178511064Y-85292820D01*
X178243421Y-85711826D01*
X177929581Y-86089953D01*
X177572754Y-86424536D01*
X177176148Y-86712911D01*
X176742973Y-86952415D01*
X176276437Y-87140382D01*
X175795875Y-87270779D01*
X175641344Y-87295108D01*
X175441262Y-87314598D01*
X175213436Y-87328646D01*
X174975673Y-87336648D01*
X174745781Y-87338001D01*
X174541565Y-87332103D01*
X174383000Y-87318639D01*
X173890119Y-87222336D01*
X173414946Y-87068230D01*
X172962814Y-86859970D01*
X172539054Y-86601205D01*
X172148999Y-86295583D01*
X171797980Y-85946753D01*
X171491330Y-85558364D01*
X171259381Y-85181148D01*
X171062527Y-84754320D01*
X170914893Y-84299607D01*
X170819016Y-83829515D01*
X170777429Y-83356549D01*
X170784698Y-83135551D01*
X172286875Y-83135551D01*
X172289767Y-83430007D01*
X172316192Y-83707730D01*
X172353698Y-83899819D01*
X172486060Y-84296138D01*
X172670150Y-84657862D01*
X172902412Y-84981554D01*
X173179291Y-85263774D01*
X173497229Y-85501086D01*
X173852673Y-85690052D01*
X174242065Y-85827234D01*
X174383000Y-85861784D01*
X174643060Y-85899759D01*
X174935720Y-85910948D01*
X175236308Y-85896000D01*
X175520153Y-85855561D01*
X175637125Y-85828887D01*
X176007362Y-85700675D01*
X176350016Y-85518877D01*
X176658915Y-85288458D01*
X176927886Y-85014385D01*
X177150755Y-84701622D01*
X177239092Y-84540125D01*
X177395957Y-84160477D01*
X177495547Y-83773876D01*
X177540018Y-83385746D01*
X177531526Y-83001509D01*
X177472227Y-82626590D01*
X177364277Y-82266414D01*
X177209833Y-81926404D01*
X177011049Y-81611984D01*
X176770083Y-81328578D01*
X176489090Y-81081610D01*
X176170225Y-80876505D01*
X175815646Y-80718686D01*
X175705623Y-80682285D01*
X175340318Y-80599289D01*
X174967085Y-80568550D01*
X174648908Y-80586124D01*
X174248989Y-80658334D01*
X173892660Y-80770610D01*
X173571395Y-80926741D01*
X173276667Y-81130516D01*
X173122882Y-81264187D01*
X172843787Y-81566723D01*
X172619406Y-81901477D01*
X172449628Y-82268635D01*
X172351830Y-82590881D01*
X172307552Y-82847972D01*
X172286875Y-83135551D01*
X170784698Y-83135551D01*
X170792669Y-82893217D01*
X170793635Y-82883496D01*
X170876023Y-82361517D01*
X171014104Y-81867931D01*
X171206215Y-81405182D01*
X171450690Y-80975714D01*
X171745867Y-80581974D01*
X172090079Y-80226405D01*
X172481663Y-79911452D01*
X172918955Y-79639559D01*
X173047808Y-79572259D01*
X173288115Y-79465303D01*
X173568696Y-79362928D01*
X173866400Y-79272831D01*
X174158077Y-79202711D01*
X174160750Y-79202164D01*
X174369798Y-79171085D01*
X174620680Y-79152040D01*
X174894931Y-79144867D01*
X175174086Y-79149398D01*
G36*
X198156246Y-77231858D02*
G01*
X198164617Y-78269500D01*
X197926648Y-78269499D01*
X197534822Y-78297430D01*
X197133478Y-78377773D01*
X196737241Y-78505357D01*
X196360734Y-78675013D01*
X196018582Y-78881569D01*
X195861875Y-78999576D01*
X195828752Y-79030586D01*
X195753213Y-79103909D01*
X195637803Y-79217020D01*
X195485070Y-79367395D01*
X195297562Y-79552509D01*
X195077826Y-79769838D01*
X194828409Y-80016857D01*
X194551859Y-80291042D01*
X194250722Y-80589867D01*
X193927548Y-80910808D01*
X193584882Y-81251342D01*
X193225272Y-81608942D01*
X192851266Y-81981085D01*
X192465411Y-82365247D01*
X192385250Y-82445084D01*
X191912205Y-82916216D01*
X191481943Y-83344640D01*
X191092280Y-83732485D01*
X190741033Y-84081880D01*
X190426017Y-84394953D01*
X190145049Y-84673832D01*
X189895944Y-84920646D01*
X189676520Y-85137524D01*
X189484592Y-85326594D01*
X189317976Y-85489984D01*
X189174489Y-85629822D01*
X189051947Y-85748238D01*
X188948166Y-85847360D01*
X188860962Y-85929316D01*
X188788151Y-85996234D01*
X188727550Y-86050243D01*
X188676975Y-86093472D01*
X188634242Y-86128049D01*
X188597167Y-86156103D01*
X188563567Y-86179761D01*
X188532015Y-86200662D01*
X188452518Y-86253662D01*
X188397544Y-86293093D01*
X188384750Y-86304031D01*
X188334467Y-86343961D01*
X188239049Y-86404908D01*
X188110567Y-86480326D01*
X187961090Y-86563664D01*
X187802687Y-86648375D01*
X187647429Y-86727910D01*
X187507386Y-86795720D01*
X187394626Y-86845258D01*
X187368750Y-86855271D01*
X187011641Y-86980872D01*
X186693595Y-87077728D01*
X186398979Y-87149349D01*
X186112155Y-87199244D01*
X185817490Y-87230921D01*
X185646312Y-87241855D01*
X185209750Y-87263985D01*
X185209750Y-85200352D01*
X185550419Y-85178327D01*
X185977604Y-85124526D01*
X186381153Y-85017886D01*
X186773090Y-84854628D01*
X187035375Y-84711572D01*
X187172605Y-84625518D01*
X187310833Y-84531742D01*
X187425123Y-84447328D01*
X187448125Y-84428787D01*
X187488443Y-84391613D01*
X187571091Y-84312097D01*
X187693489Y-84192794D01*
X187853060Y-84036257D01*
X188047225Y-83845041D01*
X188273406Y-83621698D01*
X188529025Y-83368783D01*
X188811503Y-83088849D01*
X189118261Y-82784450D01*
X189446723Y-82458141D01*
X189794308Y-82112475D01*
X190158440Y-81750005D01*
X190536539Y-81373285D01*
X190926027Y-80984870D01*
X191051750Y-80859421D01*
X191444154Y-80468153D01*
X191825999Y-80088079D01*
X192194709Y-79721732D01*
X192547708Y-79371644D01*
X192882422Y-79040347D01*
X193196275Y-78730374D01*
X193486693Y-78444255D01*
X193751100Y-78184525D01*
X193986922Y-77953714D01*
X194191583Y-77754355D01*
X194362508Y-77588981D01*
X194497122Y-77460123D01*
X194592850Y-77370314D01*
X194647117Y-77322085D01*
X194655375Y-77315801D01*
X194742620Y-77256068D01*
X194806622Y-77209230D01*
X194830000Y-77189058D01*
X194871268Y-77156118D01*
X194957222Y-77101238D01*
X195075853Y-77031084D01*
X195215154Y-76952322D01*
X195363116Y-76871617D01*
X195507734Y-76795635D01*
X195636999Y-76731042D01*
X195738904Y-76684502D01*
X195738952Y-76684482D01*
X195861969Y-76632835D01*
X195968592Y-76587880D01*
X196040450Y-76557367D01*
X196052375Y-76552235D01*
X196276185Y-76469527D01*
X196547228Y-76392455D01*
X196849286Y-76324161D01*
X197166139Y-76267787D01*
X197481570Y-76226477D01*
X197779359Y-76203373D01*
X197868387Y-76200336D01*
X198147875Y-76194217D01*
X198156246Y-77231858D01*
G37*
X198156246Y-77231858D02*
X198164617Y-78269500D01*
X197926648Y-78269499D01*
X197534822Y-78297430D01*
X197133478Y-78377773D01*
X196737241Y-78505357D01*
X196360734Y-78675013D01*
X196018582Y-78881569D01*
X195861875Y-78999576D01*
X195828752Y-79030586D01*
X195753213Y-79103909D01*
X195637803Y-79217020D01*
X195485070Y-79367395D01*
X195297562Y-79552509D01*
X195077826Y-79769838D01*
X194828409Y-80016857D01*
X194551859Y-80291042D01*
X194250722Y-80589867D01*
X193927548Y-80910808D01*
X193584882Y-81251342D01*
X193225272Y-81608942D01*
X192851266Y-81981085D01*
X192465411Y-82365247D01*
X192385250Y-82445084D01*
X191912205Y-82916216D01*
X191481943Y-83344640D01*
X191092280Y-83732485D01*
X190741033Y-84081880D01*
X190426017Y-84394953D01*
X190145049Y-84673832D01*
X189895944Y-84920646D01*
X189676520Y-85137524D01*
X189484592Y-85326594D01*
X189317976Y-85489984D01*
X189174489Y-85629822D01*
X189051947Y-85748238D01*
X188948166Y-85847360D01*
X188860962Y-85929316D01*
X188788151Y-85996234D01*
X188727550Y-86050243D01*
X188676975Y-86093472D01*
X188634242Y-86128049D01*
X188597167Y-86156103D01*
X188563567Y-86179761D01*
X188532015Y-86200662D01*
X188452518Y-86253662D01*
X188397544Y-86293093D01*
X188384750Y-86304031D01*
X188334467Y-86343961D01*
X188239049Y-86404908D01*
X188110567Y-86480326D01*
X187961090Y-86563664D01*
X187802687Y-86648375D01*
X187647429Y-86727910D01*
X187507386Y-86795720D01*
X187394626Y-86845258D01*
X187368750Y-86855271D01*
X187011641Y-86980872D01*
X186693595Y-87077728D01*
X186398979Y-87149349D01*
X186112155Y-87199244D01*
X185817490Y-87230921D01*
X185646312Y-87241855D01*
X185209750Y-87263985D01*
X185209750Y-85200352D01*
X185550419Y-85178327D01*
X185977604Y-85124526D01*
X186381153Y-85017886D01*
X186773090Y-84854628D01*
X187035375Y-84711572D01*
X187172605Y-84625518D01*
X187310833Y-84531742D01*
X187425123Y-84447328D01*
X187448125Y-84428787D01*
X187488443Y-84391613D01*
X187571091Y-84312097D01*
X187693489Y-84192794D01*
X187853060Y-84036257D01*
X188047225Y-83845041D01*
X188273406Y-83621698D01*
X188529025Y-83368783D01*
X188811503Y-83088849D01*
X189118261Y-82784450D01*
X189446723Y-82458141D01*
X189794308Y-82112475D01*
X190158440Y-81750005D01*
X190536539Y-81373285D01*
X190926027Y-80984870D01*
X191051750Y-80859421D01*
X191444154Y-80468153D01*
X191825999Y-80088079D01*
X192194709Y-79721732D01*
X192547708Y-79371644D01*
X192882422Y-79040347D01*
X193196275Y-78730374D01*
X193486693Y-78444255D01*
X193751100Y-78184525D01*
X193986922Y-77953714D01*
X194191583Y-77754355D01*
X194362508Y-77588981D01*
X194497122Y-77460123D01*
X194592850Y-77370314D01*
X194647117Y-77322085D01*
X194655375Y-77315801D01*
X194742620Y-77256068D01*
X194806622Y-77209230D01*
X194830000Y-77189058D01*
X194871268Y-77156118D01*
X194957222Y-77101238D01*
X195075853Y-77031084D01*
X195215154Y-76952322D01*
X195363116Y-76871617D01*
X195507734Y-76795635D01*
X195636999Y-76731042D01*
X195738904Y-76684502D01*
X195738952Y-76684482D01*
X195861969Y-76632835D01*
X195968592Y-76587880D01*
X196040450Y-76557367D01*
X196052375Y-76552235D01*
X196276185Y-76469527D01*
X196547228Y-76392455D01*
X196849286Y-76324161D01*
X197166139Y-76267787D01*
X197481570Y-76226477D01*
X197779359Y-76203373D01*
X197868387Y-76200336D01*
X198147875Y-76194217D01*
X198156246Y-77231858D01*
G36*
X193565902Y-82228284D02*
G01*
X193633247Y-82290769D01*
X193736579Y-82389652D01*
X193871492Y-82520634D01*
X194033579Y-82679411D01*
X194218433Y-82861681D01*
X194421647Y-83063145D01*
X194638817Y-83279499D01*
X194669368Y-83310017D01*
X194952824Y-83592240D01*
X195196181Y-83832191D01*
X195403269Y-84033455D01*
X195577918Y-84199615D01*
X195723958Y-84334253D01*
X195845219Y-84440952D01*
X195945530Y-84523295D01*
X196028722Y-84584866D01*
X196041032Y-84593253D01*
X196414021Y-84817406D01*
X196785461Y-84984332D01*
X197168672Y-85098538D01*
X197576977Y-85164529D01*
X197774812Y-85179824D01*
X198163750Y-85200799D01*
X198163750Y-87254750D01*
X197854187Y-87250093D01*
X197686949Y-87245438D01*
X197512609Y-87237118D01*
X197361521Y-87226678D01*
X197322375Y-87223074D01*
X197174702Y-87204297D01*
X197003617Y-87176546D01*
X196828814Y-87143627D01*
X196669985Y-87109346D01*
X196546821Y-87077510D01*
X196512750Y-87066593D01*
X196444140Y-87043830D01*
X196336503Y-87009577D01*
X196211589Y-86970743D01*
X196195250Y-86965729D01*
X196095008Y-86929879D01*
X195959977Y-86874441D01*
X195802061Y-86805080D01*
X195633167Y-86727464D01*
X195465199Y-86647259D01*
X195310063Y-86570132D01*
X195179664Y-86501750D01*
X195085908Y-86447781D01*
X195044383Y-86417927D01*
X194993789Y-86378484D01*
X194913242Y-86324739D01*
X194877625Y-86302737D01*
X194798738Y-86253332D01*
X194745327Y-86216397D01*
X194734750Y-86207194D01*
X194703577Y-86180307D01*
X194634796Y-86125709D01*
X194541588Y-86053808D01*
X194512500Y-86031683D01*
X194448698Y-85977878D01*
X194345545Y-85884101D01*
X194208380Y-85755486D01*
X194042545Y-85597168D01*
X193853382Y-85414283D01*
X193646232Y-85211965D01*
X193426435Y-84995350D01*
X193199334Y-84769573D01*
X193189797Y-84760047D01*
X192073469Y-83644891D01*
X192793175Y-82925695D01*
X192968967Y-82750812D01*
X193130834Y-82591283D01*
X193273238Y-82452449D01*
X193390641Y-82339649D01*
X193477508Y-82258223D01*
X193528300Y-82213511D01*
X193538950Y-82206500D01*
X193565902Y-82228284D01*
G37*
X193565902Y-82228284D02*
X193633247Y-82290769D01*
X193736579Y-82389652D01*
X193871492Y-82520634D01*
X194033579Y-82679411D01*
X194218433Y-82861681D01*
X194421647Y-83063145D01*
X194638817Y-83279499D01*
X194669368Y-83310017D01*
X194952824Y-83592240D01*
X195196181Y-83832191D01*
X195403269Y-84033455D01*
X195577918Y-84199615D01*
X195723958Y-84334253D01*
X195845219Y-84440952D01*
X195945530Y-84523295D01*
X196028722Y-84584866D01*
X196041032Y-84593253D01*
X196414021Y-84817406D01*
X196785461Y-84984332D01*
X197168672Y-85098538D01*
X197576977Y-85164529D01*
X197774812Y-85179824D01*
X198163750Y-85200799D01*
X198163750Y-87254750D01*
X197854187Y-87250093D01*
X197686949Y-87245438D01*
X197512609Y-87237118D01*
X197361521Y-87226678D01*
X197322375Y-87223074D01*
X197174702Y-87204297D01*
X197003617Y-87176546D01*
X196828814Y-87143627D01*
X196669985Y-87109346D01*
X196546821Y-87077510D01*
X196512750Y-87066593D01*
X196444140Y-87043830D01*
X196336503Y-87009577D01*
X196211589Y-86970743D01*
X196195250Y-86965729D01*
X196095008Y-86929879D01*
X195959977Y-86874441D01*
X195802061Y-86805080D01*
X195633167Y-86727464D01*
X195465199Y-86647259D01*
X195310063Y-86570132D01*
X195179664Y-86501750D01*
X195085908Y-86447781D01*
X195044383Y-86417927D01*
X194993789Y-86378484D01*
X194913242Y-86324739D01*
X194877625Y-86302737D01*
X194798738Y-86253332D01*
X194745327Y-86216397D01*
X194734750Y-86207194D01*
X194703577Y-86180307D01*
X194634796Y-86125709D01*
X194541588Y-86053808D01*
X194512500Y-86031683D01*
X194448698Y-85977878D01*
X194345545Y-85884101D01*
X194208380Y-85755486D01*
X194042545Y-85597168D01*
X193853382Y-85414283D01*
X193646232Y-85211965D01*
X193426435Y-84995350D01*
X193199334Y-84769573D01*
X193189797Y-84760047D01*
X192073469Y-83644891D01*
X192793175Y-82925695D01*
X192968967Y-82750812D01*
X193130834Y-82591283D01*
X193273238Y-82452449D01*
X193390641Y-82339649D01*
X193477508Y-82258223D01*
X193528300Y-82213511D01*
X193538950Y-82206500D01*
X193565902Y-82228284D01*
G36*
X211967062Y-76203045D02*
G01*
X211978459Y-76217366D01*
X211987612Y-76262084D01*
X211994718Y-76342401D01*
X211999980Y-76463522D01*
X212003595Y-76630649D01*
X212005763Y-76848985D01*
X212006685Y-77123735D01*
X212006750Y-77237625D01*
X212006750Y-78269500D01*
X211753339Y-78269499D01*
X211351206Y-78297571D01*
X210942687Y-78378553D01*
X210541598Y-78507597D01*
X210161753Y-78679855D01*
X209816965Y-78890478D01*
X209673125Y-78999576D01*
X209640002Y-79030586D01*
X209564463Y-79103909D01*
X209449053Y-79217020D01*
X209296320Y-79367395D01*
X209108812Y-79552509D01*
X208889076Y-79769838D01*
X208639659Y-80016857D01*
X208363109Y-80291042D01*
X208061972Y-80589867D01*
X207738798Y-80910808D01*
X207396132Y-81251342D01*
X207036522Y-81608942D01*
X206662516Y-81981085D01*
X206276661Y-82365247D01*
X206196500Y-82445084D01*
X205723455Y-82916216D01*
X205293193Y-83344640D01*
X204903530Y-83732485D01*
X204552283Y-84081880D01*
X204237267Y-84394953D01*
X203956299Y-84673832D01*
X203707194Y-84920646D01*
X203487770Y-85137524D01*
X203295842Y-85326594D01*
X203129226Y-85489984D01*
X202985739Y-85629822D01*
X202863197Y-85748238D01*
X202759416Y-85847360D01*
X202672212Y-85929316D01*
X202599401Y-85996234D01*
X202538800Y-86050243D01*
X202488225Y-86093472D01*
X202445492Y-86128049D01*
X202408417Y-86156103D01*
X202374817Y-86179761D01*
X202343265Y-86200662D01*
X202263768Y-86253662D01*
X202208794Y-86293093D01*
X202196000Y-86304031D01*
X202145717Y-86343961D01*
X202050299Y-86404908D01*
X201921817Y-86480326D01*
X201772340Y-86563664D01*
X201613937Y-86648375D01*
X201458679Y-86727910D01*
X201318636Y-86795720D01*
X201205876Y-86845258D01*
X201180000Y-86855271D01*
X200822891Y-86980872D01*
X200504845Y-87077728D01*
X200210229Y-87149349D01*
X199923405Y-87199244D01*
X199628740Y-87230921D01*
X199457562Y-87241855D01*
X199021000Y-87263985D01*
X199021000Y-85200352D01*
X199361669Y-85178327D01*
X199788854Y-85124526D01*
X200192403Y-85017886D01*
X200584340Y-84854628D01*
X200846625Y-84711572D01*
X200983855Y-84625518D01*
X201122083Y-84531742D01*
X201236373Y-84447328D01*
X201259375Y-84428787D01*
X201299693Y-84391613D01*
X201382341Y-84312097D01*
X201504739Y-84192794D01*
X201664310Y-84036257D01*
X201858475Y-83845041D01*
X202084656Y-83621698D01*
X202340275Y-83368783D01*
X202622753Y-83088849D01*
X202929511Y-82784450D01*
X203257973Y-82458141D01*
X203605558Y-82112475D01*
X203969690Y-81750005D01*
X204347789Y-81373285D01*
X204737277Y-80984870D01*
X204863000Y-80859421D01*
X205255404Y-80468153D01*
X205637249Y-80088079D01*
X206005959Y-79721732D01*
X206358958Y-79371644D01*
X206693672Y-79040347D01*
X207007525Y-78730374D01*
X207297943Y-78444255D01*
X207562350Y-78184525D01*
X207798172Y-77953714D01*
X208002833Y-77754355D01*
X208173758Y-77588981D01*
X208308372Y-77460123D01*
X208404100Y-77370314D01*
X208458367Y-77322085D01*
X208466625Y-77315801D01*
X208553870Y-77256068D01*
X208617872Y-77209230D01*
X208641250Y-77189058D01*
X208682518Y-77156118D01*
X208768472Y-77101238D01*
X208887103Y-77031084D01*
X209026404Y-76952322D01*
X209174366Y-76871617D01*
X209318984Y-76795635D01*
X209448249Y-76731042D01*
X209550154Y-76684502D01*
X209550202Y-76684482D01*
X209673219Y-76632835D01*
X209779842Y-76587880D01*
X209851700Y-76557367D01*
X209863625Y-76552235D01*
X210094908Y-76467118D01*
X210373235Y-76389068D01*
X210682298Y-76320790D01*
X211005790Y-76264993D01*
X211327403Y-76224382D01*
X211630832Y-76201665D01*
X211899768Y-76199550D01*
X211967062Y-76203045D01*
G37*
X211967062Y-76203045D02*
X211978459Y-76217366D01*
X211987612Y-76262084D01*
X211994718Y-76342401D01*
X211999980Y-76463522D01*
X212003595Y-76630649D01*
X212005763Y-76848985D01*
X212006685Y-77123735D01*
X212006750Y-77237625D01*
X212006750Y-78269500D01*
X211753339Y-78269499D01*
X211351206Y-78297571D01*
X210942687Y-78378553D01*
X210541598Y-78507597D01*
X210161753Y-78679855D01*
X209816965Y-78890478D01*
X209673125Y-78999576D01*
X209640002Y-79030586D01*
X209564463Y-79103909D01*
X209449053Y-79217020D01*
X209296320Y-79367395D01*
X209108812Y-79552509D01*
X208889076Y-79769838D01*
X208639659Y-80016857D01*
X208363109Y-80291042D01*
X208061972Y-80589867D01*
X207738798Y-80910808D01*
X207396132Y-81251342D01*
X207036522Y-81608942D01*
X206662516Y-81981085D01*
X206276661Y-82365247D01*
X206196500Y-82445084D01*
X205723455Y-82916216D01*
X205293193Y-83344640D01*
X204903530Y-83732485D01*
X204552283Y-84081880D01*
X204237267Y-84394953D01*
X203956299Y-84673832D01*
X203707194Y-84920646D01*
X203487770Y-85137524D01*
X203295842Y-85326594D01*
X203129226Y-85489984D01*
X202985739Y-85629822D01*
X202863197Y-85748238D01*
X202759416Y-85847360D01*
X202672212Y-85929316D01*
X202599401Y-85996234D01*
X202538800Y-86050243D01*
X202488225Y-86093472D01*
X202445492Y-86128049D01*
X202408417Y-86156103D01*
X202374817Y-86179761D01*
X202343265Y-86200662D01*
X202263768Y-86253662D01*
X202208794Y-86293093D01*
X202196000Y-86304031D01*
X202145717Y-86343961D01*
X202050299Y-86404908D01*
X201921817Y-86480326D01*
X201772340Y-86563664D01*
X201613937Y-86648375D01*
X201458679Y-86727910D01*
X201318636Y-86795720D01*
X201205876Y-86845258D01*
X201180000Y-86855271D01*
X200822891Y-86980872D01*
X200504845Y-87077728D01*
X200210229Y-87149349D01*
X199923405Y-87199244D01*
X199628740Y-87230921D01*
X199457562Y-87241855D01*
X199021000Y-87263985D01*
X199021000Y-85200352D01*
X199361669Y-85178327D01*
X199788854Y-85124526D01*
X200192403Y-85017886D01*
X200584340Y-84854628D01*
X200846625Y-84711572D01*
X200983855Y-84625518D01*
X201122083Y-84531742D01*
X201236373Y-84447328D01*
X201259375Y-84428787D01*
X201299693Y-84391613D01*
X201382341Y-84312097D01*
X201504739Y-84192794D01*
X201664310Y-84036257D01*
X201858475Y-83845041D01*
X202084656Y-83621698D01*
X202340275Y-83368783D01*
X202622753Y-83088849D01*
X202929511Y-82784450D01*
X203257973Y-82458141D01*
X203605558Y-82112475D01*
X203969690Y-81750005D01*
X204347789Y-81373285D01*
X204737277Y-80984870D01*
X204863000Y-80859421D01*
X205255404Y-80468153D01*
X205637249Y-80088079D01*
X206005959Y-79721732D01*
X206358958Y-79371644D01*
X206693672Y-79040347D01*
X207007525Y-78730374D01*
X207297943Y-78444255D01*
X207562350Y-78184525D01*
X207798172Y-77953714D01*
X208002833Y-77754355D01*
X208173758Y-77588981D01*
X208308372Y-77460123D01*
X208404100Y-77370314D01*
X208458367Y-77322085D01*
X208466625Y-77315801D01*
X208553870Y-77256068D01*
X208617872Y-77209230D01*
X208641250Y-77189058D01*
X208682518Y-77156118D01*
X208768472Y-77101238D01*
X208887103Y-77031084D01*
X209026404Y-76952322D01*
X209174366Y-76871617D01*
X209318984Y-76795635D01*
X209448249Y-76731042D01*
X209550154Y-76684502D01*
X209550202Y-76684482D01*
X209673219Y-76632835D01*
X209779842Y-76587880D01*
X209851700Y-76557367D01*
X209863625Y-76552235D01*
X210094908Y-76467118D01*
X210373235Y-76389068D01*
X210682298Y-76320790D01*
X211005790Y-76264993D01*
X211327403Y-76224382D01*
X211630832Y-76201665D01*
X211899768Y-76199550D01*
X211967062Y-76203045D01*
G36*
X140345733Y-76286437D02*
G01*
X140563729Y-76297983D01*
X140749949Y-76317117D01*
X140886750Y-76343317D01*
X141331380Y-76491873D01*
X141728792Y-76681405D01*
X142081893Y-76913909D01*
X142393592Y-77191379D01*
X142666797Y-77515811D01*
X142733208Y-77610051D01*
X142893574Y-77881835D01*
X143021966Y-78181012D01*
X143121429Y-78516881D01*
X143195008Y-78898739D01*
X143222294Y-79103382D01*
X143243677Y-79286389D01*
X142218800Y-79278007D01*
X141193924Y-79269625D01*
X141153891Y-79073320D01*
X141088419Y-78833255D01*
X140996225Y-78638491D01*
X140869806Y-78473807D01*
X140846643Y-78449972D01*
X140667807Y-78313505D01*
X140457065Y-78221506D01*
X140226547Y-78173556D01*
X139988381Y-78169238D01*
X139754697Y-78208135D01*
X139537625Y-78289830D01*
X139349294Y-78413905D01*
X139258432Y-78504627D01*
X139211083Y-78570374D01*
X139151487Y-78666424D01*
X139115582Y-78729875D01*
X139075139Y-78810810D01*
X139049700Y-78885267D01*
X139035875Y-78971992D01*
X139030271Y-79089733D01*
X139029423Y-79206125D01*
X139031275Y-79359414D01*
X139039053Y-79468157D01*
X139056091Y-79551255D01*
X139085723Y-79627609D01*
X139113543Y-79683003D01*
X139218255Y-79838120D01*
X139361942Y-79993415D01*
X139523550Y-80128347D01*
X139651214Y-80207634D01*
X139739542Y-80248716D01*
X139867980Y-80303497D01*
X140017020Y-80363823D01*
X140124036Y-80405314D01*
X140276165Y-80463166D01*
X140422126Y-80518786D01*
X140542270Y-80564681D01*
X140601000Y-80587205D01*
X140689901Y-80621402D01*
X140819057Y-80671059D01*
X140969445Y-80728865D01*
X141088628Y-80774666D01*
X141490328Y-80940953D01*
X141836875Y-81111047D01*
X142136610Y-81289851D01*
X142397869Y-81482270D01*
X142598369Y-81662605D01*
X142884666Y-81986359D01*
X143114739Y-82338708D01*
X143289262Y-82721062D01*
X143408906Y-83134829D01*
X143464256Y-83477500D01*
X143482684Y-83918349D01*
X143442325Y-84359008D01*
X143345884Y-84791187D01*
X143196067Y-85206595D01*
X142995578Y-85596942D01*
X142747122Y-85953940D01*
X142601250Y-86122169D01*
X142311279Y-86403938D01*
X142009505Y-86638142D01*
X141687195Y-86828995D01*
X141335615Y-86980711D01*
X140946033Y-87097503D01*
X140509716Y-87183587D01*
X140355609Y-87205759D01*
X140270084Y-87213317D01*
X140227642Y-87201325D01*
X140209129Y-87162846D01*
X140206709Y-87151830D01*
X140202185Y-87102077D01*
X140196789Y-86997800D01*
X140190841Y-86847961D01*
X140184664Y-86661525D01*
X140178578Y-86447454D01*
X140172904Y-86214713D01*
X140172548Y-86198733D01*
X140167129Y-85930414D01*
X140164221Y-85719361D01*
X140163976Y-85559383D01*
X140166545Y-85444290D01*
X140172081Y-85367892D01*
X140180735Y-85323998D01*
X140192659Y-85306418D01*
X140194449Y-85305745D01*
X140245730Y-85295198D01*
X140338895Y-85279063D01*
X140444314Y-85262304D01*
X140713136Y-85190095D01*
X140958921Y-85062740D01*
X141172573Y-84887042D01*
X141344994Y-84669806D01*
X141420280Y-84532271D01*
X141459773Y-84441354D01*
X141484721Y-84359828D01*
X141498196Y-84268603D01*
X141503271Y-84148588D01*
X141503326Y-84016250D01*
X141491179Y-83776634D01*
X141454943Y-83579000D01*
X141388810Y-83404513D01*
X141286969Y-83234343D01*
X141243744Y-83174875D01*
X141169842Y-83085841D01*
X141084344Y-83002388D01*
X140981599Y-82921552D01*
X140855957Y-82840369D01*
X140701770Y-82755875D01*
X140513389Y-82665106D01*
X140285162Y-82565099D01*
X140011442Y-82452888D01*
X139686578Y-82325510D01*
X139458000Y-82237999D01*
X139103990Y-82097101D01*
X138802134Y-81961981D01*
X138542205Y-81826545D01*
X138313975Y-81684697D01*
X138107218Y-81530340D01*
X137911707Y-81357378D01*
X137807000Y-81253885D01*
X137536389Y-80933221D01*
X137320833Y-80581862D01*
X137161471Y-80202654D01*
X137059439Y-79798446D01*
X137015875Y-79372082D01*
X137014244Y-79269625D01*
X137044559Y-78837971D01*
X137133422Y-78425394D01*
X137277709Y-78035840D01*
X137474298Y-77673253D01*
X137720065Y-77341580D01*
X138011887Y-77044767D01*
X138346640Y-76786759D01*
X138721203Y-76571501D01*
X139132451Y-76402940D01*
X139331000Y-76342735D01*
X139471351Y-76316252D01*
X139658769Y-76297386D01*
X139877484Y-76286133D01*
X140111728Y-76282485D01*
X140345733Y-76286437D01*
G37*
X140345733Y-76286437D02*
X140563729Y-76297983D01*
X140749949Y-76317117D01*
X140886750Y-76343317D01*
X141331380Y-76491873D01*
X141728792Y-76681405D01*
X142081893Y-76913909D01*
X142393592Y-77191379D01*
X142666797Y-77515811D01*
X142733208Y-77610051D01*
X142893574Y-77881835D01*
X143021966Y-78181012D01*
X143121429Y-78516881D01*
X143195008Y-78898739D01*
X143222294Y-79103382D01*
X143243677Y-79286389D01*
X142218800Y-79278007D01*
X141193924Y-79269625D01*
X141153891Y-79073320D01*
X141088419Y-78833255D01*
X140996225Y-78638491D01*
X140869806Y-78473807D01*
X140846643Y-78449972D01*
X140667807Y-78313505D01*
X140457065Y-78221506D01*
X140226547Y-78173556D01*
X139988381Y-78169238D01*
X139754697Y-78208135D01*
X139537625Y-78289830D01*
X139349294Y-78413905D01*
X139258432Y-78504627D01*
X139211083Y-78570374D01*
X139151487Y-78666424D01*
X139115582Y-78729875D01*
X139075139Y-78810810D01*
X139049700Y-78885267D01*
X139035875Y-78971992D01*
X139030271Y-79089733D01*
X139029423Y-79206125D01*
X139031275Y-79359414D01*
X139039053Y-79468157D01*
X139056091Y-79551255D01*
X139085723Y-79627609D01*
X139113543Y-79683003D01*
X139218255Y-79838120D01*
X139361942Y-79993415D01*
X139523550Y-80128347D01*
X139651214Y-80207634D01*
X139739542Y-80248716D01*
X139867980Y-80303497D01*
X140017020Y-80363823D01*
X140124036Y-80405314D01*
X140276165Y-80463166D01*
X140422126Y-80518786D01*
X140542270Y-80564681D01*
X140601000Y-80587205D01*
X140689901Y-80621402D01*
X140819057Y-80671059D01*
X140969445Y-80728865D01*
X141088628Y-80774666D01*
X141490328Y-80940953D01*
X141836875Y-81111047D01*
X142136610Y-81289851D01*
X142397869Y-81482270D01*
X142598369Y-81662605D01*
X142884666Y-81986359D01*
X143114739Y-82338708D01*
X143289262Y-82721062D01*
X143408906Y-83134829D01*
X143464256Y-83477500D01*
X143482684Y-83918349D01*
X143442325Y-84359008D01*
X143345884Y-84791187D01*
X143196067Y-85206595D01*
X142995578Y-85596942D01*
X142747122Y-85953940D01*
X142601250Y-86122169D01*
X142311279Y-86403938D01*
X142009505Y-86638142D01*
X141687195Y-86828995D01*
X141335615Y-86980711D01*
X140946033Y-87097503D01*
X140509716Y-87183587D01*
X140355609Y-87205759D01*
X140270084Y-87213317D01*
X140227642Y-87201325D01*
X140209129Y-87162846D01*
X140206709Y-87151830D01*
X140202185Y-87102077D01*
X140196789Y-86997800D01*
X140190841Y-86847961D01*
X140184664Y-86661525D01*
X140178578Y-86447454D01*
X140172904Y-86214713D01*
X140172548Y-86198733D01*
X140167129Y-85930414D01*
X140164221Y-85719361D01*
X140163976Y-85559383D01*
X140166545Y-85444290D01*
X140172081Y-85367892D01*
X140180735Y-85323998D01*
X140192659Y-85306418D01*
X140194449Y-85305745D01*
X140245730Y-85295198D01*
X140338895Y-85279063D01*
X140444314Y-85262304D01*
X140713136Y-85190095D01*
X140958921Y-85062740D01*
X141172573Y-84887042D01*
X141344994Y-84669806D01*
X141420280Y-84532271D01*
X141459773Y-84441354D01*
X141484721Y-84359828D01*
X141498196Y-84268603D01*
X141503271Y-84148588D01*
X141503326Y-84016250D01*
X141491179Y-83776634D01*
X141454943Y-83579000D01*
X141388810Y-83404513D01*
X141286969Y-83234343D01*
X141243744Y-83174875D01*
X141169842Y-83085841D01*
X141084344Y-83002388D01*
X140981599Y-82921552D01*
X140855957Y-82840369D01*
X140701770Y-82755875D01*
X140513389Y-82665106D01*
X140285162Y-82565099D01*
X140011442Y-82452888D01*
X139686578Y-82325510D01*
X139458000Y-82237999D01*
X139103990Y-82097101D01*
X138802134Y-81961981D01*
X138542205Y-81826545D01*
X138313975Y-81684697D01*
X138107218Y-81530340D01*
X137911707Y-81357378D01*
X137807000Y-81253885D01*
X137536389Y-80933221D01*
X137320833Y-80581862D01*
X137161471Y-80202654D01*
X137059439Y-79798446D01*
X137015875Y-79372082D01*
X137014244Y-79269625D01*
X137044559Y-78837971D01*
X137133422Y-78425394D01*
X137277709Y-78035840D01*
X137474298Y-77673253D01*
X137720065Y-77341580D01*
X138011887Y-77044767D01*
X138346640Y-76786759D01*
X138721203Y-76571501D01*
X139132451Y-76402940D01*
X139331000Y-76342735D01*
X139471351Y-76316252D01*
X139658769Y-76297386D01*
X139877484Y-76286133D01*
X140111728Y-76282485D01*
X140345733Y-76286437D01*
G36*
X147676778Y-81147222D02*
G01*
X147828872Y-81150043D01*
X147944838Y-81156664D01*
X148038362Y-81168568D01*
X148123128Y-81187241D01*
X148212818Y-81214168D01*
X148268625Y-81232835D01*
X148481870Y-81311602D01*
X148653103Y-81391065D01*
X148802961Y-81482273D01*
X148952081Y-81596276D01*
X148960459Y-81603250D01*
X149158796Y-81787772D01*
X149319232Y-81982710D01*
X149449276Y-82200896D01*
X149556442Y-82455162D01*
X149648239Y-82758341D01*
X149657378Y-82793875D01*
X149670272Y-82847525D01*
X149681391Y-82902718D01*
X149690908Y-82964554D01*
X149698993Y-83038134D01*
X149705819Y-83128558D01*
X149711557Y-83240929D01*
X149716379Y-83380346D01*
X149720456Y-83551910D01*
X149723959Y-83760723D01*
X149727060Y-84011885D01*
X149729931Y-84310497D01*
X149732743Y-84661661D01*
X149735667Y-85070476D01*
X149736115Y-85135437D01*
X149750456Y-87223000D01*
X148316250Y-87223000D01*
X148315971Y-85754562D01*
X148314898Y-85269094D01*
X148311494Y-84842571D01*
X148305185Y-84470461D01*
X148295395Y-84148231D01*
X148281552Y-83871352D01*
X148263081Y-83635291D01*
X148239407Y-83435516D01*
X148209958Y-83267497D01*
X148174158Y-83126702D01*
X148131434Y-83008600D01*
X148081212Y-82908658D01*
X148022917Y-82822346D01*
X147955976Y-82745132D01*
X147931596Y-82720588D01*
X147752434Y-82587886D01*
X147539671Y-82499527D01*
X147304898Y-82455241D01*
X147059704Y-82454759D01*
X146815679Y-82497813D01*
X146584410Y-82584132D01*
X146377489Y-82713449D01*
X146324861Y-82757896D01*
X146172211Y-82936666D01*
X146052563Y-83164838D01*
X145969185Y-83435709D01*
X145952021Y-83522638D01*
X145940844Y-83597239D01*
X145931431Y-83685924D01*
X145923646Y-83794269D01*
X145917352Y-83927848D01*
X145912413Y-84092238D01*
X145908692Y-84293013D01*
X145906052Y-84535749D01*
X145904357Y-84826021D01*
X145903470Y-85169405D01*
X145903250Y-85512658D01*
X145903250Y-87223000D01*
X145194166Y-87223000D01*
X144988089Y-87222091D01*
X144803664Y-87219545D01*
X144650247Y-87215633D01*
X144537195Y-87210627D01*
X144473863Y-87204797D01*
X144463916Y-87201833D01*
X144460858Y-87167710D01*
X144457933Y-87074528D01*
X144455172Y-86926729D01*
X144452606Y-86728755D01*
X144450266Y-86485046D01*
X144448186Y-86200044D01*
X144446395Y-85878192D01*
X144444925Y-85523929D01*
X144443809Y-85141697D01*
X144443077Y-84735939D01*
X144442760Y-84311094D01*
X144442750Y-84216701D01*
X144442750Y-81252737D01*
X145117437Y-81261306D01*
X145792125Y-81269875D01*
X145801319Y-81530112D01*
X145810513Y-81790350D01*
X146016612Y-81626085D01*
X146289546Y-81431009D01*
X146559466Y-81285953D01*
X146744625Y-81212717D01*
X146825747Y-81187665D01*
X146909188Y-81169765D01*
X147007650Y-81157868D01*
X147133836Y-81150825D01*
X147300450Y-81147490D01*
X147474875Y-81146716D01*
X147676778Y-81147222D01*
G37*
X147676778Y-81147222D02*
X147828872Y-81150043D01*
X147944838Y-81156664D01*
X148038362Y-81168568D01*
X148123128Y-81187241D01*
X148212818Y-81214168D01*
X148268625Y-81232835D01*
X148481870Y-81311602D01*
X148653103Y-81391065D01*
X148802961Y-81482273D01*
X148952081Y-81596276D01*
X148960459Y-81603250D01*
X149158796Y-81787772D01*
X149319232Y-81982710D01*
X149449276Y-82200896D01*
X149556442Y-82455162D01*
X149648239Y-82758341D01*
X149657378Y-82793875D01*
X149670272Y-82847525D01*
X149681391Y-82902718D01*
X149690908Y-82964554D01*
X149698993Y-83038134D01*
X149705819Y-83128558D01*
X149711557Y-83240929D01*
X149716379Y-83380346D01*
X149720456Y-83551910D01*
X149723959Y-83760723D01*
X149727060Y-84011885D01*
X149729931Y-84310497D01*
X149732743Y-84661661D01*
X149735667Y-85070476D01*
X149736115Y-85135437D01*
X149750456Y-87223000D01*
X148316250Y-87223000D01*
X148315971Y-85754562D01*
X148314898Y-85269094D01*
X148311494Y-84842571D01*
X148305185Y-84470461D01*
X148295395Y-84148231D01*
X148281552Y-83871352D01*
X148263081Y-83635291D01*
X148239407Y-83435516D01*
X148209958Y-83267497D01*
X148174158Y-83126702D01*
X148131434Y-83008600D01*
X148081212Y-82908658D01*
X148022917Y-82822346D01*
X147955976Y-82745132D01*
X147931596Y-82720588D01*
X147752434Y-82587886D01*
X147539671Y-82499527D01*
X147304898Y-82455241D01*
X147059704Y-82454759D01*
X146815679Y-82497813D01*
X146584410Y-82584132D01*
X146377489Y-82713449D01*
X146324861Y-82757896D01*
X146172211Y-82936666D01*
X146052563Y-83164838D01*
X145969185Y-83435709D01*
X145952021Y-83522638D01*
X145940844Y-83597239D01*
X145931431Y-83685924D01*
X145923646Y-83794269D01*
X145917352Y-83927848D01*
X145912413Y-84092238D01*
X145908692Y-84293013D01*
X145906052Y-84535749D01*
X145904357Y-84826021D01*
X145903470Y-85169405D01*
X145903250Y-85512658D01*
X145903250Y-87223000D01*
X145194166Y-87223000D01*
X144988089Y-87222091D01*
X144803664Y-87219545D01*
X144650247Y-87215633D01*
X144537195Y-87210627D01*
X144473863Y-87204797D01*
X144463916Y-87201833D01*
X144460858Y-87167710D01*
X144457933Y-87074528D01*
X144455172Y-86926729D01*
X144452606Y-86728755D01*
X144450266Y-86485046D01*
X144448186Y-86200044D01*
X144446395Y-85878192D01*
X144444925Y-85523929D01*
X144443809Y-85141697D01*
X144443077Y-84735939D01*
X144442760Y-84311094D01*
X144442750Y-84216701D01*
X144442750Y-81252737D01*
X145117437Y-81261306D01*
X145792125Y-81269875D01*
X145801319Y-81530112D01*
X145810513Y-81790350D01*
X146016612Y-81626085D01*
X146289546Y-81431009D01*
X146559466Y-81285953D01*
X146744625Y-81212717D01*
X146825747Y-81187665D01*
X146909188Y-81169765D01*
X147007650Y-81157868D01*
X147133836Y-81150825D01*
X147300450Y-81147490D01*
X147474875Y-81146716D01*
X147676778Y-81147222D01*
G36*
X159404736Y-81639447D02*
G01*
X159412875Y-84025144D01*
X159719393Y-83568259D01*
X159818800Y-83420523D01*
X159945985Y-83232174D01*
X160092931Y-83015049D01*
X160251618Y-82780984D01*
X160414028Y-82541815D01*
X160572143Y-82309378D01*
X160588149Y-82285875D01*
X160729611Y-82077841D01*
X160862089Y-81882393D01*
X160980638Y-81706869D01*
X161080317Y-81558611D01*
X161156182Y-81444960D01*
X161203292Y-81373257D01*
X161213454Y-81357187D01*
X161276522Y-81254000D01*
X162133281Y-81254000D01*
X162409022Y-81255124D01*
X162633866Y-81258428D01*
X162804986Y-81263808D01*
X162919555Y-81271160D01*
X162974746Y-81280379D01*
X162979458Y-81285108D01*
X162958463Y-81318415D01*
X162905085Y-81395490D01*
X162824583Y-81508958D01*
X162722215Y-81651447D01*
X162603241Y-81815582D01*
X162509592Y-81943921D01*
X162216595Y-82344450D01*
X161950575Y-82708282D01*
X161712866Y-83033589D01*
X161504803Y-83318542D01*
X161327719Y-83561310D01*
X161182950Y-83760065D01*
X161071830Y-83912977D01*
X160995693Y-84018218D01*
X160957454Y-84071700D01*
X160885085Y-84174775D01*
X161339605Y-84734668D01*
X161507651Y-84941599D01*
X161696734Y-85174311D01*
X161891293Y-85413662D01*
X162075769Y-85640508D01*
X162223620Y-85822218D01*
X162465251Y-86119140D01*
X162669741Y-86370597D01*
X162840091Y-86580328D01*
X162979300Y-86752071D01*
X163090370Y-86889564D01*
X163176302Y-86996544D01*
X163240095Y-87076751D01*
X163284751Y-87133921D01*
X163313270Y-87171794D01*
X163328652Y-87194107D01*
X163333900Y-87204598D01*
X163334000Y-87205482D01*
X163303538Y-87209833D01*
X163217306Y-87213751D01*
X163083031Y-87217098D01*
X162908442Y-87219739D01*
X162701268Y-87221539D01*
X162469236Y-87222360D01*
X162373562Y-87222386D01*
X161413125Y-87221772D01*
X161028997Y-86690573D01*
X160890102Y-86498773D01*
X160730616Y-86279001D01*
X160557253Y-86040468D01*
X160376724Y-85792383D01*
X160195742Y-85543957D01*
X160021018Y-85304400D01*
X159859264Y-85082923D01*
X159717194Y-84888734D01*
X159601518Y-84731045D01*
X159546033Y-84655694D01*
X159397000Y-84453764D01*
X159397000Y-87223000D01*
X157968250Y-87223000D01*
X157968250Y-79253750D01*
X159396598Y-79253750D01*
X159404736Y-81639447D01*
G37*
X159404736Y-81639447D02*
X159412875Y-84025144D01*
X159719393Y-83568259D01*
X159818800Y-83420523D01*
X159945985Y-83232174D01*
X160092931Y-83015049D01*
X160251618Y-82780984D01*
X160414028Y-82541815D01*
X160572143Y-82309378D01*
X160588149Y-82285875D01*
X160729611Y-82077841D01*
X160862089Y-81882393D01*
X160980638Y-81706869D01*
X161080317Y-81558611D01*
X161156182Y-81444960D01*
X161203292Y-81373257D01*
X161213454Y-81357187D01*
X161276522Y-81254000D01*
X162133281Y-81254000D01*
X162409022Y-81255124D01*
X162633866Y-81258428D01*
X162804986Y-81263808D01*
X162919555Y-81271160D01*
X162974746Y-81280379D01*
X162979458Y-81285108D01*
X162958463Y-81318415D01*
X162905085Y-81395490D01*
X162824583Y-81508958D01*
X162722215Y-81651447D01*
X162603241Y-81815582D01*
X162509592Y-81943921D01*
X162216595Y-82344450D01*
X161950575Y-82708282D01*
X161712866Y-83033589D01*
X161504803Y-83318542D01*
X161327719Y-83561310D01*
X161182950Y-83760065D01*
X161071830Y-83912977D01*
X160995693Y-84018218D01*
X160957454Y-84071700D01*
X160885085Y-84174775D01*
X161339605Y-84734668D01*
X161507651Y-84941599D01*
X161696734Y-85174311D01*
X161891293Y-85413662D01*
X162075769Y-85640508D01*
X162223620Y-85822218D01*
X162465251Y-86119140D01*
X162669741Y-86370597D01*
X162840091Y-86580328D01*
X162979300Y-86752071D01*
X163090370Y-86889564D01*
X163176302Y-86996544D01*
X163240095Y-87076751D01*
X163284751Y-87133921D01*
X163313270Y-87171794D01*
X163328652Y-87194107D01*
X163333900Y-87204598D01*
X163334000Y-87205482D01*
X163303538Y-87209833D01*
X163217306Y-87213751D01*
X163083031Y-87217098D01*
X162908442Y-87219739D01*
X162701268Y-87221539D01*
X162469236Y-87222360D01*
X162373562Y-87222386D01*
X161413125Y-87221772D01*
X161028997Y-86690573D01*
X160890102Y-86498773D01*
X160730616Y-86279001D01*
X160557253Y-86040468D01*
X160376724Y-85792383D01*
X160195742Y-85543957D01*
X160021018Y-85304400D01*
X159859264Y-85082923D01*
X159717194Y-84888734D01*
X159601518Y-84731045D01*
X159546033Y-84655694D01*
X159397000Y-84453764D01*
X159397000Y-87223000D01*
X157968250Y-87223000D01*
X157968250Y-79253750D01*
X159396598Y-79253750D01*
X159404736Y-81639447D01*
G36*
X181463250Y-87223000D02*
G01*
X180034500Y-87223000D01*
X180034500Y-81254000D01*
X181463250Y-81254000D01*
X181463250Y-87223000D01*
G37*
X181463250Y-87223000D02*
X180034500Y-87223000D01*
X180034500Y-81254000D01*
X181463250Y-81254000D01*
X181463250Y-87223000D01*
G36*
X184035000Y-87223000D02*
G01*
X182606003Y-87223000D01*
X182614064Y-83246312D01*
X182622125Y-79269625D01*
X183328562Y-79261080D01*
X184035000Y-79252535D01*
X184035000Y-87223000D01*
G37*
X184035000Y-87223000D02*
X182606003Y-87223000D01*
X182614064Y-83246312D01*
X182622125Y-79269625D01*
X183328562Y-79261080D01*
X184035000Y-79252535D01*
X184035000Y-87223000D01*
G36*
X139205113Y-85061156D02*
G01*
X139307090Y-85126118D01*
X139410493Y-85178576D01*
X139445551Y-85192130D01*
X139517039Y-85220973D01*
X139543286Y-85258660D01*
X139539180Y-85330021D01*
X139536958Y-85344578D01*
X139518447Y-85456218D01*
X139491092Y-85612325D01*
X139458129Y-85795024D01*
X139422798Y-85986441D01*
X139388333Y-86168703D01*
X139377881Y-86222875D01*
X139352747Y-86355772D01*
X139322007Y-86523271D01*
X139290771Y-86697382D01*
X139277892Y-86770562D01*
X139248423Y-86925459D01*
X139222879Y-87025524D01*
X139198561Y-87079080D01*
X139172834Y-87094451D01*
X139121877Y-87083775D01*
X139028587Y-87056729D01*
X138910369Y-87018471D01*
X138870625Y-87004879D01*
X138455296Y-86831667D01*
X138069268Y-86611952D01*
X137743500Y-86368497D01*
X137632375Y-86273640D01*
X137711750Y-86198086D01*
X137796104Y-86118741D01*
X137910605Y-86012392D01*
X138047339Y-85886255D01*
X138198396Y-85747548D01*
X138355865Y-85603486D01*
X138511833Y-85461286D01*
X138658389Y-85328166D01*
X138787622Y-85211342D01*
X138891619Y-85118031D01*
X138962470Y-85055450D01*
X138988294Y-85033645D01*
X139074213Y-84966333D01*
X139205113Y-85061156D01*
G37*
X139205113Y-85061156D02*
X139307090Y-85126118D01*
X139410493Y-85178576D01*
X139445551Y-85192130D01*
X139517039Y-85220973D01*
X139543286Y-85258660D01*
X139539180Y-85330021D01*
X139536958Y-85344578D01*
X139518447Y-85456218D01*
X139491092Y-85612325D01*
X139458129Y-85795024D01*
X139422798Y-85986441D01*
X139388333Y-86168703D01*
X139377881Y-86222875D01*
X139352747Y-86355772D01*
X139322007Y-86523271D01*
X139290771Y-86697382D01*
X139277892Y-86770562D01*
X139248423Y-86925459D01*
X139222879Y-87025524D01*
X139198561Y-87079080D01*
X139172834Y-87094451D01*
X139121877Y-87083775D01*
X139028587Y-87056729D01*
X138910369Y-87018471D01*
X138870625Y-87004879D01*
X138455296Y-86831667D01*
X138069268Y-86611952D01*
X137743500Y-86368497D01*
X137632375Y-86273640D01*
X137711750Y-86198086D01*
X137796104Y-86118741D01*
X137910605Y-86012392D01*
X138047339Y-85886255D01*
X138198396Y-85747548D01*
X138355865Y-85603486D01*
X138511833Y-85461286D01*
X138658389Y-85328166D01*
X138787622Y-85211342D01*
X138891619Y-85118031D01*
X138962470Y-85055450D01*
X138988294Y-85033645D01*
X139074213Y-84966333D01*
X139205113Y-85061156D01*
G36*
X138754343Y-84482733D02*
G01*
X138791951Y-84508475D01*
X138822720Y-84556675D01*
X138857455Y-84628203D01*
X138858486Y-84630335D01*
X138941337Y-84801537D01*
X138159856Y-85340108D01*
X137961676Y-85476560D01*
X137779603Y-85601680D01*
X137620429Y-85710819D01*
X137490949Y-85799328D01*
X137397954Y-85862557D01*
X137348238Y-85895858D01*
X137342562Y-85899444D01*
X137308050Y-85884854D01*
X137250324Y-85822904D01*
X137176872Y-85721812D01*
X137166685Y-85706416D01*
X137002017Y-85431532D01*
X136879242Y-85175454D01*
X136859154Y-85124490D01*
X136846903Y-85085799D01*
X136851736Y-85057614D01*
X136883801Y-85033345D01*
X136953246Y-85006399D01*
X137070218Y-84970186D01*
X137119097Y-84955637D01*
X137255611Y-84914701D01*
X137376960Y-84877641D01*
X137464701Y-84850119D01*
X137489500Y-84841946D01*
X137558272Y-84819847D01*
X137666170Y-84786767D01*
X137791330Y-84749395D01*
X137807000Y-84744784D01*
X137956280Y-84700024D01*
X138131389Y-84646177D01*
X138297796Y-84593877D01*
X138319424Y-84586966D01*
X138492436Y-84531567D01*
X138615389Y-84495148D01*
X138699090Y-84478581D01*
X138754343Y-84482733D01*
G37*
X138754343Y-84482733D02*
X138791951Y-84508475D01*
X138822720Y-84556675D01*
X138857455Y-84628203D01*
X138858486Y-84630335D01*
X138941337Y-84801537D01*
X138159856Y-85340108D01*
X137961676Y-85476560D01*
X137779603Y-85601680D01*
X137620429Y-85710819D01*
X137490949Y-85799328D01*
X137397954Y-85862557D01*
X137348238Y-85895858D01*
X137342562Y-85899444D01*
X137308050Y-85884854D01*
X137250324Y-85822904D01*
X137176872Y-85721812D01*
X137166685Y-85706416D01*
X137002017Y-85431532D01*
X136879242Y-85175454D01*
X136859154Y-85124490D01*
X136846903Y-85085799D01*
X136851736Y-85057614D01*
X136883801Y-85033345D01*
X136953246Y-85006399D01*
X137070218Y-84970186D01*
X137119097Y-84955637D01*
X137255611Y-84914701D01*
X137376960Y-84877641D01*
X137464701Y-84850119D01*
X137489500Y-84841946D01*
X137558272Y-84819847D01*
X137666170Y-84786767D01*
X137791330Y-84749395D01*
X137807000Y-84744784D01*
X137956280Y-84700024D01*
X138131389Y-84646177D01*
X138297796Y-84593877D01*
X138319424Y-84586966D01*
X138492436Y-84531567D01*
X138615389Y-84495148D01*
X138699090Y-84478581D01*
X138754343Y-84482733D01*
G36*
X138703895Y-84103562D02*
G01*
X138712076Y-84182149D01*
X138713681Y-84227134D01*
X138712884Y-84230338D01*
X138681218Y-84240332D01*
X138606750Y-84257380D01*
X138550703Y-84268856D01*
X138431600Y-84293069D01*
X138287774Y-84323329D01*
X138188000Y-84344877D01*
X137893770Y-84409405D01*
X137654030Y-84462141D01*
X137461213Y-84504770D01*
X137307756Y-84538976D01*
X137186094Y-84566443D01*
X137088661Y-84588857D01*
X137022599Y-84604394D01*
X136887190Y-84634724D01*
X136800606Y-84647517D01*
X136750540Y-84642422D01*
X136724689Y-84619091D01*
X136715534Y-84595687D01*
X136693955Y-84504425D01*
X136670893Y-84380717D01*
X136650320Y-84249460D01*
X136636212Y-84135547D01*
X136632250Y-84073918D01*
X136632250Y-83984500D01*
X138689052Y-83984500D01*
X138703895Y-84103562D01*
G37*
X138703895Y-84103562D02*
X138712076Y-84182149D01*
X138713681Y-84227134D01*
X138712884Y-84230338D01*
X138681218Y-84240332D01*
X138606750Y-84257380D01*
X138550703Y-84268856D01*
X138431600Y-84293069D01*
X138287774Y-84323329D01*
X138188000Y-84344877D01*
X137893770Y-84409405D01*
X137654030Y-84462141D01*
X137461213Y-84504770D01*
X137307756Y-84538976D01*
X137186094Y-84566443D01*
X137088661Y-84588857D01*
X137022599Y-84604394D01*
X136887190Y-84634724D01*
X136800606Y-84647517D01*
X136750540Y-84642422D01*
X136724689Y-84619091D01*
X136715534Y-84595687D01*
X136693955Y-84504425D01*
X136670893Y-84380717D01*
X136650320Y-84249460D01*
X136636212Y-84135547D01*
X136632250Y-84073918D01*
X136632250Y-83984500D01*
X138689052Y-83984500D01*
X138703895Y-84103562D01*
G36*
X185455812Y-76205933D02*
G01*
X185608883Y-76210615D01*
X185768337Y-76222671D01*
X185892375Y-76238413D01*
X186021404Y-76258972D01*
X186147122Y-76276911D01*
X186209875Y-76284668D01*
X186295841Y-76299192D01*
X186425699Y-76327143D01*
X186582336Y-76364322D01*
X186748639Y-76406530D01*
X186907496Y-76449569D01*
X187035375Y-76487228D01*
X187173957Y-76536187D01*
X187350472Y-76607219D01*
X187546656Y-76692821D01*
X187638625Y-76735093D01*
X187722070Y-76776445D01*
X187834342Y-76835163D01*
X187960610Y-76903108D01*
X188086041Y-76972143D01*
X188195805Y-77034127D01*
X188275070Y-77080922D01*
X188305375Y-77100989D01*
X188343050Y-77129349D01*
X188419705Y-77186069D01*
X188523031Y-77262066D01*
X188607000Y-77323597D01*
X188697047Y-77396035D01*
X188827633Y-77510727D01*
X188995154Y-77664274D01*
X189196009Y-77853279D01*
X189426596Y-78074344D01*
X189683315Y-78324072D01*
X189962563Y-78599064D01*
X190032964Y-78668870D01*
X191189053Y-79816676D01*
X190450073Y-80551213D01*
X190272622Y-80727375D01*
X190110210Y-80888182D01*
X189968132Y-81028424D01*
X189851684Y-81142891D01*
X189766161Y-81226375D01*
X189716857Y-81273665D01*
X189706733Y-81282524D01*
X189684257Y-81259996D01*
X189621593Y-81196736D01*
X189523155Y-81097211D01*
X189393357Y-80965889D01*
X189236613Y-80807235D01*
X189057337Y-80625718D01*
X188859942Y-80425803D01*
X188670500Y-80233897D01*
X188384355Y-79945070D01*
X188136955Y-79698080D01*
X187923404Y-79488636D01*
X187738807Y-79312449D01*
X187578266Y-79165228D01*
X187436887Y-79042682D01*
X187309774Y-78940521D01*
X187192030Y-78854455D01*
X187078760Y-78780193D01*
X186965067Y-78713446D01*
X186887595Y-78671517D01*
X186551407Y-78512966D01*
X186223379Y-78399154D01*
X185881842Y-78324028D01*
X185505126Y-78281533D01*
X185487562Y-78280329D01*
X185209750Y-78261732D01*
X185209750Y-76205750D01*
X185455812Y-76205933D01*
G37*
X185455812Y-76205933D02*
X185608883Y-76210615D01*
X185768337Y-76222671D01*
X185892375Y-76238413D01*
X186021404Y-76258972D01*
X186147122Y-76276911D01*
X186209875Y-76284668D01*
X186295841Y-76299192D01*
X186425699Y-76327143D01*
X186582336Y-76364322D01*
X186748639Y-76406530D01*
X186907496Y-76449569D01*
X187035375Y-76487228D01*
X187173957Y-76536187D01*
X187350472Y-76607219D01*
X187546656Y-76692821D01*
X187638625Y-76735093D01*
X187722070Y-76776445D01*
X187834342Y-76835163D01*
X187960610Y-76903108D01*
X188086041Y-76972143D01*
X188195805Y-77034127D01*
X188275070Y-77080922D01*
X188305375Y-77100989D01*
X188343050Y-77129349D01*
X188419705Y-77186069D01*
X188523031Y-77262066D01*
X188607000Y-77323597D01*
X188697047Y-77396035D01*
X188827633Y-77510727D01*
X188995154Y-77664274D01*
X189196009Y-77853279D01*
X189426596Y-78074344D01*
X189683315Y-78324072D01*
X189962563Y-78599064D01*
X190032964Y-78668870D01*
X191189053Y-79816676D01*
X190450073Y-80551213D01*
X190272622Y-80727375D01*
X190110210Y-80888182D01*
X189968132Y-81028424D01*
X189851684Y-81142891D01*
X189766161Y-81226375D01*
X189716857Y-81273665D01*
X189706733Y-81282524D01*
X189684257Y-81259996D01*
X189621593Y-81196736D01*
X189523155Y-81097211D01*
X189393357Y-80965889D01*
X189236613Y-80807235D01*
X189057337Y-80625718D01*
X188859942Y-80425803D01*
X188670500Y-80233897D01*
X188384355Y-79945070D01*
X188136955Y-79698080D01*
X187923404Y-79488636D01*
X187738807Y-79312449D01*
X187578266Y-79165228D01*
X187436887Y-79042682D01*
X187309774Y-78940521D01*
X187192030Y-78854455D01*
X187078760Y-78780193D01*
X186965067Y-78713446D01*
X186887595Y-78671517D01*
X186551407Y-78512966D01*
X186223379Y-78399154D01*
X185881842Y-78324028D01*
X185505126Y-78281533D01*
X185487562Y-78280329D01*
X185209750Y-78261732D01*
X185209750Y-76205750D01*
X185455812Y-76205933D01*
G36*
X199267062Y-76205933D02*
G01*
X199420133Y-76210615D01*
X199579587Y-76222671D01*
X199703625Y-76238413D01*
X199832654Y-76258972D01*
X199958372Y-76276911D01*
X200021125Y-76284668D01*
X200107091Y-76299192D01*
X200236949Y-76327143D01*
X200393586Y-76364322D01*
X200559889Y-76406530D01*
X200718746Y-76449569D01*
X200846625Y-76487228D01*
X200985207Y-76536187D01*
X201161722Y-76607219D01*
X201357906Y-76692821D01*
X201449875Y-76735093D01*
X201533320Y-76776445D01*
X201645592Y-76835163D01*
X201771860Y-76903108D01*
X201897291Y-76972143D01*
X202007055Y-77034127D01*
X202086320Y-77080922D01*
X202116625Y-77100989D01*
X202154300Y-77129349D01*
X202230955Y-77186069D01*
X202334281Y-77262066D01*
X202418250Y-77323597D01*
X202508297Y-77396035D01*
X202638883Y-77510727D01*
X202806404Y-77664274D01*
X203007259Y-77853279D01*
X203237846Y-78074344D01*
X203494565Y-78324072D01*
X203773813Y-78599064D01*
X203844214Y-78668870D01*
X205000303Y-79816676D01*
X204261323Y-80551213D01*
X204083872Y-80727375D01*
X203921460Y-80888182D01*
X203779382Y-81028424D01*
X203662934Y-81142891D01*
X203577411Y-81226375D01*
X203528107Y-81273665D01*
X203517983Y-81282524D01*
X203495507Y-81259996D01*
X203432843Y-81196736D01*
X203334405Y-81097211D01*
X203204607Y-80965889D01*
X203047863Y-80807235D01*
X202868587Y-80625718D01*
X202671192Y-80425803D01*
X202481750Y-80233897D01*
X202195605Y-79945070D01*
X201948205Y-79698080D01*
X201734654Y-79488636D01*
X201550057Y-79312449D01*
X201389516Y-79165228D01*
X201248137Y-79042682D01*
X201121024Y-78940521D01*
X201003280Y-78854455D01*
X200890010Y-78780193D01*
X200776317Y-78713446D01*
X200698845Y-78671517D01*
X200362657Y-78512966D01*
X200034629Y-78399154D01*
X199693092Y-78324028D01*
X199316376Y-78281533D01*
X199298812Y-78280329D01*
X199021000Y-78261732D01*
X199021000Y-76205750D01*
X199267062Y-76205933D01*
G37*
X199267062Y-76205933D02*
X199420133Y-76210615D01*
X199579587Y-76222671D01*
X199703625Y-76238413D01*
X199832654Y-76258972D01*
X199958372Y-76276911D01*
X200021125Y-76284668D01*
X200107091Y-76299192D01*
X200236949Y-76327143D01*
X200393586Y-76364322D01*
X200559889Y-76406530D01*
X200718746Y-76449569D01*
X200846625Y-76487228D01*
X200985207Y-76536187D01*
X201161722Y-76607219D01*
X201357906Y-76692821D01*
X201449875Y-76735093D01*
X201533320Y-76776445D01*
X201645592Y-76835163D01*
X201771860Y-76903108D01*
X201897291Y-76972143D01*
X202007055Y-77034127D01*
X202086320Y-77080922D01*
X202116625Y-77100989D01*
X202154300Y-77129349D01*
X202230955Y-77186069D01*
X202334281Y-77262066D01*
X202418250Y-77323597D01*
X202508297Y-77396035D01*
X202638883Y-77510727D01*
X202806404Y-77664274D01*
X203007259Y-77853279D01*
X203237846Y-78074344D01*
X203494565Y-78324072D01*
X203773813Y-78599064D01*
X203844214Y-78668870D01*
X205000303Y-79816676D01*
X204261323Y-80551213D01*
X204083872Y-80727375D01*
X203921460Y-80888182D01*
X203779382Y-81028424D01*
X203662934Y-81142891D01*
X203577411Y-81226375D01*
X203528107Y-81273665D01*
X203517983Y-81282524D01*
X203495507Y-81259996D01*
X203432843Y-81196736D01*
X203334405Y-81097211D01*
X203204607Y-80965889D01*
X203047863Y-80807235D01*
X202868587Y-80625718D01*
X202671192Y-80425803D01*
X202481750Y-80233897D01*
X202195605Y-79945070D01*
X201948205Y-79698080D01*
X201734654Y-79488636D01*
X201550057Y-79312449D01*
X201389516Y-79165228D01*
X201248137Y-79042682D01*
X201121024Y-78940521D01*
X201003280Y-78854455D01*
X200890010Y-78780193D01*
X200776317Y-78713446D01*
X200698845Y-78671517D01*
X200362657Y-78512966D01*
X200034629Y-78399154D01*
X199693092Y-78324028D01*
X199316376Y-78281533D01*
X199298812Y-78280329D01*
X199021000Y-78261732D01*
X199021000Y-76205750D01*
X199267062Y-76205933D01*
G36*
X181463250Y-80619000D02*
G01*
X180033237Y-80619000D01*
X180041806Y-79944312D01*
X180050375Y-79269625D01*
X180756812Y-79261080D01*
X181463250Y-79252535D01*
X181463250Y-80619000D01*
G37*
X181463250Y-80619000D02*
X180033237Y-80619000D01*
X180041806Y-79944312D01*
X180050375Y-79269625D01*
X180756812Y-79261080D01*
X181463250Y-79252535D01*
X181463250Y-80619000D01*
G36*
X109478062Y-73613901D02*
G01*
X109615342Y-73624936D01*
X109783496Y-73637661D01*
X109950032Y-73649629D01*
X109978125Y-73651568D01*
X110467799Y-73707983D01*
X110980914Y-73809325D01*
X111501357Y-73950841D01*
X112013019Y-74127778D01*
X112499790Y-74335383D01*
X112787585Y-74480407D01*
X112962005Y-74575889D01*
X113123579Y-74668489D01*
X113276698Y-74761917D01*
X113425750Y-74859883D01*
X113575126Y-74966099D01*
X113729215Y-75084274D01*
X113892406Y-75218120D01*
X114069089Y-75371346D01*
X114263653Y-75547663D01*
X114480489Y-75750781D01*
X114723986Y-75984412D01*
X114998534Y-76252264D01*
X115308521Y-76558050D01*
X115658338Y-76905479D01*
X115668558Y-76915653D01*
X117199742Y-78439943D01*
X116229833Y-79402471D01*
X116025468Y-79605147D01*
X115835492Y-79793292D01*
X115664535Y-79962339D01*
X115517228Y-80107724D01*
X115398202Y-80224878D01*
X115312085Y-80309236D01*
X115263509Y-80356231D01*
X115254275Y-80364601D01*
X115231419Y-80342733D01*
X115167276Y-80279712D01*
X115065542Y-80179205D01*
X114929912Y-80044877D01*
X114764083Y-79880397D01*
X114571748Y-79689430D01*
X114356605Y-79475643D01*
X114122349Y-79242703D01*
X113872675Y-78994276D01*
X113740500Y-78862701D01*
X113418248Y-78542268D01*
X113136511Y-78263345D01*
X112891112Y-78022331D01*
X112677876Y-77815623D01*
X112492629Y-77639621D01*
X112331196Y-77490721D01*
X112189401Y-77365321D01*
X112063069Y-77259821D01*
X111948025Y-77170617D01*
X111840095Y-77094107D01*
X111735102Y-77026691D01*
X111628872Y-76964765D01*
X111517230Y-76904727D01*
X111404195Y-76847083D01*
X111063378Y-76695406D01*
X110697865Y-76567166D01*
X110324479Y-76466691D01*
X109960040Y-76398307D01*
X109621372Y-76366341D01*
X109528072Y-76364500D01*
X109263750Y-76364500D01*
X109263750Y-73595805D01*
X109478062Y-73613901D01*
G37*
X109478062Y-73613901D02*
X109615342Y-73624936D01*
X109783496Y-73637661D01*
X109950032Y-73649629D01*
X109978125Y-73651568D01*
X110467799Y-73707983D01*
X110980914Y-73809325D01*
X111501357Y-73950841D01*
X112013019Y-74127778D01*
X112499790Y-74335383D01*
X112787585Y-74480407D01*
X112962005Y-74575889D01*
X113123579Y-74668489D01*
X113276698Y-74761917D01*
X113425750Y-74859883D01*
X113575126Y-74966099D01*
X113729215Y-75084274D01*
X113892406Y-75218120D01*
X114069089Y-75371346D01*
X114263653Y-75547663D01*
X114480489Y-75750781D01*
X114723986Y-75984412D01*
X114998534Y-76252264D01*
X115308521Y-76558050D01*
X115658338Y-76905479D01*
X115668558Y-76915653D01*
X117199742Y-78439943D01*
X116229833Y-79402471D01*
X116025468Y-79605147D01*
X115835492Y-79793292D01*
X115664535Y-79962339D01*
X115517228Y-80107724D01*
X115398202Y-80224878D01*
X115312085Y-80309236D01*
X115263509Y-80356231D01*
X115254275Y-80364601D01*
X115231419Y-80342733D01*
X115167276Y-80279712D01*
X115065542Y-80179205D01*
X114929912Y-80044877D01*
X114764083Y-79880397D01*
X114571748Y-79689430D01*
X114356605Y-79475643D01*
X114122349Y-79242703D01*
X113872675Y-78994276D01*
X113740500Y-78862701D01*
X113418248Y-78542268D01*
X113136511Y-78263345D01*
X112891112Y-78022331D01*
X112677876Y-77815623D01*
X112492629Y-77639621D01*
X112331196Y-77490721D01*
X112189401Y-77365321D01*
X112063069Y-77259821D01*
X111948025Y-77170617D01*
X111840095Y-77094107D01*
X111735102Y-77026691D01*
X111628872Y-76964765D01*
X111517230Y-76904727D01*
X111404195Y-76847083D01*
X111063378Y-76695406D01*
X110697865Y-76567166D01*
X110324479Y-76466691D01*
X109960040Y-76398307D01*
X109621372Y-76366341D01*
X109528072Y-76364500D01*
X109263750Y-76364500D01*
X109263750Y-73595805D01*
X109478062Y-73613901D01*
G36*
X103309398Y-76761933D02*
G01*
X103377915Y-76803426D01*
X103474513Y-76867069D01*
X103538991Y-76911388D01*
X103626784Y-76971979D01*
X103758651Y-77062164D01*
X103925980Y-77176091D01*
X104120158Y-77307911D01*
X104332572Y-77451771D01*
X104554610Y-77601823D01*
X104667464Y-77677961D01*
X105548053Y-78271704D01*
X105383832Y-78532539D01*
X105241542Y-78780618D01*
X105102663Y-79062509D01*
X104979600Y-79351127D01*
X104884755Y-79619386D01*
X104882000Y-79628397D01*
X104844271Y-79737372D01*
X104807822Y-79817066D01*
X104779595Y-79852753D01*
X104775970Y-79853372D01*
X104737990Y-79845940D01*
X104644709Y-79826220D01*
X104502818Y-79795668D01*
X104319009Y-79755740D01*
X104099976Y-79707893D01*
X103852411Y-79653581D01*
X103583005Y-79594260D01*
X103454394Y-79565870D01*
X103178297Y-79504651D01*
X102921949Y-79447379D01*
X102691884Y-79395544D01*
X102494636Y-79350639D01*
X102336737Y-79314156D01*
X102224721Y-79287586D01*
X102165121Y-79272421D01*
X102157072Y-79269655D01*
X102158899Y-79233581D01*
X102178061Y-79148965D01*
X102211141Y-79027282D01*
X102254725Y-78880004D01*
X102305393Y-78718602D01*
X102359731Y-78554551D01*
X102414321Y-78399322D01*
X102424577Y-78371402D01*
X102531640Y-78106852D01*
X102664525Y-77816536D01*
X102812094Y-77522725D01*
X102963212Y-77247694D01*
X103092578Y-77035355D01*
X103167567Y-76920238D01*
X103229070Y-76826601D01*
X103269332Y-76766206D01*
X103280759Y-76749967D01*
X103309398Y-76761933D01*
G37*
X103309398Y-76761933D02*
X103377915Y-76803426D01*
X103474513Y-76867069D01*
X103538991Y-76911388D01*
X103626784Y-76971979D01*
X103758651Y-77062164D01*
X103925980Y-77176091D01*
X104120158Y-77307911D01*
X104332572Y-77451771D01*
X104554610Y-77601823D01*
X104667464Y-77677961D01*
X105548053Y-78271704D01*
X105383832Y-78532539D01*
X105241542Y-78780618D01*
X105102663Y-79062509D01*
X104979600Y-79351127D01*
X104884755Y-79619386D01*
X104882000Y-79628397D01*
X104844271Y-79737372D01*
X104807822Y-79817066D01*
X104779595Y-79852753D01*
X104775970Y-79853372D01*
X104737990Y-79845940D01*
X104644709Y-79826220D01*
X104502818Y-79795668D01*
X104319009Y-79755740D01*
X104099976Y-79707893D01*
X103852411Y-79653581D01*
X103583005Y-79594260D01*
X103454394Y-79565870D01*
X103178297Y-79504651D01*
X102921949Y-79447379D01*
X102691884Y-79395544D01*
X102494636Y-79350639D01*
X102336737Y-79314156D01*
X102224721Y-79287586D01*
X102165121Y-79272421D01*
X102157072Y-79269655D01*
X102158899Y-79233581D01*
X102178061Y-79148965D01*
X102211141Y-79027282D01*
X102254725Y-78880004D01*
X102305393Y-78718602D01*
X102359731Y-78554551D01*
X102414321Y-78399322D01*
X102424577Y-78371402D01*
X102531640Y-78106852D01*
X102664525Y-77816536D01*
X102812094Y-77522725D01*
X102963212Y-77247694D01*
X103092578Y-77035355D01*
X103167567Y-76920238D01*
X103229070Y-76826601D01*
X103269332Y-76766206D01*
X103280759Y-76749967D01*
X103309398Y-76761933D01*
G36*
X105433452Y-74770991D02*
G01*
X105485458Y-74843192D01*
X105563118Y-74955320D01*
X105662014Y-75100679D01*
X105777730Y-75272575D01*
X105905848Y-75464311D01*
X106041952Y-75669192D01*
X106181624Y-75880522D01*
X106320449Y-76091605D01*
X106454008Y-76295747D01*
X106577885Y-76486250D01*
X106687664Y-76656421D01*
X106778926Y-76799562D01*
X106847256Y-76908978D01*
X106888236Y-76977974D01*
X106898375Y-76999358D01*
X106873807Y-77028313D01*
X106808874Y-77080927D01*
X106716729Y-77146685D01*
X106699874Y-77158034D01*
X106591996Y-77235592D01*
X106456977Y-77340666D01*
X106314361Y-77457731D01*
X106216595Y-77541919D01*
X106105638Y-77639101D01*
X106013359Y-77718518D01*
X105949303Y-77772053D01*
X105923019Y-77791589D01*
X105922971Y-77791584D01*
X105898234Y-77770724D01*
X105831279Y-77711852D01*
X105727102Y-77619422D01*
X105590696Y-77497887D01*
X105427057Y-77351699D01*
X105241178Y-77185313D01*
X105038056Y-77003180D01*
X104945750Y-76920317D01*
X104735338Y-76730875D01*
X104539171Y-76553313D01*
X104362419Y-76392380D01*
X104210254Y-76252828D01*
X104087847Y-76139408D01*
X104000368Y-76056869D01*
X103952989Y-76009962D01*
X103946397Y-76002199D01*
X103939067Y-75971156D01*
X103954758Y-75928871D01*
X103998099Y-75870340D01*
X104073717Y-75790559D01*
X104186242Y-75684525D01*
X104340303Y-75547235D01*
X104477890Y-75427651D01*
X104612029Y-75315273D01*
X104759878Y-75197113D01*
X104912158Y-75079952D01*
X105059591Y-74970571D01*
X105192896Y-74875750D01*
X105302795Y-74802269D01*
X105380009Y-74756911D01*
X105411515Y-74745414D01*
X105433452Y-74770991D01*
G37*
X105433452Y-74770991D02*
X105485458Y-74843192D01*
X105563118Y-74955320D01*
X105662014Y-75100679D01*
X105777730Y-75272575D01*
X105905848Y-75464311D01*
X106041952Y-75669192D01*
X106181624Y-75880522D01*
X106320449Y-76091605D01*
X106454008Y-76295747D01*
X106577885Y-76486250D01*
X106687664Y-76656421D01*
X106778926Y-76799562D01*
X106847256Y-76908978D01*
X106888236Y-76977974D01*
X106898375Y-76999358D01*
X106873807Y-77028313D01*
X106808874Y-77080927D01*
X106716729Y-77146685D01*
X106699874Y-77158034D01*
X106591996Y-77235592D01*
X106456977Y-77340666D01*
X106314361Y-77457731D01*
X106216595Y-77541919D01*
X106105638Y-77639101D01*
X106013359Y-77718518D01*
X105949303Y-77772053D01*
X105923019Y-77791589D01*
X105922971Y-77791584D01*
X105898234Y-77770724D01*
X105831279Y-77711852D01*
X105727102Y-77619422D01*
X105590696Y-77497887D01*
X105427057Y-77351699D01*
X105241178Y-77185313D01*
X105038056Y-77003180D01*
X104945750Y-76920317D01*
X104735338Y-76730875D01*
X104539171Y-76553313D01*
X104362419Y-76392380D01*
X104210254Y-76252828D01*
X104087847Y-76139408D01*
X104000368Y-76056869D01*
X103952989Y-76009962D01*
X103946397Y-76002199D01*
X103939067Y-75971156D01*
X103954758Y-75928871D01*
X103998099Y-75870340D01*
X104073717Y-75790559D01*
X104186242Y-75684525D01*
X104340303Y-75547235D01*
X104477890Y-75427651D01*
X104612029Y-75315273D01*
X104759878Y-75197113D01*
X104912158Y-75079952D01*
X105059591Y-74970571D01*
X105192896Y-74875750D01*
X105302795Y-74802269D01*
X105380009Y-74756911D01*
X105411515Y-74745414D01*
X105433452Y-74770991D01*
G36*
X107372242Y-73891159D02*
G01*
X107383136Y-73923468D01*
X107409172Y-74010605D01*
X107448533Y-74146206D01*
X107499401Y-74323907D01*
X107559961Y-74537342D01*
X107628395Y-74780147D01*
X107702887Y-75045956D01*
X107747156Y-75204584D01*
X108109606Y-76505294D01*
X107853240Y-76589491D01*
X107710233Y-76638618D01*
X107568546Y-76690857D01*
X107455816Y-76735965D01*
X107443430Y-76741344D01*
X107355633Y-76779264D01*
X107295349Y-76803814D01*
X107279618Y-76809000D01*
X107263151Y-76781832D01*
X107220299Y-76704164D01*
X107154135Y-76581749D01*
X107067733Y-76420341D01*
X106964165Y-76225692D01*
X106846505Y-76003557D01*
X106717827Y-75759687D01*
X106635941Y-75604055D01*
X106002631Y-74399110D01*
X106180628Y-74314540D01*
X106336026Y-74244183D01*
X106509229Y-74171510D01*
X106690138Y-74100111D01*
X106868652Y-74033573D01*
X107034671Y-73975486D01*
X107178096Y-73929438D01*
X107288826Y-73899018D01*
X107356761Y-73887813D01*
X107372242Y-73891159D01*
G37*
X107372242Y-73891159D02*
X107383136Y-73923468D01*
X107409172Y-74010605D01*
X107448533Y-74146206D01*
X107499401Y-74323907D01*
X107559961Y-74537342D01*
X107628395Y-74780147D01*
X107702887Y-75045956D01*
X107747156Y-75204584D01*
X108109606Y-76505294D01*
X107853240Y-76589491D01*
X107710233Y-76638618D01*
X107568546Y-76690857D01*
X107455816Y-76735965D01*
X107443430Y-76741344D01*
X107355633Y-76779264D01*
X107295349Y-76803814D01*
X107279618Y-76809000D01*
X107263151Y-76781832D01*
X107220299Y-76704164D01*
X107154135Y-76581749D01*
X107067733Y-76420341D01*
X106964165Y-76225692D01*
X106846505Y-76003557D01*
X106717827Y-75759687D01*
X106635941Y-75604055D01*
X106002631Y-74399110D01*
X106180628Y-74314540D01*
X106336026Y-74244183D01*
X106509229Y-74171510D01*
X106690138Y-74100111D01*
X106868652Y-74033573D01*
X107034671Y-73975486D01*
X107178096Y-73929438D01*
X107288826Y-73899018D01*
X107356761Y-73887813D01*
X107372242Y-73891159D01*
M02*
