G04 #@! TF.GenerationSoftware,KiCad,Pcbnew,5.1.9+dfsg1-1+deb11u1*
G04 #@! TF.CreationDate,2023-07-29T10:49:16+09:00*
G04 #@! TF.ProjectId,toolhead-top-plate,746f6f6c-6865-4616-942d-746f702d706c,rev?*
G04 #@! TF.SameCoordinates,Original*
G04 #@! TF.FileFunction,Profile,NP*
%FSLAX46Y46*%
G04 Gerber Fmt 4.6, Leading zero omitted, Abs format (unit mm)*
G04 Created by KiCad (PCBNEW 5.1.9+dfsg1-1+deb11u1) date 2023-07-29 10:49:16*
%MOMM*%
%LPD*%
G01*
G04 APERTURE LIST*
G04 #@! TA.AperFunction,Profile*
%ADD10C,0.050000*%
G04 #@! TD*
G04 APERTURE END LIST*
D10*
X197620200Y-91000000D02*
G75*
G03*
X197620200Y-91000000I-1500000J0D01*
G01*
X181120200Y-90718000D02*
X181120200Y-61000000D01*
X181120200Y-61000000D02*
G75*
G02*
X182120200Y-60000000I1000000J0D01*
G01*
X215240400Y-128000000D02*
X187000000Y-128000000D01*
X220120200Y-60000000D02*
G75*
G02*
X221120200Y-61000000I0J-1000000D01*
G01*
X221650584Y-92074550D02*
G75*
G02*
X221120200Y-90718000I1469616J1356550D01*
G01*
X203270200Y-113500000D02*
G75*
G03*
X203270200Y-113500000I-2150000J0D01*
G01*
X221650600Y-92074600D02*
X226589800Y-97425400D01*
X175120200Y-98781999D02*
G75*
G02*
X175650584Y-97425449I2000000J-1D01*
G01*
X181120200Y-90717999D02*
G75*
G02*
X180589807Y-92074560I-2000000J-1D01*
G01*
X175120200Y-115222000D02*
X175120200Y-98782000D01*
X208027050Y-107843100D02*
G75*
G03*
X208027050Y-107843100I-1250000J0D01*
G01*
X185525700Y-127351400D02*
X175645900Y-116573500D01*
X175645881Y-116573438D02*
G75*
G02*
X175120200Y-115222000I1474319J1351438D01*
G01*
X224370200Y-113500000D02*
G75*
G03*
X224370200Y-113500000I-1500000J0D01*
G01*
X227120200Y-98782000D02*
X227120200Y-115222000D01*
X217220200Y-74000000D02*
G75*
G03*
X217220200Y-74000000I-1100000J0D01*
G01*
X206620200Y-64000000D02*
G75*
G03*
X206620200Y-64000000I-1500000J0D01*
G01*
X221120200Y-61000000D02*
X221120200Y-90718000D01*
X217220200Y-80500000D02*
G75*
G03*
X217220200Y-80500000I-1100000J0D01*
G01*
X207620200Y-91000000D02*
G75*
G03*
X207620200Y-91000000I-1500000J0D01*
G01*
X216714709Y-127351448D02*
G75*
G02*
X215240400Y-128000000I-1474309J1351448D01*
G01*
X182120200Y-60000000D02*
X220120200Y-60000000D01*
X187220200Y-80500000D02*
G75*
G03*
X187220200Y-80500000I-1100000J0D01*
G01*
X226594500Y-116573500D02*
X216714700Y-127351400D01*
X175650600Y-97425400D02*
X180589800Y-92074600D01*
X180870200Y-113500000D02*
G75*
G03*
X180870200Y-113500000I-1500000J0D01*
G01*
X218620200Y-64000000D02*
G75*
G03*
X218620200Y-64000000I-1500000J0D01*
G01*
X227120200Y-115222000D02*
G75*
G02*
X226594509Y-116573448I-2000000J0D01*
G01*
X198620200Y-64000000D02*
G75*
G03*
X198620200Y-64000000I-1500000J0D01*
G01*
X186620200Y-64000000D02*
G75*
G03*
X186620200Y-64000000I-1500000J0D01*
G01*
X187220200Y-74000000D02*
G75*
G03*
X187220200Y-74000000I-1100000J0D01*
G01*
X196713350Y-107843100D02*
G75*
G03*
X196713350Y-107843100I-1250000J0D01*
G01*
X196713350Y-119156900D02*
G75*
G03*
X196713350Y-119156900I-1250000J0D01*
G01*
X226589807Y-97425440D02*
G75*
G02*
X227120200Y-98782000I-1469607J-1356560D01*
G01*
X208027050Y-119156900D02*
G75*
G03*
X208027050Y-119156900I-1250000J0D01*
G01*
X187000000Y-127999999D02*
G75*
G02*
X185525682Y-127351437I0J1999999D01*
G01*
M02*
