G04 #@! TF.GenerationSoftware,KiCad,Pcbnew,5.1.9+dfsg1-1+deb11u1*
G04 #@! TF.CreationDate,2023-07-29T10:49:16+09:00*
G04 #@! TF.ProjectId,toolhead-top-plate,746f6f6c-6865-4616-942d-746f702d706c,rev?*
G04 #@! TF.SameCoordinates,Original*
G04 #@! TF.FileFunction,Copper,L2,Bot*
G04 #@! TF.FilePolarity,Positive*
%FSLAX46Y46*%
G04 Gerber Fmt 4.6, Leading zero omitted, Abs format (unit mm)*
G04 Created by KiCad (PCBNEW 5.1.9+dfsg1-1+deb11u1) date 2023-07-29 10:49:16*
%MOMM*%
%LPD*%
G01*
G04 APERTURE LIST*
G04 #@! TA.AperFunction,NonConductor*
%ADD10C,0.254000*%
G04 #@! TD*
G04 #@! TA.AperFunction,NonConductor*
%ADD11C,0.100000*%
G04 #@! TD*
G04 APERTURE END LIST*
D10*
X220185624Y-60669580D02*
X220248556Y-60688580D01*
X220306605Y-60719445D01*
X220357543Y-60760989D01*
X220399448Y-60811644D01*
X220430715Y-60869471D01*
X220450156Y-60932272D01*
X220460200Y-61027835D01*
X220460201Y-90750419D01*
X220462767Y-90776472D01*
X220487506Y-91087035D01*
X220496997Y-91140022D01*
X220504774Y-91193277D01*
X220507052Y-91202206D01*
X220606161Y-91579746D01*
X220626908Y-91635806D01*
X220646900Y-91692232D01*
X220650868Y-91700549D01*
X220821422Y-92051648D01*
X220852681Y-92102640D01*
X220883233Y-92154078D01*
X220888741Y-92161465D01*
X221101476Y-92442660D01*
X221143641Y-92498443D01*
X226082806Y-97849206D01*
X226259924Y-98083318D01*
X226373927Y-98318001D01*
X226441717Y-98576225D01*
X226460200Y-98808249D01*
X226460201Y-115189711D01*
X226431575Y-115481660D01*
X226356165Y-115731429D01*
X226230556Y-115967664D01*
X226090409Y-116146688D01*
X216249712Y-126881932D01*
X216031627Y-127077537D01*
X215807265Y-127210699D01*
X215561308Y-127297746D01*
X215278723Y-127338919D01*
X215232665Y-127340000D01*
X187032289Y-127340000D01*
X186740343Y-127311374D01*
X186490571Y-127235964D01*
X186260205Y-127113477D01*
X186038906Y-126932989D01*
X186008095Y-126900921D01*
X178735958Y-118967727D01*
X193542643Y-118967727D01*
X193542643Y-119346073D01*
X193616455Y-119717149D01*
X193761242Y-120066696D01*
X193971440Y-120381279D01*
X194238971Y-120648810D01*
X194553554Y-120859008D01*
X194903101Y-121003795D01*
X195274177Y-121077607D01*
X195652523Y-121077607D01*
X196023599Y-121003795D01*
X196373146Y-120859008D01*
X196687729Y-120648810D01*
X196955260Y-120381279D01*
X197165458Y-120066696D01*
X197310245Y-119717149D01*
X197384057Y-119346073D01*
X197384057Y-118967727D01*
X204856343Y-118967727D01*
X204856343Y-119346073D01*
X204930155Y-119717149D01*
X205074942Y-120066696D01*
X205285140Y-120381279D01*
X205552671Y-120648810D01*
X205867254Y-120859008D01*
X206216801Y-121003795D01*
X206587877Y-121077607D01*
X206966223Y-121077607D01*
X207337299Y-121003795D01*
X207686846Y-120859008D01*
X208001429Y-120648810D01*
X208268960Y-120381279D01*
X208479158Y-120066696D01*
X208623945Y-119717149D01*
X208697757Y-119346073D01*
X208697757Y-118967727D01*
X208623945Y-118596651D01*
X208479158Y-118247104D01*
X208268960Y-117932521D01*
X208001429Y-117664990D01*
X207686846Y-117454792D01*
X207337299Y-117310005D01*
X206966223Y-117236193D01*
X206587877Y-117236193D01*
X206216801Y-117310005D01*
X205867254Y-117454792D01*
X205552671Y-117664990D01*
X205285140Y-117932521D01*
X205074942Y-118247104D01*
X204930155Y-118596651D01*
X204856343Y-118967727D01*
X197384057Y-118967727D01*
X197310245Y-118596651D01*
X197165458Y-118247104D01*
X196955260Y-117932521D01*
X196687729Y-117664990D01*
X196373146Y-117454792D01*
X196023599Y-117310005D01*
X195652523Y-117236193D01*
X195274177Y-117236193D01*
X194903101Y-117310005D01*
X194553554Y-117454792D01*
X194238971Y-117664990D01*
X193971440Y-117932521D01*
X193761242Y-118247104D01*
X193616455Y-118596651D01*
X193542643Y-118967727D01*
X178735958Y-118967727D01*
X176154387Y-116151485D01*
X175978050Y-115916711D01*
X175864867Y-115681638D01*
X175797830Y-115422612D01*
X175780200Y-115196328D01*
X175780200Y-113286323D01*
X177200697Y-113286323D01*
X177200697Y-113713677D01*
X177284070Y-114132821D01*
X177447612Y-114527645D01*
X177685037Y-114882977D01*
X177987223Y-115185163D01*
X178342555Y-115422588D01*
X178737379Y-115586130D01*
X179156523Y-115669503D01*
X179583877Y-115669503D01*
X180003021Y-115586130D01*
X180397845Y-115422588D01*
X180753177Y-115185163D01*
X181055363Y-114882977D01*
X181292788Y-114527645D01*
X181456330Y-114132821D01*
X181539703Y-113713677D01*
X181539703Y-113286323D01*
X181527030Y-113222611D01*
X198303827Y-113222611D01*
X198303827Y-113777389D01*
X198412059Y-114321506D01*
X198624363Y-114834053D01*
X198932580Y-115295333D01*
X199324867Y-115687620D01*
X199786147Y-115995837D01*
X200298694Y-116208141D01*
X200842811Y-116316373D01*
X201397589Y-116316373D01*
X201941706Y-116208141D01*
X202454253Y-115995837D01*
X202915533Y-115687620D01*
X203307820Y-115295333D01*
X203616037Y-114834053D01*
X203828341Y-114321506D01*
X203936573Y-113777389D01*
X203936573Y-113286323D01*
X220700697Y-113286323D01*
X220700697Y-113713677D01*
X220784070Y-114132821D01*
X220947612Y-114527645D01*
X221185037Y-114882977D01*
X221487223Y-115185163D01*
X221842555Y-115422588D01*
X222237379Y-115586130D01*
X222656523Y-115669503D01*
X223083877Y-115669503D01*
X223503021Y-115586130D01*
X223897845Y-115422588D01*
X224253177Y-115185163D01*
X224555363Y-114882977D01*
X224792788Y-114527645D01*
X224956330Y-114132821D01*
X225039703Y-113713677D01*
X225039703Y-113286323D01*
X224956330Y-112867179D01*
X224792788Y-112472355D01*
X224555363Y-112117023D01*
X224253177Y-111814837D01*
X223897845Y-111577412D01*
X223503021Y-111413870D01*
X223083877Y-111330497D01*
X222656523Y-111330497D01*
X222237379Y-111413870D01*
X221842555Y-111577412D01*
X221487223Y-111814837D01*
X221185037Y-112117023D01*
X220947612Y-112472355D01*
X220784070Y-112867179D01*
X220700697Y-113286323D01*
X203936573Y-113286323D01*
X203936573Y-113222611D01*
X203828341Y-112678494D01*
X203616037Y-112165947D01*
X203307820Y-111704667D01*
X202915533Y-111312380D01*
X202454253Y-111004163D01*
X201941706Y-110791859D01*
X201397589Y-110683627D01*
X200842811Y-110683627D01*
X200298694Y-110791859D01*
X199786147Y-111004163D01*
X199324867Y-111312380D01*
X198932580Y-111704667D01*
X198624363Y-112165947D01*
X198412059Y-112678494D01*
X198303827Y-113222611D01*
X181527030Y-113222611D01*
X181456330Y-112867179D01*
X181292788Y-112472355D01*
X181055363Y-112117023D01*
X180753177Y-111814837D01*
X180397845Y-111577412D01*
X180003021Y-111413870D01*
X179583877Y-111330497D01*
X179156523Y-111330497D01*
X178737379Y-111413870D01*
X178342555Y-111577412D01*
X177987223Y-111814837D01*
X177685037Y-112117023D01*
X177447612Y-112472355D01*
X177284070Y-112867179D01*
X177200697Y-113286323D01*
X175780200Y-113286323D01*
X175780200Y-107653927D01*
X193542643Y-107653927D01*
X193542643Y-108032273D01*
X193616455Y-108403349D01*
X193761242Y-108752896D01*
X193971440Y-109067479D01*
X194238971Y-109335010D01*
X194553554Y-109545208D01*
X194903101Y-109689995D01*
X195274177Y-109763807D01*
X195652523Y-109763807D01*
X196023599Y-109689995D01*
X196373146Y-109545208D01*
X196687729Y-109335010D01*
X196955260Y-109067479D01*
X197165458Y-108752896D01*
X197310245Y-108403349D01*
X197384057Y-108032273D01*
X197384057Y-107653927D01*
X204856343Y-107653927D01*
X204856343Y-108032273D01*
X204930155Y-108403349D01*
X205074942Y-108752896D01*
X205285140Y-109067479D01*
X205552671Y-109335010D01*
X205867254Y-109545208D01*
X206216801Y-109689995D01*
X206587877Y-109763807D01*
X206966223Y-109763807D01*
X207337299Y-109689995D01*
X207686846Y-109545208D01*
X208001429Y-109335010D01*
X208268960Y-109067479D01*
X208479158Y-108752896D01*
X208623945Y-108403349D01*
X208697757Y-108032273D01*
X208697757Y-107653927D01*
X208623945Y-107282851D01*
X208479158Y-106933304D01*
X208268960Y-106618721D01*
X208001429Y-106351190D01*
X207686846Y-106140992D01*
X207337299Y-105996205D01*
X206966223Y-105922393D01*
X206587877Y-105922393D01*
X206216801Y-105996205D01*
X205867254Y-106140992D01*
X205552671Y-106351190D01*
X205285140Y-106618721D01*
X205074942Y-106933304D01*
X204930155Y-107282851D01*
X204856343Y-107653927D01*
X197384057Y-107653927D01*
X197310245Y-107282851D01*
X197165458Y-106933304D01*
X196955260Y-106618721D01*
X196687729Y-106351190D01*
X196373146Y-106140992D01*
X196023599Y-105996205D01*
X195652523Y-105922393D01*
X195274177Y-105922393D01*
X194903101Y-105996205D01*
X194553554Y-106140992D01*
X194238971Y-106351190D01*
X193971440Y-106618721D01*
X193761242Y-106933304D01*
X193616455Y-107282851D01*
X193542643Y-107653927D01*
X175780200Y-107653927D01*
X175780200Y-98814278D01*
X175808825Y-98522340D01*
X175884235Y-98272570D01*
X176009574Y-98036843D01*
X176153529Y-97853609D01*
X181096759Y-92498444D01*
X181113211Y-92476678D01*
X181305032Y-92232521D01*
X181334001Y-92187143D01*
X181364406Y-92142739D01*
X181368789Y-92134633D01*
X181552038Y-91789991D01*
X181574838Y-91734674D01*
X181598398Y-91679705D01*
X181601123Y-91670902D01*
X181713942Y-91297230D01*
X181725565Y-91238530D01*
X181737998Y-91180036D01*
X181738961Y-91170872D01*
X181776665Y-90786323D01*
X193950697Y-90786323D01*
X193950697Y-91213677D01*
X194034070Y-91632821D01*
X194197612Y-92027645D01*
X194435037Y-92382977D01*
X194737223Y-92685163D01*
X195092555Y-92922588D01*
X195487379Y-93086130D01*
X195906523Y-93169503D01*
X196333877Y-93169503D01*
X196753021Y-93086130D01*
X197147845Y-92922588D01*
X197503177Y-92685163D01*
X197805363Y-92382977D01*
X198042788Y-92027645D01*
X198206330Y-91632821D01*
X198289703Y-91213677D01*
X198289703Y-90786323D01*
X203950697Y-90786323D01*
X203950697Y-91213677D01*
X204034070Y-91632821D01*
X204197612Y-92027645D01*
X204435037Y-92382977D01*
X204737223Y-92685163D01*
X205092555Y-92922588D01*
X205487379Y-93086130D01*
X205906523Y-93169503D01*
X206333877Y-93169503D01*
X206753021Y-93086130D01*
X207147845Y-92922588D01*
X207503177Y-92685163D01*
X207805363Y-92382977D01*
X208042788Y-92027645D01*
X208206330Y-91632821D01*
X208289703Y-91213677D01*
X208289703Y-90786323D01*
X208206330Y-90367179D01*
X208042788Y-89972355D01*
X207805363Y-89617023D01*
X207503177Y-89314837D01*
X207147845Y-89077412D01*
X206753021Y-88913870D01*
X206333877Y-88830497D01*
X205906523Y-88830497D01*
X205487379Y-88913870D01*
X205092555Y-89077412D01*
X204737223Y-89314837D01*
X204435037Y-89617023D01*
X204197612Y-89972355D01*
X204034070Y-90367179D01*
X203950697Y-90786323D01*
X198289703Y-90786323D01*
X198206330Y-90367179D01*
X198042788Y-89972355D01*
X197805363Y-89617023D01*
X197503177Y-89314837D01*
X197147845Y-89077412D01*
X196753021Y-88913870D01*
X196333877Y-88830497D01*
X195906523Y-88830497D01*
X195487379Y-88913870D01*
X195092555Y-89077412D01*
X194737223Y-89314837D01*
X194435037Y-89617023D01*
X194197612Y-89972355D01*
X194034070Y-90367179D01*
X193950697Y-90786323D01*
X181776665Y-90786323D01*
X181777050Y-90782402D01*
X181780200Y-90750419D01*
X181780200Y-80325529D01*
X184348771Y-80325529D01*
X184348771Y-80674471D01*
X184416846Y-81016707D01*
X184550380Y-81339086D01*
X184744241Y-81629220D01*
X184990980Y-81875959D01*
X185281114Y-82069820D01*
X185603493Y-82203354D01*
X185945729Y-82271429D01*
X186294671Y-82271429D01*
X186636907Y-82203354D01*
X186959286Y-82069820D01*
X187249420Y-81875959D01*
X187496159Y-81629220D01*
X187690020Y-81339086D01*
X187823554Y-81016707D01*
X187891629Y-80674471D01*
X187891629Y-80325529D01*
X214348771Y-80325529D01*
X214348771Y-80674471D01*
X214416846Y-81016707D01*
X214550380Y-81339086D01*
X214744241Y-81629220D01*
X214990980Y-81875959D01*
X215281114Y-82069820D01*
X215603493Y-82203354D01*
X215945729Y-82271429D01*
X216294671Y-82271429D01*
X216636907Y-82203354D01*
X216959286Y-82069820D01*
X217249420Y-81875959D01*
X217496159Y-81629220D01*
X217690020Y-81339086D01*
X217823554Y-81016707D01*
X217891629Y-80674471D01*
X217891629Y-80325529D01*
X217823554Y-79983293D01*
X217690020Y-79660914D01*
X217496159Y-79370780D01*
X217249420Y-79124041D01*
X216959286Y-78930180D01*
X216636907Y-78796646D01*
X216294671Y-78728571D01*
X215945729Y-78728571D01*
X215603493Y-78796646D01*
X215281114Y-78930180D01*
X214990980Y-79124041D01*
X214744241Y-79370780D01*
X214550380Y-79660914D01*
X214416846Y-79983293D01*
X214348771Y-80325529D01*
X187891629Y-80325529D01*
X187823554Y-79983293D01*
X187690020Y-79660914D01*
X187496159Y-79370780D01*
X187249420Y-79124041D01*
X186959286Y-78930180D01*
X186636907Y-78796646D01*
X186294671Y-78728571D01*
X185945729Y-78728571D01*
X185603493Y-78796646D01*
X185281114Y-78930180D01*
X184990980Y-79124041D01*
X184744241Y-79370780D01*
X184550380Y-79660914D01*
X184416846Y-79983293D01*
X184348771Y-80325529D01*
X181780200Y-80325529D01*
X181780200Y-73825529D01*
X184348771Y-73825529D01*
X184348771Y-74174471D01*
X184416846Y-74516707D01*
X184550380Y-74839086D01*
X184744241Y-75129220D01*
X184990980Y-75375959D01*
X185281114Y-75569820D01*
X185603493Y-75703354D01*
X185945729Y-75771429D01*
X186294671Y-75771429D01*
X186636907Y-75703354D01*
X186959286Y-75569820D01*
X187249420Y-75375959D01*
X187496159Y-75129220D01*
X187690020Y-74839086D01*
X187823554Y-74516707D01*
X187891629Y-74174471D01*
X187891629Y-73825529D01*
X214348771Y-73825529D01*
X214348771Y-74174471D01*
X214416846Y-74516707D01*
X214550380Y-74839086D01*
X214744241Y-75129220D01*
X214990980Y-75375959D01*
X215281114Y-75569820D01*
X215603493Y-75703354D01*
X215945729Y-75771429D01*
X216294671Y-75771429D01*
X216636907Y-75703354D01*
X216959286Y-75569820D01*
X217249420Y-75375959D01*
X217496159Y-75129220D01*
X217690020Y-74839086D01*
X217823554Y-74516707D01*
X217891629Y-74174471D01*
X217891629Y-73825529D01*
X217823554Y-73483293D01*
X217690020Y-73160914D01*
X217496159Y-72870780D01*
X217249420Y-72624041D01*
X216959286Y-72430180D01*
X216636907Y-72296646D01*
X216294671Y-72228571D01*
X215945729Y-72228571D01*
X215603493Y-72296646D01*
X215281114Y-72430180D01*
X214990980Y-72624041D01*
X214744241Y-72870780D01*
X214550380Y-73160914D01*
X214416846Y-73483293D01*
X214348771Y-73825529D01*
X187891629Y-73825529D01*
X187823554Y-73483293D01*
X187690020Y-73160914D01*
X187496159Y-72870780D01*
X187249420Y-72624041D01*
X186959286Y-72430180D01*
X186636907Y-72296646D01*
X186294671Y-72228571D01*
X185945729Y-72228571D01*
X185603493Y-72296646D01*
X185281114Y-72430180D01*
X184990980Y-72624041D01*
X184744241Y-72870780D01*
X184550380Y-73160914D01*
X184416846Y-73483293D01*
X184348771Y-73825529D01*
X181780200Y-73825529D01*
X181780200Y-63786323D01*
X182950697Y-63786323D01*
X182950697Y-64213677D01*
X183034070Y-64632821D01*
X183197612Y-65027645D01*
X183435037Y-65382977D01*
X183737223Y-65685163D01*
X184092555Y-65922588D01*
X184487379Y-66086130D01*
X184906523Y-66169503D01*
X185333877Y-66169503D01*
X185753021Y-66086130D01*
X186147845Y-65922588D01*
X186503177Y-65685163D01*
X186805363Y-65382977D01*
X187042788Y-65027645D01*
X187206330Y-64632821D01*
X187289703Y-64213677D01*
X187289703Y-63786323D01*
X194950697Y-63786323D01*
X194950697Y-64213677D01*
X195034070Y-64632821D01*
X195197612Y-65027645D01*
X195435037Y-65382977D01*
X195737223Y-65685163D01*
X196092555Y-65922588D01*
X196487379Y-66086130D01*
X196906523Y-66169503D01*
X197333877Y-66169503D01*
X197753021Y-66086130D01*
X198147845Y-65922588D01*
X198503177Y-65685163D01*
X198805363Y-65382977D01*
X199042788Y-65027645D01*
X199206330Y-64632821D01*
X199289703Y-64213677D01*
X199289703Y-63786323D01*
X202950697Y-63786323D01*
X202950697Y-64213677D01*
X203034070Y-64632821D01*
X203197612Y-65027645D01*
X203435037Y-65382977D01*
X203737223Y-65685163D01*
X204092555Y-65922588D01*
X204487379Y-66086130D01*
X204906523Y-66169503D01*
X205333877Y-66169503D01*
X205753021Y-66086130D01*
X206147845Y-65922588D01*
X206503177Y-65685163D01*
X206805363Y-65382977D01*
X207042788Y-65027645D01*
X207206330Y-64632821D01*
X207289703Y-64213677D01*
X207289703Y-63786323D01*
X214950697Y-63786323D01*
X214950697Y-64213677D01*
X215034070Y-64632821D01*
X215197612Y-65027645D01*
X215435037Y-65382977D01*
X215737223Y-65685163D01*
X216092555Y-65922588D01*
X216487379Y-66086130D01*
X216906523Y-66169503D01*
X217333877Y-66169503D01*
X217753021Y-66086130D01*
X218147845Y-65922588D01*
X218503177Y-65685163D01*
X218805363Y-65382977D01*
X219042788Y-65027645D01*
X219206330Y-64632821D01*
X219289703Y-64213677D01*
X219289703Y-63786323D01*
X219206330Y-63367179D01*
X219042788Y-62972355D01*
X218805363Y-62617023D01*
X218503177Y-62314837D01*
X218147845Y-62077412D01*
X217753021Y-61913870D01*
X217333877Y-61830497D01*
X216906523Y-61830497D01*
X216487379Y-61913870D01*
X216092555Y-62077412D01*
X215737223Y-62314837D01*
X215435037Y-62617023D01*
X215197612Y-62972355D01*
X215034070Y-63367179D01*
X214950697Y-63786323D01*
X207289703Y-63786323D01*
X207206330Y-63367179D01*
X207042788Y-62972355D01*
X206805363Y-62617023D01*
X206503177Y-62314837D01*
X206147845Y-62077412D01*
X205753021Y-61913870D01*
X205333877Y-61830497D01*
X204906523Y-61830497D01*
X204487379Y-61913870D01*
X204092555Y-62077412D01*
X203737223Y-62314837D01*
X203435037Y-62617023D01*
X203197612Y-62972355D01*
X203034070Y-63367179D01*
X202950697Y-63786323D01*
X199289703Y-63786323D01*
X199206330Y-63367179D01*
X199042788Y-62972355D01*
X198805363Y-62617023D01*
X198503177Y-62314837D01*
X198147845Y-62077412D01*
X197753021Y-61913870D01*
X197333877Y-61830497D01*
X196906523Y-61830497D01*
X196487379Y-61913870D01*
X196092555Y-62077412D01*
X195737223Y-62314837D01*
X195435037Y-62617023D01*
X195197612Y-62972355D01*
X195034070Y-63367179D01*
X194950697Y-63786323D01*
X187289703Y-63786323D01*
X187206330Y-63367179D01*
X187042788Y-62972355D01*
X186805363Y-62617023D01*
X186503177Y-62314837D01*
X186147845Y-62077412D01*
X185753021Y-61913870D01*
X185333877Y-61830497D01*
X184906523Y-61830497D01*
X184487379Y-61913870D01*
X184092555Y-62077412D01*
X183737223Y-62314837D01*
X183435037Y-62617023D01*
X183197612Y-62972355D01*
X183034070Y-63367179D01*
X182950697Y-63786323D01*
X181780200Y-63786323D01*
X181780200Y-61032279D01*
X181789780Y-60934576D01*
X181808780Y-60871644D01*
X181839645Y-60813595D01*
X181881189Y-60762657D01*
X181931844Y-60720752D01*
X181989671Y-60689485D01*
X182052472Y-60670044D01*
X182148035Y-60660000D01*
X220087921Y-60660000D01*
X220185624Y-60669580D01*
G04 #@! TA.AperFunction,NonConductor*
D11*
G36*
X220185624Y-60669580D02*
G01*
X220248556Y-60688580D01*
X220306605Y-60719445D01*
X220357543Y-60760989D01*
X220399448Y-60811644D01*
X220430715Y-60869471D01*
X220450156Y-60932272D01*
X220460200Y-61027835D01*
X220460201Y-90750419D01*
X220462767Y-90776472D01*
X220487506Y-91087035D01*
X220496997Y-91140022D01*
X220504774Y-91193277D01*
X220507052Y-91202206D01*
X220606161Y-91579746D01*
X220626908Y-91635806D01*
X220646900Y-91692232D01*
X220650868Y-91700549D01*
X220821422Y-92051648D01*
X220852681Y-92102640D01*
X220883233Y-92154078D01*
X220888741Y-92161465D01*
X221101476Y-92442660D01*
X221143641Y-92498443D01*
X226082806Y-97849206D01*
X226259924Y-98083318D01*
X226373927Y-98318001D01*
X226441717Y-98576225D01*
X226460200Y-98808249D01*
X226460201Y-115189711D01*
X226431575Y-115481660D01*
X226356165Y-115731429D01*
X226230556Y-115967664D01*
X226090409Y-116146688D01*
X216249712Y-126881932D01*
X216031627Y-127077537D01*
X215807265Y-127210699D01*
X215561308Y-127297746D01*
X215278723Y-127338919D01*
X215232665Y-127340000D01*
X187032289Y-127340000D01*
X186740343Y-127311374D01*
X186490571Y-127235964D01*
X186260205Y-127113477D01*
X186038906Y-126932989D01*
X186008095Y-126900921D01*
X178735958Y-118967727D01*
X193542643Y-118967727D01*
X193542643Y-119346073D01*
X193616455Y-119717149D01*
X193761242Y-120066696D01*
X193971440Y-120381279D01*
X194238971Y-120648810D01*
X194553554Y-120859008D01*
X194903101Y-121003795D01*
X195274177Y-121077607D01*
X195652523Y-121077607D01*
X196023599Y-121003795D01*
X196373146Y-120859008D01*
X196687729Y-120648810D01*
X196955260Y-120381279D01*
X197165458Y-120066696D01*
X197310245Y-119717149D01*
X197384057Y-119346073D01*
X197384057Y-118967727D01*
X204856343Y-118967727D01*
X204856343Y-119346073D01*
X204930155Y-119717149D01*
X205074942Y-120066696D01*
X205285140Y-120381279D01*
X205552671Y-120648810D01*
X205867254Y-120859008D01*
X206216801Y-121003795D01*
X206587877Y-121077607D01*
X206966223Y-121077607D01*
X207337299Y-121003795D01*
X207686846Y-120859008D01*
X208001429Y-120648810D01*
X208268960Y-120381279D01*
X208479158Y-120066696D01*
X208623945Y-119717149D01*
X208697757Y-119346073D01*
X208697757Y-118967727D01*
X208623945Y-118596651D01*
X208479158Y-118247104D01*
X208268960Y-117932521D01*
X208001429Y-117664990D01*
X207686846Y-117454792D01*
X207337299Y-117310005D01*
X206966223Y-117236193D01*
X206587877Y-117236193D01*
X206216801Y-117310005D01*
X205867254Y-117454792D01*
X205552671Y-117664990D01*
X205285140Y-117932521D01*
X205074942Y-118247104D01*
X204930155Y-118596651D01*
X204856343Y-118967727D01*
X197384057Y-118967727D01*
X197310245Y-118596651D01*
X197165458Y-118247104D01*
X196955260Y-117932521D01*
X196687729Y-117664990D01*
X196373146Y-117454792D01*
X196023599Y-117310005D01*
X195652523Y-117236193D01*
X195274177Y-117236193D01*
X194903101Y-117310005D01*
X194553554Y-117454792D01*
X194238971Y-117664990D01*
X193971440Y-117932521D01*
X193761242Y-118247104D01*
X193616455Y-118596651D01*
X193542643Y-118967727D01*
X178735958Y-118967727D01*
X176154387Y-116151485D01*
X175978050Y-115916711D01*
X175864867Y-115681638D01*
X175797830Y-115422612D01*
X175780200Y-115196328D01*
X175780200Y-113286323D01*
X177200697Y-113286323D01*
X177200697Y-113713677D01*
X177284070Y-114132821D01*
X177447612Y-114527645D01*
X177685037Y-114882977D01*
X177987223Y-115185163D01*
X178342555Y-115422588D01*
X178737379Y-115586130D01*
X179156523Y-115669503D01*
X179583877Y-115669503D01*
X180003021Y-115586130D01*
X180397845Y-115422588D01*
X180753177Y-115185163D01*
X181055363Y-114882977D01*
X181292788Y-114527645D01*
X181456330Y-114132821D01*
X181539703Y-113713677D01*
X181539703Y-113286323D01*
X181527030Y-113222611D01*
X198303827Y-113222611D01*
X198303827Y-113777389D01*
X198412059Y-114321506D01*
X198624363Y-114834053D01*
X198932580Y-115295333D01*
X199324867Y-115687620D01*
X199786147Y-115995837D01*
X200298694Y-116208141D01*
X200842811Y-116316373D01*
X201397589Y-116316373D01*
X201941706Y-116208141D01*
X202454253Y-115995837D01*
X202915533Y-115687620D01*
X203307820Y-115295333D01*
X203616037Y-114834053D01*
X203828341Y-114321506D01*
X203936573Y-113777389D01*
X203936573Y-113286323D01*
X220700697Y-113286323D01*
X220700697Y-113713677D01*
X220784070Y-114132821D01*
X220947612Y-114527645D01*
X221185037Y-114882977D01*
X221487223Y-115185163D01*
X221842555Y-115422588D01*
X222237379Y-115586130D01*
X222656523Y-115669503D01*
X223083877Y-115669503D01*
X223503021Y-115586130D01*
X223897845Y-115422588D01*
X224253177Y-115185163D01*
X224555363Y-114882977D01*
X224792788Y-114527645D01*
X224956330Y-114132821D01*
X225039703Y-113713677D01*
X225039703Y-113286323D01*
X224956330Y-112867179D01*
X224792788Y-112472355D01*
X224555363Y-112117023D01*
X224253177Y-111814837D01*
X223897845Y-111577412D01*
X223503021Y-111413870D01*
X223083877Y-111330497D01*
X222656523Y-111330497D01*
X222237379Y-111413870D01*
X221842555Y-111577412D01*
X221487223Y-111814837D01*
X221185037Y-112117023D01*
X220947612Y-112472355D01*
X220784070Y-112867179D01*
X220700697Y-113286323D01*
X203936573Y-113286323D01*
X203936573Y-113222611D01*
X203828341Y-112678494D01*
X203616037Y-112165947D01*
X203307820Y-111704667D01*
X202915533Y-111312380D01*
X202454253Y-111004163D01*
X201941706Y-110791859D01*
X201397589Y-110683627D01*
X200842811Y-110683627D01*
X200298694Y-110791859D01*
X199786147Y-111004163D01*
X199324867Y-111312380D01*
X198932580Y-111704667D01*
X198624363Y-112165947D01*
X198412059Y-112678494D01*
X198303827Y-113222611D01*
X181527030Y-113222611D01*
X181456330Y-112867179D01*
X181292788Y-112472355D01*
X181055363Y-112117023D01*
X180753177Y-111814837D01*
X180397845Y-111577412D01*
X180003021Y-111413870D01*
X179583877Y-111330497D01*
X179156523Y-111330497D01*
X178737379Y-111413870D01*
X178342555Y-111577412D01*
X177987223Y-111814837D01*
X177685037Y-112117023D01*
X177447612Y-112472355D01*
X177284070Y-112867179D01*
X177200697Y-113286323D01*
X175780200Y-113286323D01*
X175780200Y-107653927D01*
X193542643Y-107653927D01*
X193542643Y-108032273D01*
X193616455Y-108403349D01*
X193761242Y-108752896D01*
X193971440Y-109067479D01*
X194238971Y-109335010D01*
X194553554Y-109545208D01*
X194903101Y-109689995D01*
X195274177Y-109763807D01*
X195652523Y-109763807D01*
X196023599Y-109689995D01*
X196373146Y-109545208D01*
X196687729Y-109335010D01*
X196955260Y-109067479D01*
X197165458Y-108752896D01*
X197310245Y-108403349D01*
X197384057Y-108032273D01*
X197384057Y-107653927D01*
X204856343Y-107653927D01*
X204856343Y-108032273D01*
X204930155Y-108403349D01*
X205074942Y-108752896D01*
X205285140Y-109067479D01*
X205552671Y-109335010D01*
X205867254Y-109545208D01*
X206216801Y-109689995D01*
X206587877Y-109763807D01*
X206966223Y-109763807D01*
X207337299Y-109689995D01*
X207686846Y-109545208D01*
X208001429Y-109335010D01*
X208268960Y-109067479D01*
X208479158Y-108752896D01*
X208623945Y-108403349D01*
X208697757Y-108032273D01*
X208697757Y-107653927D01*
X208623945Y-107282851D01*
X208479158Y-106933304D01*
X208268960Y-106618721D01*
X208001429Y-106351190D01*
X207686846Y-106140992D01*
X207337299Y-105996205D01*
X206966223Y-105922393D01*
X206587877Y-105922393D01*
X206216801Y-105996205D01*
X205867254Y-106140992D01*
X205552671Y-106351190D01*
X205285140Y-106618721D01*
X205074942Y-106933304D01*
X204930155Y-107282851D01*
X204856343Y-107653927D01*
X197384057Y-107653927D01*
X197310245Y-107282851D01*
X197165458Y-106933304D01*
X196955260Y-106618721D01*
X196687729Y-106351190D01*
X196373146Y-106140992D01*
X196023599Y-105996205D01*
X195652523Y-105922393D01*
X195274177Y-105922393D01*
X194903101Y-105996205D01*
X194553554Y-106140992D01*
X194238971Y-106351190D01*
X193971440Y-106618721D01*
X193761242Y-106933304D01*
X193616455Y-107282851D01*
X193542643Y-107653927D01*
X175780200Y-107653927D01*
X175780200Y-98814278D01*
X175808825Y-98522340D01*
X175884235Y-98272570D01*
X176009574Y-98036843D01*
X176153529Y-97853609D01*
X181096759Y-92498444D01*
X181113211Y-92476678D01*
X181305032Y-92232521D01*
X181334001Y-92187143D01*
X181364406Y-92142739D01*
X181368789Y-92134633D01*
X181552038Y-91789991D01*
X181574838Y-91734674D01*
X181598398Y-91679705D01*
X181601123Y-91670902D01*
X181713942Y-91297230D01*
X181725565Y-91238530D01*
X181737998Y-91180036D01*
X181738961Y-91170872D01*
X181776665Y-90786323D01*
X193950697Y-90786323D01*
X193950697Y-91213677D01*
X194034070Y-91632821D01*
X194197612Y-92027645D01*
X194435037Y-92382977D01*
X194737223Y-92685163D01*
X195092555Y-92922588D01*
X195487379Y-93086130D01*
X195906523Y-93169503D01*
X196333877Y-93169503D01*
X196753021Y-93086130D01*
X197147845Y-92922588D01*
X197503177Y-92685163D01*
X197805363Y-92382977D01*
X198042788Y-92027645D01*
X198206330Y-91632821D01*
X198289703Y-91213677D01*
X198289703Y-90786323D01*
X203950697Y-90786323D01*
X203950697Y-91213677D01*
X204034070Y-91632821D01*
X204197612Y-92027645D01*
X204435037Y-92382977D01*
X204737223Y-92685163D01*
X205092555Y-92922588D01*
X205487379Y-93086130D01*
X205906523Y-93169503D01*
X206333877Y-93169503D01*
X206753021Y-93086130D01*
X207147845Y-92922588D01*
X207503177Y-92685163D01*
X207805363Y-92382977D01*
X208042788Y-92027645D01*
X208206330Y-91632821D01*
X208289703Y-91213677D01*
X208289703Y-90786323D01*
X208206330Y-90367179D01*
X208042788Y-89972355D01*
X207805363Y-89617023D01*
X207503177Y-89314837D01*
X207147845Y-89077412D01*
X206753021Y-88913870D01*
X206333877Y-88830497D01*
X205906523Y-88830497D01*
X205487379Y-88913870D01*
X205092555Y-89077412D01*
X204737223Y-89314837D01*
X204435037Y-89617023D01*
X204197612Y-89972355D01*
X204034070Y-90367179D01*
X203950697Y-90786323D01*
X198289703Y-90786323D01*
X198206330Y-90367179D01*
X198042788Y-89972355D01*
X197805363Y-89617023D01*
X197503177Y-89314837D01*
X197147845Y-89077412D01*
X196753021Y-88913870D01*
X196333877Y-88830497D01*
X195906523Y-88830497D01*
X195487379Y-88913870D01*
X195092555Y-89077412D01*
X194737223Y-89314837D01*
X194435037Y-89617023D01*
X194197612Y-89972355D01*
X194034070Y-90367179D01*
X193950697Y-90786323D01*
X181776665Y-90786323D01*
X181777050Y-90782402D01*
X181780200Y-90750419D01*
X181780200Y-80325529D01*
X184348771Y-80325529D01*
X184348771Y-80674471D01*
X184416846Y-81016707D01*
X184550380Y-81339086D01*
X184744241Y-81629220D01*
X184990980Y-81875959D01*
X185281114Y-82069820D01*
X185603493Y-82203354D01*
X185945729Y-82271429D01*
X186294671Y-82271429D01*
X186636907Y-82203354D01*
X186959286Y-82069820D01*
X187249420Y-81875959D01*
X187496159Y-81629220D01*
X187690020Y-81339086D01*
X187823554Y-81016707D01*
X187891629Y-80674471D01*
X187891629Y-80325529D01*
X214348771Y-80325529D01*
X214348771Y-80674471D01*
X214416846Y-81016707D01*
X214550380Y-81339086D01*
X214744241Y-81629220D01*
X214990980Y-81875959D01*
X215281114Y-82069820D01*
X215603493Y-82203354D01*
X215945729Y-82271429D01*
X216294671Y-82271429D01*
X216636907Y-82203354D01*
X216959286Y-82069820D01*
X217249420Y-81875959D01*
X217496159Y-81629220D01*
X217690020Y-81339086D01*
X217823554Y-81016707D01*
X217891629Y-80674471D01*
X217891629Y-80325529D01*
X217823554Y-79983293D01*
X217690020Y-79660914D01*
X217496159Y-79370780D01*
X217249420Y-79124041D01*
X216959286Y-78930180D01*
X216636907Y-78796646D01*
X216294671Y-78728571D01*
X215945729Y-78728571D01*
X215603493Y-78796646D01*
X215281114Y-78930180D01*
X214990980Y-79124041D01*
X214744241Y-79370780D01*
X214550380Y-79660914D01*
X214416846Y-79983293D01*
X214348771Y-80325529D01*
X187891629Y-80325529D01*
X187823554Y-79983293D01*
X187690020Y-79660914D01*
X187496159Y-79370780D01*
X187249420Y-79124041D01*
X186959286Y-78930180D01*
X186636907Y-78796646D01*
X186294671Y-78728571D01*
X185945729Y-78728571D01*
X185603493Y-78796646D01*
X185281114Y-78930180D01*
X184990980Y-79124041D01*
X184744241Y-79370780D01*
X184550380Y-79660914D01*
X184416846Y-79983293D01*
X184348771Y-80325529D01*
X181780200Y-80325529D01*
X181780200Y-73825529D01*
X184348771Y-73825529D01*
X184348771Y-74174471D01*
X184416846Y-74516707D01*
X184550380Y-74839086D01*
X184744241Y-75129220D01*
X184990980Y-75375959D01*
X185281114Y-75569820D01*
X185603493Y-75703354D01*
X185945729Y-75771429D01*
X186294671Y-75771429D01*
X186636907Y-75703354D01*
X186959286Y-75569820D01*
X187249420Y-75375959D01*
X187496159Y-75129220D01*
X187690020Y-74839086D01*
X187823554Y-74516707D01*
X187891629Y-74174471D01*
X187891629Y-73825529D01*
X214348771Y-73825529D01*
X214348771Y-74174471D01*
X214416846Y-74516707D01*
X214550380Y-74839086D01*
X214744241Y-75129220D01*
X214990980Y-75375959D01*
X215281114Y-75569820D01*
X215603493Y-75703354D01*
X215945729Y-75771429D01*
X216294671Y-75771429D01*
X216636907Y-75703354D01*
X216959286Y-75569820D01*
X217249420Y-75375959D01*
X217496159Y-75129220D01*
X217690020Y-74839086D01*
X217823554Y-74516707D01*
X217891629Y-74174471D01*
X217891629Y-73825529D01*
X217823554Y-73483293D01*
X217690020Y-73160914D01*
X217496159Y-72870780D01*
X217249420Y-72624041D01*
X216959286Y-72430180D01*
X216636907Y-72296646D01*
X216294671Y-72228571D01*
X215945729Y-72228571D01*
X215603493Y-72296646D01*
X215281114Y-72430180D01*
X214990980Y-72624041D01*
X214744241Y-72870780D01*
X214550380Y-73160914D01*
X214416846Y-73483293D01*
X214348771Y-73825529D01*
X187891629Y-73825529D01*
X187823554Y-73483293D01*
X187690020Y-73160914D01*
X187496159Y-72870780D01*
X187249420Y-72624041D01*
X186959286Y-72430180D01*
X186636907Y-72296646D01*
X186294671Y-72228571D01*
X185945729Y-72228571D01*
X185603493Y-72296646D01*
X185281114Y-72430180D01*
X184990980Y-72624041D01*
X184744241Y-72870780D01*
X184550380Y-73160914D01*
X184416846Y-73483293D01*
X184348771Y-73825529D01*
X181780200Y-73825529D01*
X181780200Y-63786323D01*
X182950697Y-63786323D01*
X182950697Y-64213677D01*
X183034070Y-64632821D01*
X183197612Y-65027645D01*
X183435037Y-65382977D01*
X183737223Y-65685163D01*
X184092555Y-65922588D01*
X184487379Y-66086130D01*
X184906523Y-66169503D01*
X185333877Y-66169503D01*
X185753021Y-66086130D01*
X186147845Y-65922588D01*
X186503177Y-65685163D01*
X186805363Y-65382977D01*
X187042788Y-65027645D01*
X187206330Y-64632821D01*
X187289703Y-64213677D01*
X187289703Y-63786323D01*
X194950697Y-63786323D01*
X194950697Y-64213677D01*
X195034070Y-64632821D01*
X195197612Y-65027645D01*
X195435037Y-65382977D01*
X195737223Y-65685163D01*
X196092555Y-65922588D01*
X196487379Y-66086130D01*
X196906523Y-66169503D01*
X197333877Y-66169503D01*
X197753021Y-66086130D01*
X198147845Y-65922588D01*
X198503177Y-65685163D01*
X198805363Y-65382977D01*
X199042788Y-65027645D01*
X199206330Y-64632821D01*
X199289703Y-64213677D01*
X199289703Y-63786323D01*
X202950697Y-63786323D01*
X202950697Y-64213677D01*
X203034070Y-64632821D01*
X203197612Y-65027645D01*
X203435037Y-65382977D01*
X203737223Y-65685163D01*
X204092555Y-65922588D01*
X204487379Y-66086130D01*
X204906523Y-66169503D01*
X205333877Y-66169503D01*
X205753021Y-66086130D01*
X206147845Y-65922588D01*
X206503177Y-65685163D01*
X206805363Y-65382977D01*
X207042788Y-65027645D01*
X207206330Y-64632821D01*
X207289703Y-64213677D01*
X207289703Y-63786323D01*
X214950697Y-63786323D01*
X214950697Y-64213677D01*
X215034070Y-64632821D01*
X215197612Y-65027645D01*
X215435037Y-65382977D01*
X215737223Y-65685163D01*
X216092555Y-65922588D01*
X216487379Y-66086130D01*
X216906523Y-66169503D01*
X217333877Y-66169503D01*
X217753021Y-66086130D01*
X218147845Y-65922588D01*
X218503177Y-65685163D01*
X218805363Y-65382977D01*
X219042788Y-65027645D01*
X219206330Y-64632821D01*
X219289703Y-64213677D01*
X219289703Y-63786323D01*
X219206330Y-63367179D01*
X219042788Y-62972355D01*
X218805363Y-62617023D01*
X218503177Y-62314837D01*
X218147845Y-62077412D01*
X217753021Y-61913870D01*
X217333877Y-61830497D01*
X216906523Y-61830497D01*
X216487379Y-61913870D01*
X216092555Y-62077412D01*
X215737223Y-62314837D01*
X215435037Y-62617023D01*
X215197612Y-62972355D01*
X215034070Y-63367179D01*
X214950697Y-63786323D01*
X207289703Y-63786323D01*
X207206330Y-63367179D01*
X207042788Y-62972355D01*
X206805363Y-62617023D01*
X206503177Y-62314837D01*
X206147845Y-62077412D01*
X205753021Y-61913870D01*
X205333877Y-61830497D01*
X204906523Y-61830497D01*
X204487379Y-61913870D01*
X204092555Y-62077412D01*
X203737223Y-62314837D01*
X203435037Y-62617023D01*
X203197612Y-62972355D01*
X203034070Y-63367179D01*
X202950697Y-63786323D01*
X199289703Y-63786323D01*
X199206330Y-63367179D01*
X199042788Y-62972355D01*
X198805363Y-62617023D01*
X198503177Y-62314837D01*
X198147845Y-62077412D01*
X197753021Y-61913870D01*
X197333877Y-61830497D01*
X196906523Y-61830497D01*
X196487379Y-61913870D01*
X196092555Y-62077412D01*
X195737223Y-62314837D01*
X195435037Y-62617023D01*
X195197612Y-62972355D01*
X195034070Y-63367179D01*
X194950697Y-63786323D01*
X187289703Y-63786323D01*
X187206330Y-63367179D01*
X187042788Y-62972355D01*
X186805363Y-62617023D01*
X186503177Y-62314837D01*
X186147845Y-62077412D01*
X185753021Y-61913870D01*
X185333877Y-61830497D01*
X184906523Y-61830497D01*
X184487379Y-61913870D01*
X184092555Y-62077412D01*
X183737223Y-62314837D01*
X183435037Y-62617023D01*
X183197612Y-62972355D01*
X183034070Y-63367179D01*
X182950697Y-63786323D01*
X181780200Y-63786323D01*
X181780200Y-61032279D01*
X181789780Y-60934576D01*
X181808780Y-60871644D01*
X181839645Y-60813595D01*
X181881189Y-60762657D01*
X181931844Y-60720752D01*
X181989671Y-60689485D01*
X182052472Y-60670044D01*
X182148035Y-60660000D01*
X220087921Y-60660000D01*
X220185624Y-60669580D01*
G37*
G04 #@! TD.AperFunction*
M02*
