%TF.GenerationSoftware,KiCad,Pcbnew,5.1.9+dfsg1-1+deb11u1*%
%TF.CreationDate,2023-07-29T18:16:24+09:00*%
%TF.ProjectId,probe-adapter,70726f62-652d-4616-9461-707465722e6b,rev?*%
%TF.SameCoordinates,Original*%
%TF.FileFunction,Copper,L2,Bot*%
%TF.FilePolarity,Positive*%
%FSLAX46Y46*%
G04 Gerber Fmt 4.6, Leading zero omitted, Abs format (unit mm)*
G04 Created by KiCad (PCBNEW 5.1.9+dfsg1-1+deb11u1) date 2023-07-29 18:16:24*
%MOMM*%
%LPD*%
G01*
G04 APERTURE LIST*
%TA.AperFunction,ComponentPad*%
%ADD10C,5.700000*%
%TD*%
%TA.AperFunction,SMDPad,CuDef*%
%ADD11R,2.000000X4.000000*%
%TD*%
%TA.AperFunction,ComponentPad*%
%ADD12C,1.524000*%
%TD*%
%TA.AperFunction,ViaPad*%
%ADD13C,0.800000*%
%TD*%
%TA.AperFunction,Conductor*%
%ADD14C,0.250000*%
%TD*%
%TA.AperFunction,Conductor*%
%ADD15C,0.254000*%
%TD*%
%TA.AperFunction,Conductor*%
%ADD16C,0.100000*%
%TD*%
G04 APERTURE END LIST*
D10*
%TO.P,REF\u002A\u002A,1*%
%TO.N,N/C*%
X181500000Y-124500000D03*
%TD*%
%TO.P,REF\u002A\u002A,1*%
%TO.N,N/C*%
X186500000Y-101500000D03*
%TD*%
%TO.P,REF\u002A\u002A,1*%
%TO.N,N/C*%
X176500000Y-101500000D03*
%TD*%
D11*
%TO.P,J1,1*%
%TO.N,NEOPIXEL*%
X188750000Y-118500000D03*
%TD*%
%TO.P,J2,1*%
%TO.N,GND*%
X174250000Y-118500000D03*
%TD*%
%TO.P,J3,1*%
%TO.N,PROBE*%
X185750000Y-118500000D03*
%TD*%
%TO.P,J4,1*%
%TO.N,5V*%
X177250000Y-118500000D03*
%TD*%
D12*
%TO.P,J5,1*%
%TO.N,GND*%
X176500000Y-111750000D03*
%TO.P,J5,2*%
X176500000Y-114250000D03*
%TD*%
%TO.P,J6,2*%
%TO.N,PROBE*%
X186500000Y-114250000D03*
%TO.P,J6,1*%
X186500000Y-111750000D03*
%TD*%
D13*
%TO.N,5V*%
X179000000Y-115000000D03*
%TO.N,PROBE*%
X182525000Y-118250000D03*
%TO.N,NEOPIXEL*%
X188750000Y-115500000D03*
%TD*%
D14*
%TO.N,5V*%
X177250000Y-116750000D02*
X179000000Y-115000000D01*
X177250000Y-118500000D02*
X177250000Y-116750000D01*
%TO.N,PROBE*%
X185750000Y-115000000D02*
X186500000Y-114250000D01*
X185750000Y-118500000D02*
X185750000Y-115000000D01*
X185750000Y-118500000D02*
X184500000Y-118500000D01*
X184500000Y-118500000D02*
X184250000Y-118250000D01*
X184250000Y-118250000D02*
X182525000Y-118250000D01*
X186500000Y-111750000D02*
X186500000Y-114250000D01*
%TO.N,NEOPIXEL*%
X188750000Y-118500000D02*
X188750000Y-115500000D01*
%TD*%
D15*
%TO.N,GND*%
X184849234Y-98411633D02*
X184278442Y-98793024D01*
X183793024Y-99278442D01*
X183411633Y-99849234D01*
X183148927Y-100483463D01*
X183015000Y-101156758D01*
X183015000Y-101843242D01*
X183148927Y-102516537D01*
X183411633Y-103150766D01*
X183793024Y-103721558D01*
X184278442Y-104206976D01*
X184849234Y-104588367D01*
X185483463Y-104851073D01*
X186156758Y-104985000D01*
X186843242Y-104985000D01*
X187516537Y-104851073D01*
X188150766Y-104588367D01*
X188721558Y-104206976D01*
X189206976Y-103721558D01*
X189588367Y-103150766D01*
X189840000Y-102543270D01*
X189840001Y-115870792D01*
X189750000Y-115861928D01*
X189720361Y-115861928D01*
X189745226Y-115801898D01*
X189785000Y-115601939D01*
X189785000Y-115398061D01*
X189745226Y-115198102D01*
X189667205Y-115009744D01*
X189553937Y-114840226D01*
X189409774Y-114696063D01*
X189240256Y-114582795D01*
X189051898Y-114504774D01*
X188851939Y-114465000D01*
X188648061Y-114465000D01*
X188448102Y-114504774D01*
X188259744Y-114582795D01*
X188090226Y-114696063D01*
X187946063Y-114840226D01*
X187832795Y-115009744D01*
X187754774Y-115198102D01*
X187715000Y-115398061D01*
X187715000Y-115601939D01*
X187754774Y-115801898D01*
X187779639Y-115861928D01*
X187750000Y-115861928D01*
X187625518Y-115874188D01*
X187505820Y-115910498D01*
X187395506Y-115969463D01*
X187298815Y-116048815D01*
X187250000Y-116108296D01*
X187201185Y-116048815D01*
X187104494Y-115969463D01*
X186994180Y-115910498D01*
X186874482Y-115874188D01*
X186750000Y-115861928D01*
X186510000Y-115861928D01*
X186510000Y-115647000D01*
X186637592Y-115647000D01*
X186907490Y-115593314D01*
X187161727Y-115488005D01*
X187390535Y-115335120D01*
X187585120Y-115140535D01*
X187738005Y-114911727D01*
X187843314Y-114657490D01*
X187897000Y-114387592D01*
X187897000Y-114112408D01*
X187843314Y-113842510D01*
X187738005Y-113588273D01*
X187585120Y-113359465D01*
X187390535Y-113164880D01*
X187260000Y-113077659D01*
X187260000Y-112922341D01*
X187390535Y-112835120D01*
X187585120Y-112640535D01*
X187738005Y-112411727D01*
X187843314Y-112157490D01*
X187897000Y-111887592D01*
X187897000Y-111612408D01*
X187843314Y-111342510D01*
X187738005Y-111088273D01*
X187585120Y-110859465D01*
X187390535Y-110664880D01*
X187161727Y-110511995D01*
X186907490Y-110406686D01*
X186637592Y-110353000D01*
X186362408Y-110353000D01*
X186092510Y-110406686D01*
X185838273Y-110511995D01*
X185609465Y-110664880D01*
X185414880Y-110859465D01*
X185261995Y-111088273D01*
X185156686Y-111342510D01*
X185103000Y-111612408D01*
X185103000Y-111887592D01*
X185156686Y-112157490D01*
X185261995Y-112411727D01*
X185414880Y-112640535D01*
X185609465Y-112835120D01*
X185740000Y-112922341D01*
X185740001Y-113077659D01*
X185609465Y-113164880D01*
X185414880Y-113359465D01*
X185261995Y-113588273D01*
X185156686Y-113842510D01*
X185103000Y-114112408D01*
X185103000Y-114387592D01*
X185135467Y-114550816D01*
X185115026Y-114575724D01*
X185044454Y-114707754D01*
X185031337Y-114750997D01*
X185004271Y-114840226D01*
X185000998Y-114851015D01*
X184986324Y-115000000D01*
X184990001Y-115037332D01*
X184990001Y-115861928D01*
X184750000Y-115861928D01*
X184625518Y-115874188D01*
X184505820Y-115910498D01*
X184395506Y-115969463D01*
X184298815Y-116048815D01*
X184219463Y-116145506D01*
X184160498Y-116255820D01*
X184124188Y-116375518D01*
X184111928Y-116500000D01*
X184111928Y-117490000D01*
X183228711Y-117490000D01*
X183184774Y-117446063D01*
X183015256Y-117332795D01*
X182826898Y-117254774D01*
X182626939Y-117215000D01*
X182423061Y-117215000D01*
X182223102Y-117254774D01*
X182034744Y-117332795D01*
X181865226Y-117446063D01*
X181721063Y-117590226D01*
X181607795Y-117759744D01*
X181529774Y-117948102D01*
X181490000Y-118148061D01*
X181490000Y-118351939D01*
X181529774Y-118551898D01*
X181607795Y-118740256D01*
X181721063Y-118909774D01*
X181865226Y-119053937D01*
X182034744Y-119167205D01*
X182223102Y-119245226D01*
X182423061Y-119285000D01*
X182626939Y-119285000D01*
X182826898Y-119245226D01*
X183015256Y-119167205D01*
X183184774Y-119053937D01*
X183228711Y-119010000D01*
X183935198Y-119010000D01*
X183936200Y-119011002D01*
X183959999Y-119040001D01*
X184075724Y-119134974D01*
X184111928Y-119154326D01*
X184111928Y-120500000D01*
X184124188Y-120624482D01*
X184160498Y-120744180D01*
X184219463Y-120854494D01*
X184298815Y-120951185D01*
X184395506Y-121030537D01*
X184505820Y-121089502D01*
X184625518Y-121125812D01*
X184750000Y-121138072D01*
X186750000Y-121138072D01*
X186874482Y-121125812D01*
X186994180Y-121089502D01*
X187104494Y-121030537D01*
X187201185Y-120951185D01*
X187250000Y-120891704D01*
X187298815Y-120951185D01*
X187395506Y-121030537D01*
X187505820Y-121089502D01*
X187625518Y-121125812D01*
X187750000Y-121138072D01*
X189196423Y-121138072D01*
X184591370Y-127278174D01*
X184393304Y-127494553D01*
X184183116Y-127649122D01*
X183946906Y-127759922D01*
X183685588Y-127824738D01*
X183476000Y-127840000D01*
X182543270Y-127840000D01*
X183150766Y-127588367D01*
X183721558Y-127206976D01*
X184206976Y-126721558D01*
X184588367Y-126150766D01*
X184851073Y-125516537D01*
X184985000Y-124843242D01*
X184985000Y-124156758D01*
X184851073Y-123483463D01*
X184588367Y-122849234D01*
X184206976Y-122278442D01*
X183721558Y-121793024D01*
X183150766Y-121411633D01*
X182516537Y-121148927D01*
X181843242Y-121015000D01*
X181156758Y-121015000D01*
X180483463Y-121148927D01*
X179849234Y-121411633D01*
X179278442Y-121793024D01*
X178793024Y-122278442D01*
X178411633Y-122849234D01*
X178148927Y-123483463D01*
X178015000Y-124156758D01*
X178015000Y-124843242D01*
X178148927Y-125516537D01*
X178411633Y-126150766D01*
X178793024Y-126721558D01*
X179278442Y-127206976D01*
X179849234Y-127588367D01*
X180456730Y-127840000D01*
X179532289Y-127840000D01*
X179240343Y-127811374D01*
X178990571Y-127735964D01*
X178760205Y-127613477D01*
X178551563Y-127443312D01*
X178413592Y-127284789D01*
X173801796Y-121135699D01*
X173964250Y-121135000D01*
X174123000Y-120976250D01*
X174123000Y-118627000D01*
X174103000Y-118627000D01*
X174103000Y-118373000D01*
X174123000Y-118373000D01*
X174123000Y-116023750D01*
X174377000Y-116023750D01*
X174377000Y-118373000D01*
X174397000Y-118373000D01*
X174397000Y-118627000D01*
X174377000Y-118627000D01*
X174377000Y-120976250D01*
X174535750Y-121135000D01*
X175250000Y-121138072D01*
X175374482Y-121125812D01*
X175494180Y-121089502D01*
X175604494Y-121030537D01*
X175701185Y-120951185D01*
X175750000Y-120891704D01*
X175798815Y-120951185D01*
X175895506Y-121030537D01*
X176005820Y-121089502D01*
X176125518Y-121125812D01*
X176250000Y-121138072D01*
X178250000Y-121138072D01*
X178374482Y-121125812D01*
X178494180Y-121089502D01*
X178604494Y-121030537D01*
X178701185Y-120951185D01*
X178780537Y-120854494D01*
X178839502Y-120744180D01*
X178875812Y-120624482D01*
X178888072Y-120500000D01*
X178888072Y-116500000D01*
X178875812Y-116375518D01*
X178839502Y-116255820D01*
X178832354Y-116242447D01*
X179039802Y-116035000D01*
X179101939Y-116035000D01*
X179301898Y-115995226D01*
X179490256Y-115917205D01*
X179659774Y-115803937D01*
X179803937Y-115659774D01*
X179917205Y-115490256D01*
X179995226Y-115301898D01*
X180035000Y-115101939D01*
X180035000Y-114898061D01*
X179995226Y-114698102D01*
X179917205Y-114509744D01*
X179803937Y-114340226D01*
X179659774Y-114196063D01*
X179490256Y-114082795D01*
X179301898Y-114004774D01*
X179101939Y-113965000D01*
X178898061Y-113965000D01*
X178698102Y-114004774D01*
X178509744Y-114082795D01*
X178340226Y-114196063D01*
X178196063Y-114340226D01*
X178082795Y-114509744D01*
X178004774Y-114698102D01*
X177965000Y-114898061D01*
X177965000Y-114960198D01*
X177063271Y-115861928D01*
X176250000Y-115861928D01*
X176125518Y-115874188D01*
X176005820Y-115910498D01*
X175895506Y-115969463D01*
X175798815Y-116048815D01*
X175750000Y-116108296D01*
X175701185Y-116048815D01*
X175604494Y-115969463D01*
X175494180Y-115910498D01*
X175374482Y-115874188D01*
X175250000Y-115861928D01*
X174535750Y-115865000D01*
X174377000Y-116023750D01*
X174123000Y-116023750D01*
X173964250Y-115865000D01*
X173250000Y-115861928D01*
X173160000Y-115870792D01*
X173160000Y-115215565D01*
X175714040Y-115215565D01*
X175781020Y-115455656D01*
X176030048Y-115572756D01*
X176297135Y-115639023D01*
X176572017Y-115651910D01*
X176844133Y-115610922D01*
X177103023Y-115517636D01*
X177218980Y-115455656D01*
X177285960Y-115215565D01*
X176500000Y-114429605D01*
X175714040Y-115215565D01*
X173160000Y-115215565D01*
X173160000Y-114322017D01*
X175098090Y-114322017D01*
X175139078Y-114594133D01*
X175232364Y-114853023D01*
X175294344Y-114968980D01*
X175534435Y-115035960D01*
X176320395Y-114250000D01*
X176679605Y-114250000D01*
X177465565Y-115035960D01*
X177705656Y-114968980D01*
X177822756Y-114719952D01*
X177889023Y-114452865D01*
X177901910Y-114177983D01*
X177860922Y-113905867D01*
X177767636Y-113646977D01*
X177705656Y-113531020D01*
X177465565Y-113464040D01*
X176679605Y-114250000D01*
X176320395Y-114250000D01*
X175534435Y-113464040D01*
X175294344Y-113531020D01*
X175177244Y-113780048D01*
X175110977Y-114047135D01*
X175098090Y-114322017D01*
X173160000Y-114322017D01*
X173160000Y-112715565D01*
X175714040Y-112715565D01*
X175781020Y-112955656D01*
X175869290Y-112997163D01*
X175781020Y-113044344D01*
X175714040Y-113284435D01*
X176500000Y-114070395D01*
X177285960Y-113284435D01*
X177218980Y-113044344D01*
X177130710Y-113002837D01*
X177218980Y-112955656D01*
X177285960Y-112715565D01*
X176500000Y-111929605D01*
X175714040Y-112715565D01*
X173160000Y-112715565D01*
X173160000Y-111822017D01*
X175098090Y-111822017D01*
X175139078Y-112094133D01*
X175232364Y-112353023D01*
X175294344Y-112468980D01*
X175534435Y-112535960D01*
X176320395Y-111750000D01*
X176679605Y-111750000D01*
X177465565Y-112535960D01*
X177705656Y-112468980D01*
X177822756Y-112219952D01*
X177889023Y-111952865D01*
X177901910Y-111677983D01*
X177860922Y-111405867D01*
X177767636Y-111146977D01*
X177705656Y-111031020D01*
X177465565Y-110964040D01*
X176679605Y-111750000D01*
X176320395Y-111750000D01*
X175534435Y-110964040D01*
X175294344Y-111031020D01*
X175177244Y-111280048D01*
X175110977Y-111547135D01*
X175098090Y-111822017D01*
X173160000Y-111822017D01*
X173160000Y-110784435D01*
X175714040Y-110784435D01*
X176500000Y-111570395D01*
X177285960Y-110784435D01*
X177218980Y-110544344D01*
X176969952Y-110427244D01*
X176702865Y-110360977D01*
X176427983Y-110348090D01*
X176155867Y-110389078D01*
X175896977Y-110482364D01*
X175781020Y-110544344D01*
X175714040Y-110784435D01*
X173160000Y-110784435D01*
X173160000Y-102543270D01*
X173411633Y-103150766D01*
X173793024Y-103721558D01*
X174278442Y-104206976D01*
X174849234Y-104588367D01*
X175483463Y-104851073D01*
X176156758Y-104985000D01*
X176843242Y-104985000D01*
X177516537Y-104851073D01*
X178150766Y-104588367D01*
X178721558Y-104206976D01*
X179206976Y-103721558D01*
X179588367Y-103150766D01*
X179851073Y-102516537D01*
X179985000Y-101843242D01*
X179985000Y-101156758D01*
X179851073Y-100483463D01*
X179588367Y-99849234D01*
X179206976Y-99278442D01*
X178721558Y-98793024D01*
X178150766Y-98411633D01*
X177543270Y-98160000D01*
X185456730Y-98160000D01*
X184849234Y-98411633D01*
%TA.AperFunction,Conductor*%
D16*
G36*
X184849234Y-98411633D02*
G01*
X184278442Y-98793024D01*
X183793024Y-99278442D01*
X183411633Y-99849234D01*
X183148927Y-100483463D01*
X183015000Y-101156758D01*
X183015000Y-101843242D01*
X183148927Y-102516537D01*
X183411633Y-103150766D01*
X183793024Y-103721558D01*
X184278442Y-104206976D01*
X184849234Y-104588367D01*
X185483463Y-104851073D01*
X186156758Y-104985000D01*
X186843242Y-104985000D01*
X187516537Y-104851073D01*
X188150766Y-104588367D01*
X188721558Y-104206976D01*
X189206976Y-103721558D01*
X189588367Y-103150766D01*
X189840000Y-102543270D01*
X189840001Y-115870792D01*
X189750000Y-115861928D01*
X189720361Y-115861928D01*
X189745226Y-115801898D01*
X189785000Y-115601939D01*
X189785000Y-115398061D01*
X189745226Y-115198102D01*
X189667205Y-115009744D01*
X189553937Y-114840226D01*
X189409774Y-114696063D01*
X189240256Y-114582795D01*
X189051898Y-114504774D01*
X188851939Y-114465000D01*
X188648061Y-114465000D01*
X188448102Y-114504774D01*
X188259744Y-114582795D01*
X188090226Y-114696063D01*
X187946063Y-114840226D01*
X187832795Y-115009744D01*
X187754774Y-115198102D01*
X187715000Y-115398061D01*
X187715000Y-115601939D01*
X187754774Y-115801898D01*
X187779639Y-115861928D01*
X187750000Y-115861928D01*
X187625518Y-115874188D01*
X187505820Y-115910498D01*
X187395506Y-115969463D01*
X187298815Y-116048815D01*
X187250000Y-116108296D01*
X187201185Y-116048815D01*
X187104494Y-115969463D01*
X186994180Y-115910498D01*
X186874482Y-115874188D01*
X186750000Y-115861928D01*
X186510000Y-115861928D01*
X186510000Y-115647000D01*
X186637592Y-115647000D01*
X186907490Y-115593314D01*
X187161727Y-115488005D01*
X187390535Y-115335120D01*
X187585120Y-115140535D01*
X187738005Y-114911727D01*
X187843314Y-114657490D01*
X187897000Y-114387592D01*
X187897000Y-114112408D01*
X187843314Y-113842510D01*
X187738005Y-113588273D01*
X187585120Y-113359465D01*
X187390535Y-113164880D01*
X187260000Y-113077659D01*
X187260000Y-112922341D01*
X187390535Y-112835120D01*
X187585120Y-112640535D01*
X187738005Y-112411727D01*
X187843314Y-112157490D01*
X187897000Y-111887592D01*
X187897000Y-111612408D01*
X187843314Y-111342510D01*
X187738005Y-111088273D01*
X187585120Y-110859465D01*
X187390535Y-110664880D01*
X187161727Y-110511995D01*
X186907490Y-110406686D01*
X186637592Y-110353000D01*
X186362408Y-110353000D01*
X186092510Y-110406686D01*
X185838273Y-110511995D01*
X185609465Y-110664880D01*
X185414880Y-110859465D01*
X185261995Y-111088273D01*
X185156686Y-111342510D01*
X185103000Y-111612408D01*
X185103000Y-111887592D01*
X185156686Y-112157490D01*
X185261995Y-112411727D01*
X185414880Y-112640535D01*
X185609465Y-112835120D01*
X185740000Y-112922341D01*
X185740001Y-113077659D01*
X185609465Y-113164880D01*
X185414880Y-113359465D01*
X185261995Y-113588273D01*
X185156686Y-113842510D01*
X185103000Y-114112408D01*
X185103000Y-114387592D01*
X185135467Y-114550816D01*
X185115026Y-114575724D01*
X185044454Y-114707754D01*
X185031337Y-114750997D01*
X185004271Y-114840226D01*
X185000998Y-114851015D01*
X184986324Y-115000000D01*
X184990001Y-115037332D01*
X184990001Y-115861928D01*
X184750000Y-115861928D01*
X184625518Y-115874188D01*
X184505820Y-115910498D01*
X184395506Y-115969463D01*
X184298815Y-116048815D01*
X184219463Y-116145506D01*
X184160498Y-116255820D01*
X184124188Y-116375518D01*
X184111928Y-116500000D01*
X184111928Y-117490000D01*
X183228711Y-117490000D01*
X183184774Y-117446063D01*
X183015256Y-117332795D01*
X182826898Y-117254774D01*
X182626939Y-117215000D01*
X182423061Y-117215000D01*
X182223102Y-117254774D01*
X182034744Y-117332795D01*
X181865226Y-117446063D01*
X181721063Y-117590226D01*
X181607795Y-117759744D01*
X181529774Y-117948102D01*
X181490000Y-118148061D01*
X181490000Y-118351939D01*
X181529774Y-118551898D01*
X181607795Y-118740256D01*
X181721063Y-118909774D01*
X181865226Y-119053937D01*
X182034744Y-119167205D01*
X182223102Y-119245226D01*
X182423061Y-119285000D01*
X182626939Y-119285000D01*
X182826898Y-119245226D01*
X183015256Y-119167205D01*
X183184774Y-119053937D01*
X183228711Y-119010000D01*
X183935198Y-119010000D01*
X183936200Y-119011002D01*
X183959999Y-119040001D01*
X184075724Y-119134974D01*
X184111928Y-119154326D01*
X184111928Y-120500000D01*
X184124188Y-120624482D01*
X184160498Y-120744180D01*
X184219463Y-120854494D01*
X184298815Y-120951185D01*
X184395506Y-121030537D01*
X184505820Y-121089502D01*
X184625518Y-121125812D01*
X184750000Y-121138072D01*
X186750000Y-121138072D01*
X186874482Y-121125812D01*
X186994180Y-121089502D01*
X187104494Y-121030537D01*
X187201185Y-120951185D01*
X187250000Y-120891704D01*
X187298815Y-120951185D01*
X187395506Y-121030537D01*
X187505820Y-121089502D01*
X187625518Y-121125812D01*
X187750000Y-121138072D01*
X189196423Y-121138072D01*
X184591370Y-127278174D01*
X184393304Y-127494553D01*
X184183116Y-127649122D01*
X183946906Y-127759922D01*
X183685588Y-127824738D01*
X183476000Y-127840000D01*
X182543270Y-127840000D01*
X183150766Y-127588367D01*
X183721558Y-127206976D01*
X184206976Y-126721558D01*
X184588367Y-126150766D01*
X184851073Y-125516537D01*
X184985000Y-124843242D01*
X184985000Y-124156758D01*
X184851073Y-123483463D01*
X184588367Y-122849234D01*
X184206976Y-122278442D01*
X183721558Y-121793024D01*
X183150766Y-121411633D01*
X182516537Y-121148927D01*
X181843242Y-121015000D01*
X181156758Y-121015000D01*
X180483463Y-121148927D01*
X179849234Y-121411633D01*
X179278442Y-121793024D01*
X178793024Y-122278442D01*
X178411633Y-122849234D01*
X178148927Y-123483463D01*
X178015000Y-124156758D01*
X178015000Y-124843242D01*
X178148927Y-125516537D01*
X178411633Y-126150766D01*
X178793024Y-126721558D01*
X179278442Y-127206976D01*
X179849234Y-127588367D01*
X180456730Y-127840000D01*
X179532289Y-127840000D01*
X179240343Y-127811374D01*
X178990571Y-127735964D01*
X178760205Y-127613477D01*
X178551563Y-127443312D01*
X178413592Y-127284789D01*
X173801796Y-121135699D01*
X173964250Y-121135000D01*
X174123000Y-120976250D01*
X174123000Y-118627000D01*
X174103000Y-118627000D01*
X174103000Y-118373000D01*
X174123000Y-118373000D01*
X174123000Y-116023750D01*
X174377000Y-116023750D01*
X174377000Y-118373000D01*
X174397000Y-118373000D01*
X174397000Y-118627000D01*
X174377000Y-118627000D01*
X174377000Y-120976250D01*
X174535750Y-121135000D01*
X175250000Y-121138072D01*
X175374482Y-121125812D01*
X175494180Y-121089502D01*
X175604494Y-121030537D01*
X175701185Y-120951185D01*
X175750000Y-120891704D01*
X175798815Y-120951185D01*
X175895506Y-121030537D01*
X176005820Y-121089502D01*
X176125518Y-121125812D01*
X176250000Y-121138072D01*
X178250000Y-121138072D01*
X178374482Y-121125812D01*
X178494180Y-121089502D01*
X178604494Y-121030537D01*
X178701185Y-120951185D01*
X178780537Y-120854494D01*
X178839502Y-120744180D01*
X178875812Y-120624482D01*
X178888072Y-120500000D01*
X178888072Y-116500000D01*
X178875812Y-116375518D01*
X178839502Y-116255820D01*
X178832354Y-116242447D01*
X179039802Y-116035000D01*
X179101939Y-116035000D01*
X179301898Y-115995226D01*
X179490256Y-115917205D01*
X179659774Y-115803937D01*
X179803937Y-115659774D01*
X179917205Y-115490256D01*
X179995226Y-115301898D01*
X180035000Y-115101939D01*
X180035000Y-114898061D01*
X179995226Y-114698102D01*
X179917205Y-114509744D01*
X179803937Y-114340226D01*
X179659774Y-114196063D01*
X179490256Y-114082795D01*
X179301898Y-114004774D01*
X179101939Y-113965000D01*
X178898061Y-113965000D01*
X178698102Y-114004774D01*
X178509744Y-114082795D01*
X178340226Y-114196063D01*
X178196063Y-114340226D01*
X178082795Y-114509744D01*
X178004774Y-114698102D01*
X177965000Y-114898061D01*
X177965000Y-114960198D01*
X177063271Y-115861928D01*
X176250000Y-115861928D01*
X176125518Y-115874188D01*
X176005820Y-115910498D01*
X175895506Y-115969463D01*
X175798815Y-116048815D01*
X175750000Y-116108296D01*
X175701185Y-116048815D01*
X175604494Y-115969463D01*
X175494180Y-115910498D01*
X175374482Y-115874188D01*
X175250000Y-115861928D01*
X174535750Y-115865000D01*
X174377000Y-116023750D01*
X174123000Y-116023750D01*
X173964250Y-115865000D01*
X173250000Y-115861928D01*
X173160000Y-115870792D01*
X173160000Y-115215565D01*
X175714040Y-115215565D01*
X175781020Y-115455656D01*
X176030048Y-115572756D01*
X176297135Y-115639023D01*
X176572017Y-115651910D01*
X176844133Y-115610922D01*
X177103023Y-115517636D01*
X177218980Y-115455656D01*
X177285960Y-115215565D01*
X176500000Y-114429605D01*
X175714040Y-115215565D01*
X173160000Y-115215565D01*
X173160000Y-114322017D01*
X175098090Y-114322017D01*
X175139078Y-114594133D01*
X175232364Y-114853023D01*
X175294344Y-114968980D01*
X175534435Y-115035960D01*
X176320395Y-114250000D01*
X176679605Y-114250000D01*
X177465565Y-115035960D01*
X177705656Y-114968980D01*
X177822756Y-114719952D01*
X177889023Y-114452865D01*
X177901910Y-114177983D01*
X177860922Y-113905867D01*
X177767636Y-113646977D01*
X177705656Y-113531020D01*
X177465565Y-113464040D01*
X176679605Y-114250000D01*
X176320395Y-114250000D01*
X175534435Y-113464040D01*
X175294344Y-113531020D01*
X175177244Y-113780048D01*
X175110977Y-114047135D01*
X175098090Y-114322017D01*
X173160000Y-114322017D01*
X173160000Y-112715565D01*
X175714040Y-112715565D01*
X175781020Y-112955656D01*
X175869290Y-112997163D01*
X175781020Y-113044344D01*
X175714040Y-113284435D01*
X176500000Y-114070395D01*
X177285960Y-113284435D01*
X177218980Y-113044344D01*
X177130710Y-113002837D01*
X177218980Y-112955656D01*
X177285960Y-112715565D01*
X176500000Y-111929605D01*
X175714040Y-112715565D01*
X173160000Y-112715565D01*
X173160000Y-111822017D01*
X175098090Y-111822017D01*
X175139078Y-112094133D01*
X175232364Y-112353023D01*
X175294344Y-112468980D01*
X175534435Y-112535960D01*
X176320395Y-111750000D01*
X176679605Y-111750000D01*
X177465565Y-112535960D01*
X177705656Y-112468980D01*
X177822756Y-112219952D01*
X177889023Y-111952865D01*
X177901910Y-111677983D01*
X177860922Y-111405867D01*
X177767636Y-111146977D01*
X177705656Y-111031020D01*
X177465565Y-110964040D01*
X176679605Y-111750000D01*
X176320395Y-111750000D01*
X175534435Y-110964040D01*
X175294344Y-111031020D01*
X175177244Y-111280048D01*
X175110977Y-111547135D01*
X175098090Y-111822017D01*
X173160000Y-111822017D01*
X173160000Y-110784435D01*
X175714040Y-110784435D01*
X176500000Y-111570395D01*
X177285960Y-110784435D01*
X177218980Y-110544344D01*
X176969952Y-110427244D01*
X176702865Y-110360977D01*
X176427983Y-110348090D01*
X176155867Y-110389078D01*
X175896977Y-110482364D01*
X175781020Y-110544344D01*
X175714040Y-110784435D01*
X173160000Y-110784435D01*
X173160000Y-102543270D01*
X173411633Y-103150766D01*
X173793024Y-103721558D01*
X174278442Y-104206976D01*
X174849234Y-104588367D01*
X175483463Y-104851073D01*
X176156758Y-104985000D01*
X176843242Y-104985000D01*
X177516537Y-104851073D01*
X178150766Y-104588367D01*
X178721558Y-104206976D01*
X179206976Y-103721558D01*
X179588367Y-103150766D01*
X179851073Y-102516537D01*
X179985000Y-101843242D01*
X179985000Y-101156758D01*
X179851073Y-100483463D01*
X179588367Y-99849234D01*
X179206976Y-99278442D01*
X178721558Y-98793024D01*
X178150766Y-98411633D01*
X177543270Y-98160000D01*
X185456730Y-98160000D01*
X184849234Y-98411633D01*
G37*
%TD.AperFunction*%
%TD*%
M02*
