%TF.GenerationSoftware,KiCad,Pcbnew,5.1.9+dfsg1-1+deb11u1*%
%TF.CreationDate,2023-07-29T18:16:24+09:00*%
%TF.ProjectId,probe-adapter,70726f62-652d-4616-9461-707465722e6b,rev?*%
%TF.SameCoordinates,Original*%
%TF.FileFunction,Legend,Bot*%
%TF.FilePolarity,Positive*%
%FSLAX46Y46*%
G04 Gerber Fmt 4.6, Leading zero omitted, Abs format (unit mm)*
G04 Created by KiCad (PCBNEW 5.1.9+dfsg1-1+deb11u1) date 2023-07-29 18:16:24*
%MOMM*%
%LPD*%
G01*
G04 APERTURE LIST*
%ADD10C,0.100000*%
%ADD11C,0.250000*%
%ADD12C,0.150000*%
%ADD13C,0.010000*%
G04 APERTURE END LIST*
D10*
X182410714Y-111339285D02*
X182660714Y-110982142D01*
X182839285Y-111339285D02*
X182839285Y-110589285D01*
X182553571Y-110589285D01*
X182482142Y-110625000D01*
X182446428Y-110660714D01*
X182410714Y-110732142D01*
X182410714Y-110839285D01*
X182446428Y-110910714D01*
X182482142Y-110946428D01*
X182553571Y-110982142D01*
X182839285Y-110982142D01*
X181803571Y-111303571D02*
X181875000Y-111339285D01*
X182017857Y-111339285D01*
X182089285Y-111303571D01*
X182125000Y-111232142D01*
X182125000Y-110946428D01*
X182089285Y-110875000D01*
X182017857Y-110839285D01*
X181875000Y-110839285D01*
X181803571Y-110875000D01*
X181767857Y-110946428D01*
X181767857Y-111017857D01*
X182125000Y-111089285D01*
X181517857Y-110839285D02*
X181339285Y-111339285D01*
X181160714Y-110839285D01*
X180875000Y-111267857D02*
X180839285Y-111303571D01*
X180875000Y-111339285D01*
X180910714Y-111303571D01*
X180875000Y-111267857D01*
X180875000Y-111339285D01*
X180125000Y-111339285D02*
X180553571Y-111339285D01*
X180339285Y-111339285D02*
X180339285Y-110589285D01*
X180410714Y-110696428D01*
X180482142Y-110767857D01*
X180553571Y-110803571D01*
D11*
X189142857Y-109678571D02*
X189142857Y-108178571D01*
X188571428Y-108178571D01*
X188428571Y-108250000D01*
X188357142Y-108321428D01*
X188285714Y-108464285D01*
X188285714Y-108678571D01*
X188357142Y-108821428D01*
X188428571Y-108892857D01*
X188571428Y-108964285D01*
X189142857Y-108964285D01*
X187642857Y-109678571D02*
X187642857Y-108678571D01*
X187642857Y-108964285D02*
X187571428Y-108821428D01*
X187500000Y-108750000D01*
X187357142Y-108678571D01*
X187214285Y-108678571D01*
X186500000Y-109678571D02*
X186642857Y-109607142D01*
X186714285Y-109535714D01*
X186785714Y-109392857D01*
X186785714Y-108964285D01*
X186714285Y-108821428D01*
X186642857Y-108750000D01*
X186500000Y-108678571D01*
X186285714Y-108678571D01*
X186142857Y-108750000D01*
X186071428Y-108821428D01*
X186000000Y-108964285D01*
X186000000Y-109392857D01*
X186071428Y-109535714D01*
X186142857Y-109607142D01*
X186285714Y-109678571D01*
X186500000Y-109678571D01*
X185357142Y-109678571D02*
X185357142Y-108178571D01*
X185357142Y-108750000D02*
X185214285Y-108678571D01*
X184928571Y-108678571D01*
X184785714Y-108750000D01*
X184714285Y-108821428D01*
X184642857Y-108964285D01*
X184642857Y-109392857D01*
X184714285Y-109535714D01*
X184785714Y-109607142D01*
X184928571Y-109678571D01*
X185214285Y-109678571D01*
X185357142Y-109607142D01*
X183428571Y-109607142D02*
X183571428Y-109678571D01*
X183857142Y-109678571D01*
X184000000Y-109607142D01*
X184071428Y-109464285D01*
X184071428Y-108892857D01*
X184000000Y-108750000D01*
X183857142Y-108678571D01*
X183571428Y-108678571D01*
X183428571Y-108750000D01*
X183357142Y-108892857D01*
X183357142Y-109035714D01*
X184071428Y-109178571D01*
X181642857Y-109250000D02*
X180928571Y-109250000D01*
X181785714Y-109678571D02*
X181285714Y-108178571D01*
X180785714Y-109678571D01*
X179642857Y-109678571D02*
X179642857Y-108178571D01*
X179642857Y-109607142D02*
X179785714Y-109678571D01*
X180071428Y-109678571D01*
X180214285Y-109607142D01*
X180285714Y-109535714D01*
X180357142Y-109392857D01*
X180357142Y-108964285D01*
X180285714Y-108821428D01*
X180214285Y-108750000D01*
X180071428Y-108678571D01*
X179785714Y-108678571D01*
X179642857Y-108750000D01*
X178285714Y-109678571D02*
X178285714Y-108892857D01*
X178357142Y-108750000D01*
X178500000Y-108678571D01*
X178785714Y-108678571D01*
X178928571Y-108750000D01*
X178285714Y-109607142D02*
X178428571Y-109678571D01*
X178785714Y-109678571D01*
X178928571Y-109607142D01*
X179000000Y-109464285D01*
X179000000Y-109321428D01*
X178928571Y-109178571D01*
X178785714Y-109107142D01*
X178428571Y-109107142D01*
X178285714Y-109035714D01*
X177571428Y-108678571D02*
X177571428Y-110178571D01*
X177571428Y-108750000D02*
X177428571Y-108678571D01*
X177142857Y-108678571D01*
X177000000Y-108750000D01*
X176928571Y-108821428D01*
X176857142Y-108964285D01*
X176857142Y-109392857D01*
X176928571Y-109535714D01*
X177000000Y-109607142D01*
X177142857Y-109678571D01*
X177428571Y-109678571D01*
X177571428Y-109607142D01*
X176428571Y-108678571D02*
X175857142Y-108678571D01*
X176214285Y-108178571D02*
X176214285Y-109464285D01*
X176142857Y-109607142D01*
X176000000Y-109678571D01*
X175857142Y-109678571D01*
X174785714Y-109607142D02*
X174928571Y-109678571D01*
X175214285Y-109678571D01*
X175357142Y-109607142D01*
X175428571Y-109464285D01*
X175428571Y-108892857D01*
X175357142Y-108750000D01*
X175214285Y-108678571D01*
X174928571Y-108678571D01*
X174785714Y-108750000D01*
X174714285Y-108892857D01*
X174714285Y-109035714D01*
X175428571Y-109178571D01*
X174071428Y-109678571D02*
X174071428Y-108678571D01*
X174071428Y-108964285D02*
X174000000Y-108821428D01*
X173928571Y-108750000D01*
X173785714Y-108678571D01*
X173642857Y-108678571D01*
D12*
X184202380Y-116011904D02*
X183202380Y-116011904D01*
X183202380Y-116392857D01*
X183250000Y-116488095D01*
X183297619Y-116535714D01*
X183392857Y-116583333D01*
X183535714Y-116583333D01*
X183630952Y-116535714D01*
X183678571Y-116488095D01*
X183726190Y-116392857D01*
X183726190Y-116011904D01*
X184202380Y-117583333D02*
X183726190Y-117250000D01*
X184202380Y-117011904D02*
X183202380Y-117011904D01*
X183202380Y-117392857D01*
X183250000Y-117488095D01*
X183297619Y-117535714D01*
X183392857Y-117583333D01*
X183535714Y-117583333D01*
X183630952Y-117535714D01*
X183678571Y-117488095D01*
X183726190Y-117392857D01*
X183726190Y-117011904D01*
X183202380Y-118202380D02*
X183202380Y-118392857D01*
X183250000Y-118488095D01*
X183345238Y-118583333D01*
X183535714Y-118630952D01*
X183869047Y-118630952D01*
X184059523Y-118583333D01*
X184154761Y-118488095D01*
X184202380Y-118392857D01*
X184202380Y-118202380D01*
X184154761Y-118107142D01*
X184059523Y-118011904D01*
X183869047Y-117964285D01*
X183535714Y-117964285D01*
X183345238Y-118011904D01*
X183250000Y-118107142D01*
X183202380Y-118202380D01*
X183678571Y-119392857D02*
X183726190Y-119535714D01*
X183773809Y-119583333D01*
X183869047Y-119630952D01*
X184011904Y-119630952D01*
X184107142Y-119583333D01*
X184154761Y-119535714D01*
X184202380Y-119440476D01*
X184202380Y-119059523D01*
X183202380Y-119059523D01*
X183202380Y-119392857D01*
X183250000Y-119488095D01*
X183297619Y-119535714D01*
X183392857Y-119583333D01*
X183488095Y-119583333D01*
X183583333Y-119535714D01*
X183630952Y-119488095D01*
X183678571Y-119392857D01*
X183678571Y-119059523D01*
X183678571Y-120059523D02*
X183678571Y-120392857D01*
X184202380Y-120535714D02*
X184202380Y-120059523D01*
X183202380Y-120059523D01*
X183202380Y-120535714D01*
X188297619Y-114142857D02*
X188297619Y-114619047D01*
X189297619Y-114619047D01*
X188821428Y-113809523D02*
X188821428Y-113476190D01*
X188297619Y-113333333D02*
X188297619Y-113809523D01*
X189297619Y-113809523D01*
X189297619Y-113333333D01*
X188297619Y-112904761D02*
X189297619Y-112904761D01*
X189297619Y-112666666D01*
X189250000Y-112523809D01*
X189154761Y-112428571D01*
X189059523Y-112380952D01*
X188869047Y-112333333D01*
X188726190Y-112333333D01*
X188535714Y-112380952D01*
X188440476Y-112428571D01*
X188345238Y-112523809D01*
X188297619Y-112666666D01*
X188297619Y-112904761D01*
X178952380Y-118309523D02*
X178952380Y-117833333D01*
X179428571Y-117785714D01*
X179380952Y-117833333D01*
X179333333Y-117928571D01*
X179333333Y-118166666D01*
X179380952Y-118261904D01*
X179428571Y-118309523D01*
X179523809Y-118357142D01*
X179761904Y-118357142D01*
X179857142Y-118309523D01*
X179904761Y-118261904D01*
X179952380Y-118166666D01*
X179952380Y-117928571D01*
X179904761Y-117833333D01*
X179857142Y-117785714D01*
X178952380Y-118642857D02*
X179952380Y-118976190D01*
X178952380Y-119309523D01*
X173750000Y-113488095D02*
X173702380Y-113392857D01*
X173702380Y-113250000D01*
X173750000Y-113107142D01*
X173845238Y-113011904D01*
X173940476Y-112964285D01*
X174130952Y-112916666D01*
X174273809Y-112916666D01*
X174464285Y-112964285D01*
X174559523Y-113011904D01*
X174654761Y-113107142D01*
X174702380Y-113250000D01*
X174702380Y-113345238D01*
X174654761Y-113488095D01*
X174607142Y-113535714D01*
X174273809Y-113535714D01*
X174273809Y-113345238D01*
X174702380Y-113964285D02*
X173702380Y-113964285D01*
X174702380Y-114535714D01*
X173702380Y-114535714D01*
X174702380Y-115011904D02*
X173702380Y-115011904D01*
X173702380Y-115250000D01*
X173750000Y-115392857D01*
X173845238Y-115488095D01*
X173940476Y-115535714D01*
X174130952Y-115583333D01*
X174273809Y-115583333D01*
X174464285Y-115535714D01*
X174559523Y-115488095D01*
X174654761Y-115392857D01*
X174702380Y-115250000D01*
X174702380Y-115011904D01*
D13*
%TO.C,G\u002A\u002A\u002A*%
G36*
X180217300Y-105923800D02*
G01*
X180503303Y-105923800D01*
X180501589Y-105788862D01*
X180499875Y-105653925D01*
X180358588Y-105652216D01*
X180217300Y-105650507D01*
X180217300Y-105923800D01*
G37*
X180217300Y-105923800D02*
X180503303Y-105923800D01*
X180501589Y-105788862D01*
X180499875Y-105653925D01*
X180358588Y-105652216D01*
X180217300Y-105650507D01*
X180217300Y-105923800D01*
G36*
X176656538Y-105041186D02*
G01*
X176625924Y-105042123D01*
X176594033Y-105044534D01*
X176569225Y-105047682D01*
X176543420Y-105051794D01*
X176518276Y-105055382D01*
X176505725Y-105056933D01*
X176488532Y-105059838D01*
X176462561Y-105065428D01*
X176431233Y-105072864D01*
X176397973Y-105081306D01*
X176366201Y-105089913D01*
X176340625Y-105097445D01*
X176312909Y-105107237D01*
X176277606Y-105121443D01*
X176238369Y-105138564D01*
X176219975Y-105147018D01*
X176203286Y-105155289D01*
X176180832Y-105167032D01*
X176155578Y-105180621D01*
X176130492Y-105194428D01*
X176108539Y-105206825D01*
X176092686Y-105216184D01*
X176086625Y-105220197D01*
X176079090Y-105225869D01*
X176063759Y-105237213D01*
X176043094Y-105252413D01*
X176026300Y-105264719D01*
X176008291Y-105279207D01*
X175982174Y-105302145D01*
X175948670Y-105332854D01*
X175908499Y-105370655D01*
X175862381Y-105414868D01*
X175811037Y-105464814D01*
X175755188Y-105519812D01*
X175741108Y-105533774D01*
X175509890Y-105763335D01*
X175657686Y-105910242D01*
X175693176Y-105945475D01*
X175725658Y-105977636D01*
X175754074Y-106005684D01*
X175777364Y-106028578D01*
X175794468Y-106045275D01*
X175804329Y-106054733D01*
X175806354Y-106056504D01*
X175810849Y-106051999D01*
X175823382Y-106039347D01*
X175843069Y-106019442D01*
X175869029Y-105993177D01*
X175900378Y-105961447D01*
X175936233Y-105925143D01*
X175975712Y-105885160D01*
X176013600Y-105846779D01*
X176070829Y-105789014D01*
X176120309Y-105739616D01*
X176163020Y-105697727D01*
X176199939Y-105662489D01*
X176232047Y-105633045D01*
X176260323Y-105608536D01*
X176285746Y-105588104D01*
X176309294Y-105570891D01*
X176331948Y-105556038D01*
X176354687Y-105542689D01*
X176370181Y-105534303D01*
X176437419Y-105502593D01*
X176503025Y-105479830D01*
X176571332Y-105464805D01*
X176646675Y-105456306D01*
X176650188Y-105456065D01*
X176705750Y-105452346D01*
X176705750Y-105041150D01*
X176656538Y-105041186D01*
G37*
X176656538Y-105041186D02*
X176625924Y-105042123D01*
X176594033Y-105044534D01*
X176569225Y-105047682D01*
X176543420Y-105051794D01*
X176518276Y-105055382D01*
X176505725Y-105056933D01*
X176488532Y-105059838D01*
X176462561Y-105065428D01*
X176431233Y-105072864D01*
X176397973Y-105081306D01*
X176366201Y-105089913D01*
X176340625Y-105097445D01*
X176312909Y-105107237D01*
X176277606Y-105121443D01*
X176238369Y-105138564D01*
X176219975Y-105147018D01*
X176203286Y-105155289D01*
X176180832Y-105167032D01*
X176155578Y-105180621D01*
X176130492Y-105194428D01*
X176108539Y-105206825D01*
X176092686Y-105216184D01*
X176086625Y-105220197D01*
X176079090Y-105225869D01*
X176063759Y-105237213D01*
X176043094Y-105252413D01*
X176026300Y-105264719D01*
X176008291Y-105279207D01*
X175982174Y-105302145D01*
X175948670Y-105332854D01*
X175908499Y-105370655D01*
X175862381Y-105414868D01*
X175811037Y-105464814D01*
X175755188Y-105519812D01*
X175741108Y-105533774D01*
X175509890Y-105763335D01*
X175657686Y-105910242D01*
X175693176Y-105945475D01*
X175725658Y-105977636D01*
X175754074Y-106005684D01*
X175777364Y-106028578D01*
X175794468Y-106045275D01*
X175804329Y-106054733D01*
X175806354Y-106056504D01*
X175810849Y-106051999D01*
X175823382Y-106039347D01*
X175843069Y-106019442D01*
X175869029Y-105993177D01*
X175900378Y-105961447D01*
X175936233Y-105925143D01*
X175975712Y-105885160D01*
X176013600Y-105846779D01*
X176070829Y-105789014D01*
X176120309Y-105739616D01*
X176163020Y-105697727D01*
X176199939Y-105662489D01*
X176232047Y-105633045D01*
X176260323Y-105608536D01*
X176285746Y-105588104D01*
X176309294Y-105570891D01*
X176331948Y-105556038D01*
X176354687Y-105542689D01*
X176370181Y-105534303D01*
X176437419Y-105502593D01*
X176503025Y-105479830D01*
X176571332Y-105464805D01*
X176646675Y-105456306D01*
X176650188Y-105456065D01*
X176705750Y-105452346D01*
X176705750Y-105041150D01*
X176656538Y-105041186D01*
G36*
X179418788Y-105041186D02*
G01*
X179388174Y-105042123D01*
X179356283Y-105044534D01*
X179331475Y-105047682D01*
X179305670Y-105051794D01*
X179280526Y-105055382D01*
X179267975Y-105056933D01*
X179250782Y-105059838D01*
X179224811Y-105065428D01*
X179193483Y-105072864D01*
X179160223Y-105081306D01*
X179128451Y-105089913D01*
X179102875Y-105097445D01*
X179075159Y-105107237D01*
X179039856Y-105121443D01*
X179000619Y-105138564D01*
X178982225Y-105147018D01*
X178965536Y-105155289D01*
X178943082Y-105167032D01*
X178917828Y-105180621D01*
X178892742Y-105194428D01*
X178870789Y-105206825D01*
X178854936Y-105216184D01*
X178848875Y-105220197D01*
X178841340Y-105225869D01*
X178826009Y-105237213D01*
X178805344Y-105252413D01*
X178788550Y-105264719D01*
X178770541Y-105279207D01*
X178744424Y-105302145D01*
X178710920Y-105332854D01*
X178670749Y-105370655D01*
X178624631Y-105414868D01*
X178573287Y-105464814D01*
X178517438Y-105519812D01*
X178503358Y-105533774D01*
X178272140Y-105763335D01*
X178419936Y-105910242D01*
X178455426Y-105945475D01*
X178487908Y-105977636D01*
X178516324Y-106005684D01*
X178539614Y-106028578D01*
X178556718Y-106045275D01*
X178566579Y-106054733D01*
X178568604Y-106056504D01*
X178573099Y-106051999D01*
X178585632Y-106039347D01*
X178605319Y-106019442D01*
X178631279Y-105993177D01*
X178662628Y-105961447D01*
X178698483Y-105925143D01*
X178737962Y-105885160D01*
X178775850Y-105846779D01*
X178833079Y-105789014D01*
X178882559Y-105739616D01*
X178925270Y-105697727D01*
X178962189Y-105662489D01*
X178994297Y-105633045D01*
X179022573Y-105608536D01*
X179047996Y-105588104D01*
X179071544Y-105570891D01*
X179094198Y-105556038D01*
X179116937Y-105542689D01*
X179132431Y-105534303D01*
X179199669Y-105502593D01*
X179265275Y-105479830D01*
X179333582Y-105464805D01*
X179408925Y-105456306D01*
X179412438Y-105456065D01*
X179468000Y-105452346D01*
X179468000Y-105041150D01*
X179418788Y-105041186D01*
G37*
X179418788Y-105041186D02*
X179388174Y-105042123D01*
X179356283Y-105044534D01*
X179331475Y-105047682D01*
X179305670Y-105051794D01*
X179280526Y-105055382D01*
X179267975Y-105056933D01*
X179250782Y-105059838D01*
X179224811Y-105065428D01*
X179193483Y-105072864D01*
X179160223Y-105081306D01*
X179128451Y-105089913D01*
X179102875Y-105097445D01*
X179075159Y-105107237D01*
X179039856Y-105121443D01*
X179000619Y-105138564D01*
X178982225Y-105147018D01*
X178965536Y-105155289D01*
X178943082Y-105167032D01*
X178917828Y-105180621D01*
X178892742Y-105194428D01*
X178870789Y-105206825D01*
X178854936Y-105216184D01*
X178848875Y-105220197D01*
X178841340Y-105225869D01*
X178826009Y-105237213D01*
X178805344Y-105252413D01*
X178788550Y-105264719D01*
X178770541Y-105279207D01*
X178744424Y-105302145D01*
X178710920Y-105332854D01*
X178670749Y-105370655D01*
X178624631Y-105414868D01*
X178573287Y-105464814D01*
X178517438Y-105519812D01*
X178503358Y-105533774D01*
X178272140Y-105763335D01*
X178419936Y-105910242D01*
X178455426Y-105945475D01*
X178487908Y-105977636D01*
X178516324Y-106005684D01*
X178539614Y-106028578D01*
X178556718Y-106045275D01*
X178566579Y-106054733D01*
X178568604Y-106056504D01*
X178573099Y-106051999D01*
X178585632Y-106039347D01*
X178605319Y-106019442D01*
X178631279Y-105993177D01*
X178662628Y-105961447D01*
X178698483Y-105925143D01*
X178737962Y-105885160D01*
X178775850Y-105846779D01*
X178833079Y-105789014D01*
X178882559Y-105739616D01*
X178925270Y-105697727D01*
X178962189Y-105662489D01*
X178994297Y-105633045D01*
X179022573Y-105608536D01*
X179047996Y-105588104D01*
X179071544Y-105570891D01*
X179094198Y-105556038D01*
X179116937Y-105542689D01*
X179132431Y-105534303D01*
X179199669Y-105502593D01*
X179265275Y-105479830D01*
X179333582Y-105464805D01*
X179408925Y-105456306D01*
X179412438Y-105456065D01*
X179468000Y-105452346D01*
X179468000Y-105041150D01*
X179418788Y-105041186D01*
G36*
X188769171Y-106620712D02*
G01*
X188767535Y-106636429D01*
X188767214Y-106645426D01*
X188767374Y-106646067D01*
X188773707Y-106648066D01*
X188788600Y-106651476D01*
X188799810Y-106653771D01*
X188823630Y-106658613D01*
X188852396Y-106664665D01*
X188872350Y-106668975D01*
X188931196Y-106681881D01*
X188979144Y-106692428D01*
X189017708Y-106700954D01*
X189048399Y-106707795D01*
X189072732Y-106713288D01*
X189092218Y-106717771D01*
X189105431Y-106720878D01*
X189132512Y-106726944D01*
X189149829Y-106729503D01*
X189159842Y-106728484D01*
X189165013Y-106723818D01*
X189166844Y-106719137D01*
X189171159Y-106700885D01*
X189175772Y-106676143D01*
X189179886Y-106649892D01*
X189182708Y-106627109D01*
X189183500Y-106614783D01*
X189183500Y-106596900D01*
X188772140Y-106596900D01*
X188769171Y-106620712D01*
G37*
X188769171Y-106620712D02*
X188767535Y-106636429D01*
X188767214Y-106645426D01*
X188767374Y-106646067D01*
X188773707Y-106648066D01*
X188788600Y-106651476D01*
X188799810Y-106653771D01*
X188823630Y-106658613D01*
X188852396Y-106664665D01*
X188872350Y-106668975D01*
X188931196Y-106681881D01*
X188979144Y-106692428D01*
X189017708Y-106700954D01*
X189048399Y-106707795D01*
X189072732Y-106713288D01*
X189092218Y-106717771D01*
X189105431Y-106720878D01*
X189132512Y-106726944D01*
X189149829Y-106729503D01*
X189159842Y-106728484D01*
X189165013Y-106723818D01*
X189166844Y-106719137D01*
X189171159Y-106700885D01*
X189175772Y-106676143D01*
X189179886Y-106649892D01*
X189182708Y-106627109D01*
X189183500Y-106614783D01*
X189183500Y-106596900D01*
X188772140Y-106596900D01*
X188769171Y-106620712D01*
G36*
X188759082Y-106696546D02*
G01*
X188751560Y-106701695D01*
X188745406Y-106711335D01*
X188738459Y-106725640D01*
X188738253Y-106726067D01*
X188721683Y-106760307D01*
X188877979Y-106868021D01*
X188917615Y-106895312D01*
X188954030Y-106920336D01*
X188985865Y-106942163D01*
X189011761Y-106959865D01*
X189030360Y-106972511D01*
X189040303Y-106979171D01*
X189041438Y-106979888D01*
X189048340Y-106976970D01*
X189059886Y-106964580D01*
X189074576Y-106944362D01*
X189076613Y-106941283D01*
X189109547Y-106886306D01*
X189134102Y-106835090D01*
X189138120Y-106824898D01*
X189140570Y-106817159D01*
X189139603Y-106811522D01*
X189133190Y-106806669D01*
X189119301Y-106801279D01*
X189095907Y-106794037D01*
X189086131Y-106791127D01*
X189058828Y-106782940D01*
X189034558Y-106775528D01*
X189017010Y-106770023D01*
X189012050Y-106768389D01*
X188998296Y-106763969D01*
X188976716Y-106757353D01*
X188951684Y-106749879D01*
X188948550Y-106748956D01*
X188918694Y-106740004D01*
X188883673Y-106729235D01*
X188850391Y-106718775D01*
X188846066Y-106717393D01*
X188811463Y-106706313D01*
X188786873Y-106699029D01*
X188770132Y-106695716D01*
X188759082Y-106696546D01*
G37*
X188759082Y-106696546D02*
X188751560Y-106701695D01*
X188745406Y-106711335D01*
X188738459Y-106725640D01*
X188738253Y-106726067D01*
X188721683Y-106760307D01*
X188877979Y-106868021D01*
X188917615Y-106895312D01*
X188954030Y-106920336D01*
X188985865Y-106942163D01*
X189011761Y-106959865D01*
X189030360Y-106972511D01*
X189040303Y-106979171D01*
X189041438Y-106979888D01*
X189048340Y-106976970D01*
X189059886Y-106964580D01*
X189074576Y-106944362D01*
X189076613Y-106941283D01*
X189109547Y-106886306D01*
X189134102Y-106835090D01*
X189138120Y-106824898D01*
X189140570Y-106817159D01*
X189139603Y-106811522D01*
X189133190Y-106806669D01*
X189119301Y-106801279D01*
X189095907Y-106794037D01*
X189086131Y-106791127D01*
X189058828Y-106782940D01*
X189034558Y-106775528D01*
X189017010Y-106770023D01*
X189012050Y-106768389D01*
X188998296Y-106763969D01*
X188976716Y-106757353D01*
X188951684Y-106749879D01*
X188948550Y-106748956D01*
X188918694Y-106740004D01*
X188883673Y-106729235D01*
X188850391Y-106718775D01*
X188846066Y-106717393D01*
X188811463Y-106706313D01*
X188786873Y-106699029D01*
X188770132Y-106695716D01*
X188759082Y-106696546D01*
G36*
X188668928Y-106812231D02*
G01*
X188648532Y-106825223D01*
X188627852Y-106835715D01*
X188620840Y-106838426D01*
X188606543Y-106844194D01*
X188601293Y-106851732D01*
X188602114Y-106866004D01*
X188602559Y-106868915D01*
X188606261Y-106891243D01*
X188611732Y-106922465D01*
X188618325Y-106959004D01*
X188625391Y-106997288D01*
X188632284Y-107033740D01*
X188634374Y-107044575D01*
X188639401Y-107071154D01*
X188645549Y-107104654D01*
X188651796Y-107139476D01*
X188654372Y-107154112D01*
X188660266Y-107185091D01*
X188665375Y-107205104D01*
X188670238Y-107215816D01*
X188675384Y-107218890D01*
X188685575Y-107216755D01*
X188704233Y-107211345D01*
X188727877Y-107203694D01*
X188735825Y-107200975D01*
X188818891Y-107166333D01*
X188896097Y-107122390D01*
X188961250Y-107073699D01*
X188983475Y-107054728D01*
X188967600Y-107039617D01*
X188950730Y-107023748D01*
X188927829Y-107002478D01*
X188900483Y-106977251D01*
X188870271Y-106949509D01*
X188838777Y-106920697D01*
X188807584Y-106892257D01*
X188778273Y-106865633D01*
X188752426Y-106842268D01*
X188731627Y-106823606D01*
X188717456Y-106811090D01*
X188712292Y-106806729D01*
X188695108Y-106793266D01*
X188668928Y-106812231D01*
G37*
X188668928Y-106812231D02*
X188648532Y-106825223D01*
X188627852Y-106835715D01*
X188620840Y-106838426D01*
X188606543Y-106844194D01*
X188601293Y-106851732D01*
X188602114Y-106866004D01*
X188602559Y-106868915D01*
X188606261Y-106891243D01*
X188611732Y-106922465D01*
X188618325Y-106959004D01*
X188625391Y-106997288D01*
X188632284Y-107033740D01*
X188634374Y-107044575D01*
X188639401Y-107071154D01*
X188645549Y-107104654D01*
X188651796Y-107139476D01*
X188654372Y-107154112D01*
X188660266Y-107185091D01*
X188665375Y-107205104D01*
X188670238Y-107215816D01*
X188675384Y-107218890D01*
X188685575Y-107216755D01*
X188704233Y-107211345D01*
X188727877Y-107203694D01*
X188735825Y-107200975D01*
X188818891Y-107166333D01*
X188896097Y-107122390D01*
X188961250Y-107073699D01*
X188983475Y-107054728D01*
X188967600Y-107039617D01*
X188950730Y-107023748D01*
X188927829Y-107002478D01*
X188900483Y-106977251D01*
X188870271Y-106949509D01*
X188838777Y-106920697D01*
X188807584Y-106892257D01*
X188778273Y-106865633D01*
X188752426Y-106842268D01*
X188731627Y-106823606D01*
X188717456Y-106811090D01*
X188712292Y-106806729D01*
X188695108Y-106793266D01*
X188668928Y-106812231D01*
G36*
X179702950Y-107244600D02*
G01*
X179988750Y-107244600D01*
X179987138Y-106449262D01*
X179985525Y-105653925D01*
X179844238Y-105652216D01*
X179702950Y-105650507D01*
X179702950Y-107244600D01*
G37*
X179702950Y-107244600D02*
X179988750Y-107244600D01*
X179987138Y-106449262D01*
X179985525Y-105653925D01*
X179844238Y-105652216D01*
X179702950Y-105650507D01*
X179702950Y-107244600D01*
G36*
X180217300Y-107244600D02*
G01*
X180503050Y-107244600D01*
X180503050Y-106050800D01*
X180217300Y-106050800D01*
X180217300Y-107244600D01*
G37*
X180217300Y-107244600D02*
X180503050Y-107244600D01*
X180503050Y-106050800D01*
X180217300Y-106050800D01*
X180217300Y-107244600D01*
G36*
X184627375Y-106605028D02*
G01*
X184566072Y-106513651D01*
X184546190Y-106484104D01*
X184520753Y-106446434D01*
X184491364Y-106403009D01*
X184459627Y-106356196D01*
X184427145Y-106308363D01*
X184395522Y-106261875D01*
X184392321Y-106257175D01*
X184364028Y-106215568D01*
X184337533Y-106176478D01*
X184313823Y-106141373D01*
X184293887Y-106111722D01*
X184278714Y-106088992D01*
X184269292Y-106074651D01*
X184267260Y-106071437D01*
X184254646Y-106050800D01*
X184083294Y-106050800D01*
X184028146Y-106051024D01*
X183983177Y-106051685D01*
X183948953Y-106052761D01*
X183926039Y-106054232D01*
X183915001Y-106056075D01*
X183914059Y-106057021D01*
X183918258Y-106063683D01*
X183928933Y-106079098D01*
X183945034Y-106101791D01*
X183965507Y-106130289D01*
X183989302Y-106163116D01*
X184008032Y-106188784D01*
X184066631Y-106268890D01*
X184119835Y-106341656D01*
X184167377Y-106406717D01*
X184208990Y-106463708D01*
X184244407Y-106512262D01*
X184273360Y-106552013D01*
X184295584Y-106582595D01*
X184310812Y-106603643D01*
X184318460Y-106614340D01*
X184332933Y-106634955D01*
X184242029Y-106746933D01*
X184208420Y-106788319D01*
X184170604Y-106834862D01*
X184131692Y-106882732D01*
X184094797Y-106928101D01*
X184065226Y-106964443D01*
X184016900Y-107023828D01*
X183976002Y-107074119D01*
X183941932Y-107116065D01*
X183914090Y-107150414D01*
X183891876Y-107177912D01*
X183874690Y-107199308D01*
X183861931Y-107215350D01*
X183853000Y-107226784D01*
X183847296Y-107234358D01*
X183844220Y-107238821D01*
X183843170Y-107240919D01*
X183843150Y-107241096D01*
X183849243Y-107241966D01*
X183866489Y-107242750D01*
X183893344Y-107243419D01*
X183928262Y-107243947D01*
X183969697Y-107244307D01*
X184016103Y-107244472D01*
X184035238Y-107244477D01*
X184227325Y-107244354D01*
X184304151Y-107138114D01*
X184331930Y-107099754D01*
X184363827Y-107055800D01*
X184398500Y-107008093D01*
X184434606Y-106958476D01*
X184470802Y-106908791D01*
X184505747Y-106860880D01*
X184538098Y-106816584D01*
X184566512Y-106777746D01*
X184589647Y-106746209D01*
X184600744Y-106731138D01*
X184630550Y-106690752D01*
X184630550Y-107244600D01*
X184916300Y-107244600D01*
X184916300Y-105650750D01*
X184630631Y-105650750D01*
X184627375Y-106605028D01*
G37*
X184627375Y-106605028D02*
X184566072Y-106513651D01*
X184546190Y-106484104D01*
X184520753Y-106446434D01*
X184491364Y-106403009D01*
X184459627Y-106356196D01*
X184427145Y-106308363D01*
X184395522Y-106261875D01*
X184392321Y-106257175D01*
X184364028Y-106215568D01*
X184337533Y-106176478D01*
X184313823Y-106141373D01*
X184293887Y-106111722D01*
X184278714Y-106088992D01*
X184269292Y-106074651D01*
X184267260Y-106071437D01*
X184254646Y-106050800D01*
X184083294Y-106050800D01*
X184028146Y-106051024D01*
X183983177Y-106051685D01*
X183948953Y-106052761D01*
X183926039Y-106054232D01*
X183915001Y-106056075D01*
X183914059Y-106057021D01*
X183918258Y-106063683D01*
X183928933Y-106079098D01*
X183945034Y-106101791D01*
X183965507Y-106130289D01*
X183989302Y-106163116D01*
X184008032Y-106188784D01*
X184066631Y-106268890D01*
X184119835Y-106341656D01*
X184167377Y-106406717D01*
X184208990Y-106463708D01*
X184244407Y-106512262D01*
X184273360Y-106552013D01*
X184295584Y-106582595D01*
X184310812Y-106603643D01*
X184318460Y-106614340D01*
X184332933Y-106634955D01*
X184242029Y-106746933D01*
X184208420Y-106788319D01*
X184170604Y-106834862D01*
X184131692Y-106882732D01*
X184094797Y-106928101D01*
X184065226Y-106964443D01*
X184016900Y-107023828D01*
X183976002Y-107074119D01*
X183941932Y-107116065D01*
X183914090Y-107150414D01*
X183891876Y-107177912D01*
X183874690Y-107199308D01*
X183861931Y-107215350D01*
X183853000Y-107226784D01*
X183847296Y-107234358D01*
X183844220Y-107238821D01*
X183843170Y-107240919D01*
X183843150Y-107241096D01*
X183849243Y-107241966D01*
X183866489Y-107242750D01*
X183893344Y-107243419D01*
X183928262Y-107243947D01*
X183969697Y-107244307D01*
X184016103Y-107244472D01*
X184035238Y-107244477D01*
X184227325Y-107244354D01*
X184304151Y-107138114D01*
X184331930Y-107099754D01*
X184363827Y-107055800D01*
X184398500Y-107008093D01*
X184434606Y-106958476D01*
X184470802Y-106908791D01*
X184505747Y-106860880D01*
X184538098Y-106816584D01*
X184566512Y-106777746D01*
X184589647Y-106746209D01*
X184600744Y-106731138D01*
X184630550Y-106690752D01*
X184630550Y-107244600D01*
X184916300Y-107244600D01*
X184916300Y-105650750D01*
X184630631Y-105650750D01*
X184627375Y-106605028D01*
G36*
X186974595Y-106029444D02*
G01*
X186944176Y-106030008D01*
X186920983Y-106031332D01*
X186902278Y-106033713D01*
X186885325Y-106037448D01*
X186867387Y-106042833D01*
X186856225Y-106046567D01*
X186813576Y-106062320D01*
X186779330Y-106078213D01*
X186749358Y-106096454D01*
X186719534Y-106119255D01*
X186717859Y-106120650D01*
X186678191Y-106157554D01*
X186646104Y-106196542D01*
X186620095Y-106240179D01*
X186598662Y-106291032D01*
X186580303Y-106351668D01*
X186578475Y-106358775D01*
X186575896Y-106369505D01*
X186573672Y-106380543D01*
X186571769Y-106392910D01*
X186570152Y-106407626D01*
X186568787Y-106425711D01*
X186567639Y-106448185D01*
X186566675Y-106476069D01*
X186565859Y-106510382D01*
X186565159Y-106552144D01*
X186564538Y-106602377D01*
X186563964Y-106662099D01*
X186563402Y-106732332D01*
X186562817Y-106814095D01*
X186562727Y-106827087D01*
X186559859Y-107244600D01*
X186846700Y-107244600D01*
X186846756Y-106950912D01*
X186846971Y-106853818D01*
X186847652Y-106768514D01*
X186848913Y-106694092D01*
X186850871Y-106629646D01*
X186853640Y-106574270D01*
X186857334Y-106527058D01*
X186862069Y-106487103D01*
X186867959Y-106453499D01*
X186875119Y-106425340D01*
X186883664Y-106401720D01*
X186893708Y-106381731D01*
X186905367Y-106364469D01*
X186918755Y-106349026D01*
X186923631Y-106344117D01*
X186959464Y-106317577D01*
X187002016Y-106299905D01*
X187048971Y-106291048D01*
X187098010Y-106290951D01*
X187146815Y-106299562D01*
X187193068Y-106316826D01*
X187234453Y-106342689D01*
X187244978Y-106351579D01*
X187275508Y-106387333D01*
X187299438Y-106432967D01*
X187316113Y-106487141D01*
X187319546Y-106504527D01*
X187321782Y-106519447D01*
X187323664Y-106537184D01*
X187325221Y-106558853D01*
X187326480Y-106585569D01*
X187327468Y-106618447D01*
X187328212Y-106658602D01*
X187328740Y-106707149D01*
X187329079Y-106765204D01*
X187329256Y-106833881D01*
X187329300Y-106902531D01*
X187329300Y-107244600D01*
X187471117Y-107244600D01*
X187512333Y-107244418D01*
X187549218Y-107243909D01*
X187579901Y-107243126D01*
X187602511Y-107242125D01*
X187615178Y-107240959D01*
X187617167Y-107240366D01*
X187617779Y-107233542D01*
X187618364Y-107214905D01*
X187618916Y-107185345D01*
X187619429Y-107145751D01*
X187619897Y-107097009D01*
X187620313Y-107040008D01*
X187620671Y-106975638D01*
X187620965Y-106904785D01*
X187621189Y-106828339D01*
X187621335Y-106747187D01*
X187621398Y-106662218D01*
X187621400Y-106643340D01*
X187621400Y-106050547D01*
X187486463Y-106052261D01*
X187351525Y-106053975D01*
X187349687Y-106106022D01*
X187347848Y-106158070D01*
X187306628Y-106125217D01*
X187252041Y-106086201D01*
X187198057Y-106057190D01*
X187161025Y-106042543D01*
X187144801Y-106037533D01*
X187128113Y-106033953D01*
X187108420Y-106031573D01*
X187083183Y-106030165D01*
X187049860Y-106029498D01*
X187014975Y-106029343D01*
X186974595Y-106029444D01*
G37*
X186974595Y-106029444D02*
X186944176Y-106030008D01*
X186920983Y-106031332D01*
X186902278Y-106033713D01*
X186885325Y-106037448D01*
X186867387Y-106042833D01*
X186856225Y-106046567D01*
X186813576Y-106062320D01*
X186779330Y-106078213D01*
X186749358Y-106096454D01*
X186719534Y-106119255D01*
X186717859Y-106120650D01*
X186678191Y-106157554D01*
X186646104Y-106196542D01*
X186620095Y-106240179D01*
X186598662Y-106291032D01*
X186580303Y-106351668D01*
X186578475Y-106358775D01*
X186575896Y-106369505D01*
X186573672Y-106380543D01*
X186571769Y-106392910D01*
X186570152Y-106407626D01*
X186568787Y-106425711D01*
X186567639Y-106448185D01*
X186566675Y-106476069D01*
X186565859Y-106510382D01*
X186565159Y-106552144D01*
X186564538Y-106602377D01*
X186563964Y-106662099D01*
X186563402Y-106732332D01*
X186562817Y-106814095D01*
X186562727Y-106827087D01*
X186559859Y-107244600D01*
X186846700Y-107244600D01*
X186846756Y-106950912D01*
X186846971Y-106853818D01*
X186847652Y-106768514D01*
X186848913Y-106694092D01*
X186850871Y-106629646D01*
X186853640Y-106574270D01*
X186857334Y-106527058D01*
X186862069Y-106487103D01*
X186867959Y-106453499D01*
X186875119Y-106425340D01*
X186883664Y-106401720D01*
X186893708Y-106381731D01*
X186905367Y-106364469D01*
X186918755Y-106349026D01*
X186923631Y-106344117D01*
X186959464Y-106317577D01*
X187002016Y-106299905D01*
X187048971Y-106291048D01*
X187098010Y-106290951D01*
X187146815Y-106299562D01*
X187193068Y-106316826D01*
X187234453Y-106342689D01*
X187244978Y-106351579D01*
X187275508Y-106387333D01*
X187299438Y-106432967D01*
X187316113Y-106487141D01*
X187319546Y-106504527D01*
X187321782Y-106519447D01*
X187323664Y-106537184D01*
X187325221Y-106558853D01*
X187326480Y-106585569D01*
X187327468Y-106618447D01*
X187328212Y-106658602D01*
X187328740Y-106707149D01*
X187329079Y-106765204D01*
X187329256Y-106833881D01*
X187329300Y-106902531D01*
X187329300Y-107244600D01*
X187471117Y-107244600D01*
X187512333Y-107244418D01*
X187549218Y-107243909D01*
X187579901Y-107243126D01*
X187602511Y-107242125D01*
X187615178Y-107240959D01*
X187617167Y-107240366D01*
X187617779Y-107233542D01*
X187618364Y-107214905D01*
X187618916Y-107185345D01*
X187619429Y-107145751D01*
X187619897Y-107097009D01*
X187620313Y-107040008D01*
X187620671Y-106975638D01*
X187620965Y-106904785D01*
X187621189Y-106828339D01*
X187621335Y-106747187D01*
X187621398Y-106662218D01*
X187621400Y-106643340D01*
X187621400Y-106050547D01*
X187486463Y-106052261D01*
X187351525Y-106053975D01*
X187349687Y-106106022D01*
X187347848Y-106158070D01*
X187306628Y-106125217D01*
X187252041Y-106086201D01*
X187198057Y-106057190D01*
X187161025Y-106042543D01*
X187144801Y-106037533D01*
X187128113Y-106033953D01*
X187108420Y-106031573D01*
X187083183Y-106030165D01*
X187049860Y-106029498D01*
X187014975Y-106029343D01*
X186974595Y-106029444D01*
G36*
X188440804Y-105057287D02*
G01*
X188397205Y-105059596D01*
X188359961Y-105063423D01*
X188332600Y-105068663D01*
X188243674Y-105098374D01*
X188164192Y-105136281D01*
X188093572Y-105182781D01*
X188031232Y-105238275D01*
X187976591Y-105303162D01*
X187963309Y-105322010D01*
X187931236Y-105376367D01*
X187905557Y-105436202D01*
X187885665Y-105503376D01*
X187870949Y-105579747D01*
X187865492Y-105620676D01*
X187861215Y-105657277D01*
X188066190Y-105655601D01*
X188271166Y-105653925D01*
X188279172Y-105614664D01*
X188292267Y-105566651D01*
X188310705Y-105527698D01*
X188335989Y-105494761D01*
X188340622Y-105489994D01*
X188376389Y-105462701D01*
X188418537Y-105444301D01*
X188464641Y-105434711D01*
X188512274Y-105433847D01*
X188559011Y-105441627D01*
X188602425Y-105457966D01*
X188640092Y-105482781D01*
X188658264Y-105500925D01*
X188667734Y-105514074D01*
X188679653Y-105533284D01*
X188686834Y-105545975D01*
X188694923Y-105562162D01*
X188700010Y-105577053D01*
X188702775Y-105594398D01*
X188703896Y-105617946D01*
X188704066Y-105641225D01*
X188703695Y-105671882D01*
X188702140Y-105693631D01*
X188698732Y-105710251D01*
X188692806Y-105725521D01*
X188687242Y-105736600D01*
X188666299Y-105767624D01*
X188637562Y-105798683D01*
X188605240Y-105825669D01*
X188579708Y-105841526D01*
X188562042Y-105849743D01*
X188536354Y-105860699D01*
X188506546Y-105872764D01*
X188485143Y-105881062D01*
X188454717Y-105892633D01*
X188425525Y-105903757D01*
X188401496Y-105912936D01*
X188389750Y-105917441D01*
X188371970Y-105924280D01*
X188346139Y-105934211D01*
X188316061Y-105945773D01*
X188292225Y-105954933D01*
X188211885Y-105988190D01*
X188142575Y-106022209D01*
X188082628Y-106057970D01*
X188030377Y-106096454D01*
X187990277Y-106132521D01*
X187933017Y-106197271D01*
X187887003Y-106267741D01*
X187852098Y-106344212D01*
X187828169Y-106426965D01*
X187817099Y-106495500D01*
X187813414Y-106583669D01*
X187821485Y-106671801D01*
X187840774Y-106758237D01*
X187870737Y-106841319D01*
X187910835Y-106919388D01*
X187960526Y-106990788D01*
X187989700Y-107024433D01*
X188047695Y-107080787D01*
X188108049Y-107127628D01*
X188172511Y-107165799D01*
X188242827Y-107196142D01*
X188320744Y-107219500D01*
X188408007Y-107236717D01*
X188438829Y-107241151D01*
X188455934Y-107242663D01*
X188464422Y-107240265D01*
X188468125Y-107232569D01*
X188468609Y-107230366D01*
X188469513Y-107220415D01*
X188470593Y-107199560D01*
X188471782Y-107169592D01*
X188473018Y-107132305D01*
X188474235Y-107089490D01*
X188475370Y-107042942D01*
X188475441Y-107039746D01*
X188476525Y-106986082D01*
X188477106Y-106943872D01*
X188477155Y-106911876D01*
X188476641Y-106888858D01*
X188475534Y-106873578D01*
X188473803Y-106864799D01*
X188471419Y-106861283D01*
X188471061Y-106861149D01*
X188460804Y-106859039D01*
X188442171Y-106855812D01*
X188421088Y-106852460D01*
X188367323Y-106838019D01*
X188318166Y-106812548D01*
X188275436Y-106777408D01*
X188240952Y-106733961D01*
X188225894Y-106706454D01*
X188217996Y-106688270D01*
X188213006Y-106671965D01*
X188210311Y-106653720D01*
X188209296Y-106629717D01*
X188209285Y-106603250D01*
X188211715Y-106555326D01*
X188218962Y-106515800D01*
X188232188Y-106480902D01*
X188252557Y-106446868D01*
X188261202Y-106434975D01*
X188275982Y-106417168D01*
X188293082Y-106400477D01*
X188313631Y-106384310D01*
X188338759Y-106368073D01*
X188369596Y-106351175D01*
X188407273Y-106333021D01*
X188452918Y-106313019D01*
X188507662Y-106290577D01*
X188572635Y-106265102D01*
X188618350Y-106247599D01*
X188689152Y-106219420D01*
X188749524Y-106192396D01*
X188801509Y-106165309D01*
X188847155Y-106136939D01*
X188888507Y-106106068D01*
X188927609Y-106071475D01*
X188948550Y-106050777D01*
X189002673Y-105986644D01*
X189045784Y-105916372D01*
X189077656Y-105840530D01*
X189098063Y-105759689D01*
X189106775Y-105674416D01*
X189107102Y-105653925D01*
X189101039Y-105567594D01*
X189083266Y-105485078D01*
X189054409Y-105407168D01*
X189015091Y-105334650D01*
X188965937Y-105268316D01*
X188907573Y-105208953D01*
X188840622Y-105157351D01*
X188765710Y-105114300D01*
X188683460Y-105080588D01*
X188643750Y-105068547D01*
X188615680Y-105063250D01*
X188578197Y-105059477D01*
X188534454Y-105057226D01*
X188487605Y-105056497D01*
X188440804Y-105057287D01*
G37*
X188440804Y-105057287D02*
X188397205Y-105059596D01*
X188359961Y-105063423D01*
X188332600Y-105068663D01*
X188243674Y-105098374D01*
X188164192Y-105136281D01*
X188093572Y-105182781D01*
X188031232Y-105238275D01*
X187976591Y-105303162D01*
X187963309Y-105322010D01*
X187931236Y-105376367D01*
X187905557Y-105436202D01*
X187885665Y-105503376D01*
X187870949Y-105579747D01*
X187865492Y-105620676D01*
X187861215Y-105657277D01*
X188066190Y-105655601D01*
X188271166Y-105653925D01*
X188279172Y-105614664D01*
X188292267Y-105566651D01*
X188310705Y-105527698D01*
X188335989Y-105494761D01*
X188340622Y-105489994D01*
X188376389Y-105462701D01*
X188418537Y-105444301D01*
X188464641Y-105434711D01*
X188512274Y-105433847D01*
X188559011Y-105441627D01*
X188602425Y-105457966D01*
X188640092Y-105482781D01*
X188658264Y-105500925D01*
X188667734Y-105514074D01*
X188679653Y-105533284D01*
X188686834Y-105545975D01*
X188694923Y-105562162D01*
X188700010Y-105577053D01*
X188702775Y-105594398D01*
X188703896Y-105617946D01*
X188704066Y-105641225D01*
X188703695Y-105671882D01*
X188702140Y-105693631D01*
X188698732Y-105710251D01*
X188692806Y-105725521D01*
X188687242Y-105736600D01*
X188666299Y-105767624D01*
X188637562Y-105798683D01*
X188605240Y-105825669D01*
X188579708Y-105841526D01*
X188562042Y-105849743D01*
X188536354Y-105860699D01*
X188506546Y-105872764D01*
X188485143Y-105881062D01*
X188454717Y-105892633D01*
X188425525Y-105903757D01*
X188401496Y-105912936D01*
X188389750Y-105917441D01*
X188371970Y-105924280D01*
X188346139Y-105934211D01*
X188316061Y-105945773D01*
X188292225Y-105954933D01*
X188211885Y-105988190D01*
X188142575Y-106022209D01*
X188082628Y-106057970D01*
X188030377Y-106096454D01*
X187990277Y-106132521D01*
X187933017Y-106197271D01*
X187887003Y-106267741D01*
X187852098Y-106344212D01*
X187828169Y-106426965D01*
X187817099Y-106495500D01*
X187813414Y-106583669D01*
X187821485Y-106671801D01*
X187840774Y-106758237D01*
X187870737Y-106841319D01*
X187910835Y-106919388D01*
X187960526Y-106990788D01*
X187989700Y-107024433D01*
X188047695Y-107080787D01*
X188108049Y-107127628D01*
X188172511Y-107165799D01*
X188242827Y-107196142D01*
X188320744Y-107219500D01*
X188408007Y-107236717D01*
X188438829Y-107241151D01*
X188455934Y-107242663D01*
X188464422Y-107240265D01*
X188468125Y-107232569D01*
X188468609Y-107230366D01*
X188469513Y-107220415D01*
X188470593Y-107199560D01*
X188471782Y-107169592D01*
X188473018Y-107132305D01*
X188474235Y-107089490D01*
X188475370Y-107042942D01*
X188475441Y-107039746D01*
X188476525Y-106986082D01*
X188477106Y-106943872D01*
X188477155Y-106911876D01*
X188476641Y-106888858D01*
X188475534Y-106873578D01*
X188473803Y-106864799D01*
X188471419Y-106861283D01*
X188471061Y-106861149D01*
X188460804Y-106859039D01*
X188442171Y-106855812D01*
X188421088Y-106852460D01*
X188367323Y-106838019D01*
X188318166Y-106812548D01*
X188275436Y-106777408D01*
X188240952Y-106733961D01*
X188225894Y-106706454D01*
X188217996Y-106688270D01*
X188213006Y-106671965D01*
X188210311Y-106653720D01*
X188209296Y-106629717D01*
X188209285Y-106603250D01*
X188211715Y-106555326D01*
X188218962Y-106515800D01*
X188232188Y-106480902D01*
X188252557Y-106446868D01*
X188261202Y-106434975D01*
X188275982Y-106417168D01*
X188293082Y-106400477D01*
X188313631Y-106384310D01*
X188338759Y-106368073D01*
X188369596Y-106351175D01*
X188407273Y-106333021D01*
X188452918Y-106313019D01*
X188507662Y-106290577D01*
X188572635Y-106265102D01*
X188618350Y-106247599D01*
X188689152Y-106219420D01*
X188749524Y-106192396D01*
X188801509Y-106165309D01*
X188847155Y-106136939D01*
X188888507Y-106106068D01*
X188927609Y-106071475D01*
X188948550Y-106050777D01*
X189002673Y-105986644D01*
X189045784Y-105916372D01*
X189077656Y-105840530D01*
X189098063Y-105759689D01*
X189106775Y-105674416D01*
X189107102Y-105653925D01*
X189101039Y-105567594D01*
X189083266Y-105485078D01*
X189054409Y-105407168D01*
X189015091Y-105334650D01*
X188965937Y-105268316D01*
X188907573Y-105208953D01*
X188840622Y-105157351D01*
X188765710Y-105114300D01*
X188683460Y-105080588D01*
X188643750Y-105068547D01*
X188615680Y-105063250D01*
X188578197Y-105059477D01*
X188534454Y-105057226D01*
X188487605Y-105056497D01*
X188440804Y-105057287D01*
G36*
X174116538Y-105040609D02*
G01*
X174114259Y-105043473D01*
X174112428Y-105052416D01*
X174111007Y-105068480D01*
X174109954Y-105092704D01*
X174109231Y-105126129D01*
X174108798Y-105169797D01*
X174108613Y-105224747D01*
X174108600Y-105247525D01*
X174108600Y-105453900D01*
X174159283Y-105453899D01*
X174239709Y-105459514D01*
X174321413Y-105475710D01*
X174401631Y-105501519D01*
X174477600Y-105535971D01*
X174546557Y-105578095D01*
X174575325Y-105599915D01*
X174581950Y-105606117D01*
X174597058Y-105620781D01*
X174620140Y-105643404D01*
X174650686Y-105673479D01*
X174688188Y-105710501D01*
X174732135Y-105753967D01*
X174782019Y-105803371D01*
X174837329Y-105858208D01*
X174897556Y-105917973D01*
X174962191Y-105982161D01*
X175030724Y-106050268D01*
X175102646Y-106121788D01*
X175177447Y-106196217D01*
X175254618Y-106273049D01*
X175270650Y-106289016D01*
X175365259Y-106383243D01*
X175451312Y-106468928D01*
X175529244Y-106546497D01*
X175599494Y-106616376D01*
X175662497Y-106678990D01*
X175718691Y-106734766D01*
X175768512Y-106784129D01*
X175812396Y-106827504D01*
X175850782Y-106865318D01*
X175884105Y-106897996D01*
X175912803Y-106925964D01*
X175937311Y-106949647D01*
X175958067Y-106969472D01*
X175975508Y-106985863D01*
X175990070Y-106999246D01*
X176002190Y-107010048D01*
X176012305Y-107018694D01*
X176020852Y-107025609D01*
X176028267Y-107031220D01*
X176034987Y-107035952D01*
X176041297Y-107040132D01*
X176057197Y-107050732D01*
X176068192Y-107058618D01*
X176070750Y-107060806D01*
X176080807Y-107068792D01*
X176099891Y-107080981D01*
X176125587Y-107096065D01*
X176155482Y-107112732D01*
X176187163Y-107129675D01*
X176218215Y-107145582D01*
X176246223Y-107159144D01*
X176268775Y-107169051D01*
X176273950Y-107171054D01*
X176345372Y-107196174D01*
X176408981Y-107215545D01*
X176467905Y-107229869D01*
X176525269Y-107239848D01*
X176584202Y-107246184D01*
X176618438Y-107248371D01*
X176705750Y-107252797D01*
X176705750Y-106840070D01*
X176637617Y-106835665D01*
X176552180Y-106824905D01*
X176471470Y-106803577D01*
X176393082Y-106770925D01*
X176340625Y-106742314D01*
X176313179Y-106725103D01*
X176285534Y-106706348D01*
X176262676Y-106689465D01*
X176258075Y-106685757D01*
X176250012Y-106678322D01*
X176233482Y-106662419D01*
X176209003Y-106638558D01*
X176177088Y-106607251D01*
X176138255Y-106569008D01*
X176093019Y-106524339D01*
X176041895Y-106473756D01*
X175985400Y-106417769D01*
X175924048Y-106356890D01*
X175858356Y-106291628D01*
X175788839Y-106222495D01*
X175716012Y-106150001D01*
X175640393Y-106074657D01*
X175562495Y-105996974D01*
X175537350Y-105971884D01*
X175458870Y-105893630D01*
X175382501Y-105817615D01*
X175308759Y-105744346D01*
X175238159Y-105674328D01*
X175171216Y-105608069D01*
X175108445Y-105546074D01*
X175050362Y-105488851D01*
X174997480Y-105436905D01*
X174950316Y-105390742D01*
X174909384Y-105350871D01*
X174875199Y-105317796D01*
X174848276Y-105292024D01*
X174829130Y-105274062D01*
X174818277Y-105264417D01*
X174816625Y-105263160D01*
X174799176Y-105251213D01*
X174786376Y-105241846D01*
X174781700Y-105237811D01*
X174773447Y-105231223D01*
X174756256Y-105220247D01*
X174732530Y-105206216D01*
X174704670Y-105190464D01*
X174675077Y-105174323D01*
X174646154Y-105159127D01*
X174620301Y-105146208D01*
X174599920Y-105136900D01*
X174599910Y-105136896D01*
X174575307Y-105126567D01*
X174553982Y-105117576D01*
X174539610Y-105111473D01*
X174537225Y-105110447D01*
X174490969Y-105093423D01*
X174435303Y-105077813D01*
X174373491Y-105064158D01*
X174308792Y-105052998D01*
X174244470Y-105044876D01*
X174183784Y-105040333D01*
X174129997Y-105039910D01*
X174116538Y-105040609D01*
G37*
X174116538Y-105040609D02*
X174114259Y-105043473D01*
X174112428Y-105052416D01*
X174111007Y-105068480D01*
X174109954Y-105092704D01*
X174109231Y-105126129D01*
X174108798Y-105169797D01*
X174108613Y-105224747D01*
X174108600Y-105247525D01*
X174108600Y-105453900D01*
X174159283Y-105453899D01*
X174239709Y-105459514D01*
X174321413Y-105475710D01*
X174401631Y-105501519D01*
X174477600Y-105535971D01*
X174546557Y-105578095D01*
X174575325Y-105599915D01*
X174581950Y-105606117D01*
X174597058Y-105620781D01*
X174620140Y-105643404D01*
X174650686Y-105673479D01*
X174688188Y-105710501D01*
X174732135Y-105753967D01*
X174782019Y-105803371D01*
X174837329Y-105858208D01*
X174897556Y-105917973D01*
X174962191Y-105982161D01*
X175030724Y-106050268D01*
X175102646Y-106121788D01*
X175177447Y-106196217D01*
X175254618Y-106273049D01*
X175270650Y-106289016D01*
X175365259Y-106383243D01*
X175451312Y-106468928D01*
X175529244Y-106546497D01*
X175599494Y-106616376D01*
X175662497Y-106678990D01*
X175718691Y-106734766D01*
X175768512Y-106784129D01*
X175812396Y-106827504D01*
X175850782Y-106865318D01*
X175884105Y-106897996D01*
X175912803Y-106925964D01*
X175937311Y-106949647D01*
X175958067Y-106969472D01*
X175975508Y-106985863D01*
X175990070Y-106999246D01*
X176002190Y-107010048D01*
X176012305Y-107018694D01*
X176020852Y-107025609D01*
X176028267Y-107031220D01*
X176034987Y-107035952D01*
X176041297Y-107040132D01*
X176057197Y-107050732D01*
X176068192Y-107058618D01*
X176070750Y-107060806D01*
X176080807Y-107068792D01*
X176099891Y-107080981D01*
X176125587Y-107096065D01*
X176155482Y-107112732D01*
X176187163Y-107129675D01*
X176218215Y-107145582D01*
X176246223Y-107159144D01*
X176268775Y-107169051D01*
X176273950Y-107171054D01*
X176345372Y-107196174D01*
X176408981Y-107215545D01*
X176467905Y-107229869D01*
X176525269Y-107239848D01*
X176584202Y-107246184D01*
X176618438Y-107248371D01*
X176705750Y-107252797D01*
X176705750Y-106840070D01*
X176637617Y-106835665D01*
X176552180Y-106824905D01*
X176471470Y-106803577D01*
X176393082Y-106770925D01*
X176340625Y-106742314D01*
X176313179Y-106725103D01*
X176285534Y-106706348D01*
X176262676Y-106689465D01*
X176258075Y-106685757D01*
X176250012Y-106678322D01*
X176233482Y-106662419D01*
X176209003Y-106638558D01*
X176177088Y-106607251D01*
X176138255Y-106569008D01*
X176093019Y-106524339D01*
X176041895Y-106473756D01*
X175985400Y-106417769D01*
X175924048Y-106356890D01*
X175858356Y-106291628D01*
X175788839Y-106222495D01*
X175716012Y-106150001D01*
X175640393Y-106074657D01*
X175562495Y-105996974D01*
X175537350Y-105971884D01*
X175458870Y-105893630D01*
X175382501Y-105817615D01*
X175308759Y-105744346D01*
X175238159Y-105674328D01*
X175171216Y-105608069D01*
X175108445Y-105546074D01*
X175050362Y-105488851D01*
X174997480Y-105436905D01*
X174950316Y-105390742D01*
X174909384Y-105350871D01*
X174875199Y-105317796D01*
X174848276Y-105292024D01*
X174829130Y-105274062D01*
X174818277Y-105264417D01*
X174816625Y-105263160D01*
X174799176Y-105251213D01*
X174786376Y-105241846D01*
X174781700Y-105237811D01*
X174773447Y-105231223D01*
X174756256Y-105220247D01*
X174732530Y-105206216D01*
X174704670Y-105190464D01*
X174675077Y-105174323D01*
X174646154Y-105159127D01*
X174620301Y-105146208D01*
X174599920Y-105136900D01*
X174599910Y-105136896D01*
X174575307Y-105126567D01*
X174553982Y-105117576D01*
X174539610Y-105111473D01*
X174537225Y-105110447D01*
X174490969Y-105093423D01*
X174435303Y-105077813D01*
X174373491Y-105064158D01*
X174308792Y-105052998D01*
X174244470Y-105044876D01*
X174183784Y-105040333D01*
X174129997Y-105039910D01*
X174116538Y-105040609D01*
G36*
X177796770Y-106245656D02*
G01*
X177783301Y-106258153D01*
X177762635Y-106277930D01*
X177735652Y-106304126D01*
X177703235Y-106335882D01*
X177666264Y-106372336D01*
X177625621Y-106412629D01*
X177582187Y-106455899D01*
X177576077Y-106462003D01*
X177519386Y-106518448D01*
X177470714Y-106566438D01*
X177429297Y-106606691D01*
X177394367Y-106639923D01*
X177365159Y-106666850D01*
X177340907Y-106688190D01*
X177320844Y-106704659D01*
X177304206Y-106716973D01*
X177301744Y-106718650D01*
X177227146Y-106763481D01*
X177152858Y-106796866D01*
X177076216Y-106819707D01*
X176994555Y-106832905D01*
X176954988Y-106835964D01*
X176877200Y-106840159D01*
X176877200Y-107250950D01*
X176939113Y-107250018D01*
X176972561Y-107249087D01*
X177007429Y-107247423D01*
X177037646Y-107245335D01*
X177045475Y-107244614D01*
X177075010Y-107240859D01*
X177109227Y-107235309D01*
X177144188Y-107228725D01*
X177175953Y-107221869D01*
X177200586Y-107215502D01*
X177207400Y-107213318D01*
X177221122Y-107208766D01*
X177242650Y-107201915D01*
X177267633Y-107194148D01*
X177270900Y-107193145D01*
X177290949Y-107185975D01*
X177317955Y-107174888D01*
X177349538Y-107161016D01*
X177383317Y-107145492D01*
X177416911Y-107129451D01*
X177447938Y-107114026D01*
X177474018Y-107100350D01*
X177492769Y-107089556D01*
X177501074Y-107083585D01*
X177511193Y-107075696D01*
X177527302Y-107064947D01*
X177534425Y-107060547D01*
X177550203Y-107050666D01*
X177560885Y-107043279D01*
X177563000Y-107041438D01*
X177569235Y-107036061D01*
X177582991Y-107025141D01*
X177601633Y-107010761D01*
X177607450Y-107006336D01*
X177620211Y-106995575D01*
X177640841Y-106976820D01*
X177668274Y-106951097D01*
X177701441Y-106919433D01*
X177739274Y-106882856D01*
X177780704Y-106842393D01*
X177824663Y-106799070D01*
X177870084Y-106753914D01*
X177871991Y-106752009D01*
X178095257Y-106528978D01*
X177951315Y-106385139D01*
X177916157Y-106350162D01*
X177883784Y-106318256D01*
X177855303Y-106290489D01*
X177831822Y-106267929D01*
X177814449Y-106251644D01*
X177804290Y-106242702D01*
X177802160Y-106241300D01*
X177796770Y-106245656D01*
G37*
X177796770Y-106245656D02*
X177783301Y-106258153D01*
X177762635Y-106277930D01*
X177735652Y-106304126D01*
X177703235Y-106335882D01*
X177666264Y-106372336D01*
X177625621Y-106412629D01*
X177582187Y-106455899D01*
X177576077Y-106462003D01*
X177519386Y-106518448D01*
X177470714Y-106566438D01*
X177429297Y-106606691D01*
X177394367Y-106639923D01*
X177365159Y-106666850D01*
X177340907Y-106688190D01*
X177320844Y-106704659D01*
X177304206Y-106716973D01*
X177301744Y-106718650D01*
X177227146Y-106763481D01*
X177152858Y-106796866D01*
X177076216Y-106819707D01*
X176994555Y-106832905D01*
X176954988Y-106835964D01*
X176877200Y-106840159D01*
X176877200Y-107250950D01*
X176939113Y-107250018D01*
X176972561Y-107249087D01*
X177007429Y-107247423D01*
X177037646Y-107245335D01*
X177045475Y-107244614D01*
X177075010Y-107240859D01*
X177109227Y-107235309D01*
X177144188Y-107228725D01*
X177175953Y-107221869D01*
X177200586Y-107215502D01*
X177207400Y-107213318D01*
X177221122Y-107208766D01*
X177242650Y-107201915D01*
X177267633Y-107194148D01*
X177270900Y-107193145D01*
X177290949Y-107185975D01*
X177317955Y-107174888D01*
X177349538Y-107161016D01*
X177383317Y-107145492D01*
X177416911Y-107129451D01*
X177447938Y-107114026D01*
X177474018Y-107100350D01*
X177492769Y-107089556D01*
X177501074Y-107083585D01*
X177511193Y-107075696D01*
X177527302Y-107064947D01*
X177534425Y-107060547D01*
X177550203Y-107050666D01*
X177560885Y-107043279D01*
X177563000Y-107041438D01*
X177569235Y-107036061D01*
X177582991Y-107025141D01*
X177601633Y-107010761D01*
X177607450Y-107006336D01*
X177620211Y-106995575D01*
X177640841Y-106976820D01*
X177668274Y-106951097D01*
X177701441Y-106919433D01*
X177739274Y-106882856D01*
X177780704Y-106842393D01*
X177824663Y-106799070D01*
X177870084Y-106753914D01*
X177871991Y-106752009D01*
X178095257Y-106528978D01*
X177951315Y-106385139D01*
X177916157Y-106350162D01*
X177883784Y-106318256D01*
X177855303Y-106290489D01*
X177831822Y-106267929D01*
X177814449Y-106251644D01*
X177804290Y-106242702D01*
X177802160Y-106241300D01*
X177796770Y-106245656D01*
G36*
X176878701Y-105246371D02*
G01*
X176877027Y-105453900D01*
X176924621Y-105453899D01*
X177002986Y-105459486D01*
X177083255Y-105475554D01*
X177162502Y-105501071D01*
X177237804Y-105535002D01*
X177306234Y-105576313D01*
X177337575Y-105599915D01*
X177344200Y-105606117D01*
X177359308Y-105620781D01*
X177382390Y-105643404D01*
X177412936Y-105673479D01*
X177450438Y-105710501D01*
X177494385Y-105753967D01*
X177544269Y-105803371D01*
X177599579Y-105858208D01*
X177659806Y-105917973D01*
X177724441Y-105982161D01*
X177792974Y-106050268D01*
X177864896Y-106121788D01*
X177939697Y-106196217D01*
X178016868Y-106273049D01*
X178032900Y-106289016D01*
X178127509Y-106383243D01*
X178213562Y-106468928D01*
X178291494Y-106546497D01*
X178361744Y-106616376D01*
X178424747Y-106678990D01*
X178480941Y-106734766D01*
X178530762Y-106784129D01*
X178574646Y-106827504D01*
X178613032Y-106865318D01*
X178646355Y-106897996D01*
X178675053Y-106925964D01*
X178699561Y-106949647D01*
X178720317Y-106969472D01*
X178737758Y-106985863D01*
X178752320Y-106999246D01*
X178764440Y-107010048D01*
X178774555Y-107018694D01*
X178783102Y-107025609D01*
X178790517Y-107031220D01*
X178797237Y-107035952D01*
X178803547Y-107040132D01*
X178819447Y-107050732D01*
X178830442Y-107058618D01*
X178833000Y-107060806D01*
X178843057Y-107068792D01*
X178862141Y-107080981D01*
X178887837Y-107096065D01*
X178917732Y-107112732D01*
X178949413Y-107129675D01*
X178980465Y-107145582D01*
X179008473Y-107159144D01*
X179031025Y-107169051D01*
X179036200Y-107171054D01*
X179107622Y-107196174D01*
X179171231Y-107215545D01*
X179230155Y-107229869D01*
X179287519Y-107239848D01*
X179346452Y-107246184D01*
X179380688Y-107248371D01*
X179468000Y-107252797D01*
X179468000Y-106840070D01*
X179399867Y-106835665D01*
X179314430Y-106824905D01*
X179233720Y-106803577D01*
X179155332Y-106770925D01*
X179102875Y-106742314D01*
X179075429Y-106725103D01*
X179047784Y-106706348D01*
X179024926Y-106689465D01*
X179020325Y-106685757D01*
X179012262Y-106678322D01*
X178995732Y-106662419D01*
X178971253Y-106638558D01*
X178939338Y-106607251D01*
X178900505Y-106569008D01*
X178855269Y-106524339D01*
X178804145Y-106473756D01*
X178747650Y-106417769D01*
X178686298Y-106356890D01*
X178620606Y-106291628D01*
X178551089Y-106222495D01*
X178478262Y-106150001D01*
X178402643Y-106074657D01*
X178324745Y-105996974D01*
X178299600Y-105971884D01*
X178221120Y-105893630D01*
X178144751Y-105817615D01*
X178071009Y-105744346D01*
X178000409Y-105674328D01*
X177933466Y-105608069D01*
X177870695Y-105546074D01*
X177812612Y-105488851D01*
X177759730Y-105436905D01*
X177712566Y-105390742D01*
X177671634Y-105350871D01*
X177637449Y-105317796D01*
X177610526Y-105292024D01*
X177591380Y-105274062D01*
X177580527Y-105264417D01*
X177578875Y-105263160D01*
X177561426Y-105251213D01*
X177548626Y-105241846D01*
X177543950Y-105237811D01*
X177535697Y-105231223D01*
X177518506Y-105220247D01*
X177494780Y-105206216D01*
X177466920Y-105190464D01*
X177437327Y-105174323D01*
X177408404Y-105159127D01*
X177382551Y-105146208D01*
X177362170Y-105136900D01*
X177362160Y-105136896D01*
X177337557Y-105126567D01*
X177316232Y-105117576D01*
X177301860Y-105111473D01*
X177299475Y-105110447D01*
X177254713Y-105093905D01*
X177200505Y-105078491D01*
X177140093Y-105064832D01*
X177076723Y-105053557D01*
X177013636Y-105045295D01*
X176954079Y-105040674D01*
X176936273Y-105040067D01*
X176880375Y-105038843D01*
X176878701Y-105246371D01*
G37*
X176878701Y-105246371D02*
X176877027Y-105453900D01*
X176924621Y-105453899D01*
X177002986Y-105459486D01*
X177083255Y-105475554D01*
X177162502Y-105501071D01*
X177237804Y-105535002D01*
X177306234Y-105576313D01*
X177337575Y-105599915D01*
X177344200Y-105606117D01*
X177359308Y-105620781D01*
X177382390Y-105643404D01*
X177412936Y-105673479D01*
X177450438Y-105710501D01*
X177494385Y-105753967D01*
X177544269Y-105803371D01*
X177599579Y-105858208D01*
X177659806Y-105917973D01*
X177724441Y-105982161D01*
X177792974Y-106050268D01*
X177864896Y-106121788D01*
X177939697Y-106196217D01*
X178016868Y-106273049D01*
X178032900Y-106289016D01*
X178127509Y-106383243D01*
X178213562Y-106468928D01*
X178291494Y-106546497D01*
X178361744Y-106616376D01*
X178424747Y-106678990D01*
X178480941Y-106734766D01*
X178530762Y-106784129D01*
X178574646Y-106827504D01*
X178613032Y-106865318D01*
X178646355Y-106897996D01*
X178675053Y-106925964D01*
X178699561Y-106949647D01*
X178720317Y-106969472D01*
X178737758Y-106985863D01*
X178752320Y-106999246D01*
X178764440Y-107010048D01*
X178774555Y-107018694D01*
X178783102Y-107025609D01*
X178790517Y-107031220D01*
X178797237Y-107035952D01*
X178803547Y-107040132D01*
X178819447Y-107050732D01*
X178830442Y-107058618D01*
X178833000Y-107060806D01*
X178843057Y-107068792D01*
X178862141Y-107080981D01*
X178887837Y-107096065D01*
X178917732Y-107112732D01*
X178949413Y-107129675D01*
X178980465Y-107145582D01*
X179008473Y-107159144D01*
X179031025Y-107169051D01*
X179036200Y-107171054D01*
X179107622Y-107196174D01*
X179171231Y-107215545D01*
X179230155Y-107229869D01*
X179287519Y-107239848D01*
X179346452Y-107246184D01*
X179380688Y-107248371D01*
X179468000Y-107252797D01*
X179468000Y-106840070D01*
X179399867Y-106835665D01*
X179314430Y-106824905D01*
X179233720Y-106803577D01*
X179155332Y-106770925D01*
X179102875Y-106742314D01*
X179075429Y-106725103D01*
X179047784Y-106706348D01*
X179024926Y-106689465D01*
X179020325Y-106685757D01*
X179012262Y-106678322D01*
X178995732Y-106662419D01*
X178971253Y-106638558D01*
X178939338Y-106607251D01*
X178900505Y-106569008D01*
X178855269Y-106524339D01*
X178804145Y-106473756D01*
X178747650Y-106417769D01*
X178686298Y-106356890D01*
X178620606Y-106291628D01*
X178551089Y-106222495D01*
X178478262Y-106150001D01*
X178402643Y-106074657D01*
X178324745Y-105996974D01*
X178299600Y-105971884D01*
X178221120Y-105893630D01*
X178144751Y-105817615D01*
X178071009Y-105744346D01*
X178000409Y-105674328D01*
X177933466Y-105608069D01*
X177870695Y-105546074D01*
X177812612Y-105488851D01*
X177759730Y-105436905D01*
X177712566Y-105390742D01*
X177671634Y-105350871D01*
X177637449Y-105317796D01*
X177610526Y-105292024D01*
X177591380Y-105274062D01*
X177580527Y-105264417D01*
X177578875Y-105263160D01*
X177561426Y-105251213D01*
X177548626Y-105241846D01*
X177543950Y-105237811D01*
X177535697Y-105231223D01*
X177518506Y-105220247D01*
X177494780Y-105206216D01*
X177466920Y-105190464D01*
X177437327Y-105174323D01*
X177408404Y-105159127D01*
X177382551Y-105146208D01*
X177362170Y-105136900D01*
X177362160Y-105136896D01*
X177337557Y-105126567D01*
X177316232Y-105117576D01*
X177301860Y-105111473D01*
X177299475Y-105110447D01*
X177254713Y-105093905D01*
X177200505Y-105078491D01*
X177140093Y-105064832D01*
X177076723Y-105053557D01*
X177013636Y-105045295D01*
X176954079Y-105040674D01*
X176936273Y-105040067D01*
X176880375Y-105038843D01*
X176878701Y-105246371D01*
G36*
X181475133Y-105629879D02*
G01*
X181422014Y-105633093D01*
X181375301Y-105638582D01*
X181350069Y-105643367D01*
X181248327Y-105672930D01*
X181153858Y-105712885D01*
X181066755Y-105763168D01*
X180987111Y-105823713D01*
X180915020Y-105894454D01*
X180850576Y-105975327D01*
X180829681Y-106006268D01*
X180783387Y-106089146D01*
X180746962Y-106178436D01*
X180720852Y-106272089D01*
X180705506Y-106368057D01*
X180701371Y-106464290D01*
X180708896Y-106558740D01*
X180708905Y-106558800D01*
X180717151Y-106610150D01*
X180726146Y-106653443D01*
X180737116Y-106693310D01*
X180751289Y-106734383D01*
X180764090Y-106767119D01*
X180807738Y-106858564D01*
X180861266Y-106942365D01*
X180924034Y-107017990D01*
X180995400Y-107084907D01*
X181074721Y-107142582D01*
X181161356Y-107190483D01*
X181254663Y-107228076D01*
X181350775Y-107254155D01*
X181381682Y-107259021D01*
X181421698Y-107262919D01*
X181467263Y-107265729D01*
X181514816Y-107267329D01*
X181560794Y-107267600D01*
X181601637Y-107266420D01*
X181633350Y-107263727D01*
X181731927Y-107244467D01*
X181826961Y-107213646D01*
X181917388Y-107171994D01*
X182002140Y-107120241D01*
X182080151Y-107059116D01*
X182150354Y-106989350D01*
X182211684Y-106911672D01*
X182258074Y-106836229D01*
X182297445Y-106750864D01*
X182326972Y-106659921D01*
X182346147Y-106565903D01*
X182354465Y-106471309D01*
X182353012Y-106427110D01*
X182052575Y-106427110D01*
X182051997Y-106486001D01*
X182046712Y-106541546D01*
X182039211Y-106579963D01*
X182012738Y-106659227D01*
X181975920Y-106731572D01*
X181929468Y-106796310D01*
X181874092Y-106852754D01*
X181810505Y-106900217D01*
X181739416Y-106938010D01*
X181661537Y-106965446D01*
X181633350Y-106972356D01*
X181581338Y-106979951D01*
X181522806Y-106982189D01*
X181462689Y-106979200D01*
X181405920Y-106971112D01*
X181382525Y-106965777D01*
X181308478Y-106940135D01*
X181239947Y-106903775D01*
X181178167Y-106857691D01*
X181124373Y-106802877D01*
X181079799Y-106740324D01*
X181062132Y-106708025D01*
X181030759Y-106632095D01*
X181010841Y-106554775D01*
X181001947Y-106477149D01*
X181003645Y-106400301D01*
X181015505Y-106325318D01*
X181037095Y-106253282D01*
X181067984Y-106185280D01*
X181107741Y-106122396D01*
X181155934Y-106065715D01*
X181212132Y-106016322D01*
X181275905Y-105975301D01*
X181346821Y-105943737D01*
X181368826Y-105936457D01*
X181441887Y-105919857D01*
X181516533Y-105913710D01*
X181580169Y-105917224D01*
X181660153Y-105931666D01*
X181731418Y-105954122D01*
X181795671Y-105985348D01*
X181854617Y-106026103D01*
X181885374Y-106052837D01*
X181941193Y-106113344D01*
X181986069Y-106180295D01*
X182020025Y-106253727D01*
X182039584Y-106318176D01*
X182048440Y-106369594D01*
X182052575Y-106427110D01*
X182353012Y-106427110D01*
X182351417Y-106378643D01*
X182351223Y-106376699D01*
X182334746Y-106272303D01*
X182307130Y-106173586D01*
X182268707Y-106081036D01*
X182219812Y-105995142D01*
X182160777Y-105916394D01*
X182091935Y-105845281D01*
X182013618Y-105782290D01*
X181926159Y-105727911D01*
X181900389Y-105714451D01*
X181852327Y-105693060D01*
X181796211Y-105672585D01*
X181736670Y-105654566D01*
X181678335Y-105640542D01*
X181677800Y-105640432D01*
X181635991Y-105634217D01*
X181585814Y-105630408D01*
X181530964Y-105628973D01*
X181475133Y-105629879D01*
G37*
X181475133Y-105629879D02*
X181422014Y-105633093D01*
X181375301Y-105638582D01*
X181350069Y-105643367D01*
X181248327Y-105672930D01*
X181153858Y-105712885D01*
X181066755Y-105763168D01*
X180987111Y-105823713D01*
X180915020Y-105894454D01*
X180850576Y-105975327D01*
X180829681Y-106006268D01*
X180783387Y-106089146D01*
X180746962Y-106178436D01*
X180720852Y-106272089D01*
X180705506Y-106368057D01*
X180701371Y-106464290D01*
X180708896Y-106558740D01*
X180708905Y-106558800D01*
X180717151Y-106610150D01*
X180726146Y-106653443D01*
X180737116Y-106693310D01*
X180751289Y-106734383D01*
X180764090Y-106767119D01*
X180807738Y-106858564D01*
X180861266Y-106942365D01*
X180924034Y-107017990D01*
X180995400Y-107084907D01*
X181074721Y-107142582D01*
X181161356Y-107190483D01*
X181254663Y-107228076D01*
X181350775Y-107254155D01*
X181381682Y-107259021D01*
X181421698Y-107262919D01*
X181467263Y-107265729D01*
X181514816Y-107267329D01*
X181560794Y-107267600D01*
X181601637Y-107266420D01*
X181633350Y-107263727D01*
X181731927Y-107244467D01*
X181826961Y-107213646D01*
X181917388Y-107171994D01*
X182002140Y-107120241D01*
X182080151Y-107059116D01*
X182150354Y-106989350D01*
X182211684Y-106911672D01*
X182258074Y-106836229D01*
X182297445Y-106750864D01*
X182326972Y-106659921D01*
X182346147Y-106565903D01*
X182354465Y-106471309D01*
X182353012Y-106427110D01*
X182052575Y-106427110D01*
X182051997Y-106486001D01*
X182046712Y-106541546D01*
X182039211Y-106579963D01*
X182012738Y-106659227D01*
X181975920Y-106731572D01*
X181929468Y-106796310D01*
X181874092Y-106852754D01*
X181810505Y-106900217D01*
X181739416Y-106938010D01*
X181661537Y-106965446D01*
X181633350Y-106972356D01*
X181581338Y-106979951D01*
X181522806Y-106982189D01*
X181462689Y-106979200D01*
X181405920Y-106971112D01*
X181382525Y-106965777D01*
X181308478Y-106940135D01*
X181239947Y-106903775D01*
X181178167Y-106857691D01*
X181124373Y-106802877D01*
X181079799Y-106740324D01*
X181062132Y-106708025D01*
X181030759Y-106632095D01*
X181010841Y-106554775D01*
X181001947Y-106477149D01*
X181003645Y-106400301D01*
X181015505Y-106325318D01*
X181037095Y-106253282D01*
X181067984Y-106185280D01*
X181107741Y-106122396D01*
X181155934Y-106065715D01*
X181212132Y-106016322D01*
X181275905Y-105975301D01*
X181346821Y-105943737D01*
X181368826Y-105936457D01*
X181441887Y-105919857D01*
X181516533Y-105913710D01*
X181580169Y-105917224D01*
X181660153Y-105931666D01*
X181731418Y-105954122D01*
X181795671Y-105985348D01*
X181854617Y-106026103D01*
X181885374Y-106052837D01*
X181941193Y-106113344D01*
X181986069Y-106180295D01*
X182020025Y-106253727D01*
X182039584Y-106318176D01*
X182048440Y-106369594D01*
X182052575Y-106427110D01*
X182353012Y-106427110D01*
X182351417Y-106378643D01*
X182351223Y-106376699D01*
X182334746Y-106272303D01*
X182307130Y-106173586D01*
X182268707Y-106081036D01*
X182219812Y-105995142D01*
X182160777Y-105916394D01*
X182091935Y-105845281D01*
X182013618Y-105782290D01*
X181926159Y-105727911D01*
X181900389Y-105714451D01*
X181852327Y-105693060D01*
X181796211Y-105672585D01*
X181736670Y-105654566D01*
X181678335Y-105640542D01*
X181677800Y-105640432D01*
X181635991Y-105634217D01*
X181585814Y-105630408D01*
X181530964Y-105628973D01*
X181475133Y-105629879D01*
G36*
X183030620Y-106027971D02*
G01*
X182998850Y-106031330D01*
X182915343Y-106049773D01*
X182836597Y-106079593D01*
X182763509Y-106120068D01*
X182696973Y-106170479D01*
X182637886Y-106230103D01*
X182587144Y-106298220D01*
X182545641Y-106374110D01*
X182531410Y-106407541D01*
X182512316Y-106462602D01*
X182499179Y-106516745D01*
X182491300Y-106573970D01*
X182487980Y-106638280D01*
X182487775Y-106657225D01*
X182487946Y-106691496D01*
X182488651Y-106721843D01*
X182489789Y-106745715D01*
X182491260Y-106760563D01*
X182491989Y-106763587D01*
X182493441Y-106765708D01*
X182496511Y-106767541D01*
X182502066Y-106769108D01*
X182510971Y-106770429D01*
X182524095Y-106771525D01*
X182542303Y-106772417D01*
X182566463Y-106773126D01*
X182597441Y-106773671D01*
X182636104Y-106774076D01*
X182683320Y-106774359D01*
X182739954Y-106774542D01*
X182806874Y-106774646D01*
X182884946Y-106774691D01*
X182954640Y-106774700D01*
X183412727Y-106774700D01*
X183408441Y-106792162D01*
X183395244Y-106828015D01*
X183373895Y-106865671D01*
X183347174Y-106900459D01*
X183338643Y-106909519D01*
X183293769Y-106947099D01*
X183243092Y-106974789D01*
X183185598Y-106992962D01*
X183120277Y-107001989D01*
X183083407Y-107003191D01*
X183021181Y-106999367D01*
X182967043Y-106987137D01*
X182918911Y-106965705D01*
X182874706Y-106934274D01*
X182854386Y-106915516D01*
X182827646Y-106889000D01*
X182515145Y-106889000D01*
X182519570Y-106903287D01*
X182537411Y-106946147D01*
X182565015Y-106992812D01*
X182600907Y-107041174D01*
X182643610Y-107089124D01*
X182663277Y-107108686D01*
X182717737Y-107155946D01*
X182773411Y-107193497D01*
X182833695Y-107223241D01*
X182901989Y-107247079D01*
X182919225Y-107251936D01*
X182946431Y-107257331D01*
X182982850Y-107261779D01*
X183025021Y-107265121D01*
X183069480Y-107267197D01*
X183112766Y-107267846D01*
X183151418Y-107266909D01*
X183181971Y-107264226D01*
X183182750Y-107264114D01*
X183269536Y-107245388D01*
X183351601Y-107215818D01*
X183427986Y-107176194D01*
X183497735Y-107127310D01*
X183559890Y-107069957D01*
X183613493Y-107004927D01*
X183657588Y-106933012D01*
X183691215Y-106855004D01*
X183696458Y-106839194D01*
X183716992Y-106753645D01*
X183725355Y-106667024D01*
X183721825Y-106580621D01*
X183711136Y-106520700D01*
X183423948Y-106520700D01*
X182769145Y-106520700D01*
X182773157Y-106506412D01*
X182783682Y-106477920D01*
X182799370Y-106446053D01*
X182817788Y-106415029D01*
X182836505Y-106389063D01*
X182848092Y-106376511D01*
X182890258Y-106342995D01*
X182935191Y-106318478D01*
X182985098Y-106302194D01*
X183042185Y-106293377D01*
X183094154Y-106291188D01*
X183129403Y-106291507D01*
X183156281Y-106293140D01*
X183179096Y-106296661D01*
X183202156Y-106302644D01*
X183217979Y-106307681D01*
X183276043Y-106332397D01*
X183324741Y-106365245D01*
X183364906Y-106407020D01*
X183397375Y-106458519D01*
X183413230Y-106493712D01*
X183423948Y-106520700D01*
X183711136Y-106520700D01*
X183706680Y-106495727D01*
X183680198Y-106413633D01*
X183642656Y-106335629D01*
X183594332Y-106263006D01*
X183564721Y-106227446D01*
X183515246Y-106179783D01*
X183456366Y-106135437D01*
X183391300Y-106096374D01*
X183323271Y-106064562D01*
X183265300Y-106044629D01*
X183227480Y-106036545D01*
X183181108Y-106030638D01*
X183130179Y-106027107D01*
X183078685Y-106026152D01*
X183030620Y-106027971D01*
G37*
X183030620Y-106027971D02*
X182998850Y-106031330D01*
X182915343Y-106049773D01*
X182836597Y-106079593D01*
X182763509Y-106120068D01*
X182696973Y-106170479D01*
X182637886Y-106230103D01*
X182587144Y-106298220D01*
X182545641Y-106374110D01*
X182531410Y-106407541D01*
X182512316Y-106462602D01*
X182499179Y-106516745D01*
X182491300Y-106573970D01*
X182487980Y-106638280D01*
X182487775Y-106657225D01*
X182487946Y-106691496D01*
X182488651Y-106721843D01*
X182489789Y-106745715D01*
X182491260Y-106760563D01*
X182491989Y-106763587D01*
X182493441Y-106765708D01*
X182496511Y-106767541D01*
X182502066Y-106769108D01*
X182510971Y-106770429D01*
X182524095Y-106771525D01*
X182542303Y-106772417D01*
X182566463Y-106773126D01*
X182597441Y-106773671D01*
X182636104Y-106774076D01*
X182683320Y-106774359D01*
X182739954Y-106774542D01*
X182806874Y-106774646D01*
X182884946Y-106774691D01*
X182954640Y-106774700D01*
X183412727Y-106774700D01*
X183408441Y-106792162D01*
X183395244Y-106828015D01*
X183373895Y-106865671D01*
X183347174Y-106900459D01*
X183338643Y-106909519D01*
X183293769Y-106947099D01*
X183243092Y-106974789D01*
X183185598Y-106992962D01*
X183120277Y-107001989D01*
X183083407Y-107003191D01*
X183021181Y-106999367D01*
X182967043Y-106987137D01*
X182918911Y-106965705D01*
X182874706Y-106934274D01*
X182854386Y-106915516D01*
X182827646Y-106889000D01*
X182515145Y-106889000D01*
X182519570Y-106903287D01*
X182537411Y-106946147D01*
X182565015Y-106992812D01*
X182600907Y-107041174D01*
X182643610Y-107089124D01*
X182663277Y-107108686D01*
X182717737Y-107155946D01*
X182773411Y-107193497D01*
X182833695Y-107223241D01*
X182901989Y-107247079D01*
X182919225Y-107251936D01*
X182946431Y-107257331D01*
X182982850Y-107261779D01*
X183025021Y-107265121D01*
X183069480Y-107267197D01*
X183112766Y-107267846D01*
X183151418Y-107266909D01*
X183181971Y-107264226D01*
X183182750Y-107264114D01*
X183269536Y-107245388D01*
X183351601Y-107215818D01*
X183427986Y-107176194D01*
X183497735Y-107127310D01*
X183559890Y-107069957D01*
X183613493Y-107004927D01*
X183657588Y-106933012D01*
X183691215Y-106855004D01*
X183696458Y-106839194D01*
X183716992Y-106753645D01*
X183725355Y-106667024D01*
X183721825Y-106580621D01*
X183711136Y-106520700D01*
X183423948Y-106520700D01*
X182769145Y-106520700D01*
X182773157Y-106506412D01*
X182783682Y-106477920D01*
X182799370Y-106446053D01*
X182817788Y-106415029D01*
X182836505Y-106389063D01*
X182848092Y-106376511D01*
X182890258Y-106342995D01*
X182935191Y-106318478D01*
X182985098Y-106302194D01*
X183042185Y-106293377D01*
X183094154Y-106291188D01*
X183129403Y-106291507D01*
X183156281Y-106293140D01*
X183179096Y-106296661D01*
X183202156Y-106302644D01*
X183217979Y-106307681D01*
X183276043Y-106332397D01*
X183324741Y-106365245D01*
X183364906Y-106407020D01*
X183397375Y-106458519D01*
X183413230Y-106493712D01*
X183423948Y-106520700D01*
X183711136Y-106520700D01*
X183706680Y-106495727D01*
X183680198Y-106413633D01*
X183642656Y-106335629D01*
X183594332Y-106263006D01*
X183564721Y-106227446D01*
X183515246Y-106179783D01*
X183456366Y-106135437D01*
X183391300Y-106096374D01*
X183323271Y-106064562D01*
X183265300Y-106044629D01*
X183227480Y-106036545D01*
X183181108Y-106030638D01*
X183130179Y-106027107D01*
X183078685Y-106026152D01*
X183030620Y-106027971D01*
G36*
X185737969Y-106028865D02*
G01*
X185706061Y-106029486D01*
X185681504Y-106030878D01*
X185661623Y-106033285D01*
X185643745Y-106036956D01*
X185625197Y-106042135D01*
X185621150Y-106043380D01*
X185560636Y-106066728D01*
X185506904Y-106097743D01*
X185456404Y-106138591D01*
X185441763Y-106152677D01*
X185392550Y-106201660D01*
X185392550Y-106050800D01*
X185125850Y-106050800D01*
X185125850Y-107244600D01*
X185392550Y-107244600D01*
X185392744Y-107166812D01*
X185393138Y-107133203D01*
X185394186Y-107111337D01*
X185395984Y-107100270D01*
X185398628Y-107099058D01*
X185399496Y-107100293D01*
X185410247Y-107113377D01*
X185429107Y-107131230D01*
X185453480Y-107151795D01*
X185480765Y-107173016D01*
X185508364Y-107192834D01*
X185533679Y-107209193D01*
X185545499Y-107215872D01*
X185585946Y-107235291D01*
X185624295Y-107249224D01*
X185664253Y-107258546D01*
X185709522Y-107264133D01*
X185760850Y-107266779D01*
X185796242Y-107267332D01*
X185830468Y-107267067D01*
X185859780Y-107266064D01*
X185880429Y-107264400D01*
X185881500Y-107264254D01*
X185922273Y-107256036D01*
X185968622Y-107242818D01*
X186015867Y-107226226D01*
X186059329Y-107207887D01*
X186091050Y-107191407D01*
X186161816Y-107142389D01*
X186223439Y-107084859D01*
X186275565Y-107019470D01*
X186317841Y-106946877D01*
X186349914Y-106867734D01*
X186371429Y-106782696D01*
X186382032Y-106692418D01*
X186382967Y-106657650D01*
X186091050Y-106657650D01*
X186085666Y-106727751D01*
X186069730Y-106791168D01*
X186043565Y-106847457D01*
X186007495Y-106896174D01*
X185961845Y-106936877D01*
X185906938Y-106969120D01*
X185847559Y-106991210D01*
X185811309Y-106998350D01*
X185767635Y-107002028D01*
X185721347Y-107002190D01*
X185677253Y-106998778D01*
X185647141Y-106993522D01*
X185589049Y-106973665D01*
X185537196Y-106943432D01*
X185492889Y-106903855D01*
X185457440Y-106855963D01*
X185446420Y-106835504D01*
X185419691Y-106769526D01*
X185404937Y-106704754D01*
X185401844Y-106639194D01*
X185407229Y-106586802D01*
X185423891Y-106519211D01*
X185450223Y-106459125D01*
X185485487Y-106407186D01*
X185528947Y-106364031D01*
X185579865Y-106330301D01*
X185637504Y-106306636D01*
X185701128Y-106293674D01*
X185747756Y-106291302D01*
X185813896Y-106296410D01*
X185872465Y-106311049D01*
X185924869Y-106335768D01*
X185972511Y-106371112D01*
X185986395Y-106384175D01*
X186028320Y-106434181D01*
X186059513Y-106490696D01*
X186080049Y-106553915D01*
X186090004Y-106624033D01*
X186091050Y-106657650D01*
X186382967Y-106657650D01*
X186383150Y-106650875D01*
X186377607Y-106560316D01*
X186361282Y-106473511D01*
X186334630Y-106391591D01*
X186298106Y-106315688D01*
X186252166Y-106246931D01*
X186197267Y-106186452D01*
X186195360Y-106184659D01*
X186156702Y-106150620D01*
X186120143Y-106123659D01*
X186080631Y-106100357D01*
X186044526Y-106082528D01*
X186002068Y-106063756D01*
X185964540Y-106049813D01*
X185928630Y-106040025D01*
X185891025Y-106033719D01*
X185848413Y-106030222D01*
X185797479Y-106028861D01*
X185779900Y-106028768D01*
X185737969Y-106028865D01*
G37*
X185737969Y-106028865D02*
X185706061Y-106029486D01*
X185681504Y-106030878D01*
X185661623Y-106033285D01*
X185643745Y-106036956D01*
X185625197Y-106042135D01*
X185621150Y-106043380D01*
X185560636Y-106066728D01*
X185506904Y-106097743D01*
X185456404Y-106138591D01*
X185441763Y-106152677D01*
X185392550Y-106201660D01*
X185392550Y-106050800D01*
X185125850Y-106050800D01*
X185125850Y-107244600D01*
X185392550Y-107244600D01*
X185392744Y-107166812D01*
X185393138Y-107133203D01*
X185394186Y-107111337D01*
X185395984Y-107100270D01*
X185398628Y-107099058D01*
X185399496Y-107100293D01*
X185410247Y-107113377D01*
X185429107Y-107131230D01*
X185453480Y-107151795D01*
X185480765Y-107173016D01*
X185508364Y-107192834D01*
X185533679Y-107209193D01*
X185545499Y-107215872D01*
X185585946Y-107235291D01*
X185624295Y-107249224D01*
X185664253Y-107258546D01*
X185709522Y-107264133D01*
X185760850Y-107266779D01*
X185796242Y-107267332D01*
X185830468Y-107267067D01*
X185859780Y-107266064D01*
X185880429Y-107264400D01*
X185881500Y-107264254D01*
X185922273Y-107256036D01*
X185968622Y-107242818D01*
X186015867Y-107226226D01*
X186059329Y-107207887D01*
X186091050Y-107191407D01*
X186161816Y-107142389D01*
X186223439Y-107084859D01*
X186275565Y-107019470D01*
X186317841Y-106946877D01*
X186349914Y-106867734D01*
X186371429Y-106782696D01*
X186382032Y-106692418D01*
X186382967Y-106657650D01*
X186091050Y-106657650D01*
X186085666Y-106727751D01*
X186069730Y-106791168D01*
X186043565Y-106847457D01*
X186007495Y-106896174D01*
X185961845Y-106936877D01*
X185906938Y-106969120D01*
X185847559Y-106991210D01*
X185811309Y-106998350D01*
X185767635Y-107002028D01*
X185721347Y-107002190D01*
X185677253Y-106998778D01*
X185647141Y-106993522D01*
X185589049Y-106973665D01*
X185537196Y-106943432D01*
X185492889Y-106903855D01*
X185457440Y-106855963D01*
X185446420Y-106835504D01*
X185419691Y-106769526D01*
X185404937Y-106704754D01*
X185401844Y-106639194D01*
X185407229Y-106586802D01*
X185423891Y-106519211D01*
X185450223Y-106459125D01*
X185485487Y-106407186D01*
X185528947Y-106364031D01*
X185579865Y-106330301D01*
X185637504Y-106306636D01*
X185701128Y-106293674D01*
X185747756Y-106291302D01*
X185813896Y-106296410D01*
X185872465Y-106311049D01*
X185924869Y-106335768D01*
X185972511Y-106371112D01*
X185986395Y-106384175D01*
X186028320Y-106434181D01*
X186059513Y-106490696D01*
X186080049Y-106553915D01*
X186090004Y-106624033D01*
X186091050Y-106657650D01*
X186382967Y-106657650D01*
X186383150Y-106650875D01*
X186377607Y-106560316D01*
X186361282Y-106473511D01*
X186334630Y-106391591D01*
X186298106Y-106315688D01*
X186252166Y-106246931D01*
X186197267Y-106186452D01*
X186195360Y-106184659D01*
X186156702Y-106150620D01*
X186120143Y-106123659D01*
X186080631Y-106100357D01*
X186044526Y-106082528D01*
X186002068Y-106063756D01*
X185964540Y-106049813D01*
X185928630Y-106040025D01*
X185891025Y-106033719D01*
X185848413Y-106030222D01*
X185797479Y-106028861D01*
X185779900Y-106028768D01*
X185737969Y-106028865D01*
%TD*%
M02*
