%TF.GenerationSoftware,KiCad,Pcbnew,5.1.9+dfsg1-1+deb11u1*%
%TF.CreationDate,2023-07-29T18:16:24+09:00*%
%TF.ProjectId,probe-adapter,70726f62-652d-4616-9461-707465722e6b,rev?*%
%TF.SameCoordinates,Original*%
%TF.FileFunction,Soldermask,Top*%
%TF.FilePolarity,Negative*%
%FSLAX46Y46*%
G04 Gerber Fmt 4.6, Leading zero omitted, Abs format (unit mm)*
G04 Created by KiCad (PCBNEW 5.1.9+dfsg1-1+deb11u1) date 2023-07-29 18:16:24*
%MOMM*%
%LPD*%
G01*
G04 APERTURE LIST*
%ADD10C,5.700000*%
%ADD11R,1.000000X1.500000*%
%ADD12C,1.524000*%
G04 APERTURE END LIST*
D10*
%TO.C,REF\u002A\u002A*%
X181500000Y-124500000D03*
%TD*%
%TO.C,REF\u002A\u002A*%
X186500000Y-101500000D03*
%TD*%
%TO.C,REF\u002A\u002A*%
X176500000Y-101500000D03*
%TD*%
D11*
%TO.C,D1*%
X183100000Y-107100000D03*
X179900000Y-107100000D03*
X183100000Y-112000000D03*
X179900000Y-112000000D03*
%TD*%
D12*
%TO.C,J5*%
X176500000Y-111750000D03*
X176500000Y-114250000D03*
%TD*%
%TO.C,J6*%
X186500000Y-114250000D03*
X186500000Y-111750000D03*
%TD*%
%TO.C,C1*%
G36*
G01*
X182200000Y-115475000D02*
X182200000Y-114525000D01*
G75*
G02*
X182450000Y-114275000I250000J0D01*
G01*
X183125000Y-114275000D01*
G75*
G02*
X183375000Y-114525000I0J-250000D01*
G01*
X183375000Y-115475000D01*
G75*
G02*
X183125000Y-115725000I-250000J0D01*
G01*
X182450000Y-115725000D01*
G75*
G02*
X182200000Y-115475000I0J250000D01*
G01*
G37*
G36*
G01*
X180125000Y-115475000D02*
X180125000Y-114525000D01*
G75*
G02*
X180375000Y-114275000I250000J0D01*
G01*
X181050000Y-114275000D01*
G75*
G02*
X181300000Y-114525000I0J-250000D01*
G01*
X181300000Y-115475000D01*
G75*
G02*
X181050000Y-115725000I-250000J0D01*
G01*
X180375000Y-115725000D01*
G75*
G02*
X180125000Y-115475000I0J250000D01*
G01*
G37*
%TD*%
%TO.C,C2*%
G36*
G01*
X183125000Y-117775000D02*
X183125000Y-118725000D01*
G75*
G02*
X182875000Y-118975000I-250000J0D01*
G01*
X182200000Y-118975000D01*
G75*
G02*
X181950000Y-118725000I0J250000D01*
G01*
X181950000Y-117775000D01*
G75*
G02*
X182200000Y-117525000I250000J0D01*
G01*
X182875000Y-117525000D01*
G75*
G02*
X183125000Y-117775000I0J-250000D01*
G01*
G37*
G36*
G01*
X181050000Y-117775000D02*
X181050000Y-118725000D01*
G75*
G02*
X180800000Y-118975000I-250000J0D01*
G01*
X180125000Y-118975000D01*
G75*
G02*
X179875000Y-118725000I0J250000D01*
G01*
X179875000Y-117775000D01*
G75*
G02*
X180125000Y-117525000I250000J0D01*
G01*
X180800000Y-117525000D01*
G75*
G02*
X181050000Y-117775000I0J-250000D01*
G01*
G37*
%TD*%
M02*
