G04 #@! TF.GenerationSoftware,KiCad,Pcbnew,5.1.9+dfsg1-1+deb11u1*
G04 #@! TF.CreationDate,2023-07-17T20:14:54+09:00*
G04 #@! TF.ProjectId,hole-size-test,686f6c65-2d73-4697-9a65-2d746573742e,rev?*
G04 #@! TF.SameCoordinates,Original*
G04 #@! TF.FileFunction,Legend,Top*
G04 #@! TF.FilePolarity,Positive*
%FSLAX46Y46*%
G04 Gerber Fmt 4.6, Leading zero omitted, Abs format (unit mm)*
G04 Created by KiCad (PCBNEW 5.1.9+dfsg1-1+deb11u1) date 2023-07-17 20:14:54*
%MOMM*%
%LPD*%
G01*
G04 APERTURE LIST*
%ADD10C,0.150000*%
%ADD11C,0.250000*%
%ADD12C,0.100000*%
G04 APERTURE END LIST*
D10*
X98047619Y-84547619D02*
X98095238Y-84500000D01*
X98190476Y-84452380D01*
X98428571Y-84452380D01*
X98523809Y-84500000D01*
X98571428Y-84547619D01*
X98619047Y-84642857D01*
X98619047Y-84738095D01*
X98571428Y-84880952D01*
X98000000Y-85452380D01*
X98619047Y-85452380D01*
X99047619Y-85357142D02*
X99095238Y-85404761D01*
X99047619Y-85452380D01*
X99000000Y-85404761D01*
X99047619Y-85357142D01*
X99047619Y-85452380D01*
X99952380Y-84785714D02*
X99952380Y-85452380D01*
X99714285Y-84404761D02*
X99476190Y-85119047D01*
X100095238Y-85119047D01*
X100380952Y-84452380D02*
X101047619Y-84452380D01*
X100619047Y-85452380D01*
X101904761Y-84452380D02*
X101428571Y-84452380D01*
X101380952Y-84928571D01*
X101428571Y-84880952D01*
X101523809Y-84833333D01*
X101761904Y-84833333D01*
X101857142Y-84880952D01*
X101904761Y-84928571D01*
X101952380Y-85023809D01*
X101952380Y-85261904D01*
X101904761Y-85357142D01*
X101857142Y-85404761D01*
X101761904Y-85452380D01*
X101523809Y-85452380D01*
X101428571Y-85404761D01*
X101380952Y-85357142D01*
X88047619Y-84547619D02*
X88095238Y-84500000D01*
X88190476Y-84452380D01*
X88428571Y-84452380D01*
X88523809Y-84500000D01*
X88571428Y-84547619D01*
X88619047Y-84642857D01*
X88619047Y-84738095D01*
X88571428Y-84880952D01*
X88000000Y-85452380D01*
X88619047Y-85452380D01*
X89047619Y-85357142D02*
X89095238Y-85404761D01*
X89047619Y-85452380D01*
X89000000Y-85404761D01*
X89047619Y-85357142D01*
X89047619Y-85452380D01*
X89952380Y-84785714D02*
X89952380Y-85452380D01*
X89714285Y-84404761D02*
X89476190Y-85119047D01*
X90095238Y-85119047D01*
X90952380Y-84452380D02*
X90476190Y-84452380D01*
X90428571Y-84928571D01*
X90476190Y-84880952D01*
X90571428Y-84833333D01*
X90809523Y-84833333D01*
X90904761Y-84880952D01*
X90952380Y-84928571D01*
X91000000Y-85023809D01*
X91000000Y-85261904D01*
X90952380Y-85357142D01*
X90904761Y-85404761D01*
X90809523Y-85452380D01*
X90571428Y-85452380D01*
X90476190Y-85404761D01*
X90428571Y-85357142D01*
X91619047Y-84452380D02*
X91714285Y-84452380D01*
X91809523Y-84500000D01*
X91857142Y-84547619D01*
X91904761Y-84642857D01*
X91952380Y-84833333D01*
X91952380Y-85071428D01*
X91904761Y-85261904D01*
X91857142Y-85357142D01*
X91809523Y-85404761D01*
X91714285Y-85452380D01*
X91619047Y-85452380D01*
X91523809Y-85404761D01*
X91476190Y-85357142D01*
X91428571Y-85261904D01*
X91380952Y-85071428D01*
X91380952Y-84833333D01*
X91428571Y-84642857D01*
X91476190Y-84547619D01*
X91523809Y-84500000D01*
X91619047Y-84452380D01*
X78047619Y-84547619D02*
X78095238Y-84500000D01*
X78190476Y-84452380D01*
X78428571Y-84452380D01*
X78523809Y-84500000D01*
X78571428Y-84547619D01*
X78619047Y-84642857D01*
X78619047Y-84738095D01*
X78571428Y-84880952D01*
X78000000Y-85452380D01*
X78619047Y-85452380D01*
X79047619Y-85357142D02*
X79095238Y-85404761D01*
X79047619Y-85452380D01*
X79000000Y-85404761D01*
X79047619Y-85357142D01*
X79047619Y-85452380D01*
X79952380Y-84785714D02*
X79952380Y-85452380D01*
X79714285Y-84404761D02*
X79476190Y-85119047D01*
X80095238Y-85119047D01*
X80666666Y-84452380D02*
X80761904Y-84452380D01*
X80857142Y-84500000D01*
X80904761Y-84547619D01*
X80952380Y-84642857D01*
X81000000Y-84833333D01*
X81000000Y-85071428D01*
X80952380Y-85261904D01*
X80904761Y-85357142D01*
X80857142Y-85404761D01*
X80761904Y-85452380D01*
X80666666Y-85452380D01*
X80571428Y-85404761D01*
X80523809Y-85357142D01*
X80476190Y-85261904D01*
X80428571Y-85071428D01*
X80428571Y-84833333D01*
X80476190Y-84642857D01*
X80523809Y-84547619D01*
X80571428Y-84500000D01*
X80666666Y-84452380D01*
X81619047Y-84452380D02*
X81714285Y-84452380D01*
X81809523Y-84500000D01*
X81857142Y-84547619D01*
X81904761Y-84642857D01*
X81952380Y-84833333D01*
X81952380Y-85071428D01*
X81904761Y-85261904D01*
X81857142Y-85357142D01*
X81809523Y-85404761D01*
X81714285Y-85452380D01*
X81619047Y-85452380D01*
X81523809Y-85404761D01*
X81476190Y-85357142D01*
X81428571Y-85261904D01*
X81380952Y-85071428D01*
X81380952Y-84833333D01*
X81428571Y-84642857D01*
X81476190Y-84547619D01*
X81523809Y-84500000D01*
X81619047Y-84452380D01*
X148047619Y-84547619D02*
X148095238Y-84500000D01*
X148190476Y-84452380D01*
X148428571Y-84452380D01*
X148523809Y-84500000D01*
X148571428Y-84547619D01*
X148619047Y-84642857D01*
X148619047Y-84738095D01*
X148571428Y-84880952D01*
X148000000Y-85452380D01*
X148619047Y-85452380D01*
X149047619Y-85357142D02*
X149095238Y-85404761D01*
X149047619Y-85452380D01*
X149000000Y-85404761D01*
X149047619Y-85357142D01*
X149047619Y-85452380D01*
X149952380Y-84452380D02*
X149761904Y-84452380D01*
X149666666Y-84500000D01*
X149619047Y-84547619D01*
X149523809Y-84690476D01*
X149476190Y-84880952D01*
X149476190Y-85261904D01*
X149523809Y-85357142D01*
X149571428Y-85404761D01*
X149666666Y-85452380D01*
X149857142Y-85452380D01*
X149952380Y-85404761D01*
X150000000Y-85357142D01*
X150047619Y-85261904D01*
X150047619Y-85023809D01*
X150000000Y-84928571D01*
X149952380Y-84880952D01*
X149857142Y-84833333D01*
X149666666Y-84833333D01*
X149571428Y-84880952D01*
X149523809Y-84928571D01*
X149476190Y-85023809D01*
X150952380Y-84452380D02*
X150476190Y-84452380D01*
X150428571Y-84928571D01*
X150476190Y-84880952D01*
X150571428Y-84833333D01*
X150809523Y-84833333D01*
X150904761Y-84880952D01*
X150952380Y-84928571D01*
X151000000Y-85023809D01*
X151000000Y-85261904D01*
X150952380Y-85357142D01*
X150904761Y-85404761D01*
X150809523Y-85452380D01*
X150571428Y-85452380D01*
X150476190Y-85404761D01*
X150428571Y-85357142D01*
X151619047Y-84452380D02*
X151714285Y-84452380D01*
X151809523Y-84500000D01*
X151857142Y-84547619D01*
X151904761Y-84642857D01*
X151952380Y-84833333D01*
X151952380Y-85071428D01*
X151904761Y-85261904D01*
X151857142Y-85357142D01*
X151809523Y-85404761D01*
X151714285Y-85452380D01*
X151619047Y-85452380D01*
X151523809Y-85404761D01*
X151476190Y-85357142D01*
X151428571Y-85261904D01*
X151380952Y-85071428D01*
X151380952Y-84833333D01*
X151428571Y-84642857D01*
X151476190Y-84547619D01*
X151523809Y-84500000D01*
X151619047Y-84452380D01*
X138619047Y-95452380D02*
X138047619Y-95452380D01*
X138333333Y-95452380D02*
X138333333Y-94452380D01*
X138238095Y-94595238D01*
X138142857Y-94690476D01*
X138047619Y-94738095D01*
X139047619Y-95357142D02*
X139095238Y-95404761D01*
X139047619Y-95452380D01*
X139000000Y-95404761D01*
X139047619Y-95357142D01*
X139047619Y-95452380D01*
X139952380Y-94452380D02*
X139761904Y-94452380D01*
X139666666Y-94500000D01*
X139619047Y-94547619D01*
X139523809Y-94690476D01*
X139476190Y-94880952D01*
X139476190Y-95261904D01*
X139523809Y-95357142D01*
X139571428Y-95404761D01*
X139666666Y-95452380D01*
X139857142Y-95452380D01*
X139952380Y-95404761D01*
X140000000Y-95357142D01*
X140047619Y-95261904D01*
X140047619Y-95023809D01*
X140000000Y-94928571D01*
X139952380Y-94880952D01*
X139857142Y-94833333D01*
X139666666Y-94833333D01*
X139571428Y-94880952D01*
X139523809Y-94928571D01*
X139476190Y-95023809D01*
X140666666Y-94452380D02*
X140761904Y-94452380D01*
X140857142Y-94500000D01*
X140904761Y-94547619D01*
X140952380Y-94642857D01*
X141000000Y-94833333D01*
X141000000Y-95071428D01*
X140952380Y-95261904D01*
X140904761Y-95357142D01*
X140857142Y-95404761D01*
X140761904Y-95452380D01*
X140666666Y-95452380D01*
X140571428Y-95404761D01*
X140523809Y-95357142D01*
X140476190Y-95261904D01*
X140428571Y-95071428D01*
X140428571Y-94833333D01*
X140476190Y-94642857D01*
X140523809Y-94547619D01*
X140571428Y-94500000D01*
X140666666Y-94452380D01*
X141619047Y-94452380D02*
X141714285Y-94452380D01*
X141809523Y-94500000D01*
X141857142Y-94547619D01*
X141904761Y-94642857D01*
X141952380Y-94833333D01*
X141952380Y-95071428D01*
X141904761Y-95261904D01*
X141857142Y-95357142D01*
X141809523Y-95404761D01*
X141714285Y-95452380D01*
X141619047Y-95452380D01*
X141523809Y-95404761D01*
X141476190Y-95357142D01*
X141428571Y-95261904D01*
X141380952Y-95071428D01*
X141380952Y-94833333D01*
X141428571Y-94642857D01*
X141476190Y-94547619D01*
X141523809Y-94500000D01*
X141619047Y-94452380D01*
X118619047Y-95452380D02*
X118047619Y-95452380D01*
X118333333Y-95452380D02*
X118333333Y-94452380D01*
X118238095Y-94595238D01*
X118142857Y-94690476D01*
X118047619Y-94738095D01*
X119047619Y-95357142D02*
X119095238Y-95404761D01*
X119047619Y-95452380D01*
X119000000Y-95404761D01*
X119047619Y-95357142D01*
X119047619Y-95452380D01*
X120000000Y-94452380D02*
X119523809Y-94452380D01*
X119476190Y-94928571D01*
X119523809Y-94880952D01*
X119619047Y-94833333D01*
X119857142Y-94833333D01*
X119952380Y-94880952D01*
X120000000Y-94928571D01*
X120047619Y-95023809D01*
X120047619Y-95261904D01*
X120000000Y-95357142D01*
X119952380Y-95404761D01*
X119857142Y-95452380D01*
X119619047Y-95452380D01*
X119523809Y-95404761D01*
X119476190Y-95357142D01*
X120952380Y-94452380D02*
X120476190Y-94452380D01*
X120428571Y-94928571D01*
X120476190Y-94880952D01*
X120571428Y-94833333D01*
X120809523Y-94833333D01*
X120904761Y-94880952D01*
X120952380Y-94928571D01*
X121000000Y-95023809D01*
X121000000Y-95261904D01*
X120952380Y-95357142D01*
X120904761Y-95404761D01*
X120809523Y-95452380D01*
X120571428Y-95452380D01*
X120476190Y-95404761D01*
X120428571Y-95357142D01*
X121619047Y-94452380D02*
X121714285Y-94452380D01*
X121809523Y-94500000D01*
X121857142Y-94547619D01*
X121904761Y-94642857D01*
X121952380Y-94833333D01*
X121952380Y-95071428D01*
X121904761Y-95261904D01*
X121857142Y-95357142D01*
X121809523Y-95404761D01*
X121714285Y-95452380D01*
X121619047Y-95452380D01*
X121523809Y-95404761D01*
X121476190Y-95357142D01*
X121428571Y-95261904D01*
X121380952Y-95071428D01*
X121380952Y-94833333D01*
X121428571Y-94642857D01*
X121476190Y-94547619D01*
X121523809Y-94500000D01*
X121619047Y-94452380D01*
X108619047Y-95452380D02*
X108047619Y-95452380D01*
X108333333Y-95452380D02*
X108333333Y-94452380D01*
X108238095Y-94595238D01*
X108142857Y-94690476D01*
X108047619Y-94738095D01*
X109047619Y-95357142D02*
X109095238Y-95404761D01*
X109047619Y-95452380D01*
X109000000Y-95404761D01*
X109047619Y-95357142D01*
X109047619Y-95452380D01*
X110000000Y-94452380D02*
X109523809Y-94452380D01*
X109476190Y-94928571D01*
X109523809Y-94880952D01*
X109619047Y-94833333D01*
X109857142Y-94833333D01*
X109952380Y-94880952D01*
X110000000Y-94928571D01*
X110047619Y-95023809D01*
X110047619Y-95261904D01*
X110000000Y-95357142D01*
X109952380Y-95404761D01*
X109857142Y-95452380D01*
X109619047Y-95452380D01*
X109523809Y-95404761D01*
X109476190Y-95357142D01*
X110666666Y-94452380D02*
X110761904Y-94452380D01*
X110857142Y-94500000D01*
X110904761Y-94547619D01*
X110952380Y-94642857D01*
X111000000Y-94833333D01*
X111000000Y-95071428D01*
X110952380Y-95261904D01*
X110904761Y-95357142D01*
X110857142Y-95404761D01*
X110761904Y-95452380D01*
X110666666Y-95452380D01*
X110571428Y-95404761D01*
X110523809Y-95357142D01*
X110476190Y-95261904D01*
X110428571Y-95071428D01*
X110428571Y-94833333D01*
X110476190Y-94642857D01*
X110523809Y-94547619D01*
X110571428Y-94500000D01*
X110666666Y-94452380D01*
X111619047Y-94452380D02*
X111714285Y-94452380D01*
X111809523Y-94500000D01*
X111857142Y-94547619D01*
X111904761Y-94642857D01*
X111952380Y-94833333D01*
X111952380Y-95071428D01*
X111904761Y-95261904D01*
X111857142Y-95357142D01*
X111809523Y-95404761D01*
X111714285Y-95452380D01*
X111619047Y-95452380D01*
X111523809Y-95404761D01*
X111476190Y-95357142D01*
X111428571Y-95261904D01*
X111380952Y-95071428D01*
X111380952Y-94833333D01*
X111428571Y-94642857D01*
X111476190Y-94547619D01*
X111523809Y-94500000D01*
X111619047Y-94452380D01*
X98619047Y-95452380D02*
X98047619Y-95452380D01*
X98333333Y-95452380D02*
X98333333Y-94452380D01*
X98238095Y-94595238D01*
X98142857Y-94690476D01*
X98047619Y-94738095D01*
X99047619Y-95357142D02*
X99095238Y-95404761D01*
X99047619Y-95452380D01*
X99000000Y-95404761D01*
X99047619Y-95357142D01*
X99047619Y-95452380D01*
X99952380Y-94785714D02*
X99952380Y-95452380D01*
X99714285Y-94404761D02*
X99476190Y-95119047D01*
X100095238Y-95119047D01*
X100380952Y-94452380D02*
X101047619Y-94452380D01*
X100619047Y-95452380D01*
X101904761Y-94452380D02*
X101428571Y-94452380D01*
X101380952Y-94928571D01*
X101428571Y-94880952D01*
X101523809Y-94833333D01*
X101761904Y-94833333D01*
X101857142Y-94880952D01*
X101904761Y-94928571D01*
X101952380Y-95023809D01*
X101952380Y-95261904D01*
X101904761Y-95357142D01*
X101857142Y-95404761D01*
X101761904Y-95452380D01*
X101523809Y-95452380D01*
X101428571Y-95404761D01*
X101380952Y-95357142D01*
X88619047Y-95452380D02*
X88047619Y-95452380D01*
X88333333Y-95452380D02*
X88333333Y-94452380D01*
X88238095Y-94595238D01*
X88142857Y-94690476D01*
X88047619Y-94738095D01*
X89047619Y-95357142D02*
X89095238Y-95404761D01*
X89047619Y-95452380D01*
X89000000Y-95404761D01*
X89047619Y-95357142D01*
X89047619Y-95452380D01*
X89952380Y-94785714D02*
X89952380Y-95452380D01*
X89714285Y-94404761D02*
X89476190Y-95119047D01*
X90095238Y-95119047D01*
X90952380Y-94452380D02*
X90476190Y-94452380D01*
X90428571Y-94928571D01*
X90476190Y-94880952D01*
X90571428Y-94833333D01*
X90809523Y-94833333D01*
X90904761Y-94880952D01*
X90952380Y-94928571D01*
X91000000Y-95023809D01*
X91000000Y-95261904D01*
X90952380Y-95357142D01*
X90904761Y-95404761D01*
X90809523Y-95452380D01*
X90571428Y-95452380D01*
X90476190Y-95404761D01*
X90428571Y-95357142D01*
X91619047Y-94452380D02*
X91714285Y-94452380D01*
X91809523Y-94500000D01*
X91857142Y-94547619D01*
X91904761Y-94642857D01*
X91952380Y-94833333D01*
X91952380Y-95071428D01*
X91904761Y-95261904D01*
X91857142Y-95357142D01*
X91809523Y-95404761D01*
X91714285Y-95452380D01*
X91619047Y-95452380D01*
X91523809Y-95404761D01*
X91476190Y-95357142D01*
X91428571Y-95261904D01*
X91380952Y-95071428D01*
X91380952Y-94833333D01*
X91428571Y-94642857D01*
X91476190Y-94547619D01*
X91523809Y-94500000D01*
X91619047Y-94452380D01*
X78619047Y-95452380D02*
X78047619Y-95452380D01*
X78333333Y-95452380D02*
X78333333Y-94452380D01*
X78238095Y-94595238D01*
X78142857Y-94690476D01*
X78047619Y-94738095D01*
X79047619Y-95357142D02*
X79095238Y-95404761D01*
X79047619Y-95452380D01*
X79000000Y-95404761D01*
X79047619Y-95357142D01*
X79047619Y-95452380D01*
X79952380Y-94785714D02*
X79952380Y-95452380D01*
X79714285Y-94404761D02*
X79476190Y-95119047D01*
X80095238Y-95119047D01*
X80666666Y-94452380D02*
X80761904Y-94452380D01*
X80857142Y-94500000D01*
X80904761Y-94547619D01*
X80952380Y-94642857D01*
X81000000Y-94833333D01*
X81000000Y-95071428D01*
X80952380Y-95261904D01*
X80904761Y-95357142D01*
X80857142Y-95404761D01*
X80761904Y-95452380D01*
X80666666Y-95452380D01*
X80571428Y-95404761D01*
X80523809Y-95357142D01*
X80476190Y-95261904D01*
X80428571Y-95071428D01*
X80428571Y-94833333D01*
X80476190Y-94642857D01*
X80523809Y-94547619D01*
X80571428Y-94500000D01*
X80666666Y-94452380D01*
X81619047Y-94452380D02*
X81714285Y-94452380D01*
X81809523Y-94500000D01*
X81857142Y-94547619D01*
X81904761Y-94642857D01*
X81952380Y-94833333D01*
X81952380Y-95071428D01*
X81904761Y-95261904D01*
X81857142Y-95357142D01*
X81809523Y-95404761D01*
X81714285Y-95452380D01*
X81619047Y-95452380D01*
X81523809Y-95404761D01*
X81476190Y-95357142D01*
X81428571Y-95261904D01*
X81380952Y-95071428D01*
X81380952Y-94833333D01*
X81428571Y-94642857D01*
X81476190Y-94547619D01*
X81523809Y-94500000D01*
X81619047Y-94452380D01*
X148619047Y-95452380D02*
X148047619Y-95452380D01*
X148333333Y-95452380D02*
X148333333Y-94452380D01*
X148238095Y-94595238D01*
X148142857Y-94690476D01*
X148047619Y-94738095D01*
X149047619Y-95357142D02*
X149095238Y-95404761D01*
X149047619Y-95452380D01*
X149000000Y-95404761D01*
X149047619Y-95357142D01*
X149047619Y-95452380D01*
X149952380Y-94452380D02*
X149761904Y-94452380D01*
X149666666Y-94500000D01*
X149619047Y-94547619D01*
X149523809Y-94690476D01*
X149476190Y-94880952D01*
X149476190Y-95261904D01*
X149523809Y-95357142D01*
X149571428Y-95404761D01*
X149666666Y-95452380D01*
X149857142Y-95452380D01*
X149952380Y-95404761D01*
X150000000Y-95357142D01*
X150047619Y-95261904D01*
X150047619Y-95023809D01*
X150000000Y-94928571D01*
X149952380Y-94880952D01*
X149857142Y-94833333D01*
X149666666Y-94833333D01*
X149571428Y-94880952D01*
X149523809Y-94928571D01*
X149476190Y-95023809D01*
X150952380Y-94452380D02*
X150476190Y-94452380D01*
X150428571Y-94928571D01*
X150476190Y-94880952D01*
X150571428Y-94833333D01*
X150809523Y-94833333D01*
X150904761Y-94880952D01*
X150952380Y-94928571D01*
X151000000Y-95023809D01*
X151000000Y-95261904D01*
X150952380Y-95357142D01*
X150904761Y-95404761D01*
X150809523Y-95452380D01*
X150571428Y-95452380D01*
X150476190Y-95404761D01*
X150428571Y-95357142D01*
X151619047Y-94452380D02*
X151714285Y-94452380D01*
X151809523Y-94500000D01*
X151857142Y-94547619D01*
X151904761Y-94642857D01*
X151952380Y-94833333D01*
X151952380Y-95071428D01*
X151904761Y-95261904D01*
X151857142Y-95357142D01*
X151809523Y-95404761D01*
X151714285Y-95452380D01*
X151619047Y-95452380D01*
X151523809Y-95404761D01*
X151476190Y-95357142D01*
X151428571Y-95261904D01*
X151380952Y-95071428D01*
X151380952Y-94833333D01*
X151428571Y-94642857D01*
X151476190Y-94547619D01*
X151523809Y-94500000D01*
X151619047Y-94452380D01*
X128619047Y-95452380D02*
X128047619Y-95452380D01*
X128333333Y-95452380D02*
X128333333Y-94452380D01*
X128238095Y-94595238D01*
X128142857Y-94690476D01*
X128047619Y-94738095D01*
X129047619Y-95357142D02*
X129095238Y-95404761D01*
X129047619Y-95452380D01*
X129000000Y-95404761D01*
X129047619Y-95357142D01*
X129047619Y-95452380D01*
X130000000Y-94452380D02*
X129523809Y-94452380D01*
X129476190Y-94928571D01*
X129523809Y-94880952D01*
X129619047Y-94833333D01*
X129857142Y-94833333D01*
X129952380Y-94880952D01*
X130000000Y-94928571D01*
X130047619Y-95023809D01*
X130047619Y-95261904D01*
X130000000Y-95357142D01*
X129952380Y-95404761D01*
X129857142Y-95452380D01*
X129619047Y-95452380D01*
X129523809Y-95404761D01*
X129476190Y-95357142D01*
X130380952Y-94452380D02*
X131047619Y-94452380D01*
X130619047Y-95452380D01*
X131904761Y-94452380D02*
X131428571Y-94452380D01*
X131380952Y-94928571D01*
X131428571Y-94880952D01*
X131523809Y-94833333D01*
X131761904Y-94833333D01*
X131857142Y-94880952D01*
X131904761Y-94928571D01*
X131952380Y-95023809D01*
X131952380Y-95261904D01*
X131904761Y-95357142D01*
X131857142Y-95404761D01*
X131761904Y-95452380D01*
X131523809Y-95452380D01*
X131428571Y-95404761D01*
X131380952Y-95357142D01*
D11*
X104857142Y-74904761D02*
X104857142Y-72904761D01*
X104857142Y-73857142D02*
X106000000Y-73857142D01*
X106000000Y-74904761D02*
X106000000Y-72904761D01*
X107238095Y-74904761D02*
X107047619Y-74809523D01*
X106952380Y-74714285D01*
X106857142Y-74523809D01*
X106857142Y-73952380D01*
X106952380Y-73761904D01*
X107047619Y-73666666D01*
X107238095Y-73571428D01*
X107523809Y-73571428D01*
X107714285Y-73666666D01*
X107809523Y-73761904D01*
X107904761Y-73952380D01*
X107904761Y-74523809D01*
X107809523Y-74714285D01*
X107714285Y-74809523D01*
X107523809Y-74904761D01*
X107238095Y-74904761D01*
X109047619Y-74904761D02*
X108857142Y-74809523D01*
X108761904Y-74619047D01*
X108761904Y-72904761D01*
X110571428Y-74809523D02*
X110380952Y-74904761D01*
X110000000Y-74904761D01*
X109809523Y-74809523D01*
X109714285Y-74619047D01*
X109714285Y-73857142D01*
X109809523Y-73666666D01*
X110000000Y-73571428D01*
X110380952Y-73571428D01*
X110571428Y-73666666D01*
X110666666Y-73857142D01*
X110666666Y-74047619D01*
X109714285Y-74238095D01*
X112952380Y-74809523D02*
X113142857Y-74904761D01*
X113523809Y-74904761D01*
X113714285Y-74809523D01*
X113809523Y-74619047D01*
X113809523Y-74523809D01*
X113714285Y-74333333D01*
X113523809Y-74238095D01*
X113238095Y-74238095D01*
X113047619Y-74142857D01*
X112952380Y-73952380D01*
X112952380Y-73857142D01*
X113047619Y-73666666D01*
X113238095Y-73571428D01*
X113523809Y-73571428D01*
X113714285Y-73666666D01*
X114666666Y-74904761D02*
X114666666Y-73571428D01*
X114666666Y-72904761D02*
X114571428Y-73000000D01*
X114666666Y-73095238D01*
X114761904Y-73000000D01*
X114666666Y-72904761D01*
X114666666Y-73095238D01*
X115428571Y-73571428D02*
X116476190Y-73571428D01*
X115428571Y-74904761D01*
X116476190Y-74904761D01*
X118000000Y-74809523D02*
X117809523Y-74904761D01*
X117428571Y-74904761D01*
X117238095Y-74809523D01*
X117142857Y-74619047D01*
X117142857Y-73857142D01*
X117238095Y-73666666D01*
X117428571Y-73571428D01*
X117809523Y-73571428D01*
X118000000Y-73666666D01*
X118095238Y-73857142D01*
X118095238Y-74047619D01*
X117142857Y-74238095D01*
X120190476Y-73571428D02*
X120952380Y-73571428D01*
X120476190Y-72904761D02*
X120476190Y-74619047D01*
X120571428Y-74809523D01*
X120761904Y-74904761D01*
X120952380Y-74904761D01*
X122380952Y-74809523D02*
X122190476Y-74904761D01*
X121809523Y-74904761D01*
X121619047Y-74809523D01*
X121523809Y-74619047D01*
X121523809Y-73857142D01*
X121619047Y-73666666D01*
X121809523Y-73571428D01*
X122190476Y-73571428D01*
X122380952Y-73666666D01*
X122476190Y-73857142D01*
X122476190Y-74047619D01*
X121523809Y-74238095D01*
X123238095Y-74809523D02*
X123428571Y-74904761D01*
X123809523Y-74904761D01*
X124000000Y-74809523D01*
X124095238Y-74619047D01*
X124095238Y-74523809D01*
X124000000Y-74333333D01*
X123809523Y-74238095D01*
X123523809Y-74238095D01*
X123333333Y-74142857D01*
X123238095Y-73952380D01*
X123238095Y-73857142D01*
X123333333Y-73666666D01*
X123523809Y-73571428D01*
X123809523Y-73571428D01*
X124000000Y-73666666D01*
X124666666Y-73571428D02*
X125428571Y-73571428D01*
X124952380Y-72904761D02*
X124952380Y-74619047D01*
X125047619Y-74809523D01*
X125238095Y-74904761D01*
X125428571Y-74904761D01*
D10*
X138047619Y-84547619D02*
X138095238Y-84500000D01*
X138190476Y-84452380D01*
X138428571Y-84452380D01*
X138523809Y-84500000D01*
X138571428Y-84547619D01*
X138619047Y-84642857D01*
X138619047Y-84738095D01*
X138571428Y-84880952D01*
X138000000Y-85452380D01*
X138619047Y-85452380D01*
X139047619Y-85357142D02*
X139095238Y-85404761D01*
X139047619Y-85452380D01*
X139000000Y-85404761D01*
X139047619Y-85357142D01*
X139047619Y-85452380D01*
X139952380Y-84452380D02*
X139761904Y-84452380D01*
X139666666Y-84500000D01*
X139619047Y-84547619D01*
X139523809Y-84690476D01*
X139476190Y-84880952D01*
X139476190Y-85261904D01*
X139523809Y-85357142D01*
X139571428Y-85404761D01*
X139666666Y-85452380D01*
X139857142Y-85452380D01*
X139952380Y-85404761D01*
X140000000Y-85357142D01*
X140047619Y-85261904D01*
X140047619Y-85023809D01*
X140000000Y-84928571D01*
X139952380Y-84880952D01*
X139857142Y-84833333D01*
X139666666Y-84833333D01*
X139571428Y-84880952D01*
X139523809Y-84928571D01*
X139476190Y-85023809D01*
X140666666Y-84452380D02*
X140761904Y-84452380D01*
X140857142Y-84500000D01*
X140904761Y-84547619D01*
X140952380Y-84642857D01*
X141000000Y-84833333D01*
X141000000Y-85071428D01*
X140952380Y-85261904D01*
X140904761Y-85357142D01*
X140857142Y-85404761D01*
X140761904Y-85452380D01*
X140666666Y-85452380D01*
X140571428Y-85404761D01*
X140523809Y-85357142D01*
X140476190Y-85261904D01*
X140428571Y-85071428D01*
X140428571Y-84833333D01*
X140476190Y-84642857D01*
X140523809Y-84547619D01*
X140571428Y-84500000D01*
X140666666Y-84452380D01*
X141619047Y-84452380D02*
X141714285Y-84452380D01*
X141809523Y-84500000D01*
X141857142Y-84547619D01*
X141904761Y-84642857D01*
X141952380Y-84833333D01*
X141952380Y-85071428D01*
X141904761Y-85261904D01*
X141857142Y-85357142D01*
X141809523Y-85404761D01*
X141714285Y-85452380D01*
X141619047Y-85452380D01*
X141523809Y-85404761D01*
X141476190Y-85357142D01*
X141428571Y-85261904D01*
X141380952Y-85071428D01*
X141380952Y-84833333D01*
X141428571Y-84642857D01*
X141476190Y-84547619D01*
X141523809Y-84500000D01*
X141619047Y-84452380D01*
X128047619Y-84547619D02*
X128095238Y-84500000D01*
X128190476Y-84452380D01*
X128428571Y-84452380D01*
X128523809Y-84500000D01*
X128571428Y-84547619D01*
X128619047Y-84642857D01*
X128619047Y-84738095D01*
X128571428Y-84880952D01*
X128000000Y-85452380D01*
X128619047Y-85452380D01*
X129047619Y-85357142D02*
X129095238Y-85404761D01*
X129047619Y-85452380D01*
X129000000Y-85404761D01*
X129047619Y-85357142D01*
X129047619Y-85452380D01*
X130000000Y-84452380D02*
X129523809Y-84452380D01*
X129476190Y-84928571D01*
X129523809Y-84880952D01*
X129619047Y-84833333D01*
X129857142Y-84833333D01*
X129952380Y-84880952D01*
X130000000Y-84928571D01*
X130047619Y-85023809D01*
X130047619Y-85261904D01*
X130000000Y-85357142D01*
X129952380Y-85404761D01*
X129857142Y-85452380D01*
X129619047Y-85452380D01*
X129523809Y-85404761D01*
X129476190Y-85357142D01*
X130380952Y-84452380D02*
X131047619Y-84452380D01*
X130619047Y-85452380D01*
X131904761Y-84452380D02*
X131428571Y-84452380D01*
X131380952Y-84928571D01*
X131428571Y-84880952D01*
X131523809Y-84833333D01*
X131761904Y-84833333D01*
X131857142Y-84880952D01*
X131904761Y-84928571D01*
X131952380Y-85023809D01*
X131952380Y-85261904D01*
X131904761Y-85357142D01*
X131857142Y-85404761D01*
X131761904Y-85452380D01*
X131523809Y-85452380D01*
X131428571Y-85404761D01*
X131380952Y-85357142D01*
X118047619Y-84547619D02*
X118095238Y-84500000D01*
X118190476Y-84452380D01*
X118428571Y-84452380D01*
X118523809Y-84500000D01*
X118571428Y-84547619D01*
X118619047Y-84642857D01*
X118619047Y-84738095D01*
X118571428Y-84880952D01*
X118000000Y-85452380D01*
X118619047Y-85452380D01*
X119047619Y-85357142D02*
X119095238Y-85404761D01*
X119047619Y-85452380D01*
X119000000Y-85404761D01*
X119047619Y-85357142D01*
X119047619Y-85452380D01*
X120000000Y-84452380D02*
X119523809Y-84452380D01*
X119476190Y-84928571D01*
X119523809Y-84880952D01*
X119619047Y-84833333D01*
X119857142Y-84833333D01*
X119952380Y-84880952D01*
X120000000Y-84928571D01*
X120047619Y-85023809D01*
X120047619Y-85261904D01*
X120000000Y-85357142D01*
X119952380Y-85404761D01*
X119857142Y-85452380D01*
X119619047Y-85452380D01*
X119523809Y-85404761D01*
X119476190Y-85357142D01*
X120952380Y-84452380D02*
X120476190Y-84452380D01*
X120428571Y-84928571D01*
X120476190Y-84880952D01*
X120571428Y-84833333D01*
X120809523Y-84833333D01*
X120904761Y-84880952D01*
X120952380Y-84928571D01*
X121000000Y-85023809D01*
X121000000Y-85261904D01*
X120952380Y-85357142D01*
X120904761Y-85404761D01*
X120809523Y-85452380D01*
X120571428Y-85452380D01*
X120476190Y-85404761D01*
X120428571Y-85357142D01*
X121619047Y-84452380D02*
X121714285Y-84452380D01*
X121809523Y-84500000D01*
X121857142Y-84547619D01*
X121904761Y-84642857D01*
X121952380Y-84833333D01*
X121952380Y-85071428D01*
X121904761Y-85261904D01*
X121857142Y-85357142D01*
X121809523Y-85404761D01*
X121714285Y-85452380D01*
X121619047Y-85452380D01*
X121523809Y-85404761D01*
X121476190Y-85357142D01*
X121428571Y-85261904D01*
X121380952Y-85071428D01*
X121380952Y-84833333D01*
X121428571Y-84642857D01*
X121476190Y-84547619D01*
X121523809Y-84500000D01*
X121619047Y-84452380D01*
X108047619Y-84547619D02*
X108095238Y-84500000D01*
X108190476Y-84452380D01*
X108428571Y-84452380D01*
X108523809Y-84500000D01*
X108571428Y-84547619D01*
X108619047Y-84642857D01*
X108619047Y-84738095D01*
X108571428Y-84880952D01*
X108000000Y-85452380D01*
X108619047Y-85452380D01*
X109047619Y-85357142D02*
X109095238Y-85404761D01*
X109047619Y-85452380D01*
X109000000Y-85404761D01*
X109047619Y-85357142D01*
X109047619Y-85452380D01*
X110000000Y-84452380D02*
X109523809Y-84452380D01*
X109476190Y-84928571D01*
X109523809Y-84880952D01*
X109619047Y-84833333D01*
X109857142Y-84833333D01*
X109952380Y-84880952D01*
X110000000Y-84928571D01*
X110047619Y-85023809D01*
X110047619Y-85261904D01*
X110000000Y-85357142D01*
X109952380Y-85404761D01*
X109857142Y-85452380D01*
X109619047Y-85452380D01*
X109523809Y-85404761D01*
X109476190Y-85357142D01*
X110666666Y-84452380D02*
X110761904Y-84452380D01*
X110857142Y-84500000D01*
X110904761Y-84547619D01*
X110952380Y-84642857D01*
X111000000Y-84833333D01*
X111000000Y-85071428D01*
X110952380Y-85261904D01*
X110904761Y-85357142D01*
X110857142Y-85404761D01*
X110761904Y-85452380D01*
X110666666Y-85452380D01*
X110571428Y-85404761D01*
X110523809Y-85357142D01*
X110476190Y-85261904D01*
X110428571Y-85071428D01*
X110428571Y-84833333D01*
X110476190Y-84642857D01*
X110523809Y-84547619D01*
X110571428Y-84500000D01*
X110666666Y-84452380D01*
X111619047Y-84452380D02*
X111714285Y-84452380D01*
X111809523Y-84500000D01*
X111857142Y-84547619D01*
X111904761Y-84642857D01*
X111952380Y-84833333D01*
X111952380Y-85071428D01*
X111904761Y-85261904D01*
X111857142Y-85357142D01*
X111809523Y-85404761D01*
X111714285Y-85452380D01*
X111619047Y-85452380D01*
X111523809Y-85404761D01*
X111476190Y-85357142D01*
X111428571Y-85261904D01*
X111380952Y-85071428D01*
X111380952Y-84833333D01*
X111428571Y-84642857D01*
X111476190Y-84547619D01*
X111523809Y-84500000D01*
X111619047Y-84452380D01*
D12*
G36*
X76000000Y-94000000D02*
G01*
X71000000Y-94000000D01*
X71000000Y-78000000D01*
X76000000Y-78000000D01*
X76000000Y-94000000D01*
G37*
X76000000Y-94000000D02*
X71000000Y-94000000D01*
X71000000Y-78000000D01*
X76000000Y-78000000D01*
X76000000Y-94000000D01*
%LPC*%
M02*
