G04 #@! TF.GenerationSoftware,KiCad,Pcbnew,5.1.9+dfsg1-1+deb11u1*
G04 #@! TF.CreationDate,2023-07-28T22:37:02+09:00*
G04 #@! TF.ProjectId,z-tesioner-rf,7a2d7465-7369-46f6-9e65-722d72662e6b,rev?*
G04 #@! TF.SameCoordinates,Original*
G04 #@! TF.FileFunction,Copper,L2,Bot*
G04 #@! TF.FilePolarity,Positive*
%FSLAX46Y46*%
G04 Gerber Fmt 4.6, Leading zero omitted, Abs format (unit mm)*
G04 Created by KiCad (PCBNEW 5.1.9+dfsg1-1+deb11u1) date 2023-07-28 22:37:02*
%MOMM*%
%LPD*%
G01*
G04 APERTURE LIST*
G04 #@! TA.AperFunction,NonConductor*
%ADD10C,0.254000*%
G04 #@! TD*
G04 #@! TA.AperFunction,NonConductor*
%ADD11C,0.100000*%
G04 #@! TD*
G04 APERTURE END LIST*
D10*
X165651224Y-62255381D02*
X165714157Y-62274381D01*
X165772200Y-62305243D01*
X165847367Y-62366548D01*
X168217659Y-64736840D01*
X168279906Y-64812620D01*
X168310969Y-64870554D01*
X168330190Y-64933423D01*
X168340001Y-65030011D01*
X168340000Y-123139311D01*
X168330419Y-123237024D01*
X168311418Y-123299958D01*
X168280555Y-123358002D01*
X168219253Y-123433166D01*
X165848960Y-125803459D01*
X165773182Y-125865704D01*
X165715246Y-125896770D01*
X165652378Y-125915990D01*
X165555799Y-125925800D01*
X118032279Y-125925800D01*
X117546106Y-125878130D01*
X117109503Y-125746312D01*
X116706814Y-125532199D01*
X116353387Y-125243950D01*
X116062673Y-124892539D01*
X115845760Y-124491364D01*
X115710894Y-124055686D01*
X115660000Y-123571464D01*
X115660000Y-118872123D01*
X159330497Y-118872123D01*
X159330497Y-119299477D01*
X159413870Y-119718621D01*
X159577412Y-120113445D01*
X159814837Y-120468777D01*
X160117023Y-120770963D01*
X160472355Y-121008388D01*
X160867179Y-121171930D01*
X161286323Y-121255303D01*
X161713677Y-121255303D01*
X162132821Y-121171930D01*
X162527645Y-121008388D01*
X162882977Y-120770963D01*
X163185163Y-120468777D01*
X163422588Y-120113445D01*
X163586130Y-119718621D01*
X163669503Y-119299477D01*
X163669503Y-118872123D01*
X163586130Y-118452979D01*
X163422588Y-118058155D01*
X163185163Y-117702823D01*
X162882977Y-117400637D01*
X162527645Y-117163212D01*
X162132821Y-116999670D01*
X161713677Y-116916297D01*
X161286323Y-116916297D01*
X160867179Y-116999670D01*
X160472355Y-117163212D01*
X160117023Y-117400637D01*
X159814837Y-117702823D01*
X159577412Y-118058155D01*
X159413870Y-118452979D01*
X159330497Y-118872123D01*
X115660000Y-118872123D01*
X115660000Y-113725097D01*
X123837720Y-113725097D01*
X123837720Y-114446503D01*
X123978460Y-115154048D01*
X124254530Y-115820540D01*
X124655322Y-116420367D01*
X125165433Y-116930478D01*
X125765260Y-117331270D01*
X126431752Y-117607340D01*
X127139297Y-117748080D01*
X127860703Y-117748080D01*
X128568248Y-117607340D01*
X129234740Y-117331270D01*
X129834567Y-116930478D01*
X130344678Y-116420367D01*
X130745470Y-115820540D01*
X131021540Y-115154048D01*
X131162280Y-114446503D01*
X131162280Y-113725097D01*
X131021540Y-113017552D01*
X130745470Y-112351060D01*
X130344678Y-111751233D01*
X129834567Y-111241122D01*
X129234740Y-110840330D01*
X128568248Y-110564260D01*
X127860703Y-110423520D01*
X127139297Y-110423520D01*
X126431752Y-110564260D01*
X125765260Y-110840330D01*
X125165433Y-111241122D01*
X124655322Y-111751233D01*
X124254530Y-112351060D01*
X123978460Y-113017552D01*
X123837720Y-113725097D01*
X115660000Y-113725097D01*
X115660000Y-93774105D01*
X148335313Y-93774105D01*
X148335313Y-94397495D01*
X148456930Y-95008905D01*
X148695490Y-95584842D01*
X149041827Y-96103171D01*
X149482629Y-96543973D01*
X150000958Y-96890310D01*
X150576895Y-97128870D01*
X151188305Y-97250487D01*
X151811695Y-97250487D01*
X152423105Y-97128870D01*
X152999042Y-96890310D01*
X153517371Y-96543973D01*
X153958173Y-96103171D01*
X154304510Y-95584842D01*
X154543070Y-95008905D01*
X154664687Y-94397495D01*
X154664687Y-93774105D01*
X154543070Y-93162695D01*
X154304510Y-92586758D01*
X153958173Y-92068429D01*
X153517371Y-91627627D01*
X152999042Y-91281290D01*
X152423105Y-91042730D01*
X151811695Y-90921113D01*
X151188305Y-90921113D01*
X150576895Y-91042730D01*
X150000958Y-91281290D01*
X149482629Y-91627627D01*
X149041827Y-92068429D01*
X148695490Y-92586758D01*
X148456930Y-93162695D01*
X148335313Y-93774105D01*
X115660000Y-93774105D01*
X115660000Y-73725097D01*
X123837720Y-73725097D01*
X123837720Y-74446503D01*
X123978460Y-75154048D01*
X124254530Y-75820540D01*
X124655322Y-76420367D01*
X125165433Y-76930478D01*
X125765260Y-77331270D01*
X126431752Y-77607340D01*
X127139297Y-77748080D01*
X127860703Y-77748080D01*
X128568248Y-77607340D01*
X129234740Y-77331270D01*
X129834567Y-76930478D01*
X130344678Y-76420367D01*
X130745470Y-75820540D01*
X131021540Y-75154048D01*
X131162280Y-74446503D01*
X131162280Y-73725097D01*
X131021540Y-73017552D01*
X130745470Y-72351060D01*
X130344678Y-71751233D01*
X129834567Y-71241122D01*
X129234740Y-70840330D01*
X128568248Y-70564260D01*
X127860703Y-70423520D01*
X127139297Y-70423520D01*
X126431752Y-70564260D01*
X125765260Y-70840330D01*
X125165433Y-71241122D01*
X124655322Y-71751233D01*
X124254530Y-72351060D01*
X123978460Y-73017552D01*
X123837720Y-73725097D01*
X115660000Y-73725097D01*
X115660000Y-68872123D01*
X159330497Y-68872123D01*
X159330497Y-69299477D01*
X159413870Y-69718621D01*
X159577412Y-70113445D01*
X159814837Y-70468777D01*
X160117023Y-70770963D01*
X160472355Y-71008388D01*
X160867179Y-71171930D01*
X161286323Y-71255303D01*
X161713677Y-71255303D01*
X162132821Y-71171930D01*
X162527645Y-71008388D01*
X162882977Y-70770963D01*
X163185163Y-70468777D01*
X163422588Y-70113445D01*
X163586130Y-69718621D01*
X163669503Y-69299477D01*
X163669503Y-68872123D01*
X163586130Y-68452979D01*
X163422588Y-68058155D01*
X163185163Y-67702823D01*
X162882977Y-67400637D01*
X162527645Y-67163212D01*
X162132821Y-66999670D01*
X161713677Y-66916297D01*
X161286323Y-66916297D01*
X160867179Y-66999670D01*
X160472355Y-67163212D01*
X160117023Y-67400637D01*
X159814837Y-67702823D01*
X159577412Y-68058155D01*
X159413870Y-68452979D01*
X159330497Y-68872123D01*
X115660000Y-68872123D01*
X115660000Y-64618079D01*
X115707670Y-64131907D01*
X115839489Y-63695302D01*
X116053600Y-63292615D01*
X116341848Y-62939188D01*
X116693261Y-62648473D01*
X117094439Y-62431558D01*
X117530113Y-62296694D01*
X118014344Y-62245800D01*
X165553511Y-62245800D01*
X165651224Y-62255381D01*
G04 #@! TA.AperFunction,NonConductor*
D11*
G36*
X165651224Y-62255381D02*
G01*
X165714157Y-62274381D01*
X165772200Y-62305243D01*
X165847367Y-62366548D01*
X168217659Y-64736840D01*
X168279906Y-64812620D01*
X168310969Y-64870554D01*
X168330190Y-64933423D01*
X168340001Y-65030011D01*
X168340000Y-123139311D01*
X168330419Y-123237024D01*
X168311418Y-123299958D01*
X168280555Y-123358002D01*
X168219253Y-123433166D01*
X165848960Y-125803459D01*
X165773182Y-125865704D01*
X165715246Y-125896770D01*
X165652378Y-125915990D01*
X165555799Y-125925800D01*
X118032279Y-125925800D01*
X117546106Y-125878130D01*
X117109503Y-125746312D01*
X116706814Y-125532199D01*
X116353387Y-125243950D01*
X116062673Y-124892539D01*
X115845760Y-124491364D01*
X115710894Y-124055686D01*
X115660000Y-123571464D01*
X115660000Y-118872123D01*
X159330497Y-118872123D01*
X159330497Y-119299477D01*
X159413870Y-119718621D01*
X159577412Y-120113445D01*
X159814837Y-120468777D01*
X160117023Y-120770963D01*
X160472355Y-121008388D01*
X160867179Y-121171930D01*
X161286323Y-121255303D01*
X161713677Y-121255303D01*
X162132821Y-121171930D01*
X162527645Y-121008388D01*
X162882977Y-120770963D01*
X163185163Y-120468777D01*
X163422588Y-120113445D01*
X163586130Y-119718621D01*
X163669503Y-119299477D01*
X163669503Y-118872123D01*
X163586130Y-118452979D01*
X163422588Y-118058155D01*
X163185163Y-117702823D01*
X162882977Y-117400637D01*
X162527645Y-117163212D01*
X162132821Y-116999670D01*
X161713677Y-116916297D01*
X161286323Y-116916297D01*
X160867179Y-116999670D01*
X160472355Y-117163212D01*
X160117023Y-117400637D01*
X159814837Y-117702823D01*
X159577412Y-118058155D01*
X159413870Y-118452979D01*
X159330497Y-118872123D01*
X115660000Y-118872123D01*
X115660000Y-113725097D01*
X123837720Y-113725097D01*
X123837720Y-114446503D01*
X123978460Y-115154048D01*
X124254530Y-115820540D01*
X124655322Y-116420367D01*
X125165433Y-116930478D01*
X125765260Y-117331270D01*
X126431752Y-117607340D01*
X127139297Y-117748080D01*
X127860703Y-117748080D01*
X128568248Y-117607340D01*
X129234740Y-117331270D01*
X129834567Y-116930478D01*
X130344678Y-116420367D01*
X130745470Y-115820540D01*
X131021540Y-115154048D01*
X131162280Y-114446503D01*
X131162280Y-113725097D01*
X131021540Y-113017552D01*
X130745470Y-112351060D01*
X130344678Y-111751233D01*
X129834567Y-111241122D01*
X129234740Y-110840330D01*
X128568248Y-110564260D01*
X127860703Y-110423520D01*
X127139297Y-110423520D01*
X126431752Y-110564260D01*
X125765260Y-110840330D01*
X125165433Y-111241122D01*
X124655322Y-111751233D01*
X124254530Y-112351060D01*
X123978460Y-113017552D01*
X123837720Y-113725097D01*
X115660000Y-113725097D01*
X115660000Y-93774105D01*
X148335313Y-93774105D01*
X148335313Y-94397495D01*
X148456930Y-95008905D01*
X148695490Y-95584842D01*
X149041827Y-96103171D01*
X149482629Y-96543973D01*
X150000958Y-96890310D01*
X150576895Y-97128870D01*
X151188305Y-97250487D01*
X151811695Y-97250487D01*
X152423105Y-97128870D01*
X152999042Y-96890310D01*
X153517371Y-96543973D01*
X153958173Y-96103171D01*
X154304510Y-95584842D01*
X154543070Y-95008905D01*
X154664687Y-94397495D01*
X154664687Y-93774105D01*
X154543070Y-93162695D01*
X154304510Y-92586758D01*
X153958173Y-92068429D01*
X153517371Y-91627627D01*
X152999042Y-91281290D01*
X152423105Y-91042730D01*
X151811695Y-90921113D01*
X151188305Y-90921113D01*
X150576895Y-91042730D01*
X150000958Y-91281290D01*
X149482629Y-91627627D01*
X149041827Y-92068429D01*
X148695490Y-92586758D01*
X148456930Y-93162695D01*
X148335313Y-93774105D01*
X115660000Y-93774105D01*
X115660000Y-73725097D01*
X123837720Y-73725097D01*
X123837720Y-74446503D01*
X123978460Y-75154048D01*
X124254530Y-75820540D01*
X124655322Y-76420367D01*
X125165433Y-76930478D01*
X125765260Y-77331270D01*
X126431752Y-77607340D01*
X127139297Y-77748080D01*
X127860703Y-77748080D01*
X128568248Y-77607340D01*
X129234740Y-77331270D01*
X129834567Y-76930478D01*
X130344678Y-76420367D01*
X130745470Y-75820540D01*
X131021540Y-75154048D01*
X131162280Y-74446503D01*
X131162280Y-73725097D01*
X131021540Y-73017552D01*
X130745470Y-72351060D01*
X130344678Y-71751233D01*
X129834567Y-71241122D01*
X129234740Y-70840330D01*
X128568248Y-70564260D01*
X127860703Y-70423520D01*
X127139297Y-70423520D01*
X126431752Y-70564260D01*
X125765260Y-70840330D01*
X125165433Y-71241122D01*
X124655322Y-71751233D01*
X124254530Y-72351060D01*
X123978460Y-73017552D01*
X123837720Y-73725097D01*
X115660000Y-73725097D01*
X115660000Y-68872123D01*
X159330497Y-68872123D01*
X159330497Y-69299477D01*
X159413870Y-69718621D01*
X159577412Y-70113445D01*
X159814837Y-70468777D01*
X160117023Y-70770963D01*
X160472355Y-71008388D01*
X160867179Y-71171930D01*
X161286323Y-71255303D01*
X161713677Y-71255303D01*
X162132821Y-71171930D01*
X162527645Y-71008388D01*
X162882977Y-70770963D01*
X163185163Y-70468777D01*
X163422588Y-70113445D01*
X163586130Y-69718621D01*
X163669503Y-69299477D01*
X163669503Y-68872123D01*
X163586130Y-68452979D01*
X163422588Y-68058155D01*
X163185163Y-67702823D01*
X162882977Y-67400637D01*
X162527645Y-67163212D01*
X162132821Y-66999670D01*
X161713677Y-66916297D01*
X161286323Y-66916297D01*
X160867179Y-66999670D01*
X160472355Y-67163212D01*
X160117023Y-67400637D01*
X159814837Y-67702823D01*
X159577412Y-68058155D01*
X159413870Y-68452979D01*
X159330497Y-68872123D01*
X115660000Y-68872123D01*
X115660000Y-64618079D01*
X115707670Y-64131907D01*
X115839489Y-63695302D01*
X116053600Y-63292615D01*
X116341848Y-62939188D01*
X116693261Y-62648473D01*
X117094439Y-62431558D01*
X117530113Y-62296694D01*
X118014344Y-62245800D01*
X165553511Y-62245800D01*
X165651224Y-62255381D01*
G37*
G04 #@! TD.AperFunction*
M02*
