G04 #@! TF.GenerationSoftware,KiCad,Pcbnew,5.1.9+dfsg1-1+deb11u1*
G04 #@! TF.CreationDate,2023-07-28T22:22:45+09:00*
G04 #@! TF.ProjectId,y-carrier,792d6361-7272-4696-9572-2e6b69636164,rev?*
G04 #@! TF.SameCoordinates,Original*
G04 #@! TF.FileFunction,Profile,NP*
%FSLAX46Y46*%
G04 Gerber Fmt 4.6, Leading zero omitted, Abs format (unit mm)*
G04 Created by KiCad (PCBNEW 5.1.9+dfsg1-1+deb11u1) date 2023-07-28 22:22:45*
%MOMM*%
%LPD*%
G01*
G04 APERTURE LIST*
G04 #@! TA.AperFunction,Profile*
%ADD10C,0.050000*%
G04 #@! TD*
G04 APERTURE END LIST*
D10*
X171426500Y-85050000D02*
G75*
G03*
X171426500Y-85050000I-2500000J0D01*
G01*
X191176500Y-72550000D02*
G75*
G02*
X192176500Y-73550000I0J-1000000D01*
G01*
X109176500Y-77050000D02*
X109176500Y-118000000D01*
X111176500Y-120000000D02*
X167000000Y-120000000D01*
X167626500Y-76300000D02*
G75*
G02*
X166626500Y-75300000I0J1000000D01*
G01*
X186726500Y-73550000D02*
G75*
G02*
X187726500Y-72550000I1000000J0D01*
G01*
X192176499Y-94638024D02*
G75*
G02*
X191886304Y-95342422I-999999J0D01*
G01*
X109176500Y-77050000D02*
G75*
G02*
X111176500Y-75050000I2000000J0D01*
G01*
X111176500Y-75050000D02*
X160176500Y-75050000D01*
X161176500Y-73550000D02*
G75*
G02*
X162176500Y-72550000I1000000J0D01*
G01*
X191176500Y-72550000D02*
X187726500Y-72550000D01*
X137676500Y-82550000D02*
G75*
G03*
X137676500Y-82550000I-1500000J0D01*
G01*
X115176500Y-87000000D02*
G75*
G03*
X115176500Y-87000000I-1500000J0D01*
G01*
X166626500Y-73550000D02*
X166626500Y-75300000D01*
X148676500Y-99050000D02*
G75*
G03*
X148676500Y-99050000I-2500000J0D01*
G01*
X167709800Y-119704400D02*
X191886300Y-95342423D01*
X167626500Y-76300000D02*
X185726500Y-76300000D01*
X137676500Y-112500000D02*
G75*
G03*
X137676500Y-112500000I-1500000J0D01*
G01*
X186926500Y-85050000D02*
G75*
G03*
X186926500Y-85050000I-2500000J0D01*
G01*
X130176500Y-87000000D02*
G75*
G03*
X130176500Y-87000000I-1500000J0D01*
G01*
X161416500Y-111789999D02*
G75*
G03*
X161416500Y-111789999I-2500000J0D01*
G01*
X161176500Y-73550000D02*
X161176500Y-74050000D01*
X186726500Y-75300000D02*
X186726500Y-73550000D01*
X111176500Y-120000000D02*
G75*
G02*
X109176500Y-118000000I0J2000000D01*
G01*
X181676500Y-99050000D02*
G75*
G03*
X181676500Y-99050000I-1500000J0D01*
G01*
X165626500Y-72550000D02*
G75*
G02*
X166626500Y-73550000I0J-1000000D01*
G01*
X130176500Y-103000000D02*
G75*
G03*
X130176500Y-103000000I-1500000J0D01*
G01*
X186726500Y-75300000D02*
G75*
G02*
X185726500Y-76300000I-1000000J0D01*
G01*
X161176500Y-74050000D02*
G75*
G02*
X160176500Y-75050000I-1000000J0D01*
G01*
X115176500Y-103000000D02*
G75*
G03*
X115176500Y-103000000I-1500000J0D01*
G01*
X192176500Y-73550000D02*
X192176500Y-94638024D01*
X165626500Y-72550000D02*
X162176500Y-72550000D01*
X153676500Y-85050000D02*
G75*
G03*
X153676500Y-85050000I-2500000J0D01*
G01*
X167709804Y-119704399D02*
G75*
G02*
X167000000Y-120000000I-709804J704399D01*
G01*
M02*
