999
"DXF R12 Output" (www.mydxf.blogspot.com)
 0 
SECTION
 2 
HEADER
 9 
$ACADVER
 1 
AC1009
 9 
$EXTMIN
 10 
 0 
 20 
 0 
 9 
$EXTMAX
 10 
 8.5 
 20 
 11 
 0 
ENDSEC
 0 
SECTION
 2 
ENTITIES
0
LINE
8
Layer 1
10
0.846666
20
84.666700
11
-0.846666
21
82.973300
0
LINE
8
Layer 1
10
0.000000
20
85.231100
11
0.000000
21
82.408900
0
LINE
8
Layer 1
10
2.257780
20
82.691100
11
1.128890
21
81.562210
0
LINE
8
Layer 1
10
1.693330
20
83.255600
11
0.564440
21
82.126710
0
LINE
8
Layer 1
10
1.128890
20
83.820000
11
0.000000
21
82.691110
0
LINE
8
Layer 1
10
0.846666
20
84.666700
11
-0.846666
21
82.973300
0
LINE
8
Layer 1
10
0.000000
20
85.231100
11
0.000000
21
82.408900
0
LINE
8
Layer 1
10
2.257780
20
82.691100
11
1.128890
21
81.562210
0
LINE
8
Layer 1
10
1.693330
20
83.255600
11
0.564440
21
82.126710
0
LINE
8
Layer 1
10
1.128890
20
83.820000
11
0.000000
21
82.691110
0
LINE
8
0
10
-106667000000000000000.000000
20
-106667000000000000000.000000
11
-106667000000000000000.000000
21
-106667000000000000000.000000
0
LINE
8
0
10
-106667000000000000000.000000
20
-106667000000000000000.000000
11
-106667000000000000000.000000
21
-106667000000000000000.000000
0
LINE
8
0
10
-106667000000000000000.000000
20
-106667000000000000000.000000
11
-106667000000000000000.000000
21
-106667000000000000000.000000
0
LINE
8
0
10
-106667000000000000000.000000
20
-106667000000000000000.000000
11
-106667000000000000000.000000
21
-106667000000000000000.000000
0
LINE
8
0
10
-106667000000000000000.000000
20
-106667000000000000000.000000
11
-106667000000000000000.000000
21
-106667000000000000000.000000
0
LINE
8
0
10
-106667000000000000000.000000
20
-106667000000000000000.000000
11
-106667000000000000000.000000
21
-106667000000000000000.000000
0
LINE
8
0
10
-106667000000000000000.000000
20
-106667000000000000000.000000
11
-106667000000000000000.000000
21
-106667000000000000000.000000
0
LINE
8
0
10
-106667000000000000000.000000
20
-106667000000000000000.000000
11
-106667000000000000000.000000
21
-106667000000000000000.000000
0
LINE
8
0
10
-106667000000000000000.000000
20
-106667000000000000000.000000
11
-106667000000000000000.000000
21
-106667000000000000000.000000
0
LINE
8
0
10
-106667000000000000000.000000
20
-106667000000000000000.000000
11
-106667000000000000000.000000
21
-106667000000000000000.000000
0
LINE
8
0
10
-106667000000000000000.000000
20
-106667000000000000000.000000
11
-106667000000000000000.000000
21
-106667000000000000000.000000
0
LINE
8
0
10
-106667000000000000000.000000
20
-106667000000000000000.000000
11
-106667000000000000000.000000
21
-106667000000000000000.000000
0
LINE
8
0
10
-106667000000000000000.000000
20
-106667000000000000000.000000
11
-106667000000000000000.000000
21
-106667000000000000000.000000
0
LINE
8
0
10
-106667000000000000000.000000
20
-106667000000000000000.000000
11
-106667000000000000000.000000
21
-106667000000000000000.000000
0
LINE
8
0
10
-106667000000000000000.000000
20
-106667000000000000000.000000
11
-106667000000000000000.000000
21
-106667000000000000000.000000
0
LINE
8
0
10
-106667000000000000000.000000
20
-106667000000000000000.000000
11
-106667000000000000000.000000
21
-106667000000000000000.000000
0
LINE
8
0
10
-106667000000000000000.000000
20
-106667000000000000000.000000
11
-106667000000000000000.000000
21
-106667000000000000000.000000
0
LINE
8
0
10
-106667000000000000000.000000
20
-106667000000000000000.000000
11
-106667000000000000000.000000
21
-106667000000000000000.000000
0
LINE
8
0
10
-106667000000000000000.000000
20
-106667000000000000000.000000
11
-106667000000000000000.000000
21
-106667000000000000000.000000
0
LINE
8
0
10
-106667000000000000000.000000
20
-106667000000000000000.000000
11
-106667000000000000000.000000
21
-106667000000000000000.000000
0
LINE
8
0
10
-106667000000000000000.000000
20
-106667000000000000000.000000
11
-106667000000000000000.000000
21
-106667000000000000000.000000
0
LINE
8
0
10
-106667000000000000000.000000
20
-106667000000000000000.000000
11
-106667000000000000000.000000
21
-106667000000000000000.000000
0
LINE
8
0
10
-106667000000000000000.000000
20
-106667000000000000000.000000
11
-106667000000000000000.000000
21
-106667000000000000000.000000
0
LINE
8
0
10
-106667000000000000000.000000
20
-106667000000000000000.000000
11
-106667000000000000000.000000
21
-106667000000000000000.000000
0
LINE
8
0
10
-106667000000000000000.000000
20
-106667000000000000000.000000
11
-106667000000000000000.000000
21
-106667000000000000000.000000
0
LINE
8
0
10
-106667000000000000000.000000
20
-106667000000000000000.000000
11
-106667000000000000000.000000
21
-106667000000000000000.000000
0
LINE
8
0
10
-106667000000000000000.000000
20
-106667000000000000000.000000
11
-106667000000000000000.000000
21
-106667000000000000000.000000
0
LINE
8
0
10
-106667000000000000000.000000
20
-106667000000000000000.000000
11
-106667000000000000000.000000
21
-106667000000000000000.000000
0
LINE
8
0
10
-106667000000000000000.000000
20
-106667000000000000000.000000
11
-106667000000000000000.000000
21
-106667000000000000000.000000
0
LINE
8
0
10
-106667000000000000000.000000
20
-106667000000000000000.000000
11
-106667000000000000000.000000
21
-106667000000000000000.000000
0
LINE
8
0
10
-106667000000000000000.000000
20
-106667000000000000000.000000
11
-106667000000000000000.000000
21
-106667000000000000000.000000
0
LINE
8
0
10
-106667000000000000000.000000
20
-106667000000000000000.000000
11
-106667000000000000000.000000
21
-106667000000000000000.000000
0
LINE
8
0
10
-106667000000000000000.000000
20
-106667000000000000000.000000
11
-106667000000000000000.000000
21
-106667000000000000000.000000
0
LINE
8
0
10
-106667000000000000000.000000
20
-106667000000000000000.000000
11
-106667000000000000000.000000
21
-106667000000000000000.000000
0
LINE
8
0
10
-106667000000000000000.000000
20
-106667000000000000000.000000
11
-106667000000000000000.000000
21
-106667000000000000000.000000
0
LINE
8
0
10
-106667000000000000000.000000
20
-106667000000000000000.000000
11
-106667000000000000000.000000
21
-106667000000000000000.000000
0
LINE
8
0
10
-106667000000000000000.000000
20
-106667000000000000000.000000
11
-106667000000000000000.000000
21
-106667000000000000000.000000
0
LINE
8
0
10
-106667000000000000000.000000
20
-106667000000000000000.000000
11
-106667000000000000000.000000
21
-106667000000000000000.000000
0
LINE
8
0
10
-106667000000000000000.000000
20
-106667000000000000000.000000
11
-106667000000000000000.000000
21
-106667000000000000000.000000
0
LINE
8
0
10
-106667000000000000000.000000
20
-106667000000000000000.000000
11
-106667000000000000000.000000
21
-106667000000000000000.000000
0
LINE
8
0
10
-106667000000000000000.000000
20
-106667000000000000000.000000
11
-106667000000000000000.000000
21
-106667000000000000000.000000
0
LINE
8
0
10
-106667000000000000000.000000
20
-106667000000000000000.000000
11
-106667000000000000000.000000
21
-106667000000000000000.000000
0
LINE
8
0
10
-106667000000000000000.000000
20
-106667000000000000000.000000
11
-106667000000000000000.000000
21
-106667000000000000000.000000
0
LINE
8
0
10
-106667000000000000000.000000
20
-106667000000000000000.000000
11
-106667000000000000000.000000
21
-106667000000000000000.000000
0
LINE
8
0
10
-106667000000000000000.000000
20
-106667000000000000000.000000
11
-106667000000000000000.000000
21
-106667000000000000000.000000
0
LINE
8
0
10
-106667000000000000000.000000
20
-106667000000000000000.000000
11
-106667000000000000000.000000
21
-106667000000000000000.000000
0
LINE
8
0
10
-106667000000000000000.000000
20
-106667000000000000000.000000
11
-106667000000000000000.000000
21
-106667000000000000000.000000
0
LINE
8
0
10
-106667000000000000000.000000
20
-106667000000000000000.000000
11
-106667000000000000000.000000
21
-106667000000000000000.000000
0
LINE
8
0
10
-106667000000000000000.000000
20
-106667000000000000000.000000
11
-106667000000000000000.000000
21
-106667000000000000000.000000
0
LINE
8
0
10
-106667000000000000000.000000
20
-106667000000000000000.000000
11
-106667000000000000000.000000
21
-106667000000000000000.000000
0
LINE
8
0
10
-106667000000000000000.000000
20
-106667000000000000000.000000
11
-106667000000000000000.000000
21
-106667000000000000000.000000
0
LINE
8
0
10
-106667000000000000000.000000
20
-106667000000000000000.000000
11
-106667000000000000000.000000
21
-106667000000000000000.000000
0
LINE
8
0
10
-106667000000000000000.000000
20
-106667000000000000000.000000
11
-106667000000000000000.000000
21
-106667000000000000000.000000
0
LINE
8
0
10
-106667000000000000000.000000
20
-106667000000000000000.000000
11
-106667000000000000000.000000
21
-106667000000000000000.000000
0
LINE
8
0
10
-106667000000000000000.000000
20
-106667000000000000000.000000
11
-106667000000000000000.000000
21
-106667000000000000000.000000
0
LINE
8
0
10
-106667000000000000000.000000
20
-106667000000000000000.000000
11
-106667000000000000000.000000
21
-106667000000000000000.000000
0
LINE
8
0
10
-106667000000000000000.000000
20
-106667000000000000000.000000
11
-106667000000000000000.000000
21
-106667000000000000000.000000
0
LINE
8
0
10
-106667000000000000000.000000
20
-106667000000000000000.000000
11
-106667000000000000000.000000
21
-106667000000000000000.000000
0
LINE
8
0
10
-106667000000000000000.000000
20
-106667000000000000000.000000
11
-106667000000000000000.000000
21
-106667000000000000000.000000
0
LINE
8
0
10
-106667000000000000000.000000
20
-106667000000000000000.000000
11
-106667000000000000000.000000
21
-106667000000000000000.000000
0
LINE
8
0
10
-106667000000000000000.000000
20
-106667000000000000000.000000
11
-106667000000000000000.000000
21
-106667000000000000000.000000
0
LINE
8
0
10
-106667000000000000000.000000
20
-106667000000000000000.000000
11
-106667000000000000000.000000
21
-106667000000000000000.000000
0
LINE
8
0
10
-106667000000000000000.000000
20
-106667000000000000000.000000
11
-106667000000000000000.000000
21
-106667000000000000000.000000
0
LINE
8
0
10
-106667000000000000000.000000
20
-106667000000000000000.000000
11
-106667000000000000000.000000
21
-106667000000000000000.000000
0
LINE
8
0
10
-106667000000000000000.000000
20
-106667000000000000000.000000
11
-106667000000000000000.000000
21
-106667000000000000000.000000
0
LINE
8
0
10
-106667000000000000000.000000
20
-106667000000000000000.000000
11
-106667000000000000000.000000
21
-106667000000000000000.000000
0
LINE
8
0
10
-106667000000000000000.000000
20
-106667000000000000000.000000
11
-106667000000000000000.000000
21
-106667000000000000000.000000
0
LINE
8
0
10
-106667000000000000000.000000
20
-106667000000000000000.000000
11
-106667000000000000000.000000
21
-106667000000000000000.000000
0
LINE
8
0
10
-106667000000000000000.000000
20
-106667000000000000000.000000
11
-106667000000000000000.000000
21
-106667000000000000000.000000
0
LINE
8
0
10
-106667000000000000000.000000
20
-106667000000000000000.000000
11
-106667000000000000000.000000
21
-106667000000000000000.000000
0
LINE
8
0
10
-106667000000000000000.000000
20
-106667000000000000000.000000
11
-106667000000000000000.000000
21
-106667000000000000000.000000
0
LINE
8
0
10
-106667000000000000000.000000
20
-106667000000000000000.000000
11
-106667000000000000000.000000
21
-106667000000000000000.000000
0
LINE
8
0
10
-106667000000000000000.000000
20
-106667000000000000000.000000
11
-106667000000000000000.000000
21
-106667000000000000000.000000
0
LINE
8
0
10
-106667000000000000000.000000
20
-106667000000000000000.000000
11
-106667000000000000000.000000
21
-106667000000000000000.000000
0
LINE
8
0
10
-106667000000000000000.000000
20
-106667000000000000000.000000
11
-106667000000000000000.000000
21
-106667000000000000000.000000
0
LINE
8
0
10
-106667000000000000000.000000
20
-106667000000000000000.000000
11
-106667000000000000000.000000
21
-106667000000000000000.000000
0
LINE
8
0
10
-106667000000000000000.000000
20
-106667000000000000000.000000
11
-106667000000000000000.000000
21
-106667000000000000000.000000
0
LINE
8
0
10
-106667000000000000000.000000
20
-106667000000000000000.000000
11
-106667000000000000000.000000
21
-106667000000000000000.000000
0
LINE
8
0
10
-106667000000000000000.000000
20
-106667000000000000000.000000
11
-106667000000000000000.000000
21
-106667000000000000000.000000
0
LINE
8
0
10
-106667000000000000000.000000
20
-106667000000000000000.000000
11
-106667000000000000000.000000
21
-106667000000000000000.000000
0
LINE
8
0
10
-106667000000000000000.000000
20
-106667000000000000000.000000
11
-106667000000000000000.000000
21
-106667000000000000000.000000
0
LINE
8
0
10
-106667000000000000000.000000
20
-106667000000000000000.000000
11
-106667000000000000000.000000
21
-106667000000000000000.000000
0
LINE
8
0
10
-106667000000000000000.000000
20
-106667000000000000000.000000
11
-106667000000000000000.000000
21
-106667000000000000000.000000
0
LINE
8
0
10
-106667000000000000000.000000
20
-106667000000000000000.000000
11
-106667000000000000000.000000
21
-106667000000000000000.000000
0
LINE
8
0
10
-106667000000000000000.000000
20
-106667000000000000000.000000
11
-106667000000000000000.000000
21
-106667000000000000000.000000
0
LINE
8
0
10
-106667000000000000000.000000
20
-106667000000000000000.000000
11
-106667000000000000000.000000
21
-106667000000000000000.000000
0
LINE
8
0
10
-106667000000000000000.000000
20
-106667000000000000000.000000
11
-106667000000000000000.000000
21
-106667000000000000000.000000
0
LINE
8
0
10
-106667000000000000000.000000
20
-106667000000000000000.000000
11
-106667000000000000000.000000
21
-106667000000000000000.000000
0
LINE
8
0
10
-106667000000000000000.000000
20
-106667000000000000000.000000
11
-106667000000000000000.000000
21
-106667000000000000000.000000
0
LINE
8
0
10
-106667000000000000000.000000
20
-106667000000000000000.000000
11
-106667000000000000000.000000
21
-106667000000000000000.000000
0
LINE
8
0
10
-106667000000000000000.000000
20
-106667000000000000000.000000
11
-106667000000000000000.000000
21
-106667000000000000000.000000
0
LINE
8
0
10
-106667000000000000000.000000
20
-106667000000000000000.000000
11
-106667000000000000000.000000
21
-106667000000000000000.000000
0
LINE
8
0
10
-106667000000000000000.000000
20
-106667000000000000000.000000
11
-106667000000000000000.000000
21
-106667000000000000000.000000
0
LINE
8
0
10
-106667000000000000000.000000
20
-106667000000000000000.000000
11
-106667000000000000000.000000
21
-106667000000000000000.000000
0
LINE
8
0
10
-106667000000000000000.000000
20
-106667000000000000000.000000
11
-106667000000000000000.000000
21
-106667000000000000000.000000
0
LINE
8
0
10
-106667000000000000000.000000
20
-106667000000000000000.000000
11
-106667000000000000000.000000
21
-106667000000000000000.000000
0
LINE
8
0
10
-106667000000000000000.000000
20
-106667000000000000000.000000
11
-106667000000000000000.000000
21
-106667000000000000000.000000
0
LINE
8
0
10
-106667000000000000000.000000
20
-106667000000000000000.000000
11
-106667000000000000000.000000
21
-106667000000000000000.000000
0
LINE
8
0
10
-106667000000000000000.000000
20
-106667000000000000000.000000
11
-106667000000000000000.000000
21
-106667000000000000000.000000
0
LINE
8
0
10
-106667000000000000000.000000
20
-106667000000000000000.000000
11
-106667000000000000000.000000
21
-106667000000000000000.000000
0
LINE
8
0
10
-106667000000000000000.000000
20
-106667000000000000000.000000
11
-106667000000000000000.000000
21
-106667000000000000000.000000
0
LINE
8
0
10
-106667000000000000000.000000
20
-106667000000000000000.000000
11
-106667000000000000000.000000
21
-106667000000000000000.000000
0
LINE
8
0
10
-106667000000000000000.000000
20
-106667000000000000000.000000
11
-106667000000000000000.000000
21
-106667000000000000000.000000
0
LINE
8
0
10
-106667000000000000000.000000
20
-106667000000000000000.000000
11
-106667000000000000000.000000
21
-106667000000000000000.000000
0
LINE
8
0
10
-106667000000000000000.000000
20
-106667000000000000000.000000
11
-106667000000000000000.000000
21
-106667000000000000000.000000
0
LINE
8
0
10
-106667000000000000000.000000
20
-106667000000000000000.000000
11
-106667000000000000000.000000
21
-106667000000000000000.000000
0
LINE
8
0
10
-106667000000000000000.000000
20
-106667000000000000000.000000
11
-106667000000000000000.000000
21
-106667000000000000000.000000
0
LINE
8
0
10
-106667000000000000000.000000
20
-106667000000000000000.000000
11
-106667000000000000000.000000
21
-106667000000000000000.000000
0
LINE
8
0
10
-106667000000000000000.000000
20
-106667000000000000000.000000
11
-106667000000000000000.000000
21
-106667000000000000000.000000
0
LINE
8
0
10
-106667000000000000000.000000
20
-106667000000000000000.000000
11
-106667000000000000000.000000
21
-106667000000000000000.000000
0
LINE
8
0
10
-106667000000000000000.000000
20
-106667000000000000000.000000
11
-106667000000000000000.000000
21
-106667000000000000000.000000
0
LINE
8
0
10
-106667000000000000000.000000
20
-106667000000000000000.000000
11
-106667000000000000000.000000
21
-106667000000000000000.000000
0
LINE
8
0
10
-106667000000000000000.000000
20
-106667000000000000000.000000
11
-106667000000000000000.000000
21
-106667000000000000000.000000
0
LINE
8
0
10
-106667000000000000000.000000
20
-106667000000000000000.000000
11
-106667000000000000000.000000
21
-106667000000000000000.000000
0
LINE
8
0
10
-106667000000000000000.000000
20
-106667000000000000000.000000
11
-106667000000000000000.000000
21
-106667000000000000000.000000
0
LINE
8
0
10
-106667000000000000000.000000
20
-106667000000000000000.000000
11
-106667000000000000000.000000
21
-106667000000000000000.000000
0
LINE
8
0
10
-106667000000000000000.000000
20
-106667000000000000000.000000
11
-106667000000000000000.000000
21
-106667000000000000000.000000
0
LINE
8
0
10
-106667000000000000000.000000
20
-106667000000000000000.000000
11
-106667000000000000000.000000
21
-106667000000000000000.000000
0
LINE
8
0
10
-106667000000000000000.000000
20
-106667000000000000000.000000
11
-106667000000000000000.000000
21
-106667000000000000000.000000
0
LINE
8
0
10
-106667000000000000000.000000
20
-106667000000000000000.000000
11
-106667000000000000000.000000
21
-106667000000000000000.000000
0
LINE
8
0
10
-106667000000000000000.000000
20
-106667000000000000000.000000
11
-106667000000000000000.000000
21
-106667000000000000000.000000
0
LINE
8
0
10
-106667000000000000000.000000
20
-106667000000000000000.000000
11
-106667000000000000000.000000
21
-106667000000000000000.000000
0
LINE
8
0
10
-106667000000000000000.000000
20
-106667000000000000000.000000
11
-106667000000000000000.000000
21
-106667000000000000000.000000
0
LINE
8
0
10
-106667000000000000000.000000
20
-106667000000000000000.000000
11
-106667000000000000000.000000
21
-106667000000000000000.000000
0
LINE
8
0
10
-106667000000000000000.000000
20
-106667000000000000000.000000
11
-106667000000000000000.000000
21
-106667000000000000000.000000
0
LINE
8
0
10
-106667000000000000000.000000
20
-106667000000000000000.000000
11
-106667000000000000000.000000
21
-106667000000000000000.000000
0
LINE
8
0
10
-106667000000000000000.000000
20
-106667000000000000000.000000
11
-106667000000000000000.000000
21
-106667000000000000000.000000
0
LINE
8
0
10
-106667000000000000000.000000
20
-106667000000000000000.000000
11
-106667000000000000000.000000
21
-106667000000000000000.000000
0
LINE
8
0
10
-106667000000000000000.000000
20
-106667000000000000000.000000
11
-106667000000000000000.000000
21
-106667000000000000000.000000
0
LINE
8
0
10
-106667000000000000000.000000
20
-106667000000000000000.000000
11
-106667000000000000000.000000
21
-106667000000000000000.000000
0
LINE
8
0
10
-106667000000000000000.000000
20
-106667000000000000000.000000
11
-106667000000000000000.000000
21
-106667000000000000000.000000
0
LINE
8
0
10
-106667000000000000000.000000
20
-106667000000000000000.000000
11
-106667000000000000000.000000
21
-106667000000000000000.000000
0
LINE
8
0
10
-106667000000000000000.000000
20
-106667000000000000000.000000
11
-106667000000000000000.000000
21
-106667000000000000000.000000
0
LINE
8
0
10
-106667000000000000000.000000
20
-106667000000000000000.000000
11
-106667000000000000000.000000
21
-106667000000000000000.000000
0
LINE
8
0
10
-106667000000000000000.000000
20
-106667000000000000000.000000
11
-106667000000000000000.000000
21
-106667000000000000000.000000
0
LINE
8
0
10
-106667000000000000000.000000
20
-106667000000000000000.000000
11
-106667000000000000000.000000
21
-106667000000000000000.000000
0
LINE
8
0
10
-106667000000000000000.000000
20
-106667000000000000000.000000
11
-106667000000000000000.000000
21
-106667000000000000000.000000
0
LINE
8
0
10
-106667000000000000000.000000
20
-106667000000000000000.000000
11
-106667000000000000000.000000
21
-106667000000000000000.000000
0
LINE
8
0
10
-106667000000000000000.000000
20
-106667000000000000000.000000
11
-106667000000000000000.000000
21
-106667000000000000000.000000
0
LINE
8
0
10
-106667000000000000000.000000
20
-106667000000000000000.000000
11
-106667000000000000000.000000
21
-106667000000000000000.000000
0
LINE
8
0
10
-106667000000000000000.000000
20
-106667000000000000000.000000
11
-106667000000000000000.000000
21
-106667000000000000000.000000
0
LINE
8
0
10
-106667000000000000000.000000
20
-106667000000000000000.000000
11
-106667000000000000000.000000
21
-106667000000000000000.000000
0
LINE
8
0
10
-106667000000000000000.000000
20
-106667000000000000000.000000
11
-106667000000000000000.000000
21
-106667000000000000000.000000
0
LINE
8
0
10
-106667000000000000000.000000
20
-106667000000000000000.000000
11
-106667000000000000000.000000
21
-106667000000000000000.000000
0
LINE
8
0
10
-106667000000000000000.000000
20
-106667000000000000000.000000
11
-106667000000000000000.000000
21
-106667000000000000000.000000
0
LINE
8
0
10
-106667000000000000000.000000
20
-106667000000000000000.000000
11
-106667000000000000000.000000
21
-106667000000000000000.000000
0
LINE
8
0
10
-106667000000000000000.000000
20
-106667000000000000000.000000
11
-106667000000000000000.000000
21
-106667000000000000000.000000
0
LINE
8
0
10
-106667000000000000000.000000
20
-106667000000000000000.000000
11
-106667000000000000000.000000
21
-106667000000000000000.000000
0
LINE
8
0
10
-106667000000000000000.000000
20
-106667000000000000000.000000
11
-106667000000000000000.000000
21
-106667000000000000000.000000
0
LINE
8
0
10
-106667000000000000000.000000
20
-106667000000000000000.000000
11
-106667000000000000000.000000
21
-106667000000000000000.000000
0
LINE
8
0
10
-106667000000000000000.000000
20
-106667000000000000000.000000
11
-106667000000000000000.000000
21
-106667000000000000000.000000
0
LINE
8
0
10
-106667000000000000000.000000
20
-106667000000000000000.000000
11
-106667000000000000000.000000
21
-106667000000000000000.000000
0
LINE
8
0
10
-106667000000000000000.000000
20
-106667000000000000000.000000
11
-106667000000000000000.000000
21
-106667000000000000000.000000
0
LINE
8
0
10
-106667000000000000000.000000
20
-106667000000000000000.000000
11
-106667000000000000000.000000
21
-106667000000000000000.000000
0
LINE
8
0
10
-106667000000000000000.000000
20
-106667000000000000000.000000
11
-106667000000000000000.000000
21
-106667000000000000000.000000
0
LINE
8
0
10
-106667000000000000000.000000
20
-106667000000000000000.000000
11
-106667000000000000000.000000
21
-106667000000000000000.000000
0
LINE
8
0
10
-106667000000000000000.000000
20
-106667000000000000000.000000
11
-106667000000000000000.000000
21
-106667000000000000000.000000
0
LINE
8
0
10
-106667000000000000000.000000
20
-106667000000000000000.000000
11
-106667000000000000000.000000
21
-106667000000000000000.000000
0
LINE
8
0
10
-106667000000000000000.000000
20
-106667000000000000000.000000
11
-106667000000000000000.000000
21
-106667000000000000000.000000
0
LINE
8
0
10
-106667000000000000000.000000
20
-106667000000000000000.000000
11
-106667000000000000000.000000
21
-106667000000000000000.000000
0
LINE
8
0
10
-106667000000000000000.000000
20
-106667000000000000000.000000
11
-106667000000000000000.000000
21
-106667000000000000000.000000
0
LINE
8
0
10
-106667000000000000000.000000
20
-106667000000000000000.000000
11
-106667000000000000000.000000
21
-106667000000000000000.000000
0
LINE
8
0
10
-106667000000000000000.000000
20
-106667000000000000000.000000
11
-106667000000000000000.000000
21
-106667000000000000000.000000
0
LINE
8
0
10
-106667000000000000000.000000
20
-106667000000000000000.000000
11
-106667000000000000000.000000
21
-106667000000000000000.000000
0
LINE
8
0
10
-106667000000000000000.000000
20
-106667000000000000000.000000
11
-106667000000000000000.000000
21
-106667000000000000000.000000
0
LINE
8
0
10
-106667000000000000000.000000
20
-106667000000000000000.000000
11
-106667000000000000000.000000
21
-106667000000000000000.000000
0
LINE
8
0
10
-106667000000000000000.000000
20
-106667000000000000000.000000
11
-106667000000000000000.000000
21
-106667000000000000000.000000
0
LINE
8
0
10
-106667000000000000000.000000
20
-106667000000000000000.000000
11
-106667000000000000000.000000
21
-106667000000000000000.000000
0
LINE
8
0
10
-106667000000000000000.000000
20
-106667000000000000000.000000
11
-106667000000000000000.000000
21
-106667000000000000000.000000
0
LINE
8
0
10
-106667000000000000000.000000
20
-106667000000000000000.000000
11
-106667000000000000000.000000
21
-106667000000000000000.000000
0
LINE
8
0
10
-106667000000000000000.000000
20
-106667000000000000000.000000
11
-106667000000000000000.000000
21
-106667000000000000000.000000
0
LINE
8
0
10
-106667000000000000000.000000
20
-106667000000000000000.000000
11
-106667000000000000000.000000
21
-106667000000000000000.000000
0
LINE
8
0
10
-106667000000000000000.000000
20
-106667000000000000000.000000
11
-106667000000000000000.000000
21
-106667000000000000000.000000
0
LINE
8
0
10
49.233100
20
-211.183000
11
48.221865
21
-210.526298
0
LINE
8
0
10
48.221865
20
-210.526298
11
47.038260
21
-210.296230
0
LINE
8
0
10
50.561000
20
-209.808000
11
49.796503
21
-209.200507
0
LINE
8
0
10
49.796503
20
-209.200507
11
48.937900
21
-208.754122
0
LINE
8
0
10
48.937900
20
-208.754122
11
48.010147
21
-208.478926
0
LINE
8
0
10
48.010147
20
-208.478926
11
47.038200
21
-208.385000
0
LINE
8
0
10
47.038200
20
-210.298000
11
47.038200
21
-208.384000
0
LINE
8
0
10
50.560900
20
-209.809000
11
52.598830
21
-211.776090
0
LINE
8
0
10
49.233100
20
-211.184000
11
51.234900
21
-213.117220
0
LINE
8
0
10
51.234900
20
-213.117000
11
52.598880
21
-211.776450
0
LINE
8
0
10
47.038200
20
-216.808000
11
48.234577
21
-216.572737
0
LINE
8
0
10
48.234577
20
-216.572737
11
49.252790
21
-215.901983
0
LINE
8
0
10
47.038200
20
-216.809000
11
47.038200
21
-218.719000
0
LINE
8
0
10
47.038200
20
-218.719000
11
48.021154
21
-218.622845
0
LINE
8
0
10
48.021154
20
-218.622845
11
48.958391
21
-218.341406
0
LINE
8
0
10
48.958391
20
-218.341406
11
49.824140
21
-217.885226
0
LINE
8
0
10
49.824140
20
-217.885226
11
50.592630
21
-217.264850
0
LINE
8
0
10
49.252800
20
-215.903000
11
55.422170
21
-209.840870
0
LINE
8
0
10
58.976600
20
-208.385000
11
57.993644
21
-208.481162
0
LINE
8
0
10
57.993644
20
-208.481162
11
57.056406
21
-208.762608
0
LINE
8
0
10
57.056406
20
-208.762608
11
56.190657
21
-209.218795
0
LINE
8
0
10
56.190657
20
-209.218795
11
55.422170
21
-209.839180
0
LINE
8
0
10
58.976600
20
-210.297000
11
57.780223
21
-210.532263
0
LINE
8
0
10
57.780223
20
-210.532263
11
56.762010
21
-211.203017
0
LINE
8
0
10
58.976500
20
-208.384000
11
59.136500
21
-208.384000
0
LINE
8
0
10
58.976500
20
-210.298000
11
59.136500
21
-210.298000
0
LINE
8
0
10
59.136500
20
-210.298000
11
59.136500
21
-208.384000
0
LINE
8
0
10
50.592500
20
-217.266000
11
56.761870
21
-211.203870
0
LINE
8
0
10
56.941700
20
-215.921000
11
57.952935
21
-216.577702
0
LINE
8
0
10
57.952935
20
-216.577702
11
59.136540
21
-216.807770
0
LINE
8
0
10
55.613900
20
-217.296000
11
56.378358
21
-217.903557
0
LINE
8
0
10
56.378358
20
-217.903557
11
57.236937
21
-218.350009
0
LINE
8
0
10
57.236937
20
-218.350009
11
58.164680
21
-218.625275
0
LINE
8
0
10
58.164680
20
-218.625275
11
59.136630
21
-218.719270
0
LINE
8
0
10
56.941700
20
-215.922000
11
54.859180
21
-213.909760
0
LINE
8
0
10
53.495200
20
-215.251000
11
55.613840
21
-217.297110
0
LINE
8
0
10
53.495200
20
-215.251000
11
54.859180
21
-213.910450
0
LINE
8
0
10
59.136500
20
-216.809000
11
59.136500
21
-218.719000
0
LINE
8
0
10
62.183200
20
-211.203000
11
61.164987
21
-210.532246
0
LINE
8
0
10
61.164987
20
-210.532246
11
59.968610
21
-210.296983
0
LINE
8
0
10
59.968600
20
-216.808000
11
61.164977
21
-216.572737
0
LINE
8
0
10
61.164977
20
-216.572737
11
62.183190
21
-215.901983
0
LINE
8
0
10
63.523100
20
-209.840000
11
65.511640
21
-211.792980
0
LINE
8
0
10
62.183100
20
-211.204000
11
64.147930
21
-213.134400
0
LINE
8
0
10
64.147900
20
-213.134000
11
65.511600
21
-211.793450
0
LINE
8
0
10
59.968500
20
-210.298000
11
59.968500
21
-208.384000
0
LINE
8
0
10
63.523000
20
-209.839000
11
62.754513
21
-209.218615
0
LINE
8
0
10
62.754513
20
-209.218615
11
61.888764
21
-208.762428
0
LINE
8
0
10
61.888764
20
-208.762428
11
60.951526
21
-208.480982
0
LINE
8
0
10
60.951526
20
-208.480982
11
59.968570
21
-208.384820
0
LINE
8
0
10
62.183100
20
-215.903000
11
68.352470
21
-209.840870
0
LINE
8
0
10
63.523100
20
-217.266000
11
69.692470
21
-211.203870
0
LINE
8
0
10
59.968500
20
-216.809000
11
59.968500
21
-218.719000
0
LINE
8
0
10
59.968600
20
-218.719000
11
60.951554
21
-218.622845
0
LINE
8
0
10
60.951554
20
-218.622845
11
61.888791
21
-218.341406
0
LINE
8
0
10
61.888791
20
-218.341406
11
62.754540
21
-217.885226
0
LINE
8
0
10
62.754540
20
-217.885226
11
63.523030
21
-217.264850
0
LINE
8
0
10
71.906900
20
-208.385000
11
70.923944
21
-208.481162
0
LINE
8
0
10
70.923944
20
-208.481162
11
69.986706
21
-208.762608
0
LINE
8
0
10
69.986706
20
-208.762608
11
69.120957
21
-209.218795
0
LINE
8
0
10
69.120957
20
-209.218795
11
68.352470
21
-209.839180
0
LINE
8
0
10
71.906900
20
-210.297000
11
70.710523
21
-210.532263
0
LINE
8
0
10
70.710523
20
-210.532263
11
69.692310
21
-211.203017
0
LINE
8
0
10
72.066800
20
-208.384000
11
71.907100
21
-208.384000
0
LINE
8
0
10
72.066800
20
-210.298000
11
71.907100
21
-210.298000
0
LINE
8
0
10
72.066800
20
-210.298000
11
72.066800
21
-208.384000
0
LINE
8
0
10
42.273200
20
-211.283000
11
43.590000
21
-211.283000
0
LINE
8
0
10
43.590000
20
-211.283000
11
43.590000
21
-212.547000
0
LINE
8
0
10
43.590000
20
-212.547000
11
42.273200
21
-212.547000
0
LINE
8
0
10
42.273200
20
-212.547000
11
42.273200
21
-211.283000
0
LINE
8
0
10
21.674600
20
-211.305000
11
22.984300
21
-211.305000
0
LINE
8
0
10
22.984300
20
-211.305000
11
22.984300
21
-215.663000
0
LINE
8
0
10
22.984300
20
-215.663000
11
24.752870
21
-213.111710
0
LINE
8
0
10
24.752800
20
-213.111000
11
26.325800
21
-213.111000
0
LINE
8
0
10
26.325800
20
-213.111000
11
24.256150
21
-215.879600
0
LINE
8
0
10
24.256200
20
-215.880000
11
26.589240
21
-218.724800
0
LINE
8
0
10
26.589200
20
-218.725000
11
25.038800
21
-218.725000
0
LINE
8
0
10
25.038800
20
-218.725000
11
22.999290
21
-216.213220
0
LINE
8
0
10
44.673800
20
-211.283000
11
45.990900
21
-211.283000
0
LINE
8
0
10
45.990900
20
-211.283000
11
45.990900
21
-218.725000
0
LINE
8
0
10
45.990900
20
-218.725000
11
44.673800
21
-218.725000
0
LINE
8
0
10
44.673800
20
-218.725000
11
44.673800
21
-211.283000
0
LINE
8
0
10
42.257900
20
-213.134000
11
43.575100
21
-213.134000
0
LINE
8
0
10
43.575100
20
-213.134000
11
43.575100
21
-218.725000
0
LINE
8
0
10
43.575100
20
-218.725000
11
42.257900
21
-218.725000
0
LINE
8
0
10
42.257900
20
-218.725000
11
42.257900
21
-213.134000
0
LINE
8
0
10
21.674600
20
-218.725000
11
21.674600
21
-211.305000
0
LINE
8
0
10
22.999300
20
-218.725000
11
21.674600
21
-218.725000
0
LINE
8
0
10
22.999300
20
-216.213000
11
22.999300
21
-218.725000
0
LINE
8
0
10
9.053600
20
-213.193000
11
10.272900
21
-213.193000
0
LINE
8
0
10
10.272900
20
-213.193000
11
10.272900
21
-213.758000
0
LINE
8
0
10
10.272900
20
-213.759000
11
10.688264
21
-213.404642
0
LINE
8
0
10
10.688264
20
-213.404642
11
11.166202
21
-213.146578
0
LINE
8
0
10
11.166202
20
-213.146578
11
12.251532
21
-213.075148
0
LINE
8
0
10
12.251532
20
-213.075148
11
12.788221
21
-213.206861
0
LINE
8
0
10
12.788221
20
-213.206861
11
13.264092
21
-213.462526
0
LINE
8
0
10
13.264092
20
-213.462526
11
13.634666
21
-213.860476
0
LINE
8
0
10
13.634666
20
-213.860476
11
13.868314
21
-214.355476
0
LINE
8
0
10
13.868314
20
-214.355476
11
13.966408
21
-215.444406
0
LINE
8
0
10
13.966408
20
-215.444406
11
13.975978
21
-216.536666
0
LINE
8
0
10
13.975978
20
-216.536666
11
13.953025
21
-218.718636
0
LINE
8
0
10
13.953000
20
-218.719000
11
12.590900
21
-218.719000
0
LINE
8
0
10
12.590800
20
-218.718000
11
12.591957
21
-216.807440
0
LINE
8
0
10
12.591957
20
-216.807440
11
12.586064
21
-215.852203
0
LINE
8
0
10
12.586064
20
-215.852203
11
12.500472
21
-214.902328
0
LINE
8
0
10
12.500500
20
-214.902000
11
12.176900
21
-214.405318
0
LINE
8
0
10
12.176900
20
-214.406000
11
11.604812
21
-214.232913
0
LINE
8
0
10
11.604800
20
-214.233000
11
10.997322
21
-214.417736
0
LINE
8
0
10
10.997322
20
-214.417736
11
10.557610
21
-214.888856
0
LINE
8
0
10
10.557610
20
-214.888856
11
10.376887
21
-215.492092
0
LINE
8
0
10
10.376887
20
-215.492092
11
10.349977
21
-216.142996
0
LINE
8
0
10
10.349977
20
-216.142996
11
10.347522
21
-217.425776
0
LINE
8
0
10
10.347522
20
-217.425776
11
10.348030
21
-218.710786
0
LINE
8
0
10
10.348100
20
-218.711000
11
9.053600
21
-218.711000
0
LINE
8
0
10
9.053600
20
-218.711000
11
9.053600
21
-213.193000
0
LINE
8
0
10
19.409500
20
-213.797000
11
19.409500
21
-213.188000
0
LINE
8
0
10
19.409500
20
-213.188000
11
20.658700
21
-213.188000
0
LINE
8
0
10
20.658700
20
-213.188000
11
20.658700
21
-218.725000
0
LINE
8
0
10
20.658700
20
-218.725000
11
19.401900
21
-218.725000
0
LINE
8
0
10
19.401900
20
-218.725000
11
19.401900
21
-218.138000
0
LINE
8
0
10
18.574100
20
-218.696000
11
19.401951
21
-218.139063
0
LINE
8
0
10
18.574100
20
-218.696000
11
17.848214
21
-218.870893
0
LINE
8
0
10
17.848214
20
-218.870893
11
17.100330
21
-218.834119
0
LINE
8
0
10
17.100330
20
-218.834119
11
16.393077
21
-218.591750
0
LINE
8
0
10
16.393077
20
-218.591750
11
15.783570
21
-218.169317
0
LINE
8
0
10
15.783570
20
-218.169317
11
15.319008
21
-217.599579
0
LINE
8
0
10
15.319008
20
-217.599579
11
15.012403
21
-216.924779
0
LINE
8
0
10
15.012403
20
-216.924779
11
14.868226
21
-216.189552
0
LINE
8
0
10
14.868226
20
-216.189552
11
14.890946
21
-215.438537
0
LINE
8
0
10
14.890946
20
-215.438537
11
15.084373
21
-214.716570
0
LINE
8
0
10
15.084373
20
-214.716570
11
15.449640
21
-214.069107
0
LINE
8
0
10
15.449640
20
-214.069107
11
15.979134
21
-213.542509
0
LINE
8
0
10
15.979134
20
-213.542509
11
16.632920
21
-213.185921
0
LINE
8
0
10
16.632920
20
-213.185921
11
17.361092
21
-213.038832
0
LINE
8
0
10
17.361092
20
-213.038832
11
18.106160
21
-213.099565
0
LINE
8
0
10
18.106160
20
-213.099565
11
18.808740
21
-213.356137
0
LINE
8
0
10
18.808740
20
-213.356137
11
19.409450
21
-213.796565
0
LINE
8
0
10
17.776200
20
-214.203000
11
17.134232
21
-214.337443
0
LINE
8
0
10
17.134232
20
-214.337443
11
16.606240
21
-214.705101
0
LINE
8
0
10
16.606240
20
-214.705101
11
16.282276
21
-215.261001
0
LINE
8
0
10
16.282276
20
-215.261001
11
16.180803
21
-215.913461
0
LINE
8
0
10
16.180803
20
-215.913461
11
16.301453
21
-216.560833
0
LINE
8
0
10
16.301453
20
-216.560833
11
16.640119
21
-217.108111
0
LINE
8
0
10
16.640119
20
-217.108111
11
17.174854
21
-217.470438
0
LINE
8
0
10
17.174854
20
-217.470438
11
17.816089
21
-217.597032
0
LINE
8
0
10
17.816089
20
-217.597032
11
18.456353
21
-217.459706
0
LINE
8
0
10
18.456353
20
-217.459706
11
18.984229
21
-217.086944
0
LINE
8
0
10
18.984229
20
-217.086944
11
19.306829
21
-216.530335
0
LINE
8
0
10
19.306829
20
-216.530335
11
19.409335
21
-215.878074
0
LINE
8
0
10
19.409335
20
-215.878074
11
19.294961
21
-215.228036
0
LINE
8
0
10
19.294961
20
-215.228036
11
18.960980
21
-214.680384
0
LINE
8
0
10
18.960980
20
-214.680384
11
18.423037
21
-214.324283
0
LINE
8
0
10
18.423037
20
-214.324283
11
17.776200
21
-214.203005
0
LINE
8
0
10
17.776200
20
-214.203005
11
17.776200
21
-214.203000
0
LINE
8
0
10
32.549600
20
-217.657000
11
32.835717
21
-217.077401
0
LINE
8
0
10
31.375500
20
-217.077000
11
32.835700
21
-217.077000
0
LINE
8
0
10
31.375600
20
-217.077000
11
30.641326
21
-217.535851
0
LINE
8
0
10
30.641326
20
-217.535851
11
29.788820
21
-217.605997
0
LINE
8
0
10
29.788820
20
-217.605997
11
29.016953
21
-217.217021
0
LINE
8
0
10
29.016953
20
-217.217021
11
28.591090
21
-216.482417
0
LINE
8
0
10
32.956200
20
-216.484000
11
28.591100
21
-216.484000
0
LINE
8
0
10
32.963800
20
-216.145000
11
32.956180
21
-216.483666
0
LINE
8
0
10
32.963700
20
-216.144000
11
32.836975
21
-215.092412
0
LINE
8
0
10
32.836975
20
-215.092412
11
32.408708
21
-214.148180
0
LINE
8
0
10
32.408708
20
-214.148180
11
31.644122
21
-213.448806
0
LINE
8
0
10
31.644122
20
-213.448806
11
30.657868
21
-213.061940
0
LINE
8
0
10
30.657868
20
-213.061940
11
29.600721
21
-213.030285
0
LINE
8
0
10
29.600721
20
-213.030285
11
28.618498
21
-213.366740
0
LINE
8
0
10
28.618498
20
-213.366740
11
27.842279
21
-214.053894
0
LINE
8
0
10
27.842279
20
-214.053894
11
27.349158
21
-214.983450
0
LINE
8
0
10
27.349158
20
-214.983450
11
27.193651
21
-216.025342
0
LINE
8
0
10
27.193651
20
-216.025342
11
27.393946
21
-217.053690
0
LINE
8
0
10
27.393946
20
-217.053690
11
27.942722
21
-217.944833
0
LINE
8
0
10
27.942722
20
-217.944833
11
28.766916
21
-218.580370
0
LINE
8
0
10
28.766916
20
-218.580370
11
29.769750
21
-218.865262
0
LINE
8
0
10
29.769750
20
-218.865262
11
30.825356
21
-218.793052
0
LINE
8
0
10
30.825356
20
-218.793052
11
31.799011
21
-218.381554
0
LINE
8
0
10
31.799011
20
-218.381554
11
32.549626
21
-217.656852
0
LINE
8
0
10
28.591100
20
-215.316000
11
31.639100
21
-215.316000
0
LINE
8
0
10
31.639000
20
-215.316000
11
31.418290
21
-214.884644
0
LINE
8
0
10
31.418290
20
-214.884644
11
31.065734
21
-214.548808
0
LINE
8
0
10
31.065734
20
-214.548808
11
30.625409
21
-214.333155
0
LINE
8
0
10
30.625409
20
-214.333155
11
30.141390
21
-214.262350
0
LINE
8
0
10
30.141400
20
-214.263000
11
29.639706
21
-214.328864
0
LINE
8
0
10
29.639706
20
-214.328864
11
29.185977
21
-214.540396
0
LINE
8
0
10
29.185977
20
-214.540396
11
28.591016
21
-215.316648
0
LINE
8
0
10
38.218200
20
-211.223000
11
37.465350
21
-211.151027
0
LINE
8
0
10
37.465350
20
-211.151027
11
36.708819
21
-211.230736
0
LINE
8
0
10
36.708819
20
-211.230736
11
35.981054
21
-211.455866
0
LINE
8
0
10
35.981054
20
-211.455866
11
35.314500
21
-211.820154
0
LINE
8
0
10
35.314500
20
-211.820154
11
34.738539
21
-212.313939
0
LINE
8
0
10
34.738539
20
-212.313939
11
34.270277
21
-212.913552
0
LINE
8
0
10
34.270277
20
-212.913552
11
33.712990
21
-214.321914
0
LINE
8
0
10
33.712990
20
-214.321914
11
33.729104
21
-215.827900
0
LINE
8
0
10
33.729104
20
-215.827900
11
34.301736
21
-217.211924
0
LINE
8
0
10
34.301736
20
-217.211924
11
35.363076
21
-218.267476
0
LINE
8
0
10
35.363076
20
-218.267476
11
36.026024
21
-218.623820
0
LINE
8
0
10
36.026024
20
-218.623820
11
36.744946
21
-218.842884
0
LINE
8
0
10
36.744946
20
-218.842884
11
37.494568
21
-218.911280
0
LINE
8
0
10
37.494568
20
-218.911280
11
38.245161
21
-218.831126
0
LINE
8
0
10
38.245161
20
-218.831126
11
38.965882
21
-218.608367
0
LINE
8
0
10
38.965882
20
-218.608367
11
39.625886
21
-218.248948
0
LINE
8
0
10
39.625886
20
-218.248948
11
40.197106
21
-217.762205
0
LINE
8
0
10
40.197106
20
-217.762205
11
40.662565
21
-217.170658
0
LINE
8
0
10
40.662565
20
-217.170658
11
41.219406
21
-215.776538
0
LINE
8
0
10
41.219406
20
-215.776538
11
41.208640
21
-214.275524
0
LINE
8
0
10
41.208640
20
-214.275524
11
40.645778
21
-212.885148
0
LINE
8
0
10
40.645778
20
-212.885148
11
39.595802
21
-211.813557
0
LINE
8
0
10
39.595802
20
-211.813557
11
38.936509
21
-211.448729
0
LINE
8
0
10
38.936509
20
-211.448729
11
38.218198
21
-211.222998
0
LINE
8
0
10
38.218198
20
-211.222998
11
38.218200
21
-211.223000
0
LINE
8
0
10
37.464200
20
-212.532000
11
36.520200
21
-212.724098
0
LINE
8
0
10
36.520200
20
-212.724098
11
35.729840
21
-213.265890
0
LINE
8
0
10
35.729840
20
-213.265890
11
35.229746
21
-214.077879
0
LINE
8
0
10
35.229746
20
-214.077879
11
35.055984
21
-215.030880
0
LINE
8
0
10
35.055984
20
-215.030880
11
35.217516
21
-215.983985
0
LINE
8
0
10
35.217516
20
-215.983985
11
35.715415
21
-216.799420
0
LINE
8
0
10
35.715415
20
-216.799420
11
36.519033
21
-217.350529
0
LINE
8
0
10
36.519033
20
-217.350529
11
37.478645
21
-217.551711
0
LINE
8
0
10
37.478645
20
-217.551711
11
38.421857
21
-217.352498
0
LINE
8
0
10
38.421857
20
-217.352498
11
39.204705
21
-216.803569
0
LINE
8
0
10
39.204705
20
-216.803569
11
39.707583
21
-215.989558
0
LINE
8
0
10
39.707583
20
-215.989558
11
39.879986
21
-215.039089
0
LINE
8
0
10
39.879986
20
-215.039089
11
39.699918
21
-214.090613
0
LINE
8
0
10
39.699918
20
-214.090613
11
39.190151
21
-213.280419
0
LINE
8
0
10
39.190151
20
-213.280419
11
38.403101
21
-212.733529
0
LINE
8
0
10
38.403101
20
-212.733529
11
37.464201
21
-212.531994
0
LINE
8
0
10
37.464201
20
-212.531994
11
37.464200
21
-212.532000
0
LINE
8
0
10
5.057450
20
-216.927000
11
5.057450
21
-218.688000
0
LINE
8
0
10
5.057430
20
-218.688000
11
6.102867
21
-218.462984
0
LINE
8
0
10
6.102867
20
-218.462984
11
7.019140
21
-217.911325
0
LINE
8
0
10
7.019140
20
-217.911325
11
7.695110
21
-217.076320
0
LINE
8
0
10
7.695110
20
-217.076320
11
8.045850
21
-216.065145
0
LINE
8
0
10
8.045850
20
-216.065145
11
8.012819
21
-215.002341
0
LINE
8
0
10
8.012819
20
-215.002341
11
7.616870
21
-214.017935
0
LINE
8
0
10
7.616870
20
-214.017935
11
6.908275
21
-213.232066
0
LINE
8
0
10
6.908275
20
-213.232066
11
5.975610
21
-212.719965
0
LINE
8
0
10
5.975600
20
-212.719000
11
5.983190
21
-212.719000
0
LINE
8
0
10
5.983180
20
-212.720000
11
4.523120
21
-212.200712
0
LINE
8
0
10
4.523120
20
-212.201000
11
4.110418
21
-211.845051
0
LINE
8
0
10
4.110418
20
-211.845051
11
3.930454
21
-211.339433
0
LINE
8
0
10
3.930454
20
-211.339433
11
4.040132
21
-210.798978
0
LINE
8
0
10
4.040132
20
-210.798978
11
4.400278
21
-210.377479
0
LINE
8
0
10
4.400278
20
-210.377479
11
4.929312
21
-210.211882
0
LINE
8
0
10
4.929312
20
-210.211882
11
5.472138
21
-210.332690
0
LINE
8
0
10
5.472138
20
-210.332690
11
5.869714
21
-210.719243
0
LINE
8
0
10
5.869714
20
-210.719243
11
6.020734
21
-211.252734
0
LINE
8
0
10
6.020730
20
-211.252000
11
7.864600
21
-211.252000
0
LINE
8
0
10
7.864590
20
-211.252000
11
7.748271
21
-210.494164
0
LINE
8
0
10
7.748271
20
-210.494164
11
7.423443
21
-209.796096
0
LINE
8
0
10
7.423443
20
-209.796096
11
6.926301
21
-209.204470
0
LINE
8
0
10
6.926301
20
-209.204470
11
6.293040
21
-208.765960
0
LINE
8
0
10
6.293040
20
-208.765960
11
5.563272
21
-208.519023
0
LINE
8
0
10
5.563272
20
-208.519023
11
4.790275
21
-208.469341
0
LINE
8
0
10
4.790275
20
-208.469341
11
4.030746
21
-208.614366
0
LINE
8
0
10
4.030746
20
-208.614366
11
3.341380
21
-208.951549
0
LINE
8
0
10
3.341380
20
-208.951549
11
2.774135
21
-209.469769
0
LINE
8
0
10
2.774135
20
-209.469769
11
2.362043
21
-210.123588
0
LINE
8
0
10
2.362043
20
-210.123588
11
2.133402
21
-210.858982
0
LINE
8
0
10
2.133402
20
-210.858982
11
2.116510
21
-211.621929
0
LINE
8
0
10
2.116510
20
-211.621929
11
2.327786
21
-212.357092
0
LINE
8
0
10
2.327786
20
-212.357092
11
2.736168
21
-213.003969
0
LINE
8
0
10
2.736168
20
-213.003969
11
3.298886
21
-213.511411
0
LINE
8
0
10
3.298886
20
-213.511411
11
3.973828
21
-213.870983
0
LINE
8
0
10
3.973820
20
-213.871000
11
5.185180
21
-214.280335
0
LINE
8
0
10
5.185180
20
-214.280335
11
5.766552
21
-214.588476
0
LINE
8
0
10
5.766552
20
-214.588476
11
6.186700
21
-215.047725
0
LINE
8
0
10
6.186700
20
-215.047725
11
6.310893
21
-215.666507
0
LINE
8
0
10
6.310893
20
-215.666507
11
6.126146
21
-216.285265
0
LINE
8
0
10
6.126146
20
-216.285265
11
5.669816
21
-216.727711
0
LINE
8
0
10
5.669816
20
-216.727711
11
5.058906
21
-216.918487
0
LINE
8
0
10
5.058910
20
-216.919000
11
5.057442
21
-216.927467
0
LINE
8
0
10
2.671700
20
-217.815000
11
3.336606
21
-218.305236
0
LINE
8
0
10
3.336606
20
-218.305236
11
4.109190
21
-218.597714
0
LINE
8
0
10
4.109210
20
-218.598000
11
4.447876
21
-216.828470
0
LINE
8
0
10
4.447880
20
-216.828000
11
4.432809
21
-216.822356
0
LINE
8
0
10
4.011370
20
-216.566000
11
4.432792
21
-216.821750
0
LINE
8
0
10
4.011360
20
-216.566000
11
3.958669
21
-216.602689
0
LINE
8
0
10
3.958670
20
-216.602000
11
2.671700
21
-217.815550
0
LINE
8
0
10
3.702840
20
-216.137000
11
1.911620
21
-216.687333
0
LINE
8
0
10
1.911610
20
-216.686000
11
2.355669
21
-217.468714
0
LINE
8
0
10
2.355670
20
-217.469000
11
3.875840
21
-216.407850
0
LINE
8
0
10
3.875840
20
-216.408000
11
3.883488
21
-216.399533
0
LINE
8
0
10
3.717910
20
-216.129000
11
3.883495
21
-216.399990
0
LINE
8
0
10
3.717910
20
-216.128000
11
3.702839
21
-216.136467
0
LINE
8
0
10
1.715970
20
-215.670000
11
1.798726
21
-216.309684
0
LINE
8
0
10
1.798720
20
-216.309000
11
3.635070
21
-215.925178
0
LINE
8
0
10
3.597450
20
-215.670000
11
3.635080
21
-215.925891
0
LINE
8
0
10
3.597460
20
-215.671000
11
1.715970
21
-215.671000
0
LINE
8
0
10
-28.394500
20
-212.524000
11
-28.264023
21
-213.836698
0
LINE
8
0
10
-28.264023
20
-213.836698
11
-27.761890
21
-215.026380
0
LINE
8
0
10
-27.761890
20
-215.026380
11
-26.934161
21
-216.017514
0
LINE
8
0
10
-26.934161
20
-216.017514
11
-25.826897
21
-216.734566
0
LINE
8
0
10
-25.826897
20
-216.734566
11
-24.556162
21
-217.088730
0
LINE
8
0
10
-24.556162
20
-217.088730
11
-23.265376
21
-217.051922
0
LINE
8
0
10
-23.265376
20
-217.051922
11
-22.041632
21
-216.639694
0
LINE
8
0
10
-22.041632
20
-216.639694
11
-20.972020
21
-215.867600
0
LINE
8
0
10
-30.988100
20
-212.388000
11
-30.962740
21
-213.451661
0
LINE
8
0
10
-30.962740
20
-213.451661
11
-30.780030
21
-214.481336
0
LINE
8
0
10
-30.780030
20
-214.481336
11
-30.449152
21
-215.461968
0
LINE
8
0
10
-30.449152
20
-215.461968
11
-29.979286
21
-216.378501
0
LINE
8
0
10
-29.979286
20
-216.378501
11
-29.379614
21
-217.215878
0
LINE
8
0
10
-29.379614
20
-217.215878
11
-28.659318
21
-217.959043
0
LINE
8
0
10
-28.659318
20
-217.959043
11
-27.827579
21
-218.592939
0
LINE
8
0
10
-27.827579
20
-218.592939
11
-26.893579
21
-219.102510
0
LINE
8
0
10
-26.893579
20
-219.102510
11
-25.893046
21
-219.464381
0
LINE
8
0
10
-25.893046
20
-219.464381
11
-24.867158
21
-219.667282
0
LINE
8
0
10
-24.867158
20
-219.667282
11
-23.833278
21
-219.714314
0
LINE
8
0
10
-23.833278
20
-219.714314
11
-22.808766
21
-219.608576
0
LINE
8
0
10
-22.808766
20
-219.608576
11
-21.810981
21
-219.353170
0
LINE
8
0
10
-21.810981
20
-219.353170
11
-20.857285
21
-218.951195
0
LINE
8
0
10
-20.857285
20
-218.951195
11
-19.965038
21
-218.405752
0
LINE
8
0
10
-19.965038
20
-218.405752
11
-19.151600
21
-217.719940
0
LINE
8
0
10
-10.926900
20
-215.867000
11
-10.228781
21
-216.424884
0
LINE
8
0
10
-10.228781
20
-216.424884
11
-9.440166
21
-216.825690
0
LINE
8
0
10
-9.440166
20
-216.825690
11
-8.586973
21
-217.059401
0
LINE
8
0
10
-8.586973
20
-217.059401
11
-7.695120
21
-217.116000
0
LINE
8
0
10
-5.033010
20
-219.115000
11
-4.122752
21
-218.626063
0
LINE
8
0
10
-4.122752
20
-218.626063
11
-3.307585
21
-218.018677
0
LINE
8
0
10
-3.307585
20
-218.018677
11
-1.997421
21
-216.503157
0
LINE
8
0
10
-1.997421
20
-216.503157
11
-1.172309
21
-214.677639
0
LINE
8
0
10
-1.172309
20
-214.677639
11
-0.963456
21
-213.682754
0
LINE
8
0
10
-0.963456
20
-213.682754
11
-0.902037
21
-212.651320
0
LINE
8
0
10
-0.902037
20
-212.651320
11
-0.993435
21
-211.622108
0
LINE
8
0
10
-0.993435
20
-211.622108
11
-1.231142
21
-210.633721
0
LINE
8
0
10
-1.231142
20
-210.633721
11
-2.109011
21
-208.832978
0
LINE
8
0
10
-2.109011
20
-208.832978
11
-3.462707
21
-207.356213
0
LINE
8
0
10
-3.462707
20
-207.356213
11
-4.295198
21
-206.772798
0
LINE
8
0
10
-4.295198
20
-206.772798
11
-5.219295
21
-206.310548
0
LINE
8
0
10
-5.219295
20
-206.310548
11
-6.201469
21
-205.989667
0
LINE
8
0
10
-6.201469
20
-205.989667
11
-7.203671
21
-205.819357
0
LINE
8
0
10
-7.203671
20
-205.819357
11
-9.204571
21
-205.917993
0
LINE
8
0
10
-9.204571
20
-205.917993
11
-11.094817
21
-206.581545
0
LINE
8
0
10
-11.094817
20
-206.581545
11
-11.958701
21
-207.117379
0
LINE
8
0
10
-11.958701
20
-207.117379
11
-12.747230
21
-207.785100
0
LINE
8
0
10
-7.695070
20
-217.116000
11
-7.695070
21
-219.715000
0
LINE
8
0
10
-6.089360
20
-216.741000
11
-5.033000
21
-219.114490
0
LINE
8
0
10
-13.518400
20
-213.320000
11
-15.371100
21
-215.140330
0
LINE
8
0
10
-15.371100
20
-215.141000
11
-12.747200
21
-217.720510
0
LINE
8
0
10
-13.518400
20
-213.320000
11
-10.926810
21
-215.868460
0
LINE
8
0
10
-19.151600
20
-217.720000
11
-10.926800
21
-209.637160
0
LINE
8
0
10
-20.972000
20
-215.869000
11
-12.747230
21
-207.786160
0
LINE
8
0
10
-16.527700
20
-210.363000
11
-18.380400
21
-212.183330
0
LINE
8
0
10
-16.527700
20
-210.363000
11
-19.151600
21
-207.786310
0
LINE
8
0
10
-18.380400
20
-212.183000
11
-20.971960
21
-209.637360
0
LINE
8
0
10
-24.033100
20
-205.788000
11
-24.033100
21
-208.384000
0
LINE
8
0
10
-25.163500
20
-208.534000
11
-25.835696
21
-206.025050
0
LINE
8
0
10
-27.195000
20
-206.547000
11
-26.015900
21
-208.861220
0
LINE
8
0
10
-26.347500
20
-209.047000
11
-27.723780
21
-206.845670
0
LINE
8
0
10
-29.126700
20
-208.003000
11
-27.227180
21
-209.772530
0
LINE
8
0
10
-29.738000
20
-208.757000
11
-27.610640
21
-210.247130
0
LINE
8
0
10
-30.819200
20
-211.187000
11
-28.288520
21
-211.771200
0
LINE
8
0
10
-30.988000
20
-212.389000
11
-28.394380
21
-212.524467
0
LINE
8
0
10
-6.089380
20
-216.742000
11
-5.007382
21
-216.054515
0
LINE
8
0
10
-5.007382
20
-216.054515
11
-4.185790
21
-215.104153
0
LINE
8
0
10
-4.185790
20
-215.104153
11
-3.668369
21
-213.959394
0
LINE
8
0
10
-3.668369
20
-213.959394
11
-3.498882
21
-212.688713
0
LINE
8
0
10
-3.498882
20
-212.688713
11
-3.705260
21
-211.423500
0
LINE
8
0
10
-3.705260
20
-211.423500
11
-4.255762
21
-210.294276
0
LINE
8
0
10
-4.255762
20
-210.294276
11
-5.104651
21
-209.368216
0
LINE
8
0
10
-5.104651
20
-209.368216
11
-6.206189
21
-208.712496
0
LINE
8
0
10
-6.206189
20
-208.712496
11
-7.450569
21
-208.404481
0
LINE
8
0
10
-7.450569
20
-208.404481
11
-8.705309
21
-208.466342
0
LINE
8
0
10
-8.705309
20
-208.466342
11
-9.890657
21
-208.882456
0
LINE
8
0
10
-9.890657
20
-208.882456
11
-10.926860
21
-209.637200
0
LINE
8
0
10
-12.747200
20
-217.720000
11
-11.655561
21
-218.595661
0
LINE
8
0
10
-11.655561
20
-218.595661
11
-10.423626
21
-219.230321
0
LINE
8
0
10
-10.423626
20
-219.230321
11
-9.090438
21
-219.608563
0
LINE
8
0
10
-9.090438
20
-219.608563
11
-7.695040
21
-219.714970
0
LINE
8
0
10
-19.151600
20
-207.785000
11
-20.207009
21
-206.932995
0
LINE
8
0
10
-20.207009
20
-206.932995
11
-21.395990
21
-206.306492
0
LINE
8
0
10
-21.395990
20
-206.306492
11
-22.683152
21
-205.919970
0
LINE
8
0
10
-22.683152
20
-205.919970
11
-24.033100
21
-205.787910
0
LINE
8
0
10
-27.610700
20
-210.247000
11
-28.022949
21
-210.975643
0
LINE
8
0
10
-28.022949
20
-210.975643
11
-28.288592
21
-211.769560
0
LINE
8
0
10
-29.738100
20
-208.758000
11
-30.395505
21
-209.919960
0
LINE
8
0
10
-30.395505
20
-209.919960
11
-30.819120
21
-211.186010
0
LINE
8
0
10
-26.347500
20
-209.049000
11
-27.227235
21
-209.774198
0
LINE
8
0
10
-27.723800
20
-206.846000
11
-29.126690
21
-208.002460
0
LINE
8
0
10
-25.163500
20
-208.534000
11
-26.015882
21
-208.861208
0
LINE
8
0
10
-25.835700
20
-206.025000
11
-27.194980
21
-206.546772
0
LINE
8
0
10
-20.972000
20
-209.637000
11
-21.633833
21
-209.102724
0
LINE
8
0
10
-21.633833
20
-209.102724
11
-22.379427
21
-208.709857
0
LINE
8
0
10
-22.379427
20
-208.709857
11
-23.186588
21
-208.467479
0
LINE
8
0
10
-23.186588
20
-208.467479
11
-24.033120
21
-208.384670
0
LINE
8
Layer 1
10
6.587070
20
-11.219700
11
6.351823
21
-10.723650
0
LINE
8
Layer 1
10
6.351823
20
-10.723650
11
6.826839
21
-10.542929
0
LINE
8
Layer 1
10
6.826839
20
-10.542929
11
6.973096
21
-11.074702
0
LINE
8
Layer 1
10
6.973096
20
-11.074702
11
7.114245
21
-11.601366
0
LINE
8
Layer 1
10
7.114245
20
-11.601366
11
6.981535
21
-11.653247
0
LINE
8
Layer 1
10
6.981535
20
-11.653247
11
6.841104
21
-11.705128
0
LINE
8
Layer 1
10
6.841104
20
-11.705128
11
6.587071
21
-11.219700
0
LINE
8
Layer 1
10
6.587071
20
-11.219700
11
6.587070
21
-11.219700
0
LINE
8
Layer 1
10
5.806650
20
-11.781300
11
5.407536
21
-11.403011
0
LINE
8
Layer 1
10
5.407536
20
-11.403011
11
5.778137
21
-11.069725
0
LINE
8
Layer 1
10
5.778137
20
-11.069725
11
5.945997
21
-10.973840
0
LINE
8
Layer 1
10
5.945997
20
-10.973840
11
6.514208
21
-11.889296
0
LINE
8
Layer 1
10
6.514208
20
-11.889296
11
6.473453
21
-11.924773
0
LINE
8
Layer 1
10
6.473453
20
-11.924773
11
6.317152
21
-12.048695
0
LINE
8
Layer 1
10
6.317152
20
-12.048695
11
6.201606
21
-12.148542
0
LINE
8
Layer 1
10
6.201606
20
-12.148542
11
5.806650
21
-11.781300
0
LINE
8
Layer 1
10
5.076000
20
-13.024000
11
4.558125
21
-12.895663
0
LINE
8
Layer 1
10
4.558125
20
-12.895663
11
4.616819
21
-12.680910
0
LINE
8
Layer 1
10
4.616819
20
-12.680910
11
4.942791
21
-11.981539
0
LINE
8
Layer 1
10
4.942791
20
-11.981539
11
5.001509
21
-11.890442
0
LINE
8
Layer 1
10
5.001509
20
-11.890442
11
5.069686
21
-11.939698
0
LINE
8
Layer 1
10
5.069686
20
-11.939698
11
5.505368
21
-12.245709
0
LINE
8
Layer 1
10
5.505368
20
-12.245709
11
5.883322
21
-12.511296
0
LINE
8
Layer 1
10
5.883322
20
-12.511296
11
5.796301
21
-12.714766
0
LINE
8
Layer 1
10
5.796301
20
-12.714766
11
5.663350
21
-13.027793
0
LINE
8
Layer 1
10
5.663350
20
-13.027793
11
5.606251
21
-13.144639
0
LINE
8
Layer 1
10
5.606251
20
-13.144639
11
5.076000
21
-13.024000
0
LINE
8
Layer 1
10
5.076000
20
-13.024000
11
5.076000
21
-13.024000
0
LINE
8
Layer 1
10
7.289450
20
-17.021800
11
6.258852
21
-16.690361
0
LINE
8
Layer 1
10
6.258852
20
-16.690361
11
5.407975
21
-16.067064
0
LINE
8
Layer 1
10
5.407975
20
-16.067064
11
4.794180
21
-15.209889
0
LINE
8
Layer 1
10
4.794180
20
-15.209889
11
4.474830
21
-14.176820
0
LINE
8
Layer 1
10
4.474830
20
-14.176820
11
4.444716
21
-13.833741
0
LINE
8
Layer 1
10
4.444716
20
-13.833741
11
4.434618
21
-13.634782
0
LINE
8
Layer 1
10
4.434618
20
-13.634782
11
4.541242
21
-13.643142
0
LINE
8
Layer 1
10
4.541242
20
-13.643142
11
5.503588
21
-13.694019
0
LINE
8
Layer 1
10
5.503588
20
-13.694019
11
5.544200
21
-13.694000
0
LINE
8
Layer 1
10
5.544200
20
-13.694000
11
5.553088
21
-13.849337
0
LINE
8
Layer 1
10
5.553088
20
-13.849337
11
5.677124
21
-14.467380
0
LINE
8
Layer 1
10
5.677124
20
-14.467380
11
5.964286
21
-15.027007
0
LINE
8
Layer 1
10
5.964286
20
-15.027007
11
6.856680
21
-15.755282
0
LINE
8
Layer 1
10
6.856680
20
-15.755282
11
7.478496
21
-15.930365
0
LINE
8
Layer 1
10
7.478496
20
-15.930365
11
8.113201
21
-15.923788
0
LINE
8
Layer 1
10
8.113201
20
-15.923788
11
8.717275
21
-15.742161
0
LINE
8
Layer 1
10
8.717275
20
-15.742161
11
9.247200
21
-15.392097
0
LINE
8
Layer 1
10
9.247200
20
-15.392097
11
11.363830
21
-13.320057
0
LINE
8
Layer 1
10
11.363830
20
-13.320057
11
13.460770
21
-11.264777
0
LINE
8
Layer 1
10
13.460770
20
-11.264777
11
14.228533
21
-10.747282
0
LINE
8
Layer 1
10
14.228533
20
-10.747282
11
15.278683
21
-10.428894
0
LINE
8
Layer 1
10
15.278683
20
-10.428894
11
16.285513
21
-10.456144
0
LINE
8
Layer 1
10
16.285513
20
-10.456144
11
17.427323
21
-10.893669
0
LINE
8
Layer 1
10
17.427323
20
-10.893669
11
18.018830
21
-11.355485
0
LINE
8
Layer 1
10
18.018830
20
-11.355485
11
18.483394
21
-11.925164
0
LINE
8
Layer 1
10
18.483394
20
-11.925164
11
18.812265
21
-12.589103
0
LINE
8
Layer 1
10
18.812265
20
-12.589103
11
18.996693
21
-13.333699
0
LINE
8
Layer 1
10
18.996693
20
-13.333699
11
18.996469
21
-14.126357
0
LINE
8
Layer 1
10
18.996469
20
-14.126357
11
18.796914
21
-14.914441
0
LINE
8
Layer 1
10
18.796914
20
-14.914441
11
18.429194
21
-15.615137
0
LINE
8
Layer 1
10
18.429194
20
-15.615137
11
17.907878
21
-16.207255
0
LINE
8
Layer 1
10
17.907878
20
-16.207255
11
17.247539
21
-16.669607
0
LINE
8
Layer 1
10
17.247539
20
-16.669607
11
17.121474
21
-16.737493
0
LINE
8
Layer 1
10
17.121474
20
-16.737493
11
17.094389
21
-16.674955
0
LINE
8
Layer 1
10
17.094389
20
-16.674955
11
16.890708
21
-16.216089
0
LINE
8
Layer 1
10
16.890708
20
-16.216089
11
16.694637
21
-15.774027
0
LINE
8
Layer 1
10
16.694637
20
-15.774027
11
16.675160
21
-15.728294
0
LINE
8
Layer 1
10
16.675160
20
-15.728294
11
16.793790
21
-15.660039
0
LINE
8
Layer 1
10
16.793790
20
-15.660039
11
17.503622
21
-15.016318
0
LINE
8
Layer 1
10
17.503622
20
-15.016318
11
17.880490
21
-14.119149
0
LINE
8
Layer 1
10
17.880490
20
-14.119149
11
17.872784
21
-13.304873
0
LINE
8
Layer 1
10
17.872784
20
-13.304873
11
17.711000
21
-12.803802
0
LINE
8
Layer 1
10
17.711000
20
-12.803802
11
17.119747
21
-12.027447
0
LINE
8
Layer 1
10
17.119747
20
-12.027447
11
16.291712
21
-11.592050
0
LINE
8
Layer 1
10
16.291712
20
-11.592050
11
15.357394
21
-11.534141
0
LINE
8
Layer 1
10
15.357394
20
-11.534141
11
14.447290
21
-11.890249
0
LINE
8
Layer 1
10
14.447290
20
-11.890249
11
14.216113
21
-12.068119
0
LINE
8
Layer 1
10
14.216113
20
-12.068119
11
10.376593
21
-15.834009
0
LINE
8
Layer 1
10
10.376593
20
-15.834009
11
9.230843
21
-16.714315
0
LINE
8
Layer 1
10
9.230843
20
-16.714315
11
8.186403
21
-17.031213
0
LINE
8
Layer 1
10
8.186403
20
-17.031213
11
7.289427
21
-17.021774
0
LINE
8
Layer 1
10
7.289427
20
-17.021774
11
7.289450
21
-17.021800
0
LINE
8
Layer 1
10
22.108000
20
-16.196200
11
22.108000
21
-15.844800
0
LINE
8
Layer 1
10
22.108000
20
-15.844800
11
22.176456
21
-15.827566
0
LINE
8
Layer 1
10
22.176456
20
-15.827566
11
22.663490
21
-15.414975
0
LINE
8
Layer 1
10
22.663490
20
-15.414975
11
22.705597
21
-15.127285
0
LINE
8
Layer 1
10
22.705597
20
-15.127285
11
22.706120
21
-14.939229
0
LINE
8
Layer 1
10
22.706120
20
-14.939229
11
22.651790
21
-14.829252
0
LINE
8
Layer 1
10
22.651790
20
-14.829252
11
22.383171
21
-14.540556
0
LINE
8
Layer 1
10
22.383171
20
-14.540556
11
21.775873
21
-14.281887
0
LINE
8
Layer 1
10
21.775873
20
-14.281887
11
21.302350
21
-14.090057
0
LINE
8
Layer 1
10
21.302350
20
-14.090057
11
20.896755
21
-13.729127
0
LINE
8
Layer 1
10
20.896755
20
-13.729127
11
20.692666
21
-13.306739
0
LINE
8
Layer 1
10
20.692666
20
-13.306739
11
20.685453
21
-12.753797
0
LINE
8
Layer 1
10
20.685453
20
-12.753797
11
20.994876
21
-12.152185
0
LINE
8
Layer 1
10
20.994876
20
-12.152185
11
21.529020
21
-11.790004
0
LINE
8
Layer 1
10
21.529020
20
-11.790004
11
22.007052
21
-11.717914
0
LINE
8
Layer 1
10
22.007052
20
-11.717914
11
22.478917
21
-11.805633
0
LINE
8
Layer 1
10
22.478917
20
-11.805633
11
22.903274
21
-12.081652
0
LINE
8
Layer 1
10
22.903274
20
-12.081652
11
23.204051
21
-12.504285
0
LINE
8
Layer 1
10
23.204051
20
-12.504285
11
23.304215
21
-12.868022
0
LINE
8
Layer 1
10
23.304215
20
-12.868022
11
23.304200
21
-12.915700
0
LINE
8
Layer 1
10
23.304200
20
-12.915700
11
22.940298
21
-12.915680
0
LINE
8
Layer 1
10
22.940298
20
-12.915680
11
22.576396
21
-12.915660
0
LINE
8
Layer 1
10
22.576396
20
-12.915660
11
22.552048
21
-12.832792
0
LINE
8
Layer 1
10
22.552048
20
-12.832792
11
22.350108
21
-12.525369
0
LINE
8
Layer 1
10
22.350108
20
-12.525369
11
21.955725
21
-12.403959
0
LINE
8
Layer 1
10
21.955725
20
-12.403959
11
21.582031
21
-12.556884
0
LINE
8
Layer 1
10
21.582031
20
-12.556884
11
21.396514
21
-12.909552
0
LINE
8
Layer 1
10
21.396514
20
-12.909552
11
21.468571
21
-13.299436
0
LINE
8
Layer 1
10
21.468571
20
-13.299436
11
21.712769
21
-13.529593
0
LINE
8
Layer 1
10
21.712769
20
-13.529593
11
22.141677
21
-13.685324
0
LINE
8
Layer 1
10
22.141677
20
-13.685324
11
22.978141
21
-14.126279
0
LINE
8
Layer 1
10
22.978141
20
-14.126279
11
23.282312
21
-14.547019
0
LINE
8
Layer 1
10
23.282312
20
-14.547019
11
23.414839
21
-15.171078
0
LINE
8
Layer 1
10
23.414839
20
-15.171078
11
23.261457
21
-15.763678
0
LINE
8
Layer 1
10
23.261457
20
-15.763678
11
22.865225
21
-16.240996
0
LINE
8
Layer 1
10
22.865225
20
-16.240996
11
22.269202
21
-16.519209
0
LINE
8
Layer 1
10
22.269202
20
-16.519209
11
22.126018
21
-16.547200
0
LINE
8
Layer 1
10
22.126018
20
-16.547200
11
22.108003
21
-16.196130
0
LINE
8
Layer 1
10
22.108003
20
-16.196130
11
22.108000
21
-16.196200
0
LINE
8
Layer 1
10
21.375900
20
-16.447000
11
21.029397
21
-16.249489
0
LINE
8
Layer 1
10
21.029397
20
-16.249489
11
20.981324
21
-16.208776
0
LINE
8
Layer 1
10
20.981324
20
-16.208776
11
21.209547
21
-15.993532
0
LINE
8
Layer 1
10
21.209547
20
-15.993532
11
21.475864
21
-15.743749
0
LINE
8
Layer 1
10
21.475864
20
-15.743749
11
21.513958
21
-15.709210
0
LINE
8
Layer 1
10
21.513958
20
-15.709210
11
21.570884
21
-15.746882
0
LINE
8
Layer 1
10
21.570884
20
-15.746882
11
21.627809
21
-15.784552
0
LINE
8
Layer 1
10
21.627809
20
-15.784552
11
21.579652
21
-16.032740
0
LINE
8
Layer 1
10
21.579652
20
-16.032740
11
21.515424
21
-16.374605
0
LINE
8
Layer 1
10
21.515424
20
-16.374605
11
21.490178
21
-16.478152
0
LINE
8
Layer 1
10
21.490178
20
-16.478152
11
21.375900
21
-16.447000
0
LINE
8
Layer 1
10
21.375900
20
-16.447000
11
21.375900
21
-16.447000
0
LINE
8
Layer 1
10
20.692100
20
-15.895500
11
20.612298
21
-15.704702
0
LINE
8
Layer 1
10
20.612298
20
-15.704702
11
21.310101
21
-15.499944
0
LINE
8
Layer 1
10
21.310101
20
-15.499944
11
21.103409
21
-15.654890
0
LINE
8
Layer 1
10
21.103409
20
-15.654890
11
20.801744
21
-15.865613
0
LINE
8
Layer 1
10
20.801744
20
-15.865613
11
20.713364
21
-15.927984
0
LINE
8
Layer 1
10
20.713364
20
-15.927984
11
20.692100
21
-15.895500
0
LINE
8
Layer 1
10
20.477200
20
-15.300900
11
20.472040
21
-15.236046
0
LINE
8
Layer 1
10
20.472040
20
-15.236046
11
20.796413
21
-15.237181
0
LINE
8
Layer 1
10
20.796413
20
-15.237181
11
21.106374
21
-15.243535
0
LINE
8
Layer 1
10
21.106374
20
-15.243535
11
20.505041
21
-15.365750
0
LINE
8
Layer 1
10
20.505041
20
-15.365750
11
20.477198
21
-15.300897
0
LINE
8
Layer 1
10
20.477198
20
-15.300897
11
20.477200
21
-15.300900
0
LINE
8
Layer 1
10
25.793500
20
-15.744100
11
25.705779
21
-14.649180
0
LINE
8
Layer 1
10
25.705779
20
-14.649180
11
25.413200
21
-14.400515
0
LINE
8
Layer 1
10
25.413200
20
-14.400515
11
25.074424
21
-14.391439
0
LINE
8
Layer 1
10
25.074424
20
-14.391439
11
24.773990
21
-14.572032
0
LINE
8
Layer 1
10
24.773990
20
-14.572032
11
24.569462
21
-14.928748
0
LINE
8
Layer 1
10
24.569462
20
-14.928748
11
24.532635
21
-15.801747
0
LINE
8
Layer 1
10
24.532635
20
-15.801747
11
24.526953
21
-16.561978
0
LINE
8
Layer 1
10
24.526953
20
-16.561978
11
24.297500
21
-16.562000
0
LINE
8
Layer 1
10
24.297500
20
-16.562000
11
24.068000
21
-16.562000
0
LINE
8
Layer 1
10
24.068000
20
-16.562000
11
24.068000
21
-15.293700
0
LINE
8
Layer 1
10
24.068000
20
-15.293700
11
24.068000
21
-14.025500
0
LINE
8
Layer 1
10
24.068000
20
-14.025500
11
24.284200
21
-14.025500
0
LINE
8
Layer 1
10
24.284200
20
-14.025500
11
24.500300
21
-14.025500
0
LINE
8
Layer 1
10
24.500300
20
-14.025500
11
24.500300
21
-14.145100
0
LINE
8
Layer 1
10
24.500300
20
-14.145100
11
24.578845
21
-14.298959
0
LINE
8
Layer 1
10
24.578845
20
-14.298959
11
24.738097
21
-14.198039
0
LINE
8
Layer 1
10
24.738097
20
-14.198039
11
25.058986
21
-14.001476
0
LINE
8
Layer 1
10
25.058986
20
-14.001476
11
25.416861
21
-13.958888
0
LINE
8
Layer 1
10
25.416861
20
-13.958888
11
25.970257
21
-14.136296
0
LINE
8
Layer 1
10
25.970257
20
-14.136296
11
26.269032
21
-14.573787
0
LINE
8
Layer 1
10
26.269032
20
-14.573787
11
26.298081
21
-15.614397
0
LINE
8
Layer 1
10
26.298081
20
-15.614397
11
26.303300
21
-16.576396
0
LINE
8
Layer 1
10
26.303300
20
-16.576396
11
26.051700
21
-16.576400
0
LINE
8
Layer 1
10
26.051700
20
-16.576400
11
25.800000
21
-16.576400
0
LINE
8
Layer 1
10
25.800000
20
-16.576400
11
25.793500
21
-15.744100
0
LINE
8
Layer 1
10
27.944800
20
-16.626800
11
27.316109
21
-16.299840
0
LINE
8
Layer 1
10
27.316109
20
-16.299840
11
26.954184
21
-15.656989
0
LINE
8
Layer 1
10
26.954184
20
-15.656989
11
26.915919
21
-15.286518
0
LINE
8
Layer 1
10
26.915919
20
-15.286518
11
27.058144
21
-14.637980
0
LINE
8
Layer 1
10
27.058144
20
-14.637980
11
27.620532
21
-14.069068
0
LINE
8
Layer 1
10
27.620532
20
-14.069068
11
28.132157
21
-13.962157
0
LINE
8
Layer 1
10
28.132157
20
-13.962157
11
28.467907
21
-14.001725
0
LINE
8
Layer 1
10
28.467907
20
-14.001725
11
28.961349
21
-14.270910
0
LINE
8
Layer 1
10
28.961349
20
-14.270910
11
29.112172
21
-14.299298
0
LINE
8
Layer 1
10
29.112172
20
-14.299298
11
29.140996
21
-14.147972
0
LINE
8
Layer 1
10
29.140996
20
-14.147972
11
29.141000
21
-14.025500
0
LINE
8
Layer 1
10
29.141000
20
-14.025500
11
29.364400
21
-14.025500
0
LINE
8
Layer 1
10
29.364400
20
-14.025500
11
29.587800
21
-14.025500
0
LINE
8
Layer 1
10
29.587800
20
-14.025500
11
29.587800
21
-15.300900
0
LINE
8
Layer 1
10
29.587800
20
-15.300900
11
29.587800
21
-16.576400
0
LINE
8
Layer 1
10
29.587800
20
-16.576400
11
29.357200
21
-16.576400
0
LINE
8
Layer 1
10
29.357200
20
-16.576400
11
29.126600
21
-16.576400
0
LINE
8
Layer 1
10
29.126600
20
-16.576400
11
29.126600
21
-16.449600
0
LINE
8
Layer 1
10
29.126600
20
-16.449600
11
29.109305
21
-16.305481
0
LINE
8
Layer 1
10
29.109305
20
-16.305481
11
28.929274
21
-16.361611
0
LINE
8
Layer 1
10
28.929274
20
-16.361611
11
28.465941
21
-16.608108
0
LINE
8
Layer 1
10
28.465941
20
-16.608108
11
27.944818
21
-16.626837
0
LINE
8
Layer 1
10
27.944818
20
-16.626837
11
27.944800
21
-16.626800
0
LINE
8
Layer 1
10
28.557592
20
-16.133686
11
28.982147
21
-15.810329
0
LINE
8
Layer 1
10
28.982147
20
-15.810329
11
29.130956
21
-15.264900
0
LINE
8
Layer 1
10
29.130956
20
-15.264900
11
29.064692
21
-14.888918
0
LINE
8
Layer 1
10
29.064692
20
-14.888918
11
28.868666
21
-14.598158
0
LINE
8
Layer 1
10
28.868666
20
-14.598158
11
28.262639
21
-14.358237
0
LINE
8
Layer 1
10
28.262639
20
-14.358237
11
27.657726
21
-14.595649
0
LINE
8
Layer 1
10
27.657726
20
-14.595649
11
27.459737
21
-14.888658
0
LINE
8
Layer 1
10
27.459737
20
-14.888658
11
27.393017
21
-15.264902
0
LINE
8
Layer 1
10
27.393017
20
-15.264902
11
27.526497
21
-15.777056
0
LINE
8
Layer 1
10
27.526497
20
-15.777056
11
27.906348
21
-16.108746
0
LINE
8
Layer 1
10
27.906348
20
-16.108746
11
28.557594
21
-16.133689
0
LINE
8
Layer 1
10
28.557594
20
-16.133689
11
28.557592
21
-16.133686
0
LINE
8
Layer 1
10
30.250700
20
-14.839700
11
30.250700
21
-13.103100
0
LINE
8
Layer 1
10
30.250700
20
-13.103100
11
30.488500
21
-13.103100
0
LINE
8
Layer 1
10
30.488500
20
-13.103100
11
30.726300
21
-13.103100
0
LINE
8
Layer 1
10
30.726300
20
-13.103100
11
30.726300
21
-14.152300
0
LINE
8
Layer 1
10
30.726300
20
-14.152300
11
30.743594
21
-15.218790
0
LINE
8
Layer 1
10
30.743594
20
-15.218790
11
30.869591
21
-15.203657
0
LINE
8
Layer 1
10
30.869591
20
-15.203657
11
31.306874
21
-14.580340
0
LINE
8
Layer 1
10
31.306874
20
-14.580340
11
31.716353
21
-13.989449
0
LINE
8
Layer 1
10
31.716353
20
-13.989449
11
31.992366
21
-13.985536
0
LINE
8
Layer 1
10
31.992366
20
-13.985536
11
32.268379
21
-13.989046
0
LINE
8
Layer 1
10
32.268379
20
-13.989046
11
31.806565
21
-14.612675
0
LINE
8
Layer 1
10
31.806565
20
-14.612675
11
31.348985
21
-15.267624
0
LINE
8
Layer 1
10
31.348985
20
-15.267624
11
31.864845
21
-15.929354
0
LINE
8
Layer 1
10
31.864845
20
-15.929354
11
32.381273
21
-16.564371
0
LINE
8
Layer 1
10
32.381273
20
-16.564371
11
32.120769
21
-16.576401
0
LINE
8
Layer 1
10
32.120769
20
-16.576401
11
31.855500
21
-16.576400
0
LINE
8
Layer 1
10
31.855500
20
-16.576400
11
31.373787
21
-15.983089
0
LINE
8
Layer 1
10
31.373787
20
-15.983089
11
30.876100
21
-15.368178
0
LINE
8
Layer 1
10
30.876100
20
-15.368178
11
30.745915
21
-15.373353
0
LINE
8
Layer 1
10
30.745915
20
-15.373353
11
30.726338
21
-15.988264
0
LINE
8
Layer 1
10
30.726338
20
-15.988264
11
30.726300
21
-16.576400
0
LINE
8
Layer 1
10
30.726300
20
-16.576400
11
30.488500
21
-16.576400
0
LINE
8
Layer 1
10
30.488500
20
-16.576400
11
30.250700
21
-16.576400
0
LINE
8
Layer 1
10
30.250700
20
-16.576400
11
30.250700
21
-14.839700
0
LINE
8
Layer 1
10
34.033900
20
-16.628200
11
33.333243
21
-16.249935
0
LINE
8
Layer 1
10
33.333243
20
-16.249935
11
33.049676
21
-15.819448
0
LINE
8
Layer 1
10
33.049676
20
-15.819448
11
32.955261
21
-15.308154
0
LINE
8
Layer 1
10
32.955261
20
-15.308154
11
33.116126
21
-14.639053
0
LINE
8
Layer 1
10
33.116126
20
-14.639053
11
33.407352
21
-14.256364
0
LINE
8
Layer 1
10
33.407352
20
-14.256364
11
33.798051
21
-14.017974
0
LINE
8
Layer 1
10
33.798051
20
-14.017974
11
34.255438
21
-13.936258
0
LINE
8
Layer 1
10
34.255438
20
-13.936258
11
34.746726
21
-14.023591
0
LINE
8
Layer 1
10
34.746726
20
-14.023591
11
35.379885
21
-14.505933
0
LINE
8
Layer 1
10
35.379885
20
-14.505933
11
35.607088
21
-15.307146
0
LINE
8
Layer 1
10
35.607088
20
-15.307146
11
35.616441
21
-15.481098
0
LINE
8
Layer 1
10
35.616441
20
-15.481098
11
34.563100
21
-15.481100
0
LINE
8
Layer 1
10
34.563100
20
-15.481100
11
33.568127
21
-15.491112
0
LINE
8
Layer 1
10
33.568127
20
-15.491112
11
33.471670
21
-15.579411
0
LINE
8
Layer 1
10
33.471670
20
-15.579411
11
33.756481
21
-16.022032
0
LINE
8
Layer 1
10
33.756481
20
-16.022032
11
34.229645
21
-16.197501
0
LINE
8
Layer 1
10
34.229645
20
-16.197501
11
34.873356
21
-15.994658
0
LINE
8
Layer 1
10
34.873356
20
-15.994658
11
34.963471
21
-15.927872
0
LINE
8
Layer 1
10
34.963471
20
-15.927872
11
35.237300
21
-15.927800
0
LINE
8
Layer 1
10
35.237300
20
-15.927800
11
35.511087
21
-15.936085
0
LINE
8
Layer 1
10
35.511087
20
-15.936085
11
35.282191
21
-16.245646
0
LINE
8
Layer 1
10
35.282191
20
-16.245646
11
34.648082
21
-16.600493
0
LINE
8
Layer 1
10
34.648082
20
-16.600493
11
34.033861
21
-16.628131
0
LINE
8
Layer 1
10
34.033861
20
-16.628131
11
34.033900
21
-16.628200
0
LINE
8
Layer 1
10
35.104710
20
-15.045860
11
35.080806
21
-14.854181
0
LINE
8
Layer 1
10
35.080806
20
-14.854181
11
34.682242
21
-14.470732
0
LINE
8
Layer 1
10
34.682242
20
-14.470732
11
34.106375
21
-14.407575
0
LINE
8
Layer 1
10
34.106375
20
-14.407575
11
33.550379
21
-14.809113
0
LINE
8
Layer 1
10
33.550379
20
-14.809113
11
33.487122
21
-15.035298
0
LINE
8
Layer 1
10
33.487122
20
-15.035298
11
34.299875
21
-15.063154
0
LINE
8
Layer 1
10
34.299875
20
-15.063154
11
35.104711
21
-15.045859
0
LINE
8
Layer 1
10
35.104711
20
-15.045859
11
35.104710
21
-15.045860
0
LINE
8
Layer 1
10
37.651600
20
-16.646800
11
37.059567
21
-16.445021
0
LINE
8
Layer 1
10
37.059567
20
-16.445021
11
36.559040
21
-16.045786
0
LINE
8
Layer 1
10
36.559040
20
-16.045786
11
36.155639
21
-15.231329
0
LINE
8
Layer 1
10
36.155639
20
-15.231329
11
36.196437
21
-14.303546
0
LINE
8
Layer 1
10
36.196437
20
-14.303546
11
36.479346
21
-13.749289
0
LINE
8
Layer 1
10
36.479346
20
-13.749289
11
37.108402
21
-13.219915
0
LINE
8
Layer 1
10
37.108402
20
-13.219915
11
37.912436
21
-13.031109
0
LINE
8
Layer 1
10
37.912436
20
-13.031109
11
38.818819
21
-13.293917
0
LINE
8
Layer 1
10
38.818819
20
-13.293917
11
39.472316
21
-13.996108
0
LINE
8
Layer 1
10
39.472316
20
-13.996108
11
39.680805
21
-14.868576
0
LINE
8
Layer 1
10
39.680805
20
-14.868576
11
39.488879
21
-15.678731
0
LINE
8
Layer 1
10
39.488879
20
-15.678731
11
38.955067
21
-16.315816
0
LINE
8
Layer 1
10
38.955067
20
-16.315816
11
38.334785
21
-16.604943
0
LINE
8
Layer 1
10
38.334785
20
-16.604943
11
37.651597
21
-16.646800
0
LINE
8
Layer 1
10
37.651597
20
-16.646800
11
37.651600
21
-16.646800
0
LINE
8
Layer 1
10
38.227788
20
-16.122781
11
38.680227
21
-15.891052
0
LINE
8
Layer 1
10
38.680227
20
-15.891052
11
39.109626
21
-15.240142
0
LINE
8
Layer 1
10
39.109626
20
-15.240142
11
39.149329
21
-14.861369
0
LINE
8
Layer 1
10
39.149329
20
-14.861369
11
39.117198
21
-14.495377
0
LINE
8
Layer 1
10
39.117198
20
-14.495377
11
38.838661
21
-13.972026
0
LINE
8
Layer 1
10
38.838661
20
-13.972026
11
38.373628
21
-13.637996
0
LINE
8
Layer 1
10
38.373628
20
-13.637996
11
37.896313
21
-13.544942
0
LINE
8
Layer 1
10
37.896313
20
-13.544942
11
37.117602
21
-13.806605
0
LINE
8
Layer 1
10
37.117602
20
-13.806605
11
36.675593
21
-14.510049
0
LINE
8
Layer 1
10
36.675593
20
-14.510049
11
36.675593
21
-15.198278
0
LINE
8
Layer 1
10
36.675593
20
-15.198278
11
37.020571
21
-15.806945
0
LINE
8
Layer 1
10
37.020571
20
-15.806945
11
37.636899
21
-16.135452
0
LINE
8
Layer 1
10
37.636899
20
-16.135452
11
38.227789
21
-16.122782
0
LINE
8
Layer 1
10
38.227789
20
-16.122782
11
38.227788
21
-16.122781
0
LINE
8
Layer 1
10
40.324700
20
-15.286500
11
40.324700
21
-13.996600
0
LINE
8
Layer 1
10
40.324700
20
-13.996600
11
40.569700
21
-13.996600
0
LINE
8
Layer 1
10
40.569700
20
-13.996600
11
40.814700
21
-13.996600
0
LINE
8
Layer 1
10
40.814700
20
-13.996600
11
40.814700
21
-15.286500
0
LINE
8
Layer 1
10
40.814700
20
-15.286500
11
40.814700
21
-16.576400
0
LINE
8
Layer 1
10
40.814700
20
-16.576400
11
40.569700
21
-16.576400
0
LINE
8
Layer 1
10
40.569700
20
-16.576400
11
40.324700
21
-16.576400
0
LINE
8
Layer 1
10
40.324700
20
-16.576400
11
40.324700
21
-15.286500
0
LINE
8
Layer 1
10
41.506500
20
-14.832500
11
41.506500
21
-13.088700
0
LINE
8
Layer 1
10
41.506500
20
-13.088700
11
41.751500
21
-13.088700
0
LINE
8
Layer 1
10
41.751500
20
-13.088700
11
41.996500
21
-13.088700
0
LINE
8
Layer 1
10
41.996500
20
-13.088700
11
41.996500
21
-14.832500
0
LINE
8
Layer 1
10
41.996500
20
-14.832500
11
41.996500
21
-16.576400
0
LINE
8
Layer 1
10
41.996500
20
-16.576400
11
41.751500
21
-16.576400
0
LINE
8
Layer 1
10
41.751500
20
-16.576400
11
41.506500
21
-16.576400
0
LINE
8
Layer 1
10
41.506500
20
-16.576400
11
41.506500
21
-14.832500
0
LINE
8
Layer 1
10
40.339100
20
-13.319300
11
40.339100
21
-13.088700
0
LINE
8
Layer 1
10
40.339100
20
-13.088700
11
40.576900
21
-13.088700
0
LINE
8
Layer 1
10
40.576900
20
-13.088700
11
40.814700
21
-13.088700
0
LINE
8
Layer 1
10
40.814700
20
-13.088700
11
40.814700
21
-13.319300
0
LINE
8
Layer 1
10
40.814700
20
-13.319300
11
40.814700
21
-13.549900
0
LINE
8
Layer 1
10
40.814700
20
-13.549900
11
40.576900
21
-13.549900
0
LINE
8
Layer 1
10
40.576900
20
-13.549900
11
40.339100
21
-13.549900
0
LINE
8
Layer 1
10
40.339100
20
-13.549900
11
40.339100
21
-13.319300
0
LINE
8
Layer 1
10
42.688200
20
-16.190300
11
42.709699
21
-15.836143
0
LINE
8
Layer 1
10
42.709699
20
-15.836143
11
42.856295
21
-15.783073
0
LINE
8
Layer 1
10
42.856295
20
-15.783073
11
43.474406
21
-15.548603
0
LINE
8
Layer 1
10
43.474406
20
-15.548603
11
45.267946
21
-13.837643
0
LINE
8
Layer 1
10
45.267946
20
-13.837643
11
47.123026
21
-12.082083
0
LINE
8
Layer 1
10
47.123026
20
-12.082083
11
47.707071
21
-11.802639
0
LINE
8
Layer 1
10
47.707071
20
-11.802639
11
48.287246
21
-11.691179
0
LINE
8
Layer 1
10
48.287246
20
-11.691179
11
48.424160
21
-11.690656
0
LINE
8
Layer 1
10
48.424160
20
-11.690656
11
48.424200
21
-12.065400
0
LINE
8
Layer 1
10
48.424200
20
-12.065400
11
48.424200
21
-12.440100
0
LINE
8
Layer 1
10
48.424200
20
-12.440100
11
48.330522
21
-12.440548
0
LINE
8
Layer 1
10
48.330522
20
-12.440548
11
47.663338
21
-12.633790
0
LINE
8
Layer 1
10
47.663338
20
-12.633790
11
46.910943
21
-13.276615
0
LINE
8
Layer 1
10
46.910943
20
-13.276615
11
45.239153
21
-14.916955
0
LINE
8
Layer 1
10
45.239153
20
-14.916955
11
43.899553
21
-16.161855
0
LINE
8
Layer 1
10
43.899553
20
-16.161855
11
43.011876
21
-16.521113
0
LINE
8
Layer 1
10
43.011876
20
-16.521113
11
42.717837
21
-16.541456
0
LINE
8
Layer 1
10
42.717837
20
-16.541456
11
42.688239
21
-16.190318
0
LINE
8
Layer 1
10
42.688239
20
-16.190318
11
42.688200
21
-16.190300
0
LINE
8
Layer 1
10
49.000700
20
-16.191900
11
49.000700
21
-15.815200
0
LINE
8
Layer 1
10
49.000700
20
-15.815200
11
49.108790
21
-15.797124
0
LINE
8
Layer 1
10
49.108790
20
-15.797124
11
49.697454
21
-15.608306
0
LINE
8
Layer 1
10
49.697454
20
-15.608306
11
51.769874
21
-13.673566
0
LINE
8
Layer 1
10
51.769874
20
-13.673566
11
53.339964
21
-12.164156
0
LINE
8
Layer 1
10
53.339964
20
-12.164156
11
53.913077
21
-11.846490
0
LINE
8
Layer 1
10
53.913077
20
-11.846490
11
54.556514
21
-11.698300
0
LINE
8
Layer 1
10
54.556514
20
-11.698300
11
54.765488
21
-11.682442
0
LINE
8
Layer 1
10
54.765488
20
-11.682442
11
54.765500
21
-12.057200
0
LINE
8
Layer 1
10
54.765500
20
-12.057200
11
54.765500
21
-12.431900
0
LINE
8
Layer 1
10
54.765500
20
-12.431900
11
54.595420
21
-12.449677
0
LINE
8
Layer 1
10
54.595420
20
-12.449677
11
53.888096
21
-12.696101
0
LINE
8
Layer 1
10
53.888096
20
-12.696101
11
52.097836
21
-14.400141
0
LINE
8
Layer 1
10
52.097836
20
-14.400141
11
50.288246
21
-16.124101
0
LINE
8
Layer 1
10
50.288246
20
-16.124101
11
49.166456
21
-16.549202
0
LINE
8
Layer 1
10
49.166456
20
-16.549202
11
49.000718
21
-16.568576
0
LINE
8
Layer 1
10
49.000718
20
-16.568576
11
49.000700
21
-16.191900
 0 
ENDSEC
 0 
EOF