G04 #@! TF.GenerationSoftware,KiCad,Pcbnew,5.1.9+dfsg1-1+deb11u1*
G04 #@! TF.CreationDate,2023-07-28T22:45:46+09:00*
G04 #@! TF.ProjectId,y-carrier-back-plate,792d6361-7272-4696-9572-2d6261636b2d,rev?*
G04 #@! TF.SameCoordinates,Original*
G04 #@! TF.FileFunction,Copper,L1,Top*
G04 #@! TF.FilePolarity,Positive*
%FSLAX46Y46*%
G04 Gerber Fmt 4.6, Leading zero omitted, Abs format (unit mm)*
G04 Created by KiCad (PCBNEW 5.1.9+dfsg1-1+deb11u1) date 2023-07-28 22:45:46*
%MOMM*%
%LPD*%
G01*
G04 APERTURE LIST*
G04 #@! TA.AperFunction,NonConductor*
%ADD10C,0.254000*%
G04 #@! TD*
G04 #@! TA.AperFunction,NonConductor*
%ADD11C,0.100000*%
G04 #@! TD*
G04 APERTURE END LIST*
D10*
X141065424Y-80169580D02*
X141128356Y-80188580D01*
X141186405Y-80219445D01*
X141237343Y-80260989D01*
X141279248Y-80311644D01*
X141310515Y-80369471D01*
X141329956Y-80432272D01*
X141340000Y-80527835D01*
X141340001Y-119967711D01*
X141330420Y-120065424D01*
X141311420Y-120128357D01*
X141280554Y-120186406D01*
X141239011Y-120237343D01*
X141188356Y-120279248D01*
X141130529Y-120310515D01*
X141067728Y-120329956D01*
X140972165Y-120340000D01*
X123032278Y-120340000D01*
X122934575Y-120330420D01*
X122871641Y-120311419D01*
X122813597Y-120280557D01*
X122762656Y-120239010D01*
X122720748Y-120188352D01*
X122689484Y-120130530D01*
X122670045Y-120067728D01*
X122660000Y-119972164D01*
X122660000Y-96188305D01*
X128835313Y-96188305D01*
X128835313Y-96811695D01*
X128956930Y-97423105D01*
X129195490Y-97999042D01*
X129541827Y-98517371D01*
X129982629Y-98958173D01*
X130500958Y-99304510D01*
X131076895Y-99543070D01*
X131688305Y-99664687D01*
X132311695Y-99664687D01*
X132923105Y-99543070D01*
X133499042Y-99304510D01*
X134017371Y-98958173D01*
X134458173Y-98517371D01*
X134804510Y-97999042D01*
X135043070Y-97423105D01*
X135164687Y-96811695D01*
X135164687Y-96188305D01*
X135043070Y-95576895D01*
X134804510Y-95000958D01*
X134458173Y-94482629D01*
X134017371Y-94041827D01*
X133499042Y-93695490D01*
X132923105Y-93456930D01*
X132311695Y-93335313D01*
X131688305Y-93335313D01*
X131076895Y-93456930D01*
X130500958Y-93695490D01*
X129982629Y-94041827D01*
X129541827Y-94482629D01*
X129195490Y-95000958D01*
X128956930Y-95576895D01*
X128835313Y-96188305D01*
X122660000Y-96188305D01*
X122660000Y-80532279D01*
X122669580Y-80434576D01*
X122688580Y-80371644D01*
X122719445Y-80313595D01*
X122760989Y-80262657D01*
X122811644Y-80220752D01*
X122869471Y-80189485D01*
X122932272Y-80170044D01*
X123027835Y-80160000D01*
X140967721Y-80160000D01*
X141065424Y-80169580D01*
G04 #@! TA.AperFunction,NonConductor*
D11*
G36*
X141065424Y-80169580D02*
G01*
X141128356Y-80188580D01*
X141186405Y-80219445D01*
X141237343Y-80260989D01*
X141279248Y-80311644D01*
X141310515Y-80369471D01*
X141329956Y-80432272D01*
X141340000Y-80527835D01*
X141340001Y-119967711D01*
X141330420Y-120065424D01*
X141311420Y-120128357D01*
X141280554Y-120186406D01*
X141239011Y-120237343D01*
X141188356Y-120279248D01*
X141130529Y-120310515D01*
X141067728Y-120329956D01*
X140972165Y-120340000D01*
X123032278Y-120340000D01*
X122934575Y-120330420D01*
X122871641Y-120311419D01*
X122813597Y-120280557D01*
X122762656Y-120239010D01*
X122720748Y-120188352D01*
X122689484Y-120130530D01*
X122670045Y-120067728D01*
X122660000Y-119972164D01*
X122660000Y-96188305D01*
X128835313Y-96188305D01*
X128835313Y-96811695D01*
X128956930Y-97423105D01*
X129195490Y-97999042D01*
X129541827Y-98517371D01*
X129982629Y-98958173D01*
X130500958Y-99304510D01*
X131076895Y-99543070D01*
X131688305Y-99664687D01*
X132311695Y-99664687D01*
X132923105Y-99543070D01*
X133499042Y-99304510D01*
X134017371Y-98958173D01*
X134458173Y-98517371D01*
X134804510Y-97999042D01*
X135043070Y-97423105D01*
X135164687Y-96811695D01*
X135164687Y-96188305D01*
X135043070Y-95576895D01*
X134804510Y-95000958D01*
X134458173Y-94482629D01*
X134017371Y-94041827D01*
X133499042Y-93695490D01*
X132923105Y-93456930D01*
X132311695Y-93335313D01*
X131688305Y-93335313D01*
X131076895Y-93456930D01*
X130500958Y-93695490D01*
X129982629Y-94041827D01*
X129541827Y-94482629D01*
X129195490Y-95000958D01*
X128956930Y-95576895D01*
X128835313Y-96188305D01*
X122660000Y-96188305D01*
X122660000Y-80532279D01*
X122669580Y-80434576D01*
X122688580Y-80371644D01*
X122719445Y-80313595D01*
X122760989Y-80262657D01*
X122811644Y-80220752D01*
X122869471Y-80189485D01*
X122932272Y-80170044D01*
X123027835Y-80160000D01*
X140967721Y-80160000D01*
X141065424Y-80169580D01*
G37*
G04 #@! TD.AperFunction*
M02*
