G04 #@! TF.GenerationSoftware,KiCad,Pcbnew,5.1.9+dfsg1-1+deb11u1*
G04 #@! TF.CreationDate,2023-07-29T00:23:23+09:00*
G04 #@! TF.ProjectId,back-motor-mount,6261636b-2d6d-46f7-946f-722d6d6f756e,rev?*
G04 #@! TF.SameCoordinates,Original*
G04 #@! TF.FileFunction,Profile,NP*
%FSLAX46Y46*%
G04 Gerber Fmt 4.6, Leading zero omitted, Abs format (unit mm)*
G04 Created by KiCad (PCBNEW 5.1.9+dfsg1-1+deb11u1) date 2023-07-29 00:23:23*
%MOMM*%
%LPD*%
G01*
G04 APERTURE LIST*
G04 #@! TA.AperFunction,Profile*
%ADD10C,0.050000*%
G04 #@! TD*
G04 APERTURE END LIST*
D10*
X215507400Y-105500000D02*
G75*
G03*
X215507400Y-105500000I-1500000J0D01*
G01*
X173007400Y-103250000D02*
G75*
G02*
X173007400Y-106250000I0J-1500000D01*
G01*
X165507400Y-103250000D02*
X173007400Y-103250000D01*
X88007400Y-104250000D02*
X95007400Y-104250000D01*
X134507400Y-103250000D02*
X142007400Y-103250000D01*
X134507400Y-106250000D02*
G75*
G02*
X134507400Y-103250000I0J1500000D01*
G01*
X221007400Y-68000000D02*
G75*
G02*
X224007400Y-71000000I0J-3000000D01*
G01*
X105007400Y-68750000D02*
G75*
G02*
X108007400Y-65750000I3000000J0D01*
G01*
X180257400Y-97250000D02*
X191757400Y-97250000D01*
X180257400Y-101750000D02*
G75*
G02*
X180257400Y-97250000I0J2250000D01*
G01*
X180257400Y-101750000D02*
X191757400Y-101750000D01*
X142007400Y-72250000D02*
G75*
G02*
X142007400Y-75250000I0J-1500000D01*
G01*
X127386100Y-66628700D02*
X127878700Y-67121300D01*
X139166250Y-112112293D02*
G75*
G02*
X141826000Y-110500000I2659750J-1387707D01*
G01*
X150007400Y-100325000D02*
X157507400Y-100325000D01*
X116507400Y-86500000D02*
G75*
G03*
X116507400Y-86500000I-1500000J0D01*
G01*
X117507400Y-101250000D02*
G75*
G03*
X117507400Y-101250000I-2500000J0D01*
G01*
X125848555Y-137637697D02*
G75*
G02*
X123188800Y-139250000I-2659755J1387697D01*
G01*
X88007400Y-139250000D02*
G75*
G02*
X85007400Y-136250000I0J3000000D01*
G01*
X125264800Y-65750000D02*
G75*
G02*
X127386120Y-66628680I0J-3000000D01*
G01*
X105007400Y-94250000D02*
G75*
G02*
X95007400Y-104250000I-10000000J0D01*
G01*
X123188800Y-139250000D02*
X88007400Y-139250000D01*
X97507400Y-111750000D02*
G75*
G03*
X97507400Y-111750000I-2500000J0D01*
G01*
X117757400Y-112750000D02*
G75*
G02*
X118757400Y-113750000I0J-1000000D01*
G01*
X105007400Y-94250000D02*
X105007400Y-68750000D01*
X221007400Y-110500000D02*
X141826000Y-110500000D01*
X97507400Y-131750000D02*
G75*
G03*
X97507400Y-131750000I-2500000J0D01*
G01*
X219007400Y-78000000D02*
G75*
G03*
X219007400Y-78000000I-2500000J0D01*
G01*
X85007400Y-136250000D02*
X85007400Y-107250000D01*
X134507400Y-72250000D02*
X142007400Y-72250000D01*
X134507400Y-75250000D02*
G75*
G02*
X134507400Y-72250000I0J1500000D01*
G01*
X134507400Y-75250000D02*
X142007400Y-75250000D01*
X117507400Y-71750000D02*
G75*
G03*
X117507400Y-71750000I-2500000J0D01*
G01*
X130000000Y-68000000D02*
X221007400Y-68000000D01*
X134507400Y-106250000D02*
X142007400Y-106250000D01*
X134257400Y-115500000D02*
G75*
G03*
X134257400Y-115500000I-1500000J0D01*
G01*
X111257400Y-113750000D02*
X111257400Y-129750000D01*
X112257400Y-130750000D02*
G75*
G02*
X111257400Y-129750000I0J1000000D01*
G01*
X199007400Y-78000000D02*
G75*
G03*
X199007400Y-78000000I-2500000J0D01*
G01*
X173007400Y-72250000D02*
G75*
G02*
X173007400Y-75250000I0J-1500000D01*
G01*
X165507400Y-72250000D02*
X173007400Y-72250000D01*
X165507400Y-75250000D02*
G75*
G02*
X165507400Y-72250000I0J1500000D01*
G01*
X139166200Y-112112300D02*
X125848600Y-137637700D01*
X165507400Y-106250000D02*
G75*
G02*
X165507400Y-103250000I0J1500000D01*
G01*
X165507400Y-106250000D02*
X173007400Y-106250000D01*
X142007400Y-103250000D02*
G75*
G02*
X142007400Y-106250000I0J-1500000D01*
G01*
X224007400Y-107500000D02*
G75*
G02*
X221007400Y-110500000I-3000000J0D01*
G01*
X118757400Y-129750000D02*
X118757400Y-113750000D01*
X165507400Y-75250000D02*
X173007400Y-75250000D01*
X185507400Y-78000000D02*
G75*
G03*
X185507400Y-78000000I-1500000J0D01*
G01*
X215507400Y-93500000D02*
G75*
G03*
X215507400Y-93500000I-1500000J0D01*
G01*
X191757400Y-97250000D02*
G75*
G02*
X191757400Y-101750000I0J-2250000D01*
G01*
X157507400Y-78175000D02*
G75*
G02*
X157507400Y-100325000I0J-11075000D01*
G01*
X150007400Y-78175000D02*
X157507400Y-78175000D01*
X150007400Y-100325000D02*
G75*
G02*
X150007400Y-78175000I0J11075000D01*
G01*
X224007400Y-71000000D02*
X224007400Y-107500000D01*
X117757400Y-112750000D02*
X112257400Y-112750000D01*
X111257400Y-113750000D02*
G75*
G02*
X112257400Y-112750000I1000000J0D01*
G01*
X118757400Y-129750000D02*
G75*
G02*
X117757400Y-130750000I-1000000J0D01*
G01*
X85007400Y-107250000D02*
G75*
G02*
X88007400Y-104250000I3000000J0D01*
G01*
X108007400Y-65750000D02*
X125264800Y-65750000D01*
X112257400Y-130750000D02*
X117757400Y-130750000D01*
X130000000Y-68000001D02*
G75*
G02*
X127878679Y-67121321I0J3000001D01*
G01*
M02*
