G04 #@! TF.GenerationSoftware,KiCad,Pcbnew,5.1.9+dfsg1-1+deb11u1*
G04 #@! TF.CreationDate,2023-07-28T22:01:51+09:00*
G04 #@! TF.ProjectId,front-motor-mount,66726f6e-742d-46d6-9f74-6f722d6d6f75,rev?*
G04 #@! TF.SameCoordinates,Original*
G04 #@! TF.FileFunction,Profile,NP*
%FSLAX46Y46*%
G04 Gerber Fmt 4.6, Leading zero omitted, Abs format (unit mm)*
G04 Created by KiCad (PCBNEW 5.1.9+dfsg1-1+deb11u1) date 2023-07-28 22:01:51*
%MOMM*%
%LPD*%
G01*
G04 APERTURE LIST*
G04 #@! TA.AperFunction,Profile*
%ADD10C,0.050000*%
G04 #@! TD*
G04 APERTURE END LIST*
D10*
X246561000Y-92500000D02*
X247750000Y-92500000D01*
X217238000Y-109131800D02*
X245049000Y-92908663D01*
X245049407Y-92908652D02*
G75*
G02*
X246561000Y-92500000I1511593J-2591348D01*
G01*
X215749999Y-111723100D02*
G75*
G02*
X217238406Y-109131751I3000001J0D01*
G01*
X250750000Y-89500000D02*
G75*
G02*
X247750000Y-92500000I-3000000J0D01*
G01*
X139990000Y-100750000D02*
G75*
G03*
X139990000Y-100750000I-1500000J0D01*
G01*
X182750000Y-109250000D02*
G75*
G03*
X182750000Y-109250000I-1500000J0D01*
G01*
X127250000Y-103750000D02*
G75*
G03*
X127250000Y-103750000I-1500000J0D01*
G01*
X127250000Y-91250000D02*
G75*
G03*
X127250000Y-91250000I-1500000J0D01*
G01*
X215750000Y-112000000D02*
X215750000Y-111723100D01*
X215750000Y-112000000D02*
G75*
G02*
X212750000Y-115000000I-3000000J0D01*
G01*
X128500000Y-117250000D02*
G75*
G02*
X129500000Y-118250000I0J-1000000D01*
G01*
X98750000Y-108750000D02*
X105750000Y-108750000D01*
X247750000Y-72500000D02*
G75*
G02*
X250750000Y-75500000I0J-3000000D01*
G01*
X202257400Y-70250000D02*
G75*
G02*
X204378720Y-71128680I0J-3000000D01*
G01*
X128250000Y-76250000D02*
G75*
G03*
X128250000Y-76250000I-2500000J0D01*
G01*
X198500000Y-106000000D02*
G75*
G03*
X198500000Y-106000000I-2500000J0D01*
G01*
X198500000Y-76250000D02*
G75*
G03*
X198500000Y-76250000I-2500000J0D01*
G01*
X122000000Y-134250000D02*
X122000000Y-118250000D01*
X123000000Y-135250000D02*
G75*
G02*
X122000000Y-134250000I0J1000000D01*
G01*
X212250000Y-103750000D02*
G75*
G03*
X212250000Y-103750000I-1500000J0D01*
G01*
X212250000Y-82500000D02*
G75*
G03*
X212250000Y-82500000I-1500000J0D01*
G01*
X108250000Y-136250000D02*
G75*
G03*
X108250000Y-136250000I-2500000J0D01*
G01*
X227250000Y-97500000D02*
G75*
G03*
X227250000Y-97500000I-1500000J0D01*
G01*
X115750000Y-98750000D02*
G75*
G02*
X105750000Y-108750000I-10000000J0D01*
G01*
X136591155Y-142137697D02*
G75*
G02*
X133931400Y-143750000I-2659755J1387697D01*
G01*
X206992600Y-72500001D02*
G75*
G02*
X204871279Y-71621321I0J3000001D01*
G01*
X133931400Y-143750000D02*
X98750000Y-143750000D01*
X128500000Y-135250000D02*
X123000000Y-135250000D01*
X151750000Y-78250000D02*
G75*
G03*
X151750000Y-78250000I-1500000J0D01*
G01*
X98750000Y-143750000D02*
G75*
G02*
X95750000Y-140750000I0J3000000D01*
G01*
X152568600Y-115000000D02*
X212750000Y-115000000D01*
X197500000Y-90000000D02*
G75*
G03*
X197500000Y-90000000I-1500000J0D01*
G01*
X176825000Y-93750000D02*
G75*
G03*
X176825000Y-93750000I-11075000J0D01*
G01*
X225750000Y-82500000D02*
G75*
G03*
X225750000Y-82500000I-2500000J0D01*
G01*
X122000000Y-118250000D02*
G75*
G02*
X123000000Y-117250000I1000000J0D01*
G01*
X118750000Y-70250000D02*
X202257400Y-70250000D01*
X129500000Y-118250000D02*
X129500000Y-134250000D01*
X95750000Y-111750000D02*
G75*
G02*
X98750000Y-108750000I3000000J0D01*
G01*
X250750000Y-75500000D02*
X250750000Y-89500000D01*
X206992600Y-72500000D02*
X247750000Y-72500000D01*
X151750000Y-109250000D02*
G75*
G03*
X151750000Y-109250000I-1500000J0D01*
G01*
X245750000Y-82500000D02*
G75*
G03*
X245750000Y-82500000I-2500000J0D01*
G01*
X149908850Y-116612293D02*
G75*
G02*
X152568600Y-115000000I2659750J-1387707D01*
G01*
X140990000Y-115750000D02*
G75*
G03*
X140990000Y-115750000I-2500000J0D01*
G01*
X149908800Y-116612300D02*
X136591200Y-142137700D01*
X115750000Y-98750000D02*
X115750000Y-73250000D01*
X123000000Y-117250000D02*
X128500000Y-117250000D01*
X95750000Y-140750000D02*
X95750000Y-111750000D01*
X182750000Y-78250000D02*
G75*
G03*
X182750000Y-78250000I-1500000J0D01*
G01*
X204378700Y-71128700D02*
X204871300Y-71621300D01*
X108250000Y-116250000D02*
G75*
G03*
X108250000Y-116250000I-2500000J0D01*
G01*
X129500000Y-134250000D02*
G75*
G02*
X128500000Y-135250000I-1000000J0D01*
G01*
X115750000Y-73250000D02*
G75*
G02*
X118750000Y-70250000I3000000J0D01*
G01*
M02*
