G04 #@! TF.GenerationSoftware,KiCad,Pcbnew,5.1.9+dfsg1-1+deb11u1*
G04 #@! TF.CreationDate,2023-07-29T11:52:06+09:00*
G04 #@! TF.ProjectId,toolhead-bottom-plate,746f6f6c-6865-4616-942d-626f74746f6d,rev?*
G04 #@! TF.SameCoordinates,Original*
G04 #@! TF.FileFunction,Profile,NP*
%FSLAX46Y46*%
G04 Gerber Fmt 4.6, Leading zero omitted, Abs format (unit mm)*
G04 Created by KiCad (PCBNEW 5.1.9+dfsg1-1+deb11u1) date 2023-07-29 11:52:06*
%MOMM*%
%LPD*%
G01*
G04 APERTURE LIST*
G04 #@! TA.AperFunction,Profile*
%ADD10C,0.050000*%
G04 #@! TD*
G04 APERTURE END LIST*
D10*
X157500038Y-111000000D02*
X119500038Y-111000000D01*
X127000038Y-99000000D02*
G75*
G03*
X127000038Y-99000000I-1500000J0D01*
G01*
X156000038Y-107000000D02*
G75*
G03*
X156000038Y-107000000I-1500001J0D01*
G01*
X144963038Y-80000000D02*
G75*
G03*
X144963038Y-80000000I-1500000J0D01*
G01*
X123963038Y-63000000D02*
G75*
G03*
X123963038Y-63000000I-1500000J0D01*
G01*
X119500038Y-111000000D02*
G75*
G02*
X118500038Y-110000000I0J1000000D01*
G01*
X155500038Y-100171570D02*
X155500038Y-86828400D01*
X124000038Y-107000000D02*
G75*
G03*
X124000038Y-107000000I-1500000J0D01*
G01*
X120914238Y-85414200D02*
X119085738Y-83585800D01*
X119085738Y-103414210D02*
X120914238Y-101585790D01*
X150000038Y-52000000D02*
X150000038Y-58000000D01*
X119085824Y-83585814D02*
G75*
G02*
X118500038Y-82171600I1414214J1414214D01*
G01*
X158500038Y-110000000D02*
G75*
G02*
X157500038Y-111000000I-1000000J0D01*
G01*
X121500038Y-100171569D02*
G75*
G02*
X120914252Y-101585783I-2000000J-1D01*
G01*
X158500038Y-104828430D02*
X158500038Y-110000000D01*
X134963038Y-80000000D02*
G75*
G03*
X134963038Y-80000000I-1500000J0D01*
G01*
X157914238Y-103414210D02*
X156085738Y-101585790D01*
X158500038Y-57000000D02*
X158500038Y-82171600D01*
X126000038Y-51000000D02*
G75*
G02*
X127000038Y-52000000I0J-1000000D01*
G01*
X157914252Y-103414216D02*
G75*
G02*
X158500038Y-104828430I-1414214J-1414214D01*
G01*
X155500038Y-86828401D02*
G75*
G02*
X156085824Y-85414187I2000000J1D01*
G01*
X118500038Y-110000000D02*
X118500038Y-104828430D01*
X153000038Y-99000000D02*
G75*
G03*
X153000038Y-99000000I-1500000J0D01*
G01*
X156085738Y-85414200D02*
X157914238Y-83585800D01*
X158500038Y-82171601D02*
G75*
G02*
X157914251Y-83585814I-2000000J1D01*
G01*
X153000038Y-88000000D02*
G75*
G03*
X153000038Y-88000000I-1500000J0D01*
G01*
X152500038Y-51000000D02*
X151000038Y-51000000D01*
X118500038Y-104828429D02*
G75*
G02*
X119085825Y-103414216I2000000J-1D01*
G01*
X150000038Y-52000000D02*
G75*
G02*
X151000038Y-51000000I1000000J0D01*
G01*
X127000038Y-58000000D02*
X127000038Y-52000000D01*
X118500038Y-82171600D02*
X118500038Y-57000000D01*
X118500038Y-57000000D02*
G75*
G02*
X124500038Y-51000000I6000000J0D01*
G01*
X152500038Y-51000000D02*
G75*
G02*
X158500038Y-57000000I0J-6000000D01*
G01*
X127000038Y-88000000D02*
G75*
G03*
X127000038Y-88000000I-1500000J0D01*
G01*
X120914252Y-85414187D02*
G75*
G02*
X121500038Y-86828401I-1414214J-1414213D01*
G01*
X156085824Y-101585784D02*
G75*
G02*
X155500038Y-100171570I1414214J1414214D01*
G01*
X150000000Y-58000000D02*
G75*
G02*
X139000000Y-69000000I-11000000J0D01*
G01*
X155963038Y-63000000D02*
G75*
G03*
X155963038Y-63000000I-1500000J0D01*
G01*
X121500038Y-100171570D02*
X121500038Y-86828400D01*
X138000000Y-69000000D02*
G75*
G02*
X127000000Y-58000000I0J11000000D01*
G01*
X126000038Y-51000000D02*
X124500038Y-51000000D01*
X139000000Y-69000000D02*
X138000000Y-69000000D01*
M02*
