G04 #@! TF.GenerationSoftware,KiCad,Pcbnew,5.1.9+dfsg1-1+deb11u1*
G04 #@! TF.CreationDate,2023-07-28T22:32:23+09:00*
G04 #@! TF.ProjectId,z-motor-mount,7a2d6d6f-746f-4722-9d6d-6f756e742e6b,rev?*
G04 #@! TF.SameCoordinates,Original*
G04 #@! TF.FileFunction,Profile,NP*
%FSLAX46Y46*%
G04 Gerber Fmt 4.6, Leading zero omitted, Abs format (unit mm)*
G04 Created by KiCad (PCBNEW 5.1.9+dfsg1-1+deb11u1) date 2023-07-28 22:32:23*
%MOMM*%
%LPD*%
G01*
G04 APERTURE LIST*
G04 #@! TA.AperFunction,Profile*
%ADD10C,0.050000*%
G04 #@! TD*
G04 APERTURE END LIST*
D10*
X110000000Y-117000000D02*
X89500000Y-117000000D01*
X89500001Y-117000000D02*
G75*
G02*
X86500000Y-114000001I-1J3000000D01*
G01*
X86500000Y-114000000D02*
X86500000Y-40800000D01*
X188000000Y-141500000D02*
G75*
G02*
X185000000Y-144500000I-3000000J0D01*
G01*
X150500000Y-102800000D02*
G75*
G03*
X150500000Y-102800000I-1500000J0D01*
G01*
X162500000Y-132000000D02*
G75*
G03*
X162500000Y-132000000I-1500000J0D01*
G01*
X114000000Y-141500000D02*
X114000000Y-121000000D01*
X180500000Y-102800000D02*
G75*
G03*
X180500000Y-102800000I-1500000J0D01*
G01*
X102000000Y-87800000D02*
G75*
G03*
X102000000Y-87800000I-3000000J0D01*
G01*
X117000000Y-119000000D02*
X117000000Y-115000000D01*
X158000000Y-37800000D02*
G75*
G02*
X188000000Y-67800000I0J-30000000D01*
G01*
X115000000Y-120000000D02*
X116000000Y-120000000D01*
X117000000Y-144500000D02*
G75*
G02*
X114000000Y-141500000I0J3000000D01*
G01*
X127000000Y-132000000D02*
G75*
G03*
X127000000Y-132000000I-3000000J0D01*
G01*
X132000000Y-98800000D02*
X132000000Y-76800000D01*
X114000000Y-121000000D02*
G75*
G02*
X115000000Y-120000000I1000000J0D01*
G01*
X117000000Y-119000000D02*
G75*
G02*
X116000000Y-120000000I-1000000J0D01*
G01*
X86500000Y-40800000D02*
G75*
G02*
X89500000Y-37800000I3000000J0D01*
G01*
X89500000Y-37800000D02*
X158000000Y-37800000D01*
X134500000Y-72300000D02*
G75*
G03*
X134500000Y-72300000I-1500000J0D01*
G01*
X134500000Y-103800000D02*
G75*
G03*
X134500000Y-103800000I-1500000J0D01*
G01*
X111000000Y-115000000D02*
X111000000Y-116000000D01*
X111000000Y-116000000D02*
G75*
G02*
X110000000Y-117000000I-1000000J0D01*
G01*
X150500000Y-72800000D02*
G75*
G03*
X150500000Y-72800000I-1500000J0D01*
G01*
X121500000Y-42800000D02*
G75*
G03*
X121500000Y-42800000I-1500000J0D01*
G01*
X132000000Y-76800000D02*
X114000000Y-76800000D01*
X114000000Y-76800000D02*
X114000000Y-98800000D01*
X142500000Y-132000000D02*
G75*
G03*
X142500000Y-132000000I-1500000J0D01*
G01*
X180500000Y-72800000D02*
G75*
G03*
X180500000Y-72800000I-1500000J0D01*
G01*
X102000000Y-109500000D02*
G75*
G03*
X102000000Y-109500000I-3000000J0D01*
G01*
X134500000Y-42800000D02*
G75*
G03*
X134500000Y-42800000I-1500000J0D01*
G01*
X116000000Y-114000000D02*
X112000000Y-114000000D01*
X102000000Y-47800000D02*
G75*
G03*
X102000000Y-47800000I-3000000J0D01*
G01*
X116000000Y-114000000D02*
G75*
G02*
X117000000Y-115000000I0J-1000000D01*
G01*
X185000000Y-144500000D02*
X117000000Y-144500000D01*
X188000000Y-67800000D02*
X188000000Y-141500000D01*
X111000000Y-115000000D02*
G75*
G02*
X112000000Y-114000000I1000000J0D01*
G01*
X114000000Y-98800000D02*
X132000000Y-98800000D01*
X100500000Y-67800000D02*
G75*
G03*
X100500000Y-67800000I-1500000J0D01*
G01*
X181000000Y-132000000D02*
G75*
G03*
X181000000Y-132000000I-3000000J0D01*
G01*
M02*
