%TF.GenerationSoftware,KiCad,Pcbnew,5.1.9+dfsg1-1+deb11u1*%
%TF.CreationDate,2023-07-29T18:46:00+09:00*%
%TF.ProjectId,probe-mount,70726f62-652d-46d6-9f75-6e742e6b6963,rev?*%
%TF.SameCoordinates,Original*%
%TF.FileFunction,Legend,Bot*%
%TF.FilePolarity,Positive*%
%FSLAX46Y46*%
G04 Gerber Fmt 4.6, Leading zero omitted, Abs format (unit mm)*
G04 Created by KiCad (PCBNEW 5.1.9+dfsg1-1+deb11u1) date 2023-07-29 18:46:00*
%MOMM*%
%LPD*%
G01*
G04 APERTURE LIST*
%ADD10C,0.120000*%
%ADD11C,0.150000*%
G04 APERTURE END LIST*
D10*
%TO.C,J1*%
X142500000Y-124750000D02*
X142500000Y-125250000D01*
X141000000Y-125000000D02*
X144000000Y-125000000D01*
X144500000Y-130250000D02*
X144500000Y-119750000D01*
X140500000Y-130250000D02*
X140500000Y-119750000D01*
X144081139Y-121000000D02*
G75*
G03*
X144081139Y-121000000I-1581139J0D01*
G01*
X143957738Y-129000000D02*
G75*
G03*
X143957738Y-129000000I-1457738J0D01*
G01*
X140500000Y-130250000D02*
G75*
G03*
X144500000Y-130250000I2000000J0D01*
G01*
X140500000Y-129250000D02*
G75*
G03*
X144500000Y-129250000I2000000J0D01*
G01*
X144500000Y-119750000D02*
G75*
G03*
X140500000Y-119750000I-2000000J0D01*
G01*
X144500000Y-120750000D02*
G75*
G03*
X140500000Y-120750000I-2000000J0D01*
G01*
%TO.C,J2*%
X153957738Y-129000000D02*
G75*
G03*
X153957738Y-129000000I-1457738J0D01*
G01*
X154081139Y-121000000D02*
G75*
G03*
X154081139Y-121000000I-1581139J0D01*
G01*
X150500000Y-130250000D02*
X150500000Y-119750000D01*
X154500000Y-130250000D02*
X154500000Y-119750000D01*
X151000000Y-125000000D02*
X154000000Y-125000000D01*
X152500000Y-124750000D02*
X152500000Y-125250000D01*
X154500000Y-120750000D02*
G75*
G03*
X150500000Y-120750000I-2000000J0D01*
G01*
X154500000Y-119750000D02*
G75*
G03*
X150500000Y-119750000I-2000000J0D01*
G01*
X150500000Y-129250000D02*
G75*
G03*
X154500000Y-129250000I2000000J0D01*
G01*
X150500000Y-130250000D02*
G75*
G03*
X154500000Y-130250000I2000000J0D01*
G01*
%TO.C,J1*%
D11*
X142583333Y-120452380D02*
X142583333Y-121166666D01*
X142630952Y-121309523D01*
X142726190Y-121404761D01*
X142869047Y-121452380D01*
X142964285Y-121452380D01*
X141583333Y-121452380D02*
X142154761Y-121452380D01*
X141869047Y-121452380D02*
X141869047Y-120452380D01*
X141964285Y-120595238D01*
X142059523Y-120690476D01*
X142154761Y-120738095D01*
%TO.C,J2*%
X153083333Y-120452380D02*
X153083333Y-121166666D01*
X153130952Y-121309523D01*
X153226190Y-121404761D01*
X153369047Y-121452380D01*
X153464285Y-121452380D01*
X152654761Y-120547619D02*
X152607142Y-120500000D01*
X152511904Y-120452380D01*
X152273809Y-120452380D01*
X152178571Y-120500000D01*
X152130952Y-120547619D01*
X152083333Y-120642857D01*
X152083333Y-120738095D01*
X152130952Y-120880952D01*
X152702380Y-121452380D01*
X152083333Y-121452380D01*
%TD*%
M02*
