%TF.GenerationSoftware,KiCad,Pcbnew,5.1.9+dfsg1-1+deb11u1*%
%TF.CreationDate,2023-07-29T18:46:00+09:00*%
%TF.ProjectId,probe-mount,70726f62-652d-46d6-9f75-6e742e6b6963,rev?*%
%TF.SameCoordinates,Original*%
%TF.FileFunction,Legend,Top*%
%TF.FilePolarity,Positive*%
%FSLAX46Y46*%
G04 Gerber Fmt 4.6, Leading zero omitted, Abs format (unit mm)*
G04 Created by KiCad (PCBNEW 5.1.9+dfsg1-1+deb11u1) date 2023-07-29 18:46:00*
%MOMM*%
%LPD*%
G01*
G04 APERTURE LIST*
%ADD10C,0.100000*%
%ADD11C,0.200000*%
%ADD12C,0.010000*%
%ADD13C,0.120000*%
%ADD14C,0.150000*%
G04 APERTURE END LIST*
D10*
G36*
X151000000Y-121500000D02*
G01*
X150500000Y-121000000D01*
X151000000Y-120500000D01*
X151000000Y-121500000D01*
G37*
X151000000Y-121500000D02*
X150500000Y-121000000D01*
X151000000Y-120500000D01*
X151000000Y-121500000D01*
G36*
X144500000Y-121000000D02*
G01*
X144000000Y-121500000D01*
X144000000Y-120500000D01*
X144500000Y-121000000D01*
G37*
X144500000Y-121000000D02*
X144000000Y-121500000D01*
X144000000Y-120500000D01*
X144500000Y-121000000D01*
X140839285Y-122410714D02*
X140482142Y-122660714D01*
X140839285Y-122839285D02*
X140089285Y-122839285D01*
X140089285Y-122553571D01*
X140125000Y-122482142D01*
X140160714Y-122446428D01*
X140232142Y-122410714D01*
X140339285Y-122410714D01*
X140410714Y-122446428D01*
X140446428Y-122482142D01*
X140482142Y-122553571D01*
X140482142Y-122839285D01*
X140803571Y-121803571D02*
X140839285Y-121875000D01*
X140839285Y-122017857D01*
X140803571Y-122089285D01*
X140732142Y-122125000D01*
X140446428Y-122125000D01*
X140375000Y-122089285D01*
X140339285Y-122017857D01*
X140339285Y-121875000D01*
X140375000Y-121803571D01*
X140446428Y-121767857D01*
X140517857Y-121767857D01*
X140589285Y-122125000D01*
X140339285Y-121517857D02*
X140839285Y-121339285D01*
X140339285Y-121160714D01*
X140767857Y-120875000D02*
X140803571Y-120839285D01*
X140839285Y-120875000D01*
X140803571Y-120910714D01*
X140767857Y-120875000D01*
X140839285Y-120875000D01*
X140839285Y-120125000D02*
X140839285Y-120553571D01*
X140839285Y-120339285D02*
X140089285Y-120339285D01*
X140196428Y-120410714D01*
X140267857Y-120482142D01*
X140303571Y-120553571D01*
D11*
X140928571Y-129607142D02*
X139428571Y-129607142D01*
X139428571Y-129035714D01*
X139500000Y-128892857D01*
X139571428Y-128821428D01*
X139714285Y-128750000D01*
X139928571Y-128750000D01*
X140071428Y-128821428D01*
X140142857Y-128892857D01*
X140214285Y-129035714D01*
X140214285Y-129607142D01*
X140928571Y-128107142D02*
X139928571Y-128107142D01*
X140214285Y-128107142D02*
X140071428Y-128035714D01*
X140000000Y-127964285D01*
X139928571Y-127821428D01*
X139928571Y-127678571D01*
X140928571Y-126964285D02*
X140857142Y-127107142D01*
X140785714Y-127178571D01*
X140642857Y-127250000D01*
X140214285Y-127250000D01*
X140071428Y-127178571D01*
X140000000Y-127107142D01*
X139928571Y-126964285D01*
X139928571Y-126750000D01*
X140000000Y-126607142D01*
X140071428Y-126535714D01*
X140214285Y-126464285D01*
X140642857Y-126464285D01*
X140785714Y-126535714D01*
X140857142Y-126607142D01*
X140928571Y-126750000D01*
X140928571Y-126964285D01*
X140928571Y-125821428D02*
X139428571Y-125821428D01*
X140000000Y-125821428D02*
X139928571Y-125678571D01*
X139928571Y-125392857D01*
X140000000Y-125250000D01*
X140071428Y-125178571D01*
X140214285Y-125107142D01*
X140642857Y-125107142D01*
X140785714Y-125178571D01*
X140857142Y-125250000D01*
X140928571Y-125392857D01*
X140928571Y-125678571D01*
X140857142Y-125821428D01*
X140857142Y-123892857D02*
X140928571Y-124035714D01*
X140928571Y-124321428D01*
X140857142Y-124464285D01*
X140714285Y-124535714D01*
X140142857Y-124535714D01*
X140000000Y-124464285D01*
X139928571Y-124321428D01*
X139928571Y-124035714D01*
X140000000Y-123892857D01*
X140142857Y-123821428D01*
X140285714Y-123821428D01*
X140428571Y-124535714D01*
D12*
%TO.C,G\u002A\u002A\u002A*%
G36*
X154432267Y-123609823D02*
G01*
X154432267Y-123864047D01*
X154312323Y-123862524D01*
X154192378Y-123861000D01*
X154190859Y-123735412D01*
X154189340Y-123609823D01*
X154432267Y-123609823D01*
G37*
X154432267Y-123609823D02*
X154432267Y-123864047D01*
X154312323Y-123862524D01*
X154192378Y-123861000D01*
X154190859Y-123735412D01*
X154189340Y-123609823D01*
X154432267Y-123609823D01*
G36*
X153647722Y-120444700D02*
G01*
X153648554Y-120417488D01*
X153650697Y-120389141D01*
X153653496Y-120367089D01*
X153657151Y-120344151D01*
X153660340Y-120321801D01*
X153661719Y-120310645D01*
X153664301Y-120295362D01*
X153669270Y-120272276D01*
X153675880Y-120244430D01*
X153683384Y-120214865D01*
X153691035Y-120186623D01*
X153697730Y-120163889D01*
X153706434Y-120139252D01*
X153719062Y-120107872D01*
X153734280Y-120072995D01*
X153741795Y-120056645D01*
X153749146Y-120041810D01*
X153759585Y-120021851D01*
X153771664Y-119999403D01*
X153783937Y-119977104D01*
X153794956Y-119957591D01*
X153803275Y-119943499D01*
X153806843Y-119938112D01*
X153811885Y-119931414D01*
X153821968Y-119917786D01*
X153835479Y-119899417D01*
X153846418Y-119884489D01*
X153859296Y-119868481D01*
X153879685Y-119845266D01*
X153906982Y-119815484D01*
X153940583Y-119779777D01*
X153979884Y-119738783D01*
X154024280Y-119693144D01*
X154073167Y-119643500D01*
X154085577Y-119630985D01*
X154289632Y-119425458D01*
X154420216Y-119556832D01*
X154451534Y-119588379D01*
X154480122Y-119617252D01*
X154505054Y-119642510D01*
X154525403Y-119663212D01*
X154540245Y-119678416D01*
X154548652Y-119687181D01*
X154550227Y-119688981D01*
X154546222Y-119692977D01*
X154534976Y-119704117D01*
X154517282Y-119721617D01*
X154493936Y-119744692D01*
X154465731Y-119772558D01*
X154433461Y-119804429D01*
X154397921Y-119839522D01*
X154363804Y-119873200D01*
X154312457Y-119924071D01*
X154268548Y-119968053D01*
X154231314Y-120006017D01*
X154199991Y-120038835D01*
X154173819Y-120067375D01*
X154152033Y-120092509D01*
X154133871Y-120115107D01*
X154118570Y-120136040D01*
X154105368Y-120156176D01*
X154093502Y-120176388D01*
X154086048Y-120190161D01*
X154057861Y-120249928D01*
X154037628Y-120308244D01*
X154024272Y-120368962D01*
X154016717Y-120435934D01*
X154016503Y-120439056D01*
X154013197Y-120488445D01*
X153647689Y-120488445D01*
X153647722Y-120444700D01*
G37*
X153647722Y-120444700D02*
X153648554Y-120417488D01*
X153650697Y-120389141D01*
X153653496Y-120367089D01*
X153657151Y-120344151D01*
X153660340Y-120321801D01*
X153661719Y-120310645D01*
X153664301Y-120295362D01*
X153669270Y-120272276D01*
X153675880Y-120244430D01*
X153683384Y-120214865D01*
X153691035Y-120186623D01*
X153697730Y-120163889D01*
X153706434Y-120139252D01*
X153719062Y-120107872D01*
X153734280Y-120072995D01*
X153741795Y-120056645D01*
X153749146Y-120041810D01*
X153759585Y-120021851D01*
X153771664Y-119999403D01*
X153783937Y-119977104D01*
X153794956Y-119957591D01*
X153803275Y-119943499D01*
X153806843Y-119938112D01*
X153811885Y-119931414D01*
X153821968Y-119917786D01*
X153835479Y-119899417D01*
X153846418Y-119884489D01*
X153859296Y-119868481D01*
X153879685Y-119845266D01*
X153906982Y-119815484D01*
X153940583Y-119779777D01*
X153979884Y-119738783D01*
X154024280Y-119693144D01*
X154073167Y-119643500D01*
X154085577Y-119630985D01*
X154289632Y-119425458D01*
X154420216Y-119556832D01*
X154451534Y-119588379D01*
X154480122Y-119617252D01*
X154505054Y-119642510D01*
X154525403Y-119663212D01*
X154540245Y-119678416D01*
X154548652Y-119687181D01*
X154550227Y-119688981D01*
X154546222Y-119692977D01*
X154534976Y-119704117D01*
X154517282Y-119721617D01*
X154493936Y-119744692D01*
X154465731Y-119772558D01*
X154433461Y-119804429D01*
X154397921Y-119839522D01*
X154363804Y-119873200D01*
X154312457Y-119924071D01*
X154268548Y-119968053D01*
X154231314Y-120006017D01*
X154199991Y-120038835D01*
X154173819Y-120067375D01*
X154152033Y-120092509D01*
X154133871Y-120115107D01*
X154118570Y-120136040D01*
X154105368Y-120156176D01*
X154093502Y-120176388D01*
X154086048Y-120190161D01*
X154057861Y-120249928D01*
X154037628Y-120308244D01*
X154024272Y-120368962D01*
X154016717Y-120435934D01*
X154016503Y-120439056D01*
X154013197Y-120488445D01*
X153647689Y-120488445D01*
X153647722Y-120444700D01*
G36*
X153647722Y-122900034D02*
G01*
X153648554Y-122872821D01*
X153650697Y-122844474D01*
X153653496Y-122822423D01*
X153657151Y-122799484D01*
X153660340Y-122777134D01*
X153661719Y-122765978D01*
X153664301Y-122750695D01*
X153669270Y-122727609D01*
X153675880Y-122699763D01*
X153683384Y-122670198D01*
X153691035Y-122641957D01*
X153697730Y-122619223D01*
X153706434Y-122594586D01*
X153719062Y-122563205D01*
X153734280Y-122528328D01*
X153741795Y-122511978D01*
X153749146Y-122497144D01*
X153759585Y-122477184D01*
X153771664Y-122454736D01*
X153783937Y-122432438D01*
X153794956Y-122412924D01*
X153803275Y-122398832D01*
X153806843Y-122393445D01*
X153811885Y-122386747D01*
X153821968Y-122373120D01*
X153835479Y-122354750D01*
X153846418Y-122339823D01*
X153859296Y-122323814D01*
X153879685Y-122300599D01*
X153906982Y-122270818D01*
X153940583Y-122235110D01*
X153979884Y-122194117D01*
X154024280Y-122148478D01*
X154073167Y-122098834D01*
X154085577Y-122086318D01*
X154289632Y-121880791D01*
X154420216Y-122012165D01*
X154451534Y-122043712D01*
X154480122Y-122072585D01*
X154505054Y-122097844D01*
X154525403Y-122118545D01*
X154540245Y-122133750D01*
X154548652Y-122142515D01*
X154550227Y-122144315D01*
X154546222Y-122148310D01*
X154534976Y-122159450D01*
X154517282Y-122176951D01*
X154493936Y-122200026D01*
X154465731Y-122227891D01*
X154433461Y-122259763D01*
X154397921Y-122294855D01*
X154363804Y-122328534D01*
X154312457Y-122379404D01*
X154268548Y-122423386D01*
X154231314Y-122461351D01*
X154199991Y-122494168D01*
X154173819Y-122522709D01*
X154152033Y-122547843D01*
X154133871Y-122570441D01*
X154118570Y-122591373D01*
X154105368Y-122611510D01*
X154093502Y-122631722D01*
X154086048Y-122645495D01*
X154057861Y-122705261D01*
X154037628Y-122763577D01*
X154024272Y-122824295D01*
X154016717Y-122891267D01*
X154016503Y-122894389D01*
X154013197Y-122943778D01*
X153647689Y-122943778D01*
X153647722Y-122900034D01*
G37*
X153647722Y-122900034D02*
X153648554Y-122872821D01*
X153650697Y-122844474D01*
X153653496Y-122822423D01*
X153657151Y-122799484D01*
X153660340Y-122777134D01*
X153661719Y-122765978D01*
X153664301Y-122750695D01*
X153669270Y-122727609D01*
X153675880Y-122699763D01*
X153683384Y-122670198D01*
X153691035Y-122641957D01*
X153697730Y-122619223D01*
X153706434Y-122594586D01*
X153719062Y-122563205D01*
X153734280Y-122528328D01*
X153741795Y-122511978D01*
X153749146Y-122497144D01*
X153759585Y-122477184D01*
X153771664Y-122454736D01*
X153783937Y-122432438D01*
X153794956Y-122412924D01*
X153803275Y-122398832D01*
X153806843Y-122393445D01*
X153811885Y-122386747D01*
X153821968Y-122373120D01*
X153835479Y-122354750D01*
X153846418Y-122339823D01*
X153859296Y-122323814D01*
X153879685Y-122300599D01*
X153906982Y-122270818D01*
X153940583Y-122235110D01*
X153979884Y-122194117D01*
X154024280Y-122148478D01*
X154073167Y-122098834D01*
X154085577Y-122086318D01*
X154289632Y-121880791D01*
X154420216Y-122012165D01*
X154451534Y-122043712D01*
X154480122Y-122072585D01*
X154505054Y-122097844D01*
X154525403Y-122118545D01*
X154540245Y-122133750D01*
X154548652Y-122142515D01*
X154550227Y-122144315D01*
X154546222Y-122148310D01*
X154534976Y-122159450D01*
X154517282Y-122176951D01*
X154493936Y-122200026D01*
X154465731Y-122227891D01*
X154433461Y-122259763D01*
X154397921Y-122294855D01*
X154363804Y-122328534D01*
X154312457Y-122379404D01*
X154268548Y-122423386D01*
X154231314Y-122461351D01*
X154199991Y-122494168D01*
X154173819Y-122522709D01*
X154152033Y-122547843D01*
X154133871Y-122570441D01*
X154118570Y-122591373D01*
X154105368Y-122611510D01*
X154093502Y-122631722D01*
X154086048Y-122645495D01*
X154057861Y-122705261D01*
X154037628Y-122763577D01*
X154024272Y-122824295D01*
X154016717Y-122891267D01*
X154016503Y-122894389D01*
X154013197Y-122943778D01*
X153647689Y-122943778D01*
X153647722Y-122900034D01*
G36*
X155051745Y-131211486D02*
G01*
X155065716Y-131210031D01*
X155073713Y-131209746D01*
X155074283Y-131209888D01*
X155076059Y-131215517D01*
X155079090Y-131228756D01*
X155081130Y-131238720D01*
X155085435Y-131259894D01*
X155090814Y-131285463D01*
X155094645Y-131303200D01*
X155106117Y-131355508D01*
X155115492Y-131398128D01*
X155123071Y-131432407D01*
X155129152Y-131459688D01*
X155134035Y-131481317D01*
X155138019Y-131498638D01*
X155140782Y-131510383D01*
X155146174Y-131534455D01*
X155148448Y-131549848D01*
X155147542Y-131558749D01*
X155143394Y-131563345D01*
X155139234Y-131564972D01*
X155123009Y-131568808D01*
X155101017Y-131572908D01*
X155077682Y-131576566D01*
X155057431Y-131579074D01*
X155046475Y-131579778D01*
X155030578Y-131579778D01*
X155030578Y-131214124D01*
X155051745Y-131211486D01*
G37*
X155051745Y-131211486D02*
X155065716Y-131210031D01*
X155073713Y-131209746D01*
X155074283Y-131209888D01*
X155076059Y-131215517D01*
X155079090Y-131228756D01*
X155081130Y-131238720D01*
X155085435Y-131259894D01*
X155090814Y-131285463D01*
X155094645Y-131303200D01*
X155106117Y-131355508D01*
X155115492Y-131398128D01*
X155123071Y-131432407D01*
X155129152Y-131459688D01*
X155134035Y-131481317D01*
X155138019Y-131498638D01*
X155140782Y-131510383D01*
X155146174Y-131534455D01*
X155148448Y-131549848D01*
X155147542Y-131558749D01*
X155143394Y-131563345D01*
X155139234Y-131564972D01*
X155123009Y-131568808D01*
X155101017Y-131572908D01*
X155077682Y-131576566D01*
X155057431Y-131579074D01*
X155046475Y-131579778D01*
X155030578Y-131579778D01*
X155030578Y-131214124D01*
X155051745Y-131211486D01*
G36*
X155119153Y-131202517D02*
G01*
X155123729Y-131195831D01*
X155132298Y-131190361D01*
X155145014Y-131184186D01*
X155145393Y-131184003D01*
X155175829Y-131169274D01*
X155271575Y-131308204D01*
X155295833Y-131343436D01*
X155318077Y-131375804D01*
X155337479Y-131404102D01*
X155353214Y-131427121D01*
X155364455Y-131443653D01*
X155370375Y-131452491D01*
X155371013Y-131453501D01*
X155368419Y-131459636D01*
X155357405Y-131469898D01*
X155339434Y-131482957D01*
X155336697Y-131484768D01*
X155287828Y-131514042D01*
X155242303Y-131535868D01*
X155233243Y-131539440D01*
X155226365Y-131541618D01*
X155221354Y-131540758D01*
X155217039Y-131535058D01*
X155212249Y-131522712D01*
X155205811Y-131501917D01*
X155203225Y-131493228D01*
X155195947Y-131468958D01*
X155189359Y-131447385D01*
X155184466Y-131431787D01*
X155183013Y-131427378D01*
X155179084Y-131415152D01*
X155173203Y-131395970D01*
X155166559Y-131373720D01*
X155165740Y-131370934D01*
X155157782Y-131344395D01*
X155148210Y-131313265D01*
X155138912Y-131283681D01*
X155137683Y-131279836D01*
X155127834Y-131249079D01*
X155121360Y-131227220D01*
X155118415Y-131212340D01*
X155119153Y-131202517D01*
G37*
X155119153Y-131202517D02*
X155123729Y-131195831D01*
X155132298Y-131190361D01*
X155145014Y-131184186D01*
X155145393Y-131184003D01*
X155175829Y-131169274D01*
X155271575Y-131308204D01*
X155295833Y-131343436D01*
X155318077Y-131375804D01*
X155337479Y-131404102D01*
X155353214Y-131427121D01*
X155364455Y-131443653D01*
X155370375Y-131452491D01*
X155371013Y-131453501D01*
X155368419Y-131459636D01*
X155357405Y-131469898D01*
X155339434Y-131482957D01*
X155336697Y-131484768D01*
X155287828Y-131514042D01*
X155242303Y-131535868D01*
X155233243Y-131539440D01*
X155226365Y-131541618D01*
X155221354Y-131540758D01*
X155217039Y-131535058D01*
X155212249Y-131522712D01*
X155205811Y-131501917D01*
X155203225Y-131493228D01*
X155195947Y-131468958D01*
X155189359Y-131447385D01*
X155184466Y-131431787D01*
X155183013Y-131427378D01*
X155179084Y-131415152D01*
X155173203Y-131395970D01*
X155166559Y-131373720D01*
X155165740Y-131370934D01*
X155157782Y-131344395D01*
X155148210Y-131313265D01*
X155138912Y-131283681D01*
X155137683Y-131279836D01*
X155127834Y-131249079D01*
X155121360Y-131227220D01*
X155118415Y-131212340D01*
X155119153Y-131202517D01*
G36*
X155221984Y-131122380D02*
G01*
X155233532Y-131104251D01*
X155242858Y-131085868D01*
X155245268Y-131079636D01*
X155250396Y-131066927D01*
X155257095Y-131062261D01*
X155269782Y-131062991D01*
X155272370Y-131063386D01*
X155292217Y-131066676D01*
X155319969Y-131071540D01*
X155352449Y-131077400D01*
X155386479Y-131083681D01*
X155418881Y-131089808D01*
X155428511Y-131091666D01*
X155452138Y-131096134D01*
X155481915Y-131101599D01*
X155512868Y-131107152D01*
X155525878Y-131109442D01*
X155553415Y-131114681D01*
X155571205Y-131119222D01*
X155580726Y-131123545D01*
X155583458Y-131128119D01*
X155581560Y-131137178D01*
X155576752Y-131153763D01*
X155569951Y-131174779D01*
X155567534Y-131181845D01*
X155536741Y-131255681D01*
X155497681Y-131324308D01*
X155454400Y-131382223D01*
X155437536Y-131401978D01*
X155424104Y-131387867D01*
X155409999Y-131372871D01*
X155391092Y-131352515D01*
X155368668Y-131328207D01*
X155344009Y-131301352D01*
X155318398Y-131273358D01*
X155293118Y-131245630D01*
X155269452Y-131219576D01*
X155248683Y-131196601D01*
X155232095Y-131178113D01*
X155220969Y-131165517D01*
X155217093Y-131160926D01*
X155205126Y-131145651D01*
X155221984Y-131122380D01*
G37*
X155221984Y-131122380D02*
X155233532Y-131104251D01*
X155242858Y-131085868D01*
X155245268Y-131079636D01*
X155250396Y-131066927D01*
X155257095Y-131062261D01*
X155269782Y-131062991D01*
X155272370Y-131063386D01*
X155292217Y-131066676D01*
X155319969Y-131071540D01*
X155352449Y-131077400D01*
X155386479Y-131083681D01*
X155418881Y-131089808D01*
X155428511Y-131091666D01*
X155452138Y-131096134D01*
X155481915Y-131101599D01*
X155512868Y-131107152D01*
X155525878Y-131109442D01*
X155553415Y-131114681D01*
X155571205Y-131119222D01*
X155580726Y-131123545D01*
X155583458Y-131128119D01*
X155581560Y-131137178D01*
X155576752Y-131153763D01*
X155569951Y-131174779D01*
X155567534Y-131181845D01*
X155536741Y-131255681D01*
X155497681Y-131324308D01*
X155454400Y-131382223D01*
X155437536Y-131401978D01*
X155424104Y-131387867D01*
X155409999Y-131372871D01*
X155391092Y-131352515D01*
X155368668Y-131328207D01*
X155344009Y-131301352D01*
X155318398Y-131273358D01*
X155293118Y-131245630D01*
X155269452Y-131219576D01*
X155248683Y-131196601D01*
X155232095Y-131178113D01*
X155220969Y-131165517D01*
X155217093Y-131160926D01*
X155205126Y-131145651D01*
X155221984Y-131122380D01*
G36*
X155606311Y-123152623D02*
G01*
X155606311Y-123406666D01*
X154899345Y-123405233D01*
X154192378Y-123403800D01*
X154190859Y-123278212D01*
X154189340Y-123152623D01*
X155606311Y-123152623D01*
G37*
X155606311Y-123152623D02*
X155606311Y-123406666D01*
X154899345Y-123405233D01*
X154192378Y-123403800D01*
X154190859Y-123278212D01*
X154189340Y-123152623D01*
X155606311Y-123152623D01*
G36*
X155606311Y-123609823D02*
G01*
X155606311Y-123863823D01*
X154545156Y-123863823D01*
X154545156Y-123609823D01*
X155606311Y-123609823D01*
G37*
X155606311Y-123609823D02*
X155606311Y-123863823D01*
X154545156Y-123863823D01*
X154545156Y-123609823D01*
X155606311Y-123609823D01*
G36*
X155037804Y-127529889D02*
G01*
X154956580Y-127475397D01*
X154930316Y-127457725D01*
X154896831Y-127435114D01*
X154858231Y-127408991D01*
X154816620Y-127380780D01*
X154774101Y-127351907D01*
X154732779Y-127323797D01*
X154728600Y-127320952D01*
X154691617Y-127295803D01*
X154656870Y-127272251D01*
X154625666Y-127251176D01*
X154599309Y-127233455D01*
X154579104Y-127219968D01*
X154566357Y-127211593D01*
X154563500Y-127209786D01*
X154545156Y-127198574D01*
X154545156Y-127046261D01*
X154545356Y-126997241D01*
X154545943Y-126957269D01*
X154546900Y-126926847D01*
X154548207Y-126906480D01*
X154549846Y-126896668D01*
X154550686Y-126895830D01*
X154556608Y-126899563D01*
X154570310Y-126909052D01*
X154590482Y-126923363D01*
X154615813Y-126941562D01*
X154644993Y-126962713D01*
X154667808Y-126979362D01*
X154739014Y-127031450D01*
X154803695Y-127078743D01*
X154861527Y-127121002D01*
X154912186Y-127157991D01*
X154955344Y-127189473D01*
X154990679Y-127215209D01*
X155017863Y-127234964D01*
X155036572Y-127248499D01*
X155046080Y-127255297D01*
X155064405Y-127268163D01*
X155163941Y-127187360D01*
X155200729Y-127157485D01*
X155242100Y-127123870D01*
X155284651Y-127089282D01*
X155324980Y-127056486D01*
X155357284Y-127030201D01*
X155410070Y-126987245D01*
X155454773Y-126950891D01*
X155492059Y-126920606D01*
X155522591Y-126895858D01*
X155547034Y-126876112D01*
X155566053Y-126860836D01*
X155580312Y-126849495D01*
X155590475Y-126841556D01*
X155597208Y-126836486D01*
X155601175Y-126833751D01*
X155603040Y-126832818D01*
X155603197Y-126832800D01*
X155603971Y-126838216D01*
X155604667Y-126853546D01*
X155605262Y-126877417D01*
X155605732Y-126908455D01*
X155606052Y-126945286D01*
X155606198Y-126986536D01*
X155606202Y-127003545D01*
X155606093Y-127174289D01*
X155511658Y-127242579D01*
X155477560Y-127267271D01*
X155438489Y-127295624D01*
X155396084Y-127326444D01*
X155351980Y-127358538D01*
X155307815Y-127390713D01*
X155265227Y-127421775D01*
X155225853Y-127450531D01*
X155191331Y-127475788D01*
X155163297Y-127496353D01*
X155149902Y-127506217D01*
X155114003Y-127532712D01*
X155606311Y-127532712D01*
X155606311Y-127786712D01*
X154189556Y-127786712D01*
X154189556Y-127532783D01*
X155037804Y-127529889D01*
G37*
X155037804Y-127529889D02*
X154956580Y-127475397D01*
X154930316Y-127457725D01*
X154896831Y-127435114D01*
X154858231Y-127408991D01*
X154816620Y-127380780D01*
X154774101Y-127351907D01*
X154732779Y-127323797D01*
X154728600Y-127320952D01*
X154691617Y-127295803D01*
X154656870Y-127272251D01*
X154625666Y-127251176D01*
X154599309Y-127233455D01*
X154579104Y-127219968D01*
X154566357Y-127211593D01*
X154563500Y-127209786D01*
X154545156Y-127198574D01*
X154545156Y-127046261D01*
X154545356Y-126997241D01*
X154545943Y-126957269D01*
X154546900Y-126926847D01*
X154548207Y-126906480D01*
X154549846Y-126896668D01*
X154550686Y-126895830D01*
X154556608Y-126899563D01*
X154570310Y-126909052D01*
X154590482Y-126923363D01*
X154615813Y-126941562D01*
X154644993Y-126962713D01*
X154667808Y-126979362D01*
X154739014Y-127031450D01*
X154803695Y-127078743D01*
X154861527Y-127121002D01*
X154912186Y-127157991D01*
X154955344Y-127189473D01*
X154990679Y-127215209D01*
X155017863Y-127234964D01*
X155036572Y-127248499D01*
X155046080Y-127255297D01*
X155064405Y-127268163D01*
X155163941Y-127187360D01*
X155200729Y-127157485D01*
X155242100Y-127123870D01*
X155284651Y-127089282D01*
X155324980Y-127056486D01*
X155357284Y-127030201D01*
X155410070Y-126987245D01*
X155454773Y-126950891D01*
X155492059Y-126920606D01*
X155522591Y-126895858D01*
X155547034Y-126876112D01*
X155566053Y-126860836D01*
X155580312Y-126849495D01*
X155590475Y-126841556D01*
X155597208Y-126836486D01*
X155601175Y-126833751D01*
X155603040Y-126832818D01*
X155603197Y-126832800D01*
X155603971Y-126838216D01*
X155604667Y-126853546D01*
X155605262Y-126877417D01*
X155605732Y-126908455D01*
X155606052Y-126945286D01*
X155606198Y-126986536D01*
X155606202Y-127003545D01*
X155606093Y-127174289D01*
X155511658Y-127242579D01*
X155477560Y-127267271D01*
X155438489Y-127295624D01*
X155396084Y-127326444D01*
X155351980Y-127358538D01*
X155307815Y-127390713D01*
X155265227Y-127421775D01*
X155225853Y-127450531D01*
X155191331Y-127475788D01*
X155163297Y-127496353D01*
X155149902Y-127506217D01*
X155114003Y-127532712D01*
X155606311Y-127532712D01*
X155606311Y-127786712D01*
X154189556Y-127786712D01*
X154189556Y-127532783D01*
X155037804Y-127529889D01*
G36*
X154526173Y-129616306D02*
G01*
X154526675Y-129589268D01*
X154527852Y-129568651D01*
X154529968Y-129552025D01*
X154533288Y-129536955D01*
X154538075Y-129521010D01*
X154541393Y-129511089D01*
X154555396Y-129473179D01*
X154569523Y-129442738D01*
X154585738Y-129416096D01*
X154606005Y-129389586D01*
X154607245Y-129388097D01*
X154640049Y-129352837D01*
X154674704Y-129324315D01*
X154713493Y-129301196D01*
X154758696Y-129282144D01*
X154812594Y-129265825D01*
X154818911Y-129264200D01*
X154828449Y-129261908D01*
X154838261Y-129259931D01*
X154849254Y-129258239D01*
X154862335Y-129256802D01*
X154878411Y-129255588D01*
X154898388Y-129254568D01*
X154923173Y-129253711D01*
X154953673Y-129252986D01*
X154990796Y-129252363D01*
X155035447Y-129251812D01*
X155088533Y-129251302D01*
X155150962Y-129250802D01*
X155223641Y-129250282D01*
X155235189Y-129250202D01*
X155606311Y-129247653D01*
X155606311Y-129502623D01*
X155345256Y-129502672D01*
X155258950Y-129502863D01*
X155183124Y-129503468D01*
X155116971Y-129504590D01*
X155059686Y-129506330D01*
X155010463Y-129508791D01*
X154968496Y-129512075D01*
X154932981Y-129516284D01*
X154903111Y-129521519D01*
X154878081Y-129527883D01*
X154857085Y-129535479D01*
X154839317Y-129544407D01*
X154823973Y-129554771D01*
X154810246Y-129566671D01*
X154805883Y-129571006D01*
X154782291Y-129602857D01*
X154766583Y-129640681D01*
X154758710Y-129682418D01*
X154758624Y-129726009D01*
X154766278Y-129769391D01*
X154781624Y-129810505D01*
X154804614Y-129847291D01*
X154812515Y-129856647D01*
X154844296Y-129883785D01*
X154884861Y-129905056D01*
X154933015Y-129919879D01*
X154948469Y-129922930D01*
X154961732Y-129924917D01*
X154977498Y-129926590D01*
X154996759Y-129927974D01*
X155020507Y-129929093D01*
X155049732Y-129929971D01*
X155085425Y-129930633D01*
X155128578Y-129931102D01*
X155180182Y-129931404D01*
X155241228Y-129931561D01*
X155302251Y-129931600D01*
X155606311Y-129931600D01*
X155606311Y-130057660D01*
X155606150Y-130094296D01*
X155605697Y-130127082D01*
X155605002Y-130154356D01*
X155604112Y-130174455D01*
X155603075Y-130185714D01*
X155602548Y-130187482D01*
X155596482Y-130188026D01*
X155579916Y-130188546D01*
X155553641Y-130189037D01*
X155518446Y-130189493D01*
X155475120Y-130189909D01*
X155424453Y-130190279D01*
X155367234Y-130190597D01*
X155304254Y-130190858D01*
X155236302Y-130191057D01*
X155164167Y-130191187D01*
X155088639Y-130191243D01*
X155071858Y-130191245D01*
X154544931Y-130191245D01*
X154546455Y-130071300D01*
X154547978Y-129951356D01*
X154594243Y-129949722D01*
X154640507Y-129948087D01*
X154611304Y-129911447D01*
X154576624Y-129862926D01*
X154550836Y-129814940D01*
X154537817Y-129782023D01*
X154533363Y-129767601D01*
X154530181Y-129752767D01*
X154528066Y-129735263D01*
X154526814Y-129712830D01*
X154526221Y-129683209D01*
X154526083Y-129652200D01*
X154526173Y-129616306D01*
G37*
X154526173Y-129616306D02*
X154526675Y-129589268D01*
X154527852Y-129568651D01*
X154529968Y-129552025D01*
X154533288Y-129536955D01*
X154538075Y-129521010D01*
X154541393Y-129511089D01*
X154555396Y-129473179D01*
X154569523Y-129442738D01*
X154585738Y-129416096D01*
X154606005Y-129389586D01*
X154607245Y-129388097D01*
X154640049Y-129352837D01*
X154674704Y-129324315D01*
X154713493Y-129301196D01*
X154758696Y-129282144D01*
X154812594Y-129265825D01*
X154818911Y-129264200D01*
X154828449Y-129261908D01*
X154838261Y-129259931D01*
X154849254Y-129258239D01*
X154862335Y-129256802D01*
X154878411Y-129255588D01*
X154898388Y-129254568D01*
X154923173Y-129253711D01*
X154953673Y-129252986D01*
X154990796Y-129252363D01*
X155035447Y-129251812D01*
X155088533Y-129251302D01*
X155150962Y-129250802D01*
X155223641Y-129250282D01*
X155235189Y-129250202D01*
X155606311Y-129247653D01*
X155606311Y-129502623D01*
X155345256Y-129502672D01*
X155258950Y-129502863D01*
X155183124Y-129503468D01*
X155116971Y-129504590D01*
X155059686Y-129506330D01*
X155010463Y-129508791D01*
X154968496Y-129512075D01*
X154932981Y-129516284D01*
X154903111Y-129521519D01*
X154878081Y-129527883D01*
X154857085Y-129535479D01*
X154839317Y-129544407D01*
X154823973Y-129554771D01*
X154810246Y-129566671D01*
X154805883Y-129571006D01*
X154782291Y-129602857D01*
X154766583Y-129640681D01*
X154758710Y-129682418D01*
X154758624Y-129726009D01*
X154766278Y-129769391D01*
X154781624Y-129810505D01*
X154804614Y-129847291D01*
X154812515Y-129856647D01*
X154844296Y-129883785D01*
X154884861Y-129905056D01*
X154933015Y-129919879D01*
X154948469Y-129922930D01*
X154961732Y-129924917D01*
X154977498Y-129926590D01*
X154996759Y-129927974D01*
X155020507Y-129929093D01*
X155049732Y-129929971D01*
X155085425Y-129930633D01*
X155128578Y-129931102D01*
X155180182Y-129931404D01*
X155241228Y-129931561D01*
X155302251Y-129931600D01*
X155606311Y-129931600D01*
X155606311Y-130057660D01*
X155606150Y-130094296D01*
X155605697Y-130127082D01*
X155605002Y-130154356D01*
X155604112Y-130174455D01*
X155603075Y-130185714D01*
X155602548Y-130187482D01*
X155596482Y-130188026D01*
X155579916Y-130188546D01*
X155553641Y-130189037D01*
X155518446Y-130189493D01*
X155475120Y-130189909D01*
X155424453Y-130190279D01*
X155367234Y-130190597D01*
X155304254Y-130190858D01*
X155236302Y-130191057D01*
X155164167Y-130191187D01*
X155088639Y-130191243D01*
X155071858Y-130191245D01*
X154544931Y-130191245D01*
X154546455Y-130071300D01*
X154547978Y-129951356D01*
X154594243Y-129949722D01*
X154640507Y-129948087D01*
X154611304Y-129911447D01*
X154576624Y-129862926D01*
X154550836Y-129814940D01*
X154537817Y-129782023D01*
X154533363Y-129767601D01*
X154530181Y-129752767D01*
X154528066Y-129735263D01*
X154526814Y-129712830D01*
X154526221Y-129683209D01*
X154526083Y-129652200D01*
X154526173Y-129616306D01*
G36*
X153662034Y-130919603D02*
G01*
X153664086Y-130880849D01*
X153667488Y-130847743D01*
X153672146Y-130823423D01*
X153698556Y-130744377D01*
X153732250Y-130673726D01*
X153773584Y-130610953D01*
X153822912Y-130555540D01*
X153880589Y-130506970D01*
X153897343Y-130495163D01*
X153945660Y-130466654D01*
X153998847Y-130443829D01*
X154058557Y-130426146D01*
X154126443Y-130413066D01*
X154162824Y-130408215D01*
X154195358Y-130404413D01*
X154193868Y-130586614D01*
X154192378Y-130768814D01*
X154157479Y-130775931D01*
X154114801Y-130787570D01*
X154080177Y-130803960D01*
X154050899Y-130826435D01*
X154046662Y-130830553D01*
X154022401Y-130862346D01*
X154006046Y-130899811D01*
X153997521Y-130940792D01*
X153996754Y-130983133D01*
X154003669Y-131024676D01*
X154018192Y-131063267D01*
X154040250Y-131096748D01*
X154056379Y-131112901D01*
X154068067Y-131121319D01*
X154085142Y-131131914D01*
X154096423Y-131138297D01*
X154110811Y-131145487D01*
X154124048Y-131150009D01*
X154139466Y-131152467D01*
X154160397Y-131153463D01*
X154181089Y-131153614D01*
X154208341Y-131153285D01*
X154227673Y-131151902D01*
X154242446Y-131148873D01*
X154256020Y-131143605D01*
X154265868Y-131138659D01*
X154293444Y-131120044D01*
X154321052Y-131094500D01*
X154345040Y-131065769D01*
X154359135Y-131043073D01*
X154366439Y-131027371D01*
X154376178Y-131004537D01*
X154386902Y-130978041D01*
X154394278Y-130959016D01*
X154404563Y-130931971D01*
X154414451Y-130906023D01*
X154422610Y-130884663D01*
X154426615Y-130874223D01*
X154432694Y-130858418D01*
X154441522Y-130835457D01*
X154451799Y-130808721D01*
X154459941Y-130787533D01*
X154489503Y-130716120D01*
X154519742Y-130654511D01*
X154551529Y-130601225D01*
X154585737Y-130554779D01*
X154617797Y-130519135D01*
X154675353Y-130468238D01*
X154737993Y-130427336D01*
X154805967Y-130396309D01*
X154879526Y-130375039D01*
X154940445Y-130365199D01*
X155018818Y-130361923D01*
X155097157Y-130369098D01*
X155173989Y-130386243D01*
X155247839Y-130412877D01*
X155317235Y-130448520D01*
X155380701Y-130492690D01*
X155410608Y-130518623D01*
X155460700Y-130570173D01*
X155502337Y-130623822D01*
X155536266Y-130681121D01*
X155563238Y-130743624D01*
X155584001Y-130812883D01*
X155599305Y-130890451D01*
X155603246Y-130917848D01*
X155604590Y-130933052D01*
X155602458Y-130940597D01*
X155595617Y-130943889D01*
X155593659Y-130944319D01*
X155584814Y-130945123D01*
X155566276Y-130946082D01*
X155539638Y-130947140D01*
X155506494Y-130948238D01*
X155468437Y-130949320D01*
X155427061Y-130950329D01*
X155424219Y-130950392D01*
X155376518Y-130951355D01*
X155338998Y-130951872D01*
X155310557Y-130951916D01*
X155290096Y-130951459D01*
X155276515Y-130950475D01*
X155268711Y-130948936D01*
X155265586Y-130946817D01*
X155265466Y-130946498D01*
X155263591Y-130937382D01*
X155260723Y-130920819D01*
X155257743Y-130902078D01*
X155244906Y-130854287D01*
X155222265Y-130810592D01*
X155191030Y-130772610D01*
X155152410Y-130741957D01*
X155127960Y-130728573D01*
X155111797Y-130721552D01*
X155097303Y-130717117D01*
X155081085Y-130714721D01*
X155059749Y-130713819D01*
X155036223Y-130713809D01*
X154993624Y-130715969D01*
X154958489Y-130722410D01*
X154927469Y-130734167D01*
X154897217Y-130752273D01*
X154886645Y-130759957D01*
X154870817Y-130773095D01*
X154855980Y-130788295D01*
X154841610Y-130806561D01*
X154827177Y-130828897D01*
X154812156Y-130856308D01*
X154796019Y-130889798D01*
X154778240Y-130930372D01*
X154758292Y-130979033D01*
X154735647Y-131036786D01*
X154720089Y-131077423D01*
X154695040Y-131140358D01*
X154671019Y-131194021D01*
X154646942Y-131240231D01*
X154621724Y-131280805D01*
X154594283Y-131317562D01*
X154563534Y-131352319D01*
X154545135Y-131370934D01*
X154488129Y-131419042D01*
X154425665Y-131457363D01*
X154358250Y-131485694D01*
X154286391Y-131503833D01*
X154210593Y-131511578D01*
X154192378Y-131511868D01*
X154115640Y-131506479D01*
X154042293Y-131490681D01*
X153973039Y-131465030D01*
X153908579Y-131430081D01*
X153849615Y-131386389D01*
X153796848Y-131334509D01*
X153750980Y-131274998D01*
X153712712Y-131208409D01*
X153682745Y-131135298D01*
X153672042Y-131100000D01*
X153667334Y-131075049D01*
X153663980Y-131041730D01*
X153661979Y-131002848D01*
X153661331Y-130961204D01*
X153662034Y-130919603D01*
G37*
X153662034Y-130919603D02*
X153664086Y-130880849D01*
X153667488Y-130847743D01*
X153672146Y-130823423D01*
X153698556Y-130744377D01*
X153732250Y-130673726D01*
X153773584Y-130610953D01*
X153822912Y-130555540D01*
X153880589Y-130506970D01*
X153897343Y-130495163D01*
X153945660Y-130466654D01*
X153998847Y-130443829D01*
X154058557Y-130426146D01*
X154126443Y-130413066D01*
X154162824Y-130408215D01*
X154195358Y-130404413D01*
X154193868Y-130586614D01*
X154192378Y-130768814D01*
X154157479Y-130775931D01*
X154114801Y-130787570D01*
X154080177Y-130803960D01*
X154050899Y-130826435D01*
X154046662Y-130830553D01*
X154022401Y-130862346D01*
X154006046Y-130899811D01*
X153997521Y-130940792D01*
X153996754Y-130983133D01*
X154003669Y-131024676D01*
X154018192Y-131063267D01*
X154040250Y-131096748D01*
X154056379Y-131112901D01*
X154068067Y-131121319D01*
X154085142Y-131131914D01*
X154096423Y-131138297D01*
X154110811Y-131145487D01*
X154124048Y-131150009D01*
X154139466Y-131152467D01*
X154160397Y-131153463D01*
X154181089Y-131153614D01*
X154208341Y-131153285D01*
X154227673Y-131151902D01*
X154242446Y-131148873D01*
X154256020Y-131143605D01*
X154265868Y-131138659D01*
X154293444Y-131120044D01*
X154321052Y-131094500D01*
X154345040Y-131065769D01*
X154359135Y-131043073D01*
X154366439Y-131027371D01*
X154376178Y-131004537D01*
X154386902Y-130978041D01*
X154394278Y-130959016D01*
X154404563Y-130931971D01*
X154414451Y-130906023D01*
X154422610Y-130884663D01*
X154426615Y-130874223D01*
X154432694Y-130858418D01*
X154441522Y-130835457D01*
X154451799Y-130808721D01*
X154459941Y-130787533D01*
X154489503Y-130716120D01*
X154519742Y-130654511D01*
X154551529Y-130601225D01*
X154585737Y-130554779D01*
X154617797Y-130519135D01*
X154675353Y-130468238D01*
X154737993Y-130427336D01*
X154805967Y-130396309D01*
X154879526Y-130375039D01*
X154940445Y-130365199D01*
X155018818Y-130361923D01*
X155097157Y-130369098D01*
X155173989Y-130386243D01*
X155247839Y-130412877D01*
X155317235Y-130448520D01*
X155380701Y-130492690D01*
X155410608Y-130518623D01*
X155460700Y-130570173D01*
X155502337Y-130623822D01*
X155536266Y-130681121D01*
X155563238Y-130743624D01*
X155584001Y-130812883D01*
X155599305Y-130890451D01*
X155603246Y-130917848D01*
X155604590Y-130933052D01*
X155602458Y-130940597D01*
X155595617Y-130943889D01*
X155593659Y-130944319D01*
X155584814Y-130945123D01*
X155566276Y-130946082D01*
X155539638Y-130947140D01*
X155506494Y-130948238D01*
X155468437Y-130949320D01*
X155427061Y-130950329D01*
X155424219Y-130950392D01*
X155376518Y-130951355D01*
X155338998Y-130951872D01*
X155310557Y-130951916D01*
X155290096Y-130951459D01*
X155276515Y-130950475D01*
X155268711Y-130948936D01*
X155265586Y-130946817D01*
X155265466Y-130946498D01*
X155263591Y-130937382D01*
X155260723Y-130920819D01*
X155257743Y-130902078D01*
X155244906Y-130854287D01*
X155222265Y-130810592D01*
X155191030Y-130772610D01*
X155152410Y-130741957D01*
X155127960Y-130728573D01*
X155111797Y-130721552D01*
X155097303Y-130717117D01*
X155081085Y-130714721D01*
X155059749Y-130713819D01*
X155036223Y-130713809D01*
X154993624Y-130715969D01*
X154958489Y-130722410D01*
X154927469Y-130734167D01*
X154897217Y-130752273D01*
X154886645Y-130759957D01*
X154870817Y-130773095D01*
X154855980Y-130788295D01*
X154841610Y-130806561D01*
X154827177Y-130828897D01*
X154812156Y-130856308D01*
X154796019Y-130889798D01*
X154778240Y-130930372D01*
X154758292Y-130979033D01*
X154735647Y-131036786D01*
X154720089Y-131077423D01*
X154695040Y-131140358D01*
X154671019Y-131194021D01*
X154646942Y-131240231D01*
X154621724Y-131280805D01*
X154594283Y-131317562D01*
X154563534Y-131352319D01*
X154545135Y-131370934D01*
X154488129Y-131419042D01*
X154425665Y-131457363D01*
X154358250Y-131485694D01*
X154286391Y-131503833D01*
X154210593Y-131511578D01*
X154192378Y-131511868D01*
X154115640Y-131506479D01*
X154042293Y-131490681D01*
X153973039Y-131465030D01*
X153908579Y-131430081D01*
X153849615Y-131386389D01*
X153796848Y-131334509D01*
X153750980Y-131274998D01*
X153712712Y-131208409D01*
X153682745Y-131135298D01*
X153672042Y-131100000D01*
X153667334Y-131075049D01*
X153663980Y-131041730D01*
X153661979Y-131002848D01*
X153661331Y-130961204D01*
X153662034Y-130919603D01*
G36*
X153647208Y-118186923D02*
G01*
X153649754Y-118184897D01*
X153657704Y-118183269D01*
X153671983Y-118182006D01*
X153693515Y-118181071D01*
X153723227Y-118180428D01*
X153762042Y-118180043D01*
X153810887Y-118179879D01*
X153831134Y-118179867D01*
X154014578Y-118179867D01*
X154014578Y-118224918D01*
X154019569Y-118296408D01*
X154033965Y-118369034D01*
X154056906Y-118440339D01*
X154087530Y-118507867D01*
X154124974Y-118569162D01*
X154144369Y-118594734D01*
X154149882Y-118600622D01*
X154162918Y-118614051D01*
X154183026Y-118634569D01*
X154209760Y-118661721D01*
X154242669Y-118695056D01*
X154281305Y-118734120D01*
X154325219Y-118778461D01*
X154373963Y-118827626D01*
X154427088Y-118881161D01*
X154484144Y-118938614D01*
X154544683Y-118999533D01*
X154608257Y-119063463D01*
X154674416Y-119129953D01*
X154742711Y-119198550D01*
X154756904Y-119212800D01*
X154840661Y-119296897D01*
X154916825Y-119373388D01*
X154985776Y-119442662D01*
X155047890Y-119505106D01*
X155103548Y-119561108D01*
X155153126Y-119611058D01*
X155197004Y-119655344D01*
X155235560Y-119694352D01*
X155269173Y-119728473D01*
X155298220Y-119758094D01*
X155323080Y-119783602D01*
X155344132Y-119805388D01*
X155361753Y-119823838D01*
X155376323Y-119839341D01*
X155388220Y-119852285D01*
X155397821Y-119863058D01*
X155405507Y-119872049D01*
X155411654Y-119879646D01*
X155416641Y-119886237D01*
X155420847Y-119892211D01*
X155424562Y-119897820D01*
X155433985Y-119911953D01*
X155440995Y-119921726D01*
X155442939Y-119924000D01*
X155450038Y-119932940D01*
X155460873Y-119949903D01*
X155474281Y-119972744D01*
X155489096Y-119999318D01*
X155504156Y-120027478D01*
X155518296Y-120055080D01*
X155530351Y-120079976D01*
X155539157Y-120100022D01*
X155540937Y-120104623D01*
X155563267Y-120168109D01*
X155580485Y-120224650D01*
X155593218Y-120277026D01*
X155602088Y-120328017D01*
X155607720Y-120380402D01*
X155609663Y-120410834D01*
X155613598Y-120488445D01*
X155246730Y-120488445D01*
X155242814Y-120427881D01*
X155233249Y-120351937D01*
X155214291Y-120280195D01*
X155185268Y-120210518D01*
X155159835Y-120163889D01*
X155144537Y-120139493D01*
X155127866Y-120114919D01*
X155112859Y-120094601D01*
X155109562Y-120090512D01*
X155102954Y-120083344D01*
X155088818Y-120068651D01*
X155067608Y-120046891D01*
X155039779Y-120018523D01*
X155005785Y-119984005D01*
X154966080Y-119943795D01*
X154921117Y-119898352D01*
X154871351Y-119848133D01*
X154817236Y-119793598D01*
X154759225Y-119735205D01*
X154697774Y-119673412D01*
X154633335Y-119608678D01*
X154566362Y-119541460D01*
X154497311Y-119472218D01*
X154475009Y-119449867D01*
X154405450Y-119380106D01*
X154337881Y-119312223D01*
X154272753Y-119246674D01*
X154210515Y-119183919D01*
X154151618Y-119124414D01*
X154096511Y-119068618D01*
X154045646Y-119016988D01*
X153999471Y-118969983D01*
X153958438Y-118928059D01*
X153922997Y-118891675D01*
X153893597Y-118861288D01*
X153870689Y-118837357D01*
X153854723Y-118820338D01*
X153846149Y-118810691D01*
X153845032Y-118809223D01*
X153834412Y-118793712D01*
X153826086Y-118782334D01*
X153822500Y-118778178D01*
X153816643Y-118770842D01*
X153806887Y-118755561D01*
X153794415Y-118734471D01*
X153780413Y-118709706D01*
X153766066Y-118683402D01*
X153752558Y-118657692D01*
X153741074Y-118634712D01*
X153732801Y-118616595D01*
X153732797Y-118616587D01*
X153723616Y-118594717D01*
X153715623Y-118575762D01*
X153710199Y-118562987D01*
X153709287Y-118560867D01*
X153694155Y-118519750D01*
X153680279Y-118470270D01*
X153668141Y-118415325D01*
X153658221Y-118357816D01*
X153651002Y-118300640D01*
X153646963Y-118246697D01*
X153646587Y-118198886D01*
X153647208Y-118186923D01*
G37*
X153647208Y-118186923D02*
X153649754Y-118184897D01*
X153657704Y-118183269D01*
X153671983Y-118182006D01*
X153693515Y-118181071D01*
X153723227Y-118180428D01*
X153762042Y-118180043D01*
X153810887Y-118179879D01*
X153831134Y-118179867D01*
X154014578Y-118179867D01*
X154014578Y-118224918D01*
X154019569Y-118296408D01*
X154033965Y-118369034D01*
X154056906Y-118440339D01*
X154087530Y-118507867D01*
X154124974Y-118569162D01*
X154144369Y-118594734D01*
X154149882Y-118600622D01*
X154162918Y-118614051D01*
X154183026Y-118634569D01*
X154209760Y-118661721D01*
X154242669Y-118695056D01*
X154281305Y-118734120D01*
X154325219Y-118778461D01*
X154373963Y-118827626D01*
X154427088Y-118881161D01*
X154484144Y-118938614D01*
X154544683Y-118999533D01*
X154608257Y-119063463D01*
X154674416Y-119129953D01*
X154742711Y-119198550D01*
X154756904Y-119212800D01*
X154840661Y-119296897D01*
X154916825Y-119373388D01*
X154985776Y-119442662D01*
X155047890Y-119505106D01*
X155103548Y-119561108D01*
X155153126Y-119611058D01*
X155197004Y-119655344D01*
X155235560Y-119694352D01*
X155269173Y-119728473D01*
X155298220Y-119758094D01*
X155323080Y-119783602D01*
X155344132Y-119805388D01*
X155361753Y-119823838D01*
X155376323Y-119839341D01*
X155388220Y-119852285D01*
X155397821Y-119863058D01*
X155405507Y-119872049D01*
X155411654Y-119879646D01*
X155416641Y-119886237D01*
X155420847Y-119892211D01*
X155424562Y-119897820D01*
X155433985Y-119911953D01*
X155440995Y-119921726D01*
X155442939Y-119924000D01*
X155450038Y-119932940D01*
X155460873Y-119949903D01*
X155474281Y-119972744D01*
X155489096Y-119999318D01*
X155504156Y-120027478D01*
X155518296Y-120055080D01*
X155530351Y-120079976D01*
X155539157Y-120100022D01*
X155540937Y-120104623D01*
X155563267Y-120168109D01*
X155580485Y-120224650D01*
X155593218Y-120277026D01*
X155602088Y-120328017D01*
X155607720Y-120380402D01*
X155609663Y-120410834D01*
X155613598Y-120488445D01*
X155246730Y-120488445D01*
X155242814Y-120427881D01*
X155233249Y-120351937D01*
X155214291Y-120280195D01*
X155185268Y-120210518D01*
X155159835Y-120163889D01*
X155144537Y-120139493D01*
X155127866Y-120114919D01*
X155112859Y-120094601D01*
X155109562Y-120090512D01*
X155102954Y-120083344D01*
X155088818Y-120068651D01*
X155067608Y-120046891D01*
X155039779Y-120018523D01*
X155005785Y-119984005D01*
X154966080Y-119943795D01*
X154921117Y-119898352D01*
X154871351Y-119848133D01*
X154817236Y-119793598D01*
X154759225Y-119735205D01*
X154697774Y-119673412D01*
X154633335Y-119608678D01*
X154566362Y-119541460D01*
X154497311Y-119472218D01*
X154475009Y-119449867D01*
X154405450Y-119380106D01*
X154337881Y-119312223D01*
X154272753Y-119246674D01*
X154210515Y-119183919D01*
X154151618Y-119124414D01*
X154096511Y-119068618D01*
X154045646Y-119016988D01*
X153999471Y-118969983D01*
X153958438Y-118928059D01*
X153922997Y-118891675D01*
X153893597Y-118861288D01*
X153870689Y-118837357D01*
X153854723Y-118820338D01*
X153846149Y-118810691D01*
X153845032Y-118809223D01*
X153834412Y-118793712D01*
X153826086Y-118782334D01*
X153822500Y-118778178D01*
X153816643Y-118770842D01*
X153806887Y-118755561D01*
X153794415Y-118734471D01*
X153780413Y-118709706D01*
X153766066Y-118683402D01*
X153752558Y-118657692D01*
X153741074Y-118634712D01*
X153732801Y-118616595D01*
X153732797Y-118616587D01*
X153723616Y-118594717D01*
X153715623Y-118575762D01*
X153710199Y-118562987D01*
X153709287Y-118560867D01*
X153694155Y-118519750D01*
X153680279Y-118470270D01*
X153668141Y-118415325D01*
X153658221Y-118357816D01*
X153651002Y-118300640D01*
X153646963Y-118246697D01*
X153646587Y-118198886D01*
X153647208Y-118186923D01*
G36*
X154718362Y-121458240D02*
G01*
X154729470Y-121446268D01*
X154747050Y-121427897D01*
X154770335Y-121403913D01*
X154798562Y-121375098D01*
X154830966Y-121342235D01*
X154866782Y-121306108D01*
X154905245Y-121267500D01*
X154910670Y-121262068D01*
X154960843Y-121211676D01*
X155003501Y-121168413D01*
X155039281Y-121131597D01*
X155068821Y-121100548D01*
X155092756Y-121074586D01*
X155111725Y-121053028D01*
X155126364Y-121035195D01*
X155137310Y-121020405D01*
X155138801Y-121018217D01*
X155178650Y-120951908D01*
X155208326Y-120885874D01*
X155228629Y-120817748D01*
X155240361Y-120745160D01*
X155243080Y-120709989D01*
X155246809Y-120640845D01*
X155611956Y-120640845D01*
X155611128Y-120695878D01*
X155610300Y-120725609D01*
X155608821Y-120756603D01*
X155606965Y-120783463D01*
X155606325Y-120790423D01*
X155602987Y-120816676D01*
X155598053Y-120847091D01*
X155592201Y-120878167D01*
X155586106Y-120906403D01*
X155580447Y-120928299D01*
X155578506Y-120934356D01*
X155574459Y-120946553D01*
X155568370Y-120965689D01*
X155561466Y-120987896D01*
X155560574Y-120990800D01*
X155554201Y-121008621D01*
X155544345Y-121032627D01*
X155532015Y-121060701D01*
X155518216Y-121090726D01*
X155503957Y-121120587D01*
X155490246Y-121148167D01*
X155478089Y-121171349D01*
X155468495Y-121188017D01*
X155463187Y-121195399D01*
X155456175Y-121204394D01*
X155446621Y-121218713D01*
X155442709Y-121225045D01*
X155433926Y-121239069D01*
X155427360Y-121248565D01*
X155425724Y-121250445D01*
X155420944Y-121255987D01*
X155411238Y-121268214D01*
X155398455Y-121284785D01*
X155394522Y-121289956D01*
X155384957Y-121301298D01*
X155368285Y-121319637D01*
X155345420Y-121344022D01*
X155317275Y-121373503D01*
X155284762Y-121407132D01*
X155248794Y-121443959D01*
X155210285Y-121483034D01*
X155170147Y-121523408D01*
X155168453Y-121525103D01*
X154970203Y-121723561D01*
X154842346Y-121595614D01*
X154811256Y-121564362D01*
X154782895Y-121535585D01*
X154758213Y-121510269D01*
X154738160Y-121489397D01*
X154723684Y-121473955D01*
X154715736Y-121464925D01*
X154714489Y-121463032D01*
X154718362Y-121458240D01*
G37*
X154718362Y-121458240D02*
X154729470Y-121446268D01*
X154747050Y-121427897D01*
X154770335Y-121403913D01*
X154798562Y-121375098D01*
X154830966Y-121342235D01*
X154866782Y-121306108D01*
X154905245Y-121267500D01*
X154910670Y-121262068D01*
X154960843Y-121211676D01*
X155003501Y-121168413D01*
X155039281Y-121131597D01*
X155068821Y-121100548D01*
X155092756Y-121074586D01*
X155111725Y-121053028D01*
X155126364Y-121035195D01*
X155137310Y-121020405D01*
X155138801Y-121018217D01*
X155178650Y-120951908D01*
X155208326Y-120885874D01*
X155228629Y-120817748D01*
X155240361Y-120745160D01*
X155243080Y-120709989D01*
X155246809Y-120640845D01*
X155611956Y-120640845D01*
X155611128Y-120695878D01*
X155610300Y-120725609D01*
X155608821Y-120756603D01*
X155606965Y-120783463D01*
X155606325Y-120790423D01*
X155602987Y-120816676D01*
X155598053Y-120847091D01*
X155592201Y-120878167D01*
X155586106Y-120906403D01*
X155580447Y-120928299D01*
X155578506Y-120934356D01*
X155574459Y-120946553D01*
X155568370Y-120965689D01*
X155561466Y-120987896D01*
X155560574Y-120990800D01*
X155554201Y-121008621D01*
X155544345Y-121032627D01*
X155532015Y-121060701D01*
X155518216Y-121090726D01*
X155503957Y-121120587D01*
X155490246Y-121148167D01*
X155478089Y-121171349D01*
X155468495Y-121188017D01*
X155463187Y-121195399D01*
X155456175Y-121204394D01*
X155446621Y-121218713D01*
X155442709Y-121225045D01*
X155433926Y-121239069D01*
X155427360Y-121248565D01*
X155425724Y-121250445D01*
X155420944Y-121255987D01*
X155411238Y-121268214D01*
X155398455Y-121284785D01*
X155394522Y-121289956D01*
X155384957Y-121301298D01*
X155368285Y-121319637D01*
X155345420Y-121344022D01*
X155317275Y-121373503D01*
X155284762Y-121407132D01*
X155248794Y-121443959D01*
X155210285Y-121483034D01*
X155170147Y-121523408D01*
X155168453Y-121525103D01*
X154970203Y-121723561D01*
X154842346Y-121595614D01*
X154811256Y-121564362D01*
X154782895Y-121535585D01*
X154758213Y-121510269D01*
X154738160Y-121489397D01*
X154723684Y-121473955D01*
X154715736Y-121464925D01*
X154714489Y-121463032D01*
X154718362Y-121458240D01*
G36*
X153830109Y-120642179D02*
G01*
X154014578Y-120640691D01*
X154014578Y-120682996D01*
X154019543Y-120752654D01*
X154033827Y-120824004D01*
X154056508Y-120894447D01*
X154086669Y-120961381D01*
X154123390Y-121022208D01*
X154144369Y-121050067D01*
X154149882Y-121055956D01*
X154162918Y-121069385D01*
X154183026Y-121089902D01*
X154209760Y-121117055D01*
X154242669Y-121150389D01*
X154281305Y-121189454D01*
X154325219Y-121233794D01*
X154373963Y-121282959D01*
X154427088Y-121336494D01*
X154484144Y-121393947D01*
X154544683Y-121454866D01*
X154608257Y-121518796D01*
X154674416Y-121585286D01*
X154742711Y-121653883D01*
X154756904Y-121668134D01*
X154840661Y-121752231D01*
X154916825Y-121828722D01*
X154985776Y-121897995D01*
X155047890Y-121960439D01*
X155103548Y-122016442D01*
X155153126Y-122066392D01*
X155197004Y-122110677D01*
X155235560Y-122149686D01*
X155269173Y-122183806D01*
X155298220Y-122213427D01*
X155323080Y-122238936D01*
X155344132Y-122260721D01*
X155361753Y-122279171D01*
X155376323Y-122294674D01*
X155388220Y-122307618D01*
X155397821Y-122318391D01*
X155405507Y-122327383D01*
X155411654Y-122334980D01*
X155416641Y-122341571D01*
X155420847Y-122347544D01*
X155424562Y-122353153D01*
X155433985Y-122367286D01*
X155440995Y-122377059D01*
X155442939Y-122379334D01*
X155450038Y-122388273D01*
X155460873Y-122405236D01*
X155474281Y-122428077D01*
X155489096Y-122454651D01*
X155504156Y-122482812D01*
X155518296Y-122510413D01*
X155530351Y-122535310D01*
X155539157Y-122555356D01*
X155540937Y-122559956D01*
X155563267Y-122623442D01*
X155580485Y-122679983D01*
X155593218Y-122732360D01*
X155602088Y-122783351D01*
X155607720Y-122835736D01*
X155609663Y-122866167D01*
X155613598Y-122943778D01*
X155246730Y-122943778D01*
X155242814Y-122883215D01*
X155233249Y-122807271D01*
X155214291Y-122735529D01*
X155185268Y-122665851D01*
X155159835Y-122619223D01*
X155144537Y-122594826D01*
X155127866Y-122570252D01*
X155112859Y-122549934D01*
X155109562Y-122545845D01*
X155102954Y-122538677D01*
X155088818Y-122523984D01*
X155067608Y-122502225D01*
X155039779Y-122473856D01*
X155005785Y-122439338D01*
X154966080Y-122399128D01*
X154921117Y-122353685D01*
X154871351Y-122303467D01*
X154817236Y-122248932D01*
X154759225Y-122190539D01*
X154697774Y-122128746D01*
X154633335Y-122064011D01*
X154566362Y-121996794D01*
X154497311Y-121927551D01*
X154475009Y-121905200D01*
X154405450Y-121835440D01*
X154337881Y-121767556D01*
X154272753Y-121702008D01*
X154210515Y-121639252D01*
X154151618Y-121579748D01*
X154096511Y-121523952D01*
X154045646Y-121472322D01*
X153999471Y-121425316D01*
X153958438Y-121383392D01*
X153922997Y-121347008D01*
X153893597Y-121316621D01*
X153870689Y-121292690D01*
X153854723Y-121275672D01*
X153846149Y-121266024D01*
X153845032Y-121264556D01*
X153834412Y-121249046D01*
X153826086Y-121237668D01*
X153822500Y-121233512D01*
X153816643Y-121226175D01*
X153806887Y-121210894D01*
X153794415Y-121189804D01*
X153780413Y-121165040D01*
X153766066Y-121138735D01*
X153752558Y-121113025D01*
X153741074Y-121090045D01*
X153732801Y-121071929D01*
X153732797Y-121071920D01*
X153723616Y-121050050D01*
X153715623Y-121031095D01*
X153710199Y-121018320D01*
X153709287Y-121016200D01*
X153694583Y-120976412D01*
X153680881Y-120928226D01*
X153668740Y-120874527D01*
X153658718Y-120818198D01*
X153651374Y-120762121D01*
X153647267Y-120709181D01*
X153646727Y-120693354D01*
X153645639Y-120643667D01*
X153830109Y-120642179D01*
G37*
X153830109Y-120642179D02*
X154014578Y-120640691D01*
X154014578Y-120682996D01*
X154019543Y-120752654D01*
X154033827Y-120824004D01*
X154056508Y-120894447D01*
X154086669Y-120961381D01*
X154123390Y-121022208D01*
X154144369Y-121050067D01*
X154149882Y-121055956D01*
X154162918Y-121069385D01*
X154183026Y-121089902D01*
X154209760Y-121117055D01*
X154242669Y-121150389D01*
X154281305Y-121189454D01*
X154325219Y-121233794D01*
X154373963Y-121282959D01*
X154427088Y-121336494D01*
X154484144Y-121393947D01*
X154544683Y-121454866D01*
X154608257Y-121518796D01*
X154674416Y-121585286D01*
X154742711Y-121653883D01*
X154756904Y-121668134D01*
X154840661Y-121752231D01*
X154916825Y-121828722D01*
X154985776Y-121897995D01*
X155047890Y-121960439D01*
X155103548Y-122016442D01*
X155153126Y-122066392D01*
X155197004Y-122110677D01*
X155235560Y-122149686D01*
X155269173Y-122183806D01*
X155298220Y-122213427D01*
X155323080Y-122238936D01*
X155344132Y-122260721D01*
X155361753Y-122279171D01*
X155376323Y-122294674D01*
X155388220Y-122307618D01*
X155397821Y-122318391D01*
X155405507Y-122327383D01*
X155411654Y-122334980D01*
X155416641Y-122341571D01*
X155420847Y-122347544D01*
X155424562Y-122353153D01*
X155433985Y-122367286D01*
X155440995Y-122377059D01*
X155442939Y-122379334D01*
X155450038Y-122388273D01*
X155460873Y-122405236D01*
X155474281Y-122428077D01*
X155489096Y-122454651D01*
X155504156Y-122482812D01*
X155518296Y-122510413D01*
X155530351Y-122535310D01*
X155539157Y-122555356D01*
X155540937Y-122559956D01*
X155563267Y-122623442D01*
X155580485Y-122679983D01*
X155593218Y-122732360D01*
X155602088Y-122783351D01*
X155607720Y-122835736D01*
X155609663Y-122866167D01*
X155613598Y-122943778D01*
X155246730Y-122943778D01*
X155242814Y-122883215D01*
X155233249Y-122807271D01*
X155214291Y-122735529D01*
X155185268Y-122665851D01*
X155159835Y-122619223D01*
X155144537Y-122594826D01*
X155127866Y-122570252D01*
X155112859Y-122549934D01*
X155109562Y-122545845D01*
X155102954Y-122538677D01*
X155088818Y-122523984D01*
X155067608Y-122502225D01*
X155039779Y-122473856D01*
X155005785Y-122439338D01*
X154966080Y-122399128D01*
X154921117Y-122353685D01*
X154871351Y-122303467D01*
X154817236Y-122248932D01*
X154759225Y-122190539D01*
X154697774Y-122128746D01*
X154633335Y-122064011D01*
X154566362Y-121996794D01*
X154497311Y-121927551D01*
X154475009Y-121905200D01*
X154405450Y-121835440D01*
X154337881Y-121767556D01*
X154272753Y-121702008D01*
X154210515Y-121639252D01*
X154151618Y-121579748D01*
X154096511Y-121523952D01*
X154045646Y-121472322D01*
X153999471Y-121425316D01*
X153958438Y-121383392D01*
X153922997Y-121347008D01*
X153893597Y-121316621D01*
X153870689Y-121292690D01*
X153854723Y-121275672D01*
X153846149Y-121266024D01*
X153845032Y-121264556D01*
X153834412Y-121249046D01*
X153826086Y-121237668D01*
X153822500Y-121233512D01*
X153816643Y-121226175D01*
X153806887Y-121210894D01*
X153794415Y-121189804D01*
X153780413Y-121165040D01*
X153766066Y-121138735D01*
X153752558Y-121113025D01*
X153741074Y-121090045D01*
X153732801Y-121071929D01*
X153732797Y-121071920D01*
X153723616Y-121050050D01*
X153715623Y-121031095D01*
X153710199Y-121018320D01*
X153709287Y-121016200D01*
X153694583Y-120976412D01*
X153680881Y-120928226D01*
X153668740Y-120874527D01*
X153658718Y-120818198D01*
X153651374Y-120762121D01*
X153647267Y-120709181D01*
X153646727Y-120693354D01*
X153645639Y-120643667D01*
X153830109Y-120642179D01*
G36*
X154171004Y-124727896D02*
G01*
X154173861Y-124680680D01*
X154178741Y-124639157D01*
X154182993Y-124616728D01*
X154209272Y-124526291D01*
X154244788Y-124442318D01*
X154289483Y-124364893D01*
X154343301Y-124294099D01*
X154406182Y-124230018D01*
X154478069Y-124172735D01*
X154505573Y-124154161D01*
X154579242Y-124113011D01*
X154658610Y-124080633D01*
X154741858Y-124057424D01*
X154827162Y-124043783D01*
X154912703Y-124040108D01*
X154996658Y-124046796D01*
X154996711Y-124046804D01*
X155042357Y-124054134D01*
X155080839Y-124062130D01*
X155116276Y-124071881D01*
X155152786Y-124084479D01*
X155181885Y-124095858D01*
X155263168Y-124134656D01*
X155337658Y-124182237D01*
X155404881Y-124238030D01*
X155464362Y-124301466D01*
X155515629Y-124371974D01*
X155558207Y-124448983D01*
X155591624Y-124531923D01*
X155614805Y-124617356D01*
X155619131Y-124644828D01*
X155622596Y-124680398D01*
X155625093Y-124720901D01*
X155626516Y-124763170D01*
X155626756Y-124804039D01*
X155625708Y-124840344D01*
X155623314Y-124868534D01*
X155606193Y-124956157D01*
X155578797Y-125040632D01*
X155541773Y-125121011D01*
X155495770Y-125196346D01*
X155441437Y-125265690D01*
X155379423Y-125328093D01*
X155310376Y-125382608D01*
X155243316Y-125423844D01*
X155167435Y-125458840D01*
X155086597Y-125485086D01*
X155003025Y-125502131D01*
X154918942Y-125509524D01*
X154879654Y-125508232D01*
X154879654Y-125241178D01*
X154932002Y-125240664D01*
X154981375Y-125235966D01*
X155015524Y-125229299D01*
X155085980Y-125205767D01*
X155150287Y-125173040D01*
X155207832Y-125131749D01*
X155258005Y-125082527D01*
X155300194Y-125026004D01*
X155333787Y-124962814D01*
X155358175Y-124893589D01*
X155364318Y-124868534D01*
X155371069Y-124822301D01*
X155373058Y-124770272D01*
X155370400Y-124716835D01*
X155363211Y-124666373D01*
X155358469Y-124645578D01*
X155335676Y-124579758D01*
X155303356Y-124518842D01*
X155262393Y-124463927D01*
X155213669Y-124416110D01*
X155158067Y-124376488D01*
X155129356Y-124360784D01*
X155061863Y-124332897D01*
X154993134Y-124315192D01*
X154924133Y-124307286D01*
X154855824Y-124308796D01*
X154789172Y-124319338D01*
X154725141Y-124338529D01*
X154664694Y-124365986D01*
X154608798Y-124401325D01*
X154558414Y-124444163D01*
X154514509Y-124494118D01*
X154478046Y-124550805D01*
X154449989Y-124613841D01*
X154443518Y-124633401D01*
X154428763Y-124698344D01*
X154423298Y-124764696D01*
X154426422Y-124821261D01*
X154439260Y-124892358D01*
X154459220Y-124955705D01*
X154486977Y-125012819D01*
X154523203Y-125065215D01*
X154546967Y-125092555D01*
X154600751Y-125142172D01*
X154660263Y-125182062D01*
X154725535Y-125212244D01*
X154782824Y-125229631D01*
X154828529Y-125237502D01*
X154879654Y-125241178D01*
X154879654Y-125508232D01*
X154836572Y-125506815D01*
X154834844Y-125506643D01*
X154742048Y-125491996D01*
X154654299Y-125467449D01*
X154572033Y-125433296D01*
X154495683Y-125389833D01*
X154425685Y-125337357D01*
X154362472Y-125276164D01*
X154306481Y-125206549D01*
X154258144Y-125128808D01*
X154246180Y-125105901D01*
X154227165Y-125063180D01*
X154208965Y-125013299D01*
X154192948Y-124960374D01*
X154180482Y-124908520D01*
X154180385Y-124908045D01*
X154174860Y-124870881D01*
X154171474Y-124826280D01*
X154170199Y-124777524D01*
X154171004Y-124727896D01*
G37*
X154171004Y-124727896D02*
X154173861Y-124680680D01*
X154178741Y-124639157D01*
X154182993Y-124616728D01*
X154209272Y-124526291D01*
X154244788Y-124442318D01*
X154289483Y-124364893D01*
X154343301Y-124294099D01*
X154406182Y-124230018D01*
X154478069Y-124172735D01*
X154505573Y-124154161D01*
X154579242Y-124113011D01*
X154658610Y-124080633D01*
X154741858Y-124057424D01*
X154827162Y-124043783D01*
X154912703Y-124040108D01*
X154996658Y-124046796D01*
X154996711Y-124046804D01*
X155042357Y-124054134D01*
X155080839Y-124062130D01*
X155116276Y-124071881D01*
X155152786Y-124084479D01*
X155181885Y-124095858D01*
X155263168Y-124134656D01*
X155337658Y-124182237D01*
X155404881Y-124238030D01*
X155464362Y-124301466D01*
X155515629Y-124371974D01*
X155558207Y-124448983D01*
X155591624Y-124531923D01*
X155614805Y-124617356D01*
X155619131Y-124644828D01*
X155622596Y-124680398D01*
X155625093Y-124720901D01*
X155626516Y-124763170D01*
X155626756Y-124804039D01*
X155625708Y-124840344D01*
X155623314Y-124868534D01*
X155606193Y-124956157D01*
X155578797Y-125040632D01*
X155541773Y-125121011D01*
X155495770Y-125196346D01*
X155441437Y-125265690D01*
X155379423Y-125328093D01*
X155310376Y-125382608D01*
X155243316Y-125423844D01*
X155167435Y-125458840D01*
X155086597Y-125485086D01*
X155003025Y-125502131D01*
X154918942Y-125509524D01*
X154879654Y-125508232D01*
X154879654Y-125241178D01*
X154932002Y-125240664D01*
X154981375Y-125235966D01*
X155015524Y-125229299D01*
X155085980Y-125205767D01*
X155150287Y-125173040D01*
X155207832Y-125131749D01*
X155258005Y-125082527D01*
X155300194Y-125026004D01*
X155333787Y-124962814D01*
X155358175Y-124893589D01*
X155364318Y-124868534D01*
X155371069Y-124822301D01*
X155373058Y-124770272D01*
X155370400Y-124716835D01*
X155363211Y-124666373D01*
X155358469Y-124645578D01*
X155335676Y-124579758D01*
X155303356Y-124518842D01*
X155262393Y-124463927D01*
X155213669Y-124416110D01*
X155158067Y-124376488D01*
X155129356Y-124360784D01*
X155061863Y-124332897D01*
X154993134Y-124315192D01*
X154924133Y-124307286D01*
X154855824Y-124308796D01*
X154789172Y-124319338D01*
X154725141Y-124338529D01*
X154664694Y-124365986D01*
X154608798Y-124401325D01*
X154558414Y-124444163D01*
X154514509Y-124494118D01*
X154478046Y-124550805D01*
X154449989Y-124613841D01*
X154443518Y-124633401D01*
X154428763Y-124698344D01*
X154423298Y-124764696D01*
X154426422Y-124821261D01*
X154439260Y-124892358D01*
X154459220Y-124955705D01*
X154486977Y-125012819D01*
X154523203Y-125065215D01*
X154546967Y-125092555D01*
X154600751Y-125142172D01*
X154660263Y-125182062D01*
X154725535Y-125212244D01*
X154782824Y-125229631D01*
X154828529Y-125237502D01*
X154879654Y-125241178D01*
X154879654Y-125508232D01*
X154836572Y-125506815D01*
X154834844Y-125506643D01*
X154742048Y-125491996D01*
X154654299Y-125467449D01*
X154572033Y-125433296D01*
X154495683Y-125389833D01*
X154425685Y-125337357D01*
X154362472Y-125276164D01*
X154306481Y-125206549D01*
X154258144Y-125128808D01*
X154246180Y-125105901D01*
X154227165Y-125063180D01*
X154208965Y-125013299D01*
X154192948Y-124960374D01*
X154180482Y-124908520D01*
X154180385Y-124908045D01*
X154174860Y-124870881D01*
X154171474Y-124826280D01*
X154170199Y-124777524D01*
X154171004Y-124727896D01*
G36*
X154524864Y-126110551D02*
G01*
X154527849Y-126082312D01*
X154544244Y-126008083D01*
X154570750Y-125938086D01*
X154606728Y-125873119D01*
X154651537Y-125813976D01*
X154704537Y-125761455D01*
X154765085Y-125716350D01*
X154832543Y-125679459D01*
X154862259Y-125666809D01*
X154911203Y-125649836D01*
X154959329Y-125638159D01*
X155010196Y-125631155D01*
X155067360Y-125628204D01*
X155084200Y-125628022D01*
X155114664Y-125628174D01*
X155141639Y-125628801D01*
X155162858Y-125629813D01*
X155176057Y-125631120D01*
X155178745Y-125631768D01*
X155180630Y-125633059D01*
X155182260Y-125635788D01*
X155183653Y-125640725D01*
X155184827Y-125648641D01*
X155185801Y-125660307D01*
X155186594Y-125676492D01*
X155187223Y-125697967D01*
X155187709Y-125725503D01*
X155188068Y-125759871D01*
X155188320Y-125801840D01*
X155188482Y-125852181D01*
X155188575Y-125911666D01*
X155188615Y-125981063D01*
X155188623Y-126043013D01*
X155188623Y-126450202D01*
X155204145Y-126446392D01*
X155236014Y-126434661D01*
X155269486Y-126415685D01*
X155300408Y-126391932D01*
X155308462Y-126384349D01*
X155341866Y-126344461D01*
X155366480Y-126299415D01*
X155382634Y-126248309D01*
X155390657Y-126190246D01*
X155391726Y-126157473D01*
X155388327Y-126102161D01*
X155377456Y-126054038D01*
X155358405Y-126011255D01*
X155330467Y-125971961D01*
X155313793Y-125953899D01*
X155290223Y-125930130D01*
X155290223Y-125652351D01*
X155302923Y-125656284D01*
X155341020Y-125672143D01*
X155382500Y-125696680D01*
X155425489Y-125728584D01*
X155468111Y-125766542D01*
X155485499Y-125784024D01*
X155527508Y-125832433D01*
X155560887Y-125881921D01*
X155587326Y-125935507D01*
X155608515Y-125996212D01*
X155612833Y-126011534D01*
X155617628Y-126035717D01*
X155621582Y-126068089D01*
X155624553Y-126105574D01*
X155626398Y-126145093D01*
X155626975Y-126183570D01*
X155626142Y-126217927D01*
X155623758Y-126245086D01*
X155623657Y-126245778D01*
X155607013Y-126322921D01*
X155580728Y-126395867D01*
X155545507Y-126463766D01*
X155502054Y-126525765D01*
X155451073Y-126581014D01*
X155393269Y-126628661D01*
X155329345Y-126667856D01*
X155260005Y-126697747D01*
X155245951Y-126702407D01*
X155169907Y-126720660D01*
X155092911Y-126728093D01*
X155016108Y-126724956D01*
X154962845Y-126715454D01*
X154962845Y-126460176D01*
X154962845Y-125878129D01*
X154950145Y-125881695D01*
X154924819Y-125891051D01*
X154896493Y-125904996D01*
X154868915Y-125921367D01*
X154845834Y-125938004D01*
X154834677Y-125948304D01*
X154804885Y-125985785D01*
X154783092Y-126025725D01*
X154768617Y-126070087D01*
X154760781Y-126120832D01*
X154758835Y-126167026D01*
X154759118Y-126198358D01*
X154760569Y-126222250D01*
X154763699Y-126242530D01*
X154769018Y-126263027D01*
X154773495Y-126277093D01*
X154795465Y-126328705D01*
X154824663Y-126371992D01*
X154861797Y-126407694D01*
X154907573Y-126436555D01*
X154938856Y-126450649D01*
X154962845Y-126460176D01*
X154962845Y-126715454D01*
X154940647Y-126711493D01*
X154867675Y-126687953D01*
X154798338Y-126654583D01*
X154733784Y-126611629D01*
X154702175Y-126585307D01*
X154659808Y-126541330D01*
X154620389Y-126488992D01*
X154585667Y-126431155D01*
X154557389Y-126370685D01*
X154539671Y-126319156D01*
X154532485Y-126285538D01*
X154527235Y-126244319D01*
X154524096Y-126199048D01*
X154523247Y-126153275D01*
X154524864Y-126110551D01*
G37*
X154524864Y-126110551D02*
X154527849Y-126082312D01*
X154544244Y-126008083D01*
X154570750Y-125938086D01*
X154606728Y-125873119D01*
X154651537Y-125813976D01*
X154704537Y-125761455D01*
X154765085Y-125716350D01*
X154832543Y-125679459D01*
X154862259Y-125666809D01*
X154911203Y-125649836D01*
X154959329Y-125638159D01*
X155010196Y-125631155D01*
X155067360Y-125628204D01*
X155084200Y-125628022D01*
X155114664Y-125628174D01*
X155141639Y-125628801D01*
X155162858Y-125629813D01*
X155176057Y-125631120D01*
X155178745Y-125631768D01*
X155180630Y-125633059D01*
X155182260Y-125635788D01*
X155183653Y-125640725D01*
X155184827Y-125648641D01*
X155185801Y-125660307D01*
X155186594Y-125676492D01*
X155187223Y-125697967D01*
X155187709Y-125725503D01*
X155188068Y-125759871D01*
X155188320Y-125801840D01*
X155188482Y-125852181D01*
X155188575Y-125911666D01*
X155188615Y-125981063D01*
X155188623Y-126043013D01*
X155188623Y-126450202D01*
X155204145Y-126446392D01*
X155236014Y-126434661D01*
X155269486Y-126415685D01*
X155300408Y-126391932D01*
X155308462Y-126384349D01*
X155341866Y-126344461D01*
X155366480Y-126299415D01*
X155382634Y-126248309D01*
X155390657Y-126190246D01*
X155391726Y-126157473D01*
X155388327Y-126102161D01*
X155377456Y-126054038D01*
X155358405Y-126011255D01*
X155330467Y-125971961D01*
X155313793Y-125953899D01*
X155290223Y-125930130D01*
X155290223Y-125652351D01*
X155302923Y-125656284D01*
X155341020Y-125672143D01*
X155382500Y-125696680D01*
X155425489Y-125728584D01*
X155468111Y-125766542D01*
X155485499Y-125784024D01*
X155527508Y-125832433D01*
X155560887Y-125881921D01*
X155587326Y-125935507D01*
X155608515Y-125996212D01*
X155612833Y-126011534D01*
X155617628Y-126035717D01*
X155621582Y-126068089D01*
X155624553Y-126105574D01*
X155626398Y-126145093D01*
X155626975Y-126183570D01*
X155626142Y-126217927D01*
X155623758Y-126245086D01*
X155623657Y-126245778D01*
X155607013Y-126322921D01*
X155580728Y-126395867D01*
X155545507Y-126463766D01*
X155502054Y-126525765D01*
X155451073Y-126581014D01*
X155393269Y-126628661D01*
X155329345Y-126667856D01*
X155260005Y-126697747D01*
X155245951Y-126702407D01*
X155169907Y-126720660D01*
X155092911Y-126728093D01*
X155016108Y-126724956D01*
X154962845Y-126715454D01*
X154962845Y-126460176D01*
X154962845Y-125878129D01*
X154950145Y-125881695D01*
X154924819Y-125891051D01*
X154896493Y-125904996D01*
X154868915Y-125921367D01*
X154845834Y-125938004D01*
X154834677Y-125948304D01*
X154804885Y-125985785D01*
X154783092Y-126025725D01*
X154768617Y-126070087D01*
X154760781Y-126120832D01*
X154758835Y-126167026D01*
X154759118Y-126198358D01*
X154760569Y-126222250D01*
X154763699Y-126242530D01*
X154769018Y-126263027D01*
X154773495Y-126277093D01*
X154795465Y-126328705D01*
X154824663Y-126371992D01*
X154861797Y-126407694D01*
X154907573Y-126436555D01*
X154938856Y-126450649D01*
X154962845Y-126460176D01*
X154962845Y-126715454D01*
X154940647Y-126711493D01*
X154867675Y-126687953D01*
X154798338Y-126654583D01*
X154733784Y-126611629D01*
X154702175Y-126585307D01*
X154659808Y-126541330D01*
X154620389Y-126488992D01*
X154585667Y-126431155D01*
X154557389Y-126370685D01*
X154539671Y-126319156D01*
X154532485Y-126285538D01*
X154527235Y-126244319D01*
X154524096Y-126199048D01*
X154523247Y-126153275D01*
X154524864Y-126110551D01*
G36*
X154525659Y-128517084D02*
G01*
X154526211Y-128488721D01*
X154527447Y-128466892D01*
X154529588Y-128449220D01*
X154532850Y-128433329D01*
X154537454Y-128416842D01*
X154538561Y-128413245D01*
X154559314Y-128359454D01*
X154586883Y-128311693D01*
X154623192Y-128266804D01*
X154635714Y-128253789D01*
X154679254Y-128210045D01*
X154545156Y-128210045D01*
X154545156Y-127972978D01*
X155606311Y-127972978D01*
X155606311Y-128210045D01*
X155537167Y-128210217D01*
X155507292Y-128210567D01*
X155487856Y-128211498D01*
X155478018Y-128213097D01*
X155476941Y-128215447D01*
X155478039Y-128216219D01*
X155489669Y-128225775D01*
X155505538Y-128242540D01*
X155523819Y-128264204D01*
X155542681Y-128288458D01*
X155560298Y-128312990D01*
X155574839Y-128335492D01*
X155580776Y-128345999D01*
X155598037Y-128381952D01*
X155610422Y-128416040D01*
X155618708Y-128451558D01*
X155623674Y-128491797D01*
X155626026Y-128537423D01*
X155626518Y-128568882D01*
X155626283Y-128599305D01*
X155625391Y-128625360D01*
X155623912Y-128643715D01*
X155623782Y-128644667D01*
X155616478Y-128680910D01*
X155604728Y-128722109D01*
X155589979Y-128764104D01*
X155573678Y-128802737D01*
X155559029Y-128830934D01*
X155515458Y-128893836D01*
X155464320Y-128948612D01*
X155406196Y-128994947D01*
X155341669Y-129032526D01*
X155271320Y-129061034D01*
X155195731Y-129080159D01*
X155115483Y-129089584D01*
X155084579Y-129090415D01*
X155084579Y-128830934D01*
X155146891Y-128826148D01*
X155203261Y-128811982D01*
X155253296Y-128788724D01*
X155296600Y-128756662D01*
X155332780Y-128716084D01*
X155361441Y-128667278D01*
X155381076Y-128614497D01*
X155387423Y-128582275D01*
X155390693Y-128543454D01*
X155390836Y-128502308D01*
X155387803Y-128463114D01*
X155383131Y-128436348D01*
X155365481Y-128384711D01*
X155338607Y-128338618D01*
X155303427Y-128299235D01*
X155260857Y-128267725D01*
X155242671Y-128257929D01*
X155184024Y-128234170D01*
X155126449Y-128221055D01*
X155068173Y-128218306D01*
X155021603Y-128223093D01*
X154961521Y-128237904D01*
X154908112Y-128261309D01*
X154861944Y-128292655D01*
X154823584Y-128331286D01*
X154793602Y-128376546D01*
X154772566Y-128427781D01*
X154761044Y-128484336D01*
X154758936Y-128525783D01*
X154763476Y-128584574D01*
X154776489Y-128636636D01*
X154798461Y-128683217D01*
X154829878Y-128725566D01*
X154841489Y-128737906D01*
X154885939Y-128775173D01*
X154936175Y-128802900D01*
X154992369Y-128821155D01*
X155054697Y-128830003D01*
X155084579Y-128830934D01*
X155084579Y-129090415D01*
X155078556Y-129090578D01*
X154998059Y-129085651D01*
X154920899Y-129071140D01*
X154848082Y-129047449D01*
X154780612Y-129014983D01*
X154719495Y-128974148D01*
X154665736Y-128925348D01*
X154664142Y-128923653D01*
X154633885Y-128889291D01*
X154609920Y-128856793D01*
X154589207Y-128821672D01*
X154573359Y-128789579D01*
X154556673Y-128751838D01*
X154544279Y-128718480D01*
X154535578Y-128686560D01*
X154529973Y-128653134D01*
X154526864Y-128615256D01*
X154525655Y-128569982D01*
X154525573Y-128554356D01*
X154525659Y-128517084D01*
G37*
X154525659Y-128517084D02*
X154526211Y-128488721D01*
X154527447Y-128466892D01*
X154529588Y-128449220D01*
X154532850Y-128433329D01*
X154537454Y-128416842D01*
X154538561Y-128413245D01*
X154559314Y-128359454D01*
X154586883Y-128311693D01*
X154623192Y-128266804D01*
X154635714Y-128253789D01*
X154679254Y-128210045D01*
X154545156Y-128210045D01*
X154545156Y-127972978D01*
X155606311Y-127972978D01*
X155606311Y-128210045D01*
X155537167Y-128210217D01*
X155507292Y-128210567D01*
X155487856Y-128211498D01*
X155478018Y-128213097D01*
X155476941Y-128215447D01*
X155478039Y-128216219D01*
X155489669Y-128225775D01*
X155505538Y-128242540D01*
X155523819Y-128264204D01*
X155542681Y-128288458D01*
X155560298Y-128312990D01*
X155574839Y-128335492D01*
X155580776Y-128345999D01*
X155598037Y-128381952D01*
X155610422Y-128416040D01*
X155618708Y-128451558D01*
X155623674Y-128491797D01*
X155626026Y-128537423D01*
X155626518Y-128568882D01*
X155626283Y-128599305D01*
X155625391Y-128625360D01*
X155623912Y-128643715D01*
X155623782Y-128644667D01*
X155616478Y-128680910D01*
X155604728Y-128722109D01*
X155589979Y-128764104D01*
X155573678Y-128802737D01*
X155559029Y-128830934D01*
X155515458Y-128893836D01*
X155464320Y-128948612D01*
X155406196Y-128994947D01*
X155341669Y-129032526D01*
X155271320Y-129061034D01*
X155195731Y-129080159D01*
X155115483Y-129089584D01*
X155084579Y-129090415D01*
X155084579Y-128830934D01*
X155146891Y-128826148D01*
X155203261Y-128811982D01*
X155253296Y-128788724D01*
X155296600Y-128756662D01*
X155332780Y-128716084D01*
X155361441Y-128667278D01*
X155381076Y-128614497D01*
X155387423Y-128582275D01*
X155390693Y-128543454D01*
X155390836Y-128502308D01*
X155387803Y-128463114D01*
X155383131Y-128436348D01*
X155365481Y-128384711D01*
X155338607Y-128338618D01*
X155303427Y-128299235D01*
X155260857Y-128267725D01*
X155242671Y-128257929D01*
X155184024Y-128234170D01*
X155126449Y-128221055D01*
X155068173Y-128218306D01*
X155021603Y-128223093D01*
X154961521Y-128237904D01*
X154908112Y-128261309D01*
X154861944Y-128292655D01*
X154823584Y-128331286D01*
X154793602Y-128376546D01*
X154772566Y-128427781D01*
X154761044Y-128484336D01*
X154758936Y-128525783D01*
X154763476Y-128584574D01*
X154776489Y-128636636D01*
X154798461Y-128683217D01*
X154829878Y-128725566D01*
X154841489Y-128737906D01*
X154885939Y-128775173D01*
X154936175Y-128802900D01*
X154992369Y-128821155D01*
X155054697Y-128830003D01*
X155084579Y-128830934D01*
X155084579Y-129090415D01*
X155078556Y-129090578D01*
X154998059Y-129085651D01*
X154920899Y-129071140D01*
X154848082Y-129047449D01*
X154780612Y-129014983D01*
X154719495Y-128974148D01*
X154665736Y-128925348D01*
X154664142Y-128923653D01*
X154633885Y-128889291D01*
X154609920Y-128856793D01*
X154589207Y-128821672D01*
X154573359Y-128789579D01*
X154556673Y-128751838D01*
X154544279Y-128718480D01*
X154535578Y-128686560D01*
X154529973Y-128653134D01*
X154526864Y-128615256D01*
X154525655Y-128569982D01*
X154525573Y-128554356D01*
X154525659Y-128517084D01*
D13*
%TO.C,J3*%
X145250000Y-120920000D02*
X144750000Y-120420000D01*
X144750000Y-121420000D02*
X145250000Y-120920000D01*
X149750000Y-120920000D02*
X150250000Y-121420000D01*
X150250000Y-120420000D02*
X149750000Y-120920000D01*
X144750000Y-131670000D02*
X144750000Y-118170000D01*
X150250000Y-131670000D02*
X144750000Y-131670000D01*
X150250000Y-118170000D02*
X150250000Y-131670000D01*
X144750000Y-118170000D02*
X150250000Y-118170000D01*
D14*
X146916666Y-122452380D02*
X146916666Y-123166666D01*
X146869047Y-123309523D01*
X146773809Y-123404761D01*
X146630952Y-123452380D01*
X146535714Y-123452380D01*
X147297619Y-122452380D02*
X147916666Y-122452380D01*
X147583333Y-122833333D01*
X147726190Y-122833333D01*
X147821428Y-122880952D01*
X147869047Y-122928571D01*
X147916666Y-123023809D01*
X147916666Y-123261904D01*
X147869047Y-123357142D01*
X147821428Y-123404761D01*
X147726190Y-123452380D01*
X147440476Y-123452380D01*
X147345238Y-123404761D01*
X147297619Y-123357142D01*
X146714285Y-121777142D02*
X146666666Y-121824761D01*
X146523809Y-121872380D01*
X146428571Y-121872380D01*
X146285714Y-121824761D01*
X146190476Y-121729523D01*
X146142857Y-121634285D01*
X146095238Y-121443809D01*
X146095238Y-121300952D01*
X146142857Y-121110476D01*
X146190476Y-121015238D01*
X146285714Y-120920000D01*
X146428571Y-120872380D01*
X146523809Y-120872380D01*
X146666666Y-120920000D01*
X146714285Y-120967619D01*
X147333333Y-120872380D02*
X147523809Y-120872380D01*
X147619047Y-120920000D01*
X147714285Y-121015238D01*
X147761904Y-121205714D01*
X147761904Y-121539047D01*
X147714285Y-121729523D01*
X147619047Y-121824761D01*
X147523809Y-121872380D01*
X147333333Y-121872380D01*
X147238095Y-121824761D01*
X147142857Y-121729523D01*
X147095238Y-121539047D01*
X147095238Y-121205714D01*
X147142857Y-121015238D01*
X147238095Y-120920000D01*
X147333333Y-120872380D01*
X148190476Y-121872380D02*
X148190476Y-120872380D01*
X148523809Y-121586666D01*
X148857142Y-120872380D01*
X148857142Y-121872380D01*
X146690476Y-127122380D02*
X146690476Y-126122380D01*
X147261904Y-127122380D01*
X147261904Y-126122380D01*
X147928571Y-126122380D02*
X148119047Y-126122380D01*
X148214285Y-126170000D01*
X148309523Y-126265238D01*
X148357142Y-126455714D01*
X148357142Y-126789047D01*
X148309523Y-126979523D01*
X148214285Y-127074761D01*
X148119047Y-127122380D01*
X147928571Y-127122380D01*
X147833333Y-127074761D01*
X147738095Y-126979523D01*
X147690476Y-126789047D01*
X147690476Y-126455714D01*
X147738095Y-126265238D01*
X147833333Y-126170000D01*
X147928571Y-126122380D01*
X146714285Y-129122380D02*
X146714285Y-128122380D01*
X147285714Y-129122380D01*
X147285714Y-128122380D01*
X148333333Y-129027142D02*
X148285714Y-129074761D01*
X148142857Y-129122380D01*
X148047619Y-129122380D01*
X147904761Y-129074761D01*
X147809523Y-128979523D01*
X147761904Y-128884285D01*
X147714285Y-128693809D01*
X147714285Y-128550952D01*
X147761904Y-128360476D01*
X147809523Y-128265238D01*
X147904761Y-128170000D01*
X148047619Y-128122380D01*
X148142857Y-128122380D01*
X148285714Y-128170000D01*
X148333333Y-128217619D01*
%TD*%
M02*
