G04 #@! TF.GenerationSoftware,KiCad,Pcbnew,5.1.9+dfsg1-1+deb11u1*
G04 #@! TF.CreationDate,2023-07-17T20:14:54+09:00*
G04 #@! TF.ProjectId,hole-size-test,686f6c65-2d73-4697-9a65-2d746573742e,rev?*
G04 #@! TF.SameCoordinates,Original*
G04 #@! TF.FileFunction,Legend,Bot*
G04 #@! TF.FilePolarity,Positive*
%FSLAX46Y46*%
G04 Gerber Fmt 4.6, Leading zero omitted, Abs format (unit mm)*
G04 Created by KiCad (PCBNEW 5.1.9+dfsg1-1+deb11u1) date 2023-07-17 20:14:54*
%MOMM*%
%LPD*%
G01*
G04 APERTURE LIST*
%ADD10C,0.150000*%
%ADD11C,0.250000*%
%ADD12C,0.100000*%
G04 APERTURE END LIST*
D10*
X101380952Y-95452380D02*
X101952380Y-95452380D01*
X101666666Y-95452380D02*
X101666666Y-94452380D01*
X101761904Y-94595238D01*
X101857142Y-94690476D01*
X101952380Y-94738095D01*
X100952380Y-95357142D02*
X100904761Y-95404761D01*
X100952380Y-95452380D01*
X101000000Y-95404761D01*
X100952380Y-95357142D01*
X100952380Y-95452380D01*
X100047619Y-94785714D02*
X100047619Y-95452380D01*
X100285714Y-94404761D02*
X100523809Y-95119047D01*
X99904761Y-95119047D01*
X99619047Y-94452380D02*
X98952380Y-94452380D01*
X99380952Y-95452380D01*
X98095238Y-94452380D02*
X98571428Y-94452380D01*
X98619047Y-94928571D01*
X98571428Y-94880952D01*
X98476190Y-94833333D01*
X98238095Y-94833333D01*
X98142857Y-94880952D01*
X98095238Y-94928571D01*
X98047619Y-95023809D01*
X98047619Y-95261904D01*
X98095238Y-95357142D01*
X98142857Y-95404761D01*
X98238095Y-95452380D01*
X98476190Y-95452380D01*
X98571428Y-95404761D01*
X98619047Y-95357142D01*
X91380952Y-95452380D02*
X91952380Y-95452380D01*
X91666666Y-95452380D02*
X91666666Y-94452380D01*
X91761904Y-94595238D01*
X91857142Y-94690476D01*
X91952380Y-94738095D01*
X90952380Y-95357142D02*
X90904761Y-95404761D01*
X90952380Y-95452380D01*
X91000000Y-95404761D01*
X90952380Y-95357142D01*
X90952380Y-95452380D01*
X90047619Y-94785714D02*
X90047619Y-95452380D01*
X90285714Y-94404761D02*
X90523809Y-95119047D01*
X89904761Y-95119047D01*
X89047619Y-94452380D02*
X89523809Y-94452380D01*
X89571428Y-94928571D01*
X89523809Y-94880952D01*
X89428571Y-94833333D01*
X89190476Y-94833333D01*
X89095238Y-94880952D01*
X89047619Y-94928571D01*
X89000000Y-95023809D01*
X89000000Y-95261904D01*
X89047619Y-95357142D01*
X89095238Y-95404761D01*
X89190476Y-95452380D01*
X89428571Y-95452380D01*
X89523809Y-95404761D01*
X89571428Y-95357142D01*
X88380952Y-94452380D02*
X88285714Y-94452380D01*
X88190476Y-94500000D01*
X88142857Y-94547619D01*
X88095238Y-94642857D01*
X88047619Y-94833333D01*
X88047619Y-95071428D01*
X88095238Y-95261904D01*
X88142857Y-95357142D01*
X88190476Y-95404761D01*
X88285714Y-95452380D01*
X88380952Y-95452380D01*
X88476190Y-95404761D01*
X88523809Y-95357142D01*
X88571428Y-95261904D01*
X88619047Y-95071428D01*
X88619047Y-94833333D01*
X88571428Y-94642857D01*
X88523809Y-94547619D01*
X88476190Y-94500000D01*
X88380952Y-94452380D01*
X81380952Y-95452380D02*
X81952380Y-95452380D01*
X81666666Y-95452380D02*
X81666666Y-94452380D01*
X81761904Y-94595238D01*
X81857142Y-94690476D01*
X81952380Y-94738095D01*
X80952380Y-95357142D02*
X80904761Y-95404761D01*
X80952380Y-95452380D01*
X81000000Y-95404761D01*
X80952380Y-95357142D01*
X80952380Y-95452380D01*
X80047619Y-94785714D02*
X80047619Y-95452380D01*
X80285714Y-94404761D02*
X80523809Y-95119047D01*
X79904761Y-95119047D01*
X79333333Y-94452380D02*
X79238095Y-94452380D01*
X79142857Y-94500000D01*
X79095238Y-94547619D01*
X79047619Y-94642857D01*
X79000000Y-94833333D01*
X79000000Y-95071428D01*
X79047619Y-95261904D01*
X79095238Y-95357142D01*
X79142857Y-95404761D01*
X79238095Y-95452380D01*
X79333333Y-95452380D01*
X79428571Y-95404761D01*
X79476190Y-95357142D01*
X79523809Y-95261904D01*
X79571428Y-95071428D01*
X79571428Y-94833333D01*
X79523809Y-94642857D01*
X79476190Y-94547619D01*
X79428571Y-94500000D01*
X79333333Y-94452380D01*
X78380952Y-94452380D02*
X78285714Y-94452380D01*
X78190476Y-94500000D01*
X78142857Y-94547619D01*
X78095238Y-94642857D01*
X78047619Y-94833333D01*
X78047619Y-95071428D01*
X78095238Y-95261904D01*
X78142857Y-95357142D01*
X78190476Y-95404761D01*
X78285714Y-95452380D01*
X78380952Y-95452380D01*
X78476190Y-95404761D01*
X78523809Y-95357142D01*
X78571428Y-95261904D01*
X78619047Y-95071428D01*
X78619047Y-94833333D01*
X78571428Y-94642857D01*
X78523809Y-94547619D01*
X78476190Y-94500000D01*
X78380952Y-94452380D01*
X141380952Y-95452380D02*
X141952380Y-95452380D01*
X141666666Y-95452380D02*
X141666666Y-94452380D01*
X141761904Y-94595238D01*
X141857142Y-94690476D01*
X141952380Y-94738095D01*
X140952380Y-95357142D02*
X140904761Y-95404761D01*
X140952380Y-95452380D01*
X141000000Y-95404761D01*
X140952380Y-95357142D01*
X140952380Y-95452380D01*
X140047619Y-94452380D02*
X140238095Y-94452380D01*
X140333333Y-94500000D01*
X140380952Y-94547619D01*
X140476190Y-94690476D01*
X140523809Y-94880952D01*
X140523809Y-95261904D01*
X140476190Y-95357142D01*
X140428571Y-95404761D01*
X140333333Y-95452380D01*
X140142857Y-95452380D01*
X140047619Y-95404761D01*
X140000000Y-95357142D01*
X139952380Y-95261904D01*
X139952380Y-95023809D01*
X140000000Y-94928571D01*
X140047619Y-94880952D01*
X140142857Y-94833333D01*
X140333333Y-94833333D01*
X140428571Y-94880952D01*
X140476190Y-94928571D01*
X140523809Y-95023809D01*
X139333333Y-94452380D02*
X139238095Y-94452380D01*
X139142857Y-94500000D01*
X139095238Y-94547619D01*
X139047619Y-94642857D01*
X139000000Y-94833333D01*
X139000000Y-95071428D01*
X139047619Y-95261904D01*
X139095238Y-95357142D01*
X139142857Y-95404761D01*
X139238095Y-95452380D01*
X139333333Y-95452380D01*
X139428571Y-95404761D01*
X139476190Y-95357142D01*
X139523809Y-95261904D01*
X139571428Y-95071428D01*
X139571428Y-94833333D01*
X139523809Y-94642857D01*
X139476190Y-94547619D01*
X139428571Y-94500000D01*
X139333333Y-94452380D01*
X138380952Y-94452380D02*
X138285714Y-94452380D01*
X138190476Y-94500000D01*
X138142857Y-94547619D01*
X138095238Y-94642857D01*
X138047619Y-94833333D01*
X138047619Y-95071428D01*
X138095238Y-95261904D01*
X138142857Y-95357142D01*
X138190476Y-95404761D01*
X138285714Y-95452380D01*
X138380952Y-95452380D01*
X138476190Y-95404761D01*
X138523809Y-95357142D01*
X138571428Y-95261904D01*
X138619047Y-95071428D01*
X138619047Y-94833333D01*
X138571428Y-94642857D01*
X138523809Y-94547619D01*
X138476190Y-94500000D01*
X138380952Y-94452380D01*
X131380952Y-95452380D02*
X131952380Y-95452380D01*
X131666666Y-95452380D02*
X131666666Y-94452380D01*
X131761904Y-94595238D01*
X131857142Y-94690476D01*
X131952380Y-94738095D01*
X130952380Y-95357142D02*
X130904761Y-95404761D01*
X130952380Y-95452380D01*
X131000000Y-95404761D01*
X130952380Y-95357142D01*
X130952380Y-95452380D01*
X130000000Y-94452380D02*
X130476190Y-94452380D01*
X130523809Y-94928571D01*
X130476190Y-94880952D01*
X130380952Y-94833333D01*
X130142857Y-94833333D01*
X130047619Y-94880952D01*
X130000000Y-94928571D01*
X129952380Y-95023809D01*
X129952380Y-95261904D01*
X130000000Y-95357142D01*
X130047619Y-95404761D01*
X130142857Y-95452380D01*
X130380952Y-95452380D01*
X130476190Y-95404761D01*
X130523809Y-95357142D01*
X129619047Y-94452380D02*
X128952380Y-94452380D01*
X129380952Y-95452380D01*
X128095238Y-94452380D02*
X128571428Y-94452380D01*
X128619047Y-94928571D01*
X128571428Y-94880952D01*
X128476190Y-94833333D01*
X128238095Y-94833333D01*
X128142857Y-94880952D01*
X128095238Y-94928571D01*
X128047619Y-95023809D01*
X128047619Y-95261904D01*
X128095238Y-95357142D01*
X128142857Y-95404761D01*
X128238095Y-95452380D01*
X128476190Y-95452380D01*
X128571428Y-95404761D01*
X128619047Y-95357142D01*
X121380952Y-95452380D02*
X121952380Y-95452380D01*
X121666666Y-95452380D02*
X121666666Y-94452380D01*
X121761904Y-94595238D01*
X121857142Y-94690476D01*
X121952380Y-94738095D01*
X120952380Y-95357142D02*
X120904761Y-95404761D01*
X120952380Y-95452380D01*
X121000000Y-95404761D01*
X120952380Y-95357142D01*
X120952380Y-95452380D01*
X120000000Y-94452380D02*
X120476190Y-94452380D01*
X120523809Y-94928571D01*
X120476190Y-94880952D01*
X120380952Y-94833333D01*
X120142857Y-94833333D01*
X120047619Y-94880952D01*
X120000000Y-94928571D01*
X119952380Y-95023809D01*
X119952380Y-95261904D01*
X120000000Y-95357142D01*
X120047619Y-95404761D01*
X120142857Y-95452380D01*
X120380952Y-95452380D01*
X120476190Y-95404761D01*
X120523809Y-95357142D01*
X119047619Y-94452380D02*
X119523809Y-94452380D01*
X119571428Y-94928571D01*
X119523809Y-94880952D01*
X119428571Y-94833333D01*
X119190476Y-94833333D01*
X119095238Y-94880952D01*
X119047619Y-94928571D01*
X119000000Y-95023809D01*
X119000000Y-95261904D01*
X119047619Y-95357142D01*
X119095238Y-95404761D01*
X119190476Y-95452380D01*
X119428571Y-95452380D01*
X119523809Y-95404761D01*
X119571428Y-95357142D01*
X118380952Y-94452380D02*
X118285714Y-94452380D01*
X118190476Y-94500000D01*
X118142857Y-94547619D01*
X118095238Y-94642857D01*
X118047619Y-94833333D01*
X118047619Y-95071428D01*
X118095238Y-95261904D01*
X118142857Y-95357142D01*
X118190476Y-95404761D01*
X118285714Y-95452380D01*
X118380952Y-95452380D01*
X118476190Y-95404761D01*
X118523809Y-95357142D01*
X118571428Y-95261904D01*
X118619047Y-95071428D01*
X118619047Y-94833333D01*
X118571428Y-94642857D01*
X118523809Y-94547619D01*
X118476190Y-94500000D01*
X118380952Y-94452380D01*
X111380952Y-95452380D02*
X111952380Y-95452380D01*
X111666666Y-95452380D02*
X111666666Y-94452380D01*
X111761904Y-94595238D01*
X111857142Y-94690476D01*
X111952380Y-94738095D01*
X110952380Y-95357142D02*
X110904761Y-95404761D01*
X110952380Y-95452380D01*
X111000000Y-95404761D01*
X110952380Y-95357142D01*
X110952380Y-95452380D01*
X110000000Y-94452380D02*
X110476190Y-94452380D01*
X110523809Y-94928571D01*
X110476190Y-94880952D01*
X110380952Y-94833333D01*
X110142857Y-94833333D01*
X110047619Y-94880952D01*
X110000000Y-94928571D01*
X109952380Y-95023809D01*
X109952380Y-95261904D01*
X110000000Y-95357142D01*
X110047619Y-95404761D01*
X110142857Y-95452380D01*
X110380952Y-95452380D01*
X110476190Y-95404761D01*
X110523809Y-95357142D01*
X109333333Y-94452380D02*
X109238095Y-94452380D01*
X109142857Y-94500000D01*
X109095238Y-94547619D01*
X109047619Y-94642857D01*
X109000000Y-94833333D01*
X109000000Y-95071428D01*
X109047619Y-95261904D01*
X109095238Y-95357142D01*
X109142857Y-95404761D01*
X109238095Y-95452380D01*
X109333333Y-95452380D01*
X109428571Y-95404761D01*
X109476190Y-95357142D01*
X109523809Y-95261904D01*
X109571428Y-95071428D01*
X109571428Y-94833333D01*
X109523809Y-94642857D01*
X109476190Y-94547619D01*
X109428571Y-94500000D01*
X109333333Y-94452380D01*
X108380952Y-94452380D02*
X108285714Y-94452380D01*
X108190476Y-94500000D01*
X108142857Y-94547619D01*
X108095238Y-94642857D01*
X108047619Y-94833333D01*
X108047619Y-95071428D01*
X108095238Y-95261904D01*
X108142857Y-95357142D01*
X108190476Y-95404761D01*
X108285714Y-95452380D01*
X108380952Y-95452380D01*
X108476190Y-95404761D01*
X108523809Y-95357142D01*
X108571428Y-95261904D01*
X108619047Y-95071428D01*
X108619047Y-94833333D01*
X108571428Y-94642857D01*
X108523809Y-94547619D01*
X108476190Y-94500000D01*
X108380952Y-94452380D01*
X141952380Y-84547619D02*
X141904761Y-84500000D01*
X141809523Y-84452380D01*
X141571428Y-84452380D01*
X141476190Y-84500000D01*
X141428571Y-84547619D01*
X141380952Y-84642857D01*
X141380952Y-84738095D01*
X141428571Y-84880952D01*
X142000000Y-85452380D01*
X141380952Y-85452380D01*
X140952380Y-85357142D02*
X140904761Y-85404761D01*
X140952380Y-85452380D01*
X141000000Y-85404761D01*
X140952380Y-85357142D01*
X140952380Y-85452380D01*
X140047619Y-84452380D02*
X140238095Y-84452380D01*
X140333333Y-84500000D01*
X140380952Y-84547619D01*
X140476190Y-84690476D01*
X140523809Y-84880952D01*
X140523809Y-85261904D01*
X140476190Y-85357142D01*
X140428571Y-85404761D01*
X140333333Y-85452380D01*
X140142857Y-85452380D01*
X140047619Y-85404761D01*
X140000000Y-85357142D01*
X139952380Y-85261904D01*
X139952380Y-85023809D01*
X140000000Y-84928571D01*
X140047619Y-84880952D01*
X140142857Y-84833333D01*
X140333333Y-84833333D01*
X140428571Y-84880952D01*
X140476190Y-84928571D01*
X140523809Y-85023809D01*
X139333333Y-84452380D02*
X139238095Y-84452380D01*
X139142857Y-84500000D01*
X139095238Y-84547619D01*
X139047619Y-84642857D01*
X139000000Y-84833333D01*
X139000000Y-85071428D01*
X139047619Y-85261904D01*
X139095238Y-85357142D01*
X139142857Y-85404761D01*
X139238095Y-85452380D01*
X139333333Y-85452380D01*
X139428571Y-85404761D01*
X139476190Y-85357142D01*
X139523809Y-85261904D01*
X139571428Y-85071428D01*
X139571428Y-84833333D01*
X139523809Y-84642857D01*
X139476190Y-84547619D01*
X139428571Y-84500000D01*
X139333333Y-84452380D01*
X138380952Y-84452380D02*
X138285714Y-84452380D01*
X138190476Y-84500000D01*
X138142857Y-84547619D01*
X138095238Y-84642857D01*
X138047619Y-84833333D01*
X138047619Y-85071428D01*
X138095238Y-85261904D01*
X138142857Y-85357142D01*
X138190476Y-85404761D01*
X138285714Y-85452380D01*
X138380952Y-85452380D01*
X138476190Y-85404761D01*
X138523809Y-85357142D01*
X138571428Y-85261904D01*
X138619047Y-85071428D01*
X138619047Y-84833333D01*
X138571428Y-84642857D01*
X138523809Y-84547619D01*
X138476190Y-84500000D01*
X138380952Y-84452380D01*
X131952380Y-84547619D02*
X131904761Y-84500000D01*
X131809523Y-84452380D01*
X131571428Y-84452380D01*
X131476190Y-84500000D01*
X131428571Y-84547619D01*
X131380952Y-84642857D01*
X131380952Y-84738095D01*
X131428571Y-84880952D01*
X132000000Y-85452380D01*
X131380952Y-85452380D01*
X130952380Y-85357142D02*
X130904761Y-85404761D01*
X130952380Y-85452380D01*
X131000000Y-85404761D01*
X130952380Y-85357142D01*
X130952380Y-85452380D01*
X130000000Y-84452380D02*
X130476190Y-84452380D01*
X130523809Y-84928571D01*
X130476190Y-84880952D01*
X130380952Y-84833333D01*
X130142857Y-84833333D01*
X130047619Y-84880952D01*
X130000000Y-84928571D01*
X129952380Y-85023809D01*
X129952380Y-85261904D01*
X130000000Y-85357142D01*
X130047619Y-85404761D01*
X130142857Y-85452380D01*
X130380952Y-85452380D01*
X130476190Y-85404761D01*
X130523809Y-85357142D01*
X129619047Y-84452380D02*
X128952380Y-84452380D01*
X129380952Y-85452380D01*
X128095238Y-84452380D02*
X128571428Y-84452380D01*
X128619047Y-84928571D01*
X128571428Y-84880952D01*
X128476190Y-84833333D01*
X128238095Y-84833333D01*
X128142857Y-84880952D01*
X128095238Y-84928571D01*
X128047619Y-85023809D01*
X128047619Y-85261904D01*
X128095238Y-85357142D01*
X128142857Y-85404761D01*
X128238095Y-85452380D01*
X128476190Y-85452380D01*
X128571428Y-85404761D01*
X128619047Y-85357142D01*
X121952380Y-84547619D02*
X121904761Y-84500000D01*
X121809523Y-84452380D01*
X121571428Y-84452380D01*
X121476190Y-84500000D01*
X121428571Y-84547619D01*
X121380952Y-84642857D01*
X121380952Y-84738095D01*
X121428571Y-84880952D01*
X122000000Y-85452380D01*
X121380952Y-85452380D01*
X120952380Y-85357142D02*
X120904761Y-85404761D01*
X120952380Y-85452380D01*
X121000000Y-85404761D01*
X120952380Y-85357142D01*
X120952380Y-85452380D01*
X120000000Y-84452380D02*
X120476190Y-84452380D01*
X120523809Y-84928571D01*
X120476190Y-84880952D01*
X120380952Y-84833333D01*
X120142857Y-84833333D01*
X120047619Y-84880952D01*
X120000000Y-84928571D01*
X119952380Y-85023809D01*
X119952380Y-85261904D01*
X120000000Y-85357142D01*
X120047619Y-85404761D01*
X120142857Y-85452380D01*
X120380952Y-85452380D01*
X120476190Y-85404761D01*
X120523809Y-85357142D01*
X119047619Y-84452380D02*
X119523809Y-84452380D01*
X119571428Y-84928571D01*
X119523809Y-84880952D01*
X119428571Y-84833333D01*
X119190476Y-84833333D01*
X119095238Y-84880952D01*
X119047619Y-84928571D01*
X119000000Y-85023809D01*
X119000000Y-85261904D01*
X119047619Y-85357142D01*
X119095238Y-85404761D01*
X119190476Y-85452380D01*
X119428571Y-85452380D01*
X119523809Y-85404761D01*
X119571428Y-85357142D01*
X118380952Y-84452380D02*
X118285714Y-84452380D01*
X118190476Y-84500000D01*
X118142857Y-84547619D01*
X118095238Y-84642857D01*
X118047619Y-84833333D01*
X118047619Y-85071428D01*
X118095238Y-85261904D01*
X118142857Y-85357142D01*
X118190476Y-85404761D01*
X118285714Y-85452380D01*
X118380952Y-85452380D01*
X118476190Y-85404761D01*
X118523809Y-85357142D01*
X118571428Y-85261904D01*
X118619047Y-85071428D01*
X118619047Y-84833333D01*
X118571428Y-84642857D01*
X118523809Y-84547619D01*
X118476190Y-84500000D01*
X118380952Y-84452380D01*
X111952380Y-84547619D02*
X111904761Y-84500000D01*
X111809523Y-84452380D01*
X111571428Y-84452380D01*
X111476190Y-84500000D01*
X111428571Y-84547619D01*
X111380952Y-84642857D01*
X111380952Y-84738095D01*
X111428571Y-84880952D01*
X112000000Y-85452380D01*
X111380952Y-85452380D01*
X110952380Y-85357142D02*
X110904761Y-85404761D01*
X110952380Y-85452380D01*
X111000000Y-85404761D01*
X110952380Y-85357142D01*
X110952380Y-85452380D01*
X110000000Y-84452380D02*
X110476190Y-84452380D01*
X110523809Y-84928571D01*
X110476190Y-84880952D01*
X110380952Y-84833333D01*
X110142857Y-84833333D01*
X110047619Y-84880952D01*
X110000000Y-84928571D01*
X109952380Y-85023809D01*
X109952380Y-85261904D01*
X110000000Y-85357142D01*
X110047619Y-85404761D01*
X110142857Y-85452380D01*
X110380952Y-85452380D01*
X110476190Y-85404761D01*
X110523809Y-85357142D01*
X109333333Y-84452380D02*
X109238095Y-84452380D01*
X109142857Y-84500000D01*
X109095238Y-84547619D01*
X109047619Y-84642857D01*
X109000000Y-84833333D01*
X109000000Y-85071428D01*
X109047619Y-85261904D01*
X109095238Y-85357142D01*
X109142857Y-85404761D01*
X109238095Y-85452380D01*
X109333333Y-85452380D01*
X109428571Y-85404761D01*
X109476190Y-85357142D01*
X109523809Y-85261904D01*
X109571428Y-85071428D01*
X109571428Y-84833333D01*
X109523809Y-84642857D01*
X109476190Y-84547619D01*
X109428571Y-84500000D01*
X109333333Y-84452380D01*
X108380952Y-84452380D02*
X108285714Y-84452380D01*
X108190476Y-84500000D01*
X108142857Y-84547619D01*
X108095238Y-84642857D01*
X108047619Y-84833333D01*
X108047619Y-85071428D01*
X108095238Y-85261904D01*
X108142857Y-85357142D01*
X108190476Y-85404761D01*
X108285714Y-85452380D01*
X108380952Y-85452380D01*
X108476190Y-85404761D01*
X108523809Y-85357142D01*
X108571428Y-85261904D01*
X108619047Y-85071428D01*
X108619047Y-84833333D01*
X108571428Y-84642857D01*
X108523809Y-84547619D01*
X108476190Y-84500000D01*
X108380952Y-84452380D01*
X101952380Y-84547619D02*
X101904761Y-84500000D01*
X101809523Y-84452380D01*
X101571428Y-84452380D01*
X101476190Y-84500000D01*
X101428571Y-84547619D01*
X101380952Y-84642857D01*
X101380952Y-84738095D01*
X101428571Y-84880952D01*
X102000000Y-85452380D01*
X101380952Y-85452380D01*
X100952380Y-85357142D02*
X100904761Y-85404761D01*
X100952380Y-85452380D01*
X101000000Y-85404761D01*
X100952380Y-85357142D01*
X100952380Y-85452380D01*
X100047619Y-84785714D02*
X100047619Y-85452380D01*
X100285714Y-84404761D02*
X100523809Y-85119047D01*
X99904761Y-85119047D01*
X99619047Y-84452380D02*
X98952380Y-84452380D01*
X99380952Y-85452380D01*
X98095238Y-84452380D02*
X98571428Y-84452380D01*
X98619047Y-84928571D01*
X98571428Y-84880952D01*
X98476190Y-84833333D01*
X98238095Y-84833333D01*
X98142857Y-84880952D01*
X98095238Y-84928571D01*
X98047619Y-85023809D01*
X98047619Y-85261904D01*
X98095238Y-85357142D01*
X98142857Y-85404761D01*
X98238095Y-85452380D01*
X98476190Y-85452380D01*
X98571428Y-85404761D01*
X98619047Y-85357142D01*
X91952380Y-84547619D02*
X91904761Y-84500000D01*
X91809523Y-84452380D01*
X91571428Y-84452380D01*
X91476190Y-84500000D01*
X91428571Y-84547619D01*
X91380952Y-84642857D01*
X91380952Y-84738095D01*
X91428571Y-84880952D01*
X92000000Y-85452380D01*
X91380952Y-85452380D01*
X90952380Y-85357142D02*
X90904761Y-85404761D01*
X90952380Y-85452380D01*
X91000000Y-85404761D01*
X90952380Y-85357142D01*
X90952380Y-85452380D01*
X90047619Y-84785714D02*
X90047619Y-85452380D01*
X90285714Y-84404761D02*
X90523809Y-85119047D01*
X89904761Y-85119047D01*
X89047619Y-84452380D02*
X89523809Y-84452380D01*
X89571428Y-84928571D01*
X89523809Y-84880952D01*
X89428571Y-84833333D01*
X89190476Y-84833333D01*
X89095238Y-84880952D01*
X89047619Y-84928571D01*
X89000000Y-85023809D01*
X89000000Y-85261904D01*
X89047619Y-85357142D01*
X89095238Y-85404761D01*
X89190476Y-85452380D01*
X89428571Y-85452380D01*
X89523809Y-85404761D01*
X89571428Y-85357142D01*
X88380952Y-84452380D02*
X88285714Y-84452380D01*
X88190476Y-84500000D01*
X88142857Y-84547619D01*
X88095238Y-84642857D01*
X88047619Y-84833333D01*
X88047619Y-85071428D01*
X88095238Y-85261904D01*
X88142857Y-85357142D01*
X88190476Y-85404761D01*
X88285714Y-85452380D01*
X88380952Y-85452380D01*
X88476190Y-85404761D01*
X88523809Y-85357142D01*
X88571428Y-85261904D01*
X88619047Y-85071428D01*
X88619047Y-84833333D01*
X88571428Y-84642857D01*
X88523809Y-84547619D01*
X88476190Y-84500000D01*
X88380952Y-84452380D01*
X81952380Y-84547619D02*
X81904761Y-84500000D01*
X81809523Y-84452380D01*
X81571428Y-84452380D01*
X81476190Y-84500000D01*
X81428571Y-84547619D01*
X81380952Y-84642857D01*
X81380952Y-84738095D01*
X81428571Y-84880952D01*
X82000000Y-85452380D01*
X81380952Y-85452380D01*
X80952380Y-85357142D02*
X80904761Y-85404761D01*
X80952380Y-85452380D01*
X81000000Y-85404761D01*
X80952380Y-85357142D01*
X80952380Y-85452380D01*
X80047619Y-84785714D02*
X80047619Y-85452380D01*
X80285714Y-84404761D02*
X80523809Y-85119047D01*
X79904761Y-85119047D01*
X79333333Y-84452380D02*
X79238095Y-84452380D01*
X79142857Y-84500000D01*
X79095238Y-84547619D01*
X79047619Y-84642857D01*
X79000000Y-84833333D01*
X79000000Y-85071428D01*
X79047619Y-85261904D01*
X79095238Y-85357142D01*
X79142857Y-85404761D01*
X79238095Y-85452380D01*
X79333333Y-85452380D01*
X79428571Y-85404761D01*
X79476190Y-85357142D01*
X79523809Y-85261904D01*
X79571428Y-85071428D01*
X79571428Y-84833333D01*
X79523809Y-84642857D01*
X79476190Y-84547619D01*
X79428571Y-84500000D01*
X79333333Y-84452380D01*
X78380952Y-84452380D02*
X78285714Y-84452380D01*
X78190476Y-84500000D01*
X78142857Y-84547619D01*
X78095238Y-84642857D01*
X78047619Y-84833333D01*
X78047619Y-85071428D01*
X78095238Y-85261904D01*
X78142857Y-85357142D01*
X78190476Y-85404761D01*
X78285714Y-85452380D01*
X78380952Y-85452380D01*
X78476190Y-85404761D01*
X78523809Y-85357142D01*
X78571428Y-85261904D01*
X78619047Y-85071428D01*
X78619047Y-84833333D01*
X78571428Y-84642857D01*
X78523809Y-84547619D01*
X78476190Y-84500000D01*
X78380952Y-84452380D01*
X151380952Y-95452380D02*
X151952380Y-95452380D01*
X151666666Y-95452380D02*
X151666666Y-94452380D01*
X151761904Y-94595238D01*
X151857142Y-94690476D01*
X151952380Y-94738095D01*
X150952380Y-95357142D02*
X150904761Y-95404761D01*
X150952380Y-95452380D01*
X151000000Y-95404761D01*
X150952380Y-95357142D01*
X150952380Y-95452380D01*
X150047619Y-94452380D02*
X150238095Y-94452380D01*
X150333333Y-94500000D01*
X150380952Y-94547619D01*
X150476190Y-94690476D01*
X150523809Y-94880952D01*
X150523809Y-95261904D01*
X150476190Y-95357142D01*
X150428571Y-95404761D01*
X150333333Y-95452380D01*
X150142857Y-95452380D01*
X150047619Y-95404761D01*
X150000000Y-95357142D01*
X149952380Y-95261904D01*
X149952380Y-95023809D01*
X150000000Y-94928571D01*
X150047619Y-94880952D01*
X150142857Y-94833333D01*
X150333333Y-94833333D01*
X150428571Y-94880952D01*
X150476190Y-94928571D01*
X150523809Y-95023809D01*
X149047619Y-94452380D02*
X149523809Y-94452380D01*
X149571428Y-94928571D01*
X149523809Y-94880952D01*
X149428571Y-94833333D01*
X149190476Y-94833333D01*
X149095238Y-94880952D01*
X149047619Y-94928571D01*
X149000000Y-95023809D01*
X149000000Y-95261904D01*
X149047619Y-95357142D01*
X149095238Y-95404761D01*
X149190476Y-95452380D01*
X149428571Y-95452380D01*
X149523809Y-95404761D01*
X149571428Y-95357142D01*
X148380952Y-94452380D02*
X148285714Y-94452380D01*
X148190476Y-94500000D01*
X148142857Y-94547619D01*
X148095238Y-94642857D01*
X148047619Y-94833333D01*
X148047619Y-95071428D01*
X148095238Y-95261904D01*
X148142857Y-95357142D01*
X148190476Y-95404761D01*
X148285714Y-95452380D01*
X148380952Y-95452380D01*
X148476190Y-95404761D01*
X148523809Y-95357142D01*
X148571428Y-95261904D01*
X148619047Y-95071428D01*
X148619047Y-94833333D01*
X148571428Y-94642857D01*
X148523809Y-94547619D01*
X148476190Y-94500000D01*
X148380952Y-94452380D01*
D11*
X125142857Y-74904761D02*
X125142857Y-72904761D01*
X125142857Y-73857142D02*
X124000000Y-73857142D01*
X124000000Y-74904761D02*
X124000000Y-72904761D01*
X122761904Y-74904761D02*
X122952380Y-74809523D01*
X123047619Y-74714285D01*
X123142857Y-74523809D01*
X123142857Y-73952380D01*
X123047619Y-73761904D01*
X122952380Y-73666666D01*
X122761904Y-73571428D01*
X122476190Y-73571428D01*
X122285714Y-73666666D01*
X122190476Y-73761904D01*
X122095238Y-73952380D01*
X122095238Y-74523809D01*
X122190476Y-74714285D01*
X122285714Y-74809523D01*
X122476190Y-74904761D01*
X122761904Y-74904761D01*
X120952380Y-74904761D02*
X121142857Y-74809523D01*
X121238095Y-74619047D01*
X121238095Y-72904761D01*
X119428571Y-74809523D02*
X119619047Y-74904761D01*
X120000000Y-74904761D01*
X120190476Y-74809523D01*
X120285714Y-74619047D01*
X120285714Y-73857142D01*
X120190476Y-73666666D01*
X120000000Y-73571428D01*
X119619047Y-73571428D01*
X119428571Y-73666666D01*
X119333333Y-73857142D01*
X119333333Y-74047619D01*
X120285714Y-74238095D01*
X117047619Y-74809523D02*
X116857142Y-74904761D01*
X116476190Y-74904761D01*
X116285714Y-74809523D01*
X116190476Y-74619047D01*
X116190476Y-74523809D01*
X116285714Y-74333333D01*
X116476190Y-74238095D01*
X116761904Y-74238095D01*
X116952380Y-74142857D01*
X117047619Y-73952380D01*
X117047619Y-73857142D01*
X116952380Y-73666666D01*
X116761904Y-73571428D01*
X116476190Y-73571428D01*
X116285714Y-73666666D01*
X115333333Y-74904761D02*
X115333333Y-73571428D01*
X115333333Y-72904761D02*
X115428571Y-73000000D01*
X115333333Y-73095238D01*
X115238095Y-73000000D01*
X115333333Y-72904761D01*
X115333333Y-73095238D01*
X114571428Y-73571428D02*
X113523809Y-73571428D01*
X114571428Y-74904761D01*
X113523809Y-74904761D01*
X112000000Y-74809523D02*
X112190476Y-74904761D01*
X112571428Y-74904761D01*
X112761904Y-74809523D01*
X112857142Y-74619047D01*
X112857142Y-73857142D01*
X112761904Y-73666666D01*
X112571428Y-73571428D01*
X112190476Y-73571428D01*
X112000000Y-73666666D01*
X111904761Y-73857142D01*
X111904761Y-74047619D01*
X112857142Y-74238095D01*
X109809523Y-73571428D02*
X109047619Y-73571428D01*
X109523809Y-72904761D02*
X109523809Y-74619047D01*
X109428571Y-74809523D01*
X109238095Y-74904761D01*
X109047619Y-74904761D01*
X107619047Y-74809523D02*
X107809523Y-74904761D01*
X108190476Y-74904761D01*
X108380952Y-74809523D01*
X108476190Y-74619047D01*
X108476190Y-73857142D01*
X108380952Y-73666666D01*
X108190476Y-73571428D01*
X107809523Y-73571428D01*
X107619047Y-73666666D01*
X107523809Y-73857142D01*
X107523809Y-74047619D01*
X108476190Y-74238095D01*
X106761904Y-74809523D02*
X106571428Y-74904761D01*
X106190476Y-74904761D01*
X106000000Y-74809523D01*
X105904761Y-74619047D01*
X105904761Y-74523809D01*
X106000000Y-74333333D01*
X106190476Y-74238095D01*
X106476190Y-74238095D01*
X106666666Y-74142857D01*
X106761904Y-73952380D01*
X106761904Y-73857142D01*
X106666666Y-73666666D01*
X106476190Y-73571428D01*
X106190476Y-73571428D01*
X106000000Y-73666666D01*
X105333333Y-73571428D02*
X104571428Y-73571428D01*
X105047619Y-72904761D02*
X105047619Y-74619047D01*
X104952380Y-74809523D01*
X104761904Y-74904761D01*
X104571428Y-74904761D01*
D10*
X151952380Y-84547619D02*
X151904761Y-84500000D01*
X151809523Y-84452380D01*
X151571428Y-84452380D01*
X151476190Y-84500000D01*
X151428571Y-84547619D01*
X151380952Y-84642857D01*
X151380952Y-84738095D01*
X151428571Y-84880952D01*
X152000000Y-85452380D01*
X151380952Y-85452380D01*
X150952380Y-85357142D02*
X150904761Y-85404761D01*
X150952380Y-85452380D01*
X151000000Y-85404761D01*
X150952380Y-85357142D01*
X150952380Y-85452380D01*
X150047619Y-84452380D02*
X150238095Y-84452380D01*
X150333333Y-84500000D01*
X150380952Y-84547619D01*
X150476190Y-84690476D01*
X150523809Y-84880952D01*
X150523809Y-85261904D01*
X150476190Y-85357142D01*
X150428571Y-85404761D01*
X150333333Y-85452380D01*
X150142857Y-85452380D01*
X150047619Y-85404761D01*
X150000000Y-85357142D01*
X149952380Y-85261904D01*
X149952380Y-85023809D01*
X150000000Y-84928571D01*
X150047619Y-84880952D01*
X150142857Y-84833333D01*
X150333333Y-84833333D01*
X150428571Y-84880952D01*
X150476190Y-84928571D01*
X150523809Y-85023809D01*
X149047619Y-84452380D02*
X149523809Y-84452380D01*
X149571428Y-84928571D01*
X149523809Y-84880952D01*
X149428571Y-84833333D01*
X149190476Y-84833333D01*
X149095238Y-84880952D01*
X149047619Y-84928571D01*
X149000000Y-85023809D01*
X149000000Y-85261904D01*
X149047619Y-85357142D01*
X149095238Y-85404761D01*
X149190476Y-85452380D01*
X149428571Y-85452380D01*
X149523809Y-85404761D01*
X149571428Y-85357142D01*
X148380952Y-84452380D02*
X148285714Y-84452380D01*
X148190476Y-84500000D01*
X148142857Y-84547619D01*
X148095238Y-84642857D01*
X148047619Y-84833333D01*
X148047619Y-85071428D01*
X148095238Y-85261904D01*
X148142857Y-85357142D01*
X148190476Y-85404761D01*
X148285714Y-85452380D01*
X148380952Y-85452380D01*
X148476190Y-85404761D01*
X148523809Y-85357142D01*
X148571428Y-85261904D01*
X148619047Y-85071428D01*
X148619047Y-84833333D01*
X148571428Y-84642857D01*
X148523809Y-84547619D01*
X148476190Y-84500000D01*
X148380952Y-84452380D01*
D12*
G36*
X76000000Y-94000000D02*
G01*
X71000000Y-94000000D01*
X71000000Y-78000000D01*
X76000000Y-78000000D01*
X76000000Y-94000000D01*
G37*
X76000000Y-94000000D02*
X71000000Y-94000000D01*
X71000000Y-78000000D01*
X76000000Y-78000000D01*
X76000000Y-94000000D01*
%LPC*%
M02*
